<?xml version="1.0" encoding="UTF-8" standalone="no"?>
<!-- Created with Inkscape (http://www.inkscape.org/) -->
<svg id="svg2" xmlns:rdf="http://www.w3.org/1999/02/22-rdf-syntax-ns#" xmlns="http://www.w3.org/2000/svg" xml:space="preserve" height="619.03" width="1175.7" version="1.1" xmlns:cc="http://creativecommons.org/ns#" xmlns:dc="http://purl.org/dc/elements/1.1/"><metadata id="metadata8"><rdf:RDF><cc:Work rdf:about=""><dc:format>image/svg+xml</dc:format><dc:type rdf:resource="http://purl.org/dc/dcmitype/StillImage"/><dc:title/></cc:Work></rdf:RDF></metadata><g id="g10" transform="matrix(1.25 0 0 -1.25 0 619.02)"><g id="g12" fill="#474746" transform="scale(.1)"><path id="path14" d="m1223.4 4930.5c76.1 36.6 164.6 21.3 241.3-5.4 42.9-13.1 76-44.4 110.3-71.6 72.9-55.1 125.7-133.51 163-216.01 43.4-118.99 78.4-243.99 73.8-371.79-4.51-66.7 10.7-133.2 1.2-199.8-6.8-65.4-33.3-126.4-47.4-190.3-10-45.3-35.5-84.5-57.6-124.6-3.7-0.4-11.1-1.2-14.8-1.6-30.9 91.5-43.9 188.8-86.5 276.2-28.1 51.2-55.4 103.1-89.1 151-49.6 80.4-103.7 160.8-180.51 217.7-55.09 38.2-110.39 76.6-160.49 121.2-51.1 57.7-75.4 135.2-83.3 210.7 3.5 83.7 51.6 169.4 130.1 204.3"/><path id="path16" d="m328.95 4433.9c64.696 17 131.3 42.4 199.2 29.7 159.5-30.7 318.9-69.9 466.5-139.7 138.5-71.4 250.8-182.3 358.2-293.11 142.2-121.59 218.7-298.29 294.6-464.89 25.9-50 38.5-105.5 62.8-156.3-7.6-6.2-15.2-12.6-22.7-18.9-92.8 141.8-220.3 260.3-362.41 351.9-107.49 55.3-227.89 81.8-346.79 99.3-94.703 2.2-188.7-17.2-280.6-38.9-85.101-26.5-165.2-67.1-249.5-96.1-45.996-11.5-93.101-19.6-140.3-24.5-59.601-5.8-113.21 25.6-164.9 50.2-73.699 47.4-107.6 133.4-135.2 212.7-13.301 65.49-8.1953 133.5 4.1992 198.7 28.102 98 100.8 178.49 189 227.4 41.797 22.3 81.101 51 127.9 62.5"/><path id="path18" d="m8372.6 3798c28.7 107.8 49.7 222.6 118.4 313.8 19.9 26.2 53.3 48.6 87.29 36.6 27.81-13.9 53.61-33.6 73.3-57.8 24.6-51.4 32.71-113.3 11.2-167.4-28.6-80.4-79.29-153.4-145.49-207.4-43.4-45-93.3-82.9-146.91-115-10 65-16.7 133.1 2.21 197.2zm-830.9-111.8c3.29 70.3 21.59 139.8 51.7 203.3 20.69 35 38.19 74.6 72.6 98.5 24.6 18.6 53.3 30.29 81.2 43 91.89-60.5 106.09-192.5 56.89-284.7-36.99-69.2-72.59-142.1-131.6-195.7-42.39-34.2-86.19-69.6-139.49-85.2-10.7 73.7 4.2 147.3 8.7 220.8zm1250.1-365.1c-56.2-55.3-119.9-116.2-203-121.8-54.8-3.3-119.8 4.5-155.6 51.2-37.5 42.4-64.6 99.2-57.91 156.7 45.1 35.6 96.4 63 140.81 99.7 61.79 54.5 126.1 109 169.1 180.3 42.1 72.7 99.1 138.9 120.99 221.6 22.41 70 16.3 148.3-9.49 216.4-44.3 72.3-111.6 137.6-197.7 153.7-107.31 7.6-213.4-23.7-310.1-67.4-81.5-48.8-153.61-121.7-183.3-213.6-29.9-60.9-47.9-126.4-58.2-193.3-36.1-126.4-47.5-258.4-52.8-389.2 9.49-53.1 13.29-108 30.79-159.4-66.2-92.5-167.39-178.8-287.39-175.8-43.91-1.8-91.81-9.8-131.41 14.2-73.8 41-107.59 138.8-76.2 216.6 34.1 34.4 79.71 54.1 117.71 83.7 133.6 107.9 252.1 240.7 319.3 400.4 16.69 67.2 23.6 139.6 4.7 207.2-19.4 52.4-64.9 91.5-114.7 114.2-67.11 25.9-141 15.7-210.9 10.4-135.2-6.8-245.6-103.8-320.2-209.6-57.61-75.8-84.6-168.4-115.3-257.1-19.81-55.9-15.5-115.6-18.11-173.7-10.9-90.8 2.31-182.3 22.31-270.8 6.49-80.6 37.69-156.6 74.6-227.5 32.99-63.5 96.7-99.9 156.89-133.3 21.31-12.3 45.91-17.5 70.51-15.1 67.39 6.3 135.8 12.8 199.49 37.5 81.81 32.1 157.11 78.8 229.01 128.9 57.3 40.6 103.89 94 148.79 147.5 25.41-32.4 59.51-56.5 96.01-74.9 47.1-23.3 92.39-51.4 143.69-65 95.41-19.2 195.8-8.6 285.3 29.7 52.71 23.7 94.71 64.5 135.5 104.4 67.5 74.5 125.3 166.8 126.7 270.3-35-27.4-57.2-67.2-89.89-97.1"/><path id="path20" d="m5869.4 3145.9c-1.7-63.4-4.11-127.4-19.2-189.3-18.11-73.9-30.5-150.6-65.71-218.8-48.89-87.6-196.6-88.1-246.89-2.9-47.4 128.5-43.6 270-17.5 402.8 13.4 62.9 20.8 127.1 40.19 188.6 16.41 52.8 21.3 113.6 62.71 154.5 24.4 24.3 48.1 50.8 78.5 67.8 31.39 16.5 69.4 7.9 97.99-10.1 32.5-38.8 60.8-83.5 67.61-134.7 13.4-85.3 5.1-172.1 2.3-257.9zm-3220.7 439c0.9-155.6-8.1-311.1-22.9-466.1-7.8-67.8-1-136.2-7.3-204.1-60.6 21.4-119.6 46.8-176.8 75.9-64.9 33.3-134.4 56.4-200.4 87.5-65.2 28.9-135 44.7-205 56.7 7.1 62.7 31.7 121.2 44.3 182.7 48.3 146.8 96.9 294 159.7 435.5 54.5 109.3 103.8 222.9 179.7 319.6 78.7 92.4 145.09 200.8 253.5 262.2 4.4-250.2-16.2-499.9-24.8-749.9zm-213.4-756.7c-96.9-35.5-198-56.9-297-85.4-63.81-17.3-129.8-25.1-193.5-42.7 15.3 106.1 21.3 216.1 66.7 314.9 87.8 0.6 169.8-33.4 254-53.6 98.7-23.8 198.1-47.1 293.1-83.9-42.3-13.5-83.3-30.3-123.3-49.3zm-820 151.1c-44.3-102.2-73.5-210-101-317.7-28.4-12.1-55.5-28-85.8-35.3-180.7-34.6-371.4-51.9-549.8 4-38.504 11.4-66.902 45.9-72.902 85.3-5.102 32.2-19 66.6-5.903 98.5 28.7 75.6 94.805 130.3 167.3 161.9 126.71 63.6 270.61 75.6 409.61 87.3 89.8-1.4 179.9 5.6 269.6-3.3-10.3-26.9-20-54.1-31.1-80.7zm7770.2 487.1c-4.9 39.9-36.5 67.8-63.1 94.8-30 28.7-60.6 65.7-106.1 64.9-66.2 12.2-129-19.9-179.31-59.7-29.89-35-54.5-79.7-43.8-127.4 34.71 33.4 66 74.6 114.21 89 43.49 12 85.6-16.5 113.39-47.5 39.2-66.3 11.31-144.7-18-209-38.7-104-136.6-164.9-217.1-233.8-57-49.5-126.39-80.1-189.69-120.1-47.4-28.9-100-47.6-150.21-70.7-83.3-36.2-168.99-69-258.8-84.5-61.6-15.1-125-21.7-185.49-40.9-64.01-14.2-129.3-22.1-194.7-25.1-122.4-16.6-246.1-5.9-369.1-9.3-105.8 2.4-212.1-5.5-317.1 11.5-107.81 16.3-218.11 21.2-322.2 56.2-79.9 20.1-161.9 39.4-244.71 36 26.21 90.2 68.8 174.5 92.71 265.3 30.5 87.8 70.9 171.7 99.9 260.1 62.5 152 115.5 307.7 181.49 458.2 28 88.1 74.3 168.2 117.41 249.5-45.21-7.9-84.5-33.3-126.51-50.1-54.09-26.1-113.3-37.7-171.2-51.8-98.3-25.9-200.39-29.4-300.69-43-93.8-1-197.6 23-281.81-31-80.5-46.3-119.79-142.6-113.19-232.7 10.9-37.1 30.5-71.1 48.3-105.3 17.69-35.7 55.8-53 89.39-70.5 46.01-2.3 97.41-0.9 136.01 28.1 38 28.6 61.9 72 78 115.9 17.29 47.1-3.21 97.5-28.51 137.5 87.1 8.5 170.11 35.5 253.41 60.7-42.9-102.3-117.7-187.5-157.7-291.2-44.2-83.9-85.31-169.6-117.2-259-57.8-138.3-93.4-288.1-181.4-411.7-11.6-14.1-24.5-31.8-44.5-32.6-60.2-7-114.6 38.4-139.9 89.7-25.3 86.9-25.5 178.6-24.2 268.4 4.2 99.7 7.2 199.7 17.8 299 7.39 120.2-9.6 243.9 23.6 361.2-48.2-7.3-96-16.4-143.71-26.6-68.09-13.6-139.69-14.3-203.89-43.3-9.81-26.1-12.2-54.1-14.7-81.6-117.21 56.4-264.1 51.3-375.61-16.7-50-43.5-100-89.3-134.69-146.6-40.9-61.1-66.3-130.7-92.1-199.1-18.61-60-26.8-122.5-41.11-183.6-21.69-103.6-13.19-209.8-24.39-314.5-7.5-87 8.09-175.3-11.81-261.41-37.39-22.39-105.29-35-121.7 18.61-40 131.2-25.99 270.3-35.69 405.3-0.4 109.5 1.3 219.3-9.31 328.4-8 60.4-34.89 118.9-79.79 160.7-48.91 45.5-108.4 89.3-178.4 87.8-101.6 7.2-194.4-44.9-271.2-106.2-47.6-33.1-93.7-68.9-130.4-114.2-23.21 30.1-44.9 66.2-83 78.8-45.9 21.5-97.4 9.5-146 11.5-29.6 1.8-56.8-10.9-84.5-19-84.1-25.5-162.5-67-235.5-115.6 3.5 35.7 8.6 71 13 106.5-31-6.7-61-17.5-91.7-25-97.7-20.8-190-60.7-288.3-79.2-9.9-54.7-8.6-110.3-9.4-165.6-52.5-19.2-104.9-38.7-158.3-54.9-15.4 111.5-5 224.1-7.7 336.1-0.9 106.6 9.3 212.7 13.3 319.1-2.4 73.3-4.8 146.7 0.3 219.9 3.3 146.7 4.3 293.6 15.3 440.1 15.1 117.1 0.9 235.3 12 352.8-28.8 4.6-58 4.6-86.7 8.7-101.9 17.3-205.4-4-303.9-30.1-72.5-23.5-149.6-40.4-212.4-86-63.3-43.6-133.5-78.11-189-132.2-29.8-30.4-53.5-66.2-82.9-97-124.8-125.2-220.5-274.9-317.9-421.4-52.6-76.7-88.7-163.1-139.4-241-106.2-162.4-168.7-347.5-237.5-527.4-99.4 3-199.3 2.2-298-10.7-89.9-14.7-181.8-8.6-271.21-26.7-61.49-7.8-124.19-7.4-184.49-23.4-112.2-26.8-231.8-43.1-327.9-111.7-70.5-43-138.7-95.9-178.8-169.7-29.801-96.8-34.602-207.8 15.398-298.8 50.5-64.1 120.3-112.7 199.3-134.4 91.496-35.4 190.8-24.8 286.4-34.4 62.505-1.8 124.7 7.79 187.2 7.3 108.8-0.8 210.5 43.2 317.9 54.4-81.6-320.5-150.6-644.5-196-972.3-14.9-134.3-11.31-271.5 17.8-403.8 31.9-102.5 85.5-197.81 154-280.4 37.5-47.812 98.9-61.703 150.8-88 54.8-31 119.7-21.699 179.5-33.402 46-2.5 92.4 3.59 138.4-3.699 5.8 8.898 12.1 17.398 18.1 26.101-10.8 42.797-37.3 79.598-51.5 121.1-20.8 52.5-26.2 109.1-43 162.59-29.8 89.311-37.7 183.91-47.9 277.01-4.8 152.8 7.8 305.4 14.7 457.99 12.3 191.7 49.9 380.61 75.2 570.81 18.5 91 26.8 184.5 61.8 271.4 164.2 30.6 321.4 88.5 479.2 141.8 69.3 23.2 131.2 63.9 200.9 86.2 1.4-104.1-21.5-206.8-19.4-310.9-3-170.3 0.8-340.5 0.49-510.8 4.21-76.81-13.69-152.7-10.69-229.5-2.3-139.01-3.1-278.1-11-417 38.2-1.9 73.7 13.2 109.4 24.2 79.7 27.6 163.6 39.1 245.8 56.1 92.7 10.1 180.4 46.6 273.39 55-10.89 76.7-7.89 154.2-5.79 231.3 0.7 49.8-5 99.5-3.7 149.2 7.1 110-1.4 220.5 8.7 330.3 0.3 126.89 17.9 252.9 23.4 379.6 18.4 116.1 11.09 235.5 37.9 350.2 51.2 15.3 99.1 39.4 148.3 60.1-0.8-99.7-4.4-199.5 0.2-299.2 1.2-119.9-4.5-239.7-1.1-359.61-10.8-89.6-11.4-179.89-16.3-270 1.4-15.99-3.9-37.1 11.8-47.79 84.4 17.2 166.3 44.9 250.2 64.5 22.59 6.7 44.1 16.7 66.39 24.4 30.71 51.6 6.91 112.59 13.61 168.7 7.9 83.4 4.4 167 3.6 250.59 3.8 63.01-0.9 125.91-3.1 188.91 1.5 103.4 15.89 206 31.09 308.1 9.51 76.4 60.31 155.9 139.71 172.6 23.4 4.9 49.69 13.6 72.8 3.4 37.6-37.8 42.49-93.5 50.7-143.4 10-109.7 12.1-219.9 14.9-329.9-2.3-181.41 6.4-363.5-16.2-544 67.1 28.7 137 51.7 209.09 63.89 51.3 9.01 100.21 30 153.01 29.21 2.9 109.8 13.6 219 26.99 327.81 11.01 90.39 4.71 181.69 10.81 272.39 1.09 73.3 5.6 146.6-3 219.7 2.1 57.3-13.1 112.7-35.2 165 27.1 28.7 56.9 58.7 98.1 64.2 60.4 17.5 119.7-28.3 139.2-83.6 29.4-105.9 13.5-216.5 16.39-324.7-2.29-84 15.41-166.7 15.31-250.6 1.3-81.4 3.6-167.5 47.4-239.2 18.3-29.1 54-36.8 83.8-49.01 49.2-20.19 103.8-19.19 155.9-14.09 61.5 8.29 125.8 26.7 170.7 72 39.1 41 82.1 78.1 120.1 120.3 25.19-56.8 77.69-94.6 131.6-121.51 61.4-20.79 129.7-13.59 190 7.9 119.6 43.11 218.9 129.11 293.9 230.21 28.39-52.3 75-101.4 135.49-112.5 98.01-0.8 192.71 28.99 282.01 67.4-21.9-45.91-48.8-89.4-67.41-136.8-7.9-12.91-1.09-25 12.61-29.6 59.89 42.9 114.6 94.1 182.79 124.3 136.51 80.6 303.41 110.8 458.61 75.2 77.99-14.8 152.69-43.6 231.5-55.3 160.1-38.2 323.69-60.81 487.7-74.3 96.6-11.11 192.99-24.01 290-31.2 93.49 2.9 187.1-7.1 280.4 2.4 103-4.41 204.1 19.5 303.8 42.1 58.49 16.6 115.89 37.5 175.49 50.8 47.21 8.6 88.21 34.5 132.31 51.8 96.7 35.9 179.79 98.5 269.29 148.3 142.81 82.8 244.11 220.7 311.61 368.8 27.59 51.6 38.79 109.5 57 164.7 20.4 62 0.7 126.7-10.9 188.4"/><path id="path22" d="m6053.7 2022.3c81.51 40.4 173.3 49.39 262.61 57.8 67.5 6.7 135.6-1.71 201.7-15.6 156.49-37.81 316.7-76.5 454.6-163.21 74.39-42.59 137.39-101.79 200.8-158.89 53.7-48.7 98-107.9 125.79-175.2 51.1-107.61-7.29-241.6-105-301.1-113.09-55.9-253.69-49.7-362.79 12.9-98.3 61.8-145.8 171.5-202.8 267.69-36 74.11-75.4 148.21-131.91 209.01-92.6 90.7-198.19 169.1-315.99 223.89-39.4 22.31-84.6 28.8-127.01 42.71"/><path id="path24" d="m5700.6 2012.2c63.4-15.51 126.8-35.91 182.79-70.4 67.71-38.41 135.11-77.3 200.9-119.1 39.5-26.3 72.71-60.5 109.9-89.8 48.8-37.6 84.11-89 127.81-131.9 141.79-151.41 207.1-353.4 263.7-548.3 36.7-111.6 53.4-229.31 49.9-346.7 4.09-163.7-18.01-333.3-101.31-476.9-30.1-42.809-51.99-93.5-97.69-122.7-52.9-47.399-112.41-90.602-183.3-105.4-96.7-6.3008-196.9 16-275.6 74.5-87.8 78.598-146.41 190.9-151.01 309.6-1.69 86.992-4.29 177.4 28.4 259.7 16.91 46.297 29.21 94.598 53.21 138 45.2 98 83.9 199.1 111.9 303.49 15.9 75.4 13.19 153.01 18.59 229.51-10.4 153.5-40.9 309.2-115.59 445.4-38 57.59-74.7 117.5-126.3 164.2-31.2 30-67.5 54.4-96.3 86.8"/><path id="path26" d="m3770 1883.4c30.3 17.9 57.4 40.91 88.8 57.21-15.8-41.3-42.5-79.71-39.01-126.1-22.99-152.41-1.39-307-17.19-459.91 1.1-154.49 16.4-308.99 9.9-463.39 125.2-41.8 251.5-80.699 376.1-124.51 64.69-11.188 137.19-0.688 192 37.41 24.6 14.902 24.3 51.789 53.2 61.902-3.5-58.402-21.9-116-51.8-166.3-34.31-50.601-98.5-65.511-155-75.511-104.6-14.489-201.6 37.609-294.91 76.812-83.59 30.899-162.39 80.688-253.69 84.887-34.8 6.414-67.8-7.5-99.7-19.09 7.5 44 27.9 84.402 35.8 128.3 17.2 88.902 33.79 179.3 28.3 270.3-4.3 95.2-6.5 190.7-17.2 285.49-9.9 92.71-2.7 186.2-11.4 279.01-80.4-50.1-135.7-138.7-138.5-234.01 7.5-47.29 19.9-97.79 60.6-127.89-59.21-32-134.21 4.4-174.3 52.4-25.4 57.8-28.8 124.9-6.3 184.3 15.7 52.7 58.8 89.8 100.3 122.9 49.7 38.69 112.1 53.9 167.2 82.6 48.4 25.4 100.09 44.5 146.8 73.19"/><path id="path28" d="m5005 1405.9c-5.9-63.49-10.69-133.29-52.69-184.69-20.6-25.1-54.01-40.4-86.4-38.6-20.8 9.4-36.8 30.1-35.8 53.4-0.3 80 6.6 159.8 6.2 239.8 4.39 46.6-0.4 94.3 11.4 139.9 4.7 23.8 30 34 50 42.3 30.19 10 58.6-8.5 84.7-21.4 26.69-73.7 23.9-153.5 22.59-230.71zm-706.59-224.79c-10.81-49.5-43.8-93.5-88.6-117.31-28.3-14.49-68.9-8.59-80.8 24.21-27.01 64.4-39.8 136.5-27.6 205.79 9.29 58.3 10 121.41 44.5 171.91 20.4 25.8 44.19 51.39 75.4 63.49 20.9 4.31 59.3 15.71 67.1-11.99 27.5-109.6 31.9-225 10-336.1zm1326.4 439.2c-14.01 39.7-42.4 71.39-72.31 99.8-19.2 20.6-44.49 38.69-50.79 67.6-7.5 41.2 2.2 82.9 3 124.3-55.3-54.6-128.11-95.6-206.91-99.7-7.8-53.4-30.39-103.6-59.9-148.51-22.6-35.69-62.19-54.6-98.99-72.19 7.5 64.9 0.8 134-37.1 189.1-21.7 32.3-65.61 43.3-101.9 33.2-57.91-16.5-118-29.6-168.5-64.2-0.5 61.9 6.3 123.69 6.6 185.5-6.6 46.49-1.8 93.3-4.81 139.9-38.39-22.7-68.89-56.8-109.89-75.3-18.61-12.1-48.7-18.51-51.4-44.6-17.81-69.31 0-140.8-4-211.1-20-171.9 5.1-345.5-13-517.5-5.9-38.8-19.4-82.41-57.5-100.9-29.4-20-69.4-4.5-86.1 24.5-38.2 46.3-23.7 109.6-22.5 164.5-1.7 84.09 6.6 167.9 12.7 251.59 2.7 45.61 17.8 89.11 22.59 134.31-74.19-30.2-152.1-56.6-233.4-53.1-0.59-7-1.89-21.1-2.59-28.1-33.61 12.6-70.7 27.29-105.7 9.5-105-46.7-168.8-150.9-216.5-250.7-40.6-115-42.4-245.5 2.5-359.6 14-48.7 37.8-102.31 89.7-120.1 57.7-25.902 119.7 0.098 173.7 22.5 42.69 17.598 69.79 56.899 98.5 90.999 22.8-15.8 45.39-34.1 73.7-38.8 94.9-19.699 194.3 20.188 258.8 90.4 35.7-50 100.2-58 156.4-45.3 71 16.9 144.49 36.5 202.5 82.99 73.99 63.81 131.3 153.81 133 254.01-2.5 30.8-7.4 61.5-3.6 92.4 27.9 9.5 57.8 15 83.5 30.2 64.6 44.9 104.8 115.3 134.6 186.4 38.8-50.11 60.29-111 77.9-171.2 18.19-44.6 36.8-89.8 44.59-137.6-7.2-57.2-60.1-121-123.09-104.21-20.71 3.81-30.1 25.4-42.5 39.81 49.29 15.5 100.6 49 109.19 104 11.21 39.6-8.99 100.1-58.7 95.3-98.7-22.4-172.1-139.11-130.29-235.6 37.2-70.7 117.7-134.9 201.9-108.51 71.4 25.31 157.09 52.1 190.6 127.1 33.99 113.11 25.1 236.2-14 346.91"/></g></g></svg>
