<?xml version="1.0" encoding="utf-8"?>
<!-- Generator: Adobe Illustrator 17.0.0, SVG Export Plug-In . SVG Version: 6.00 Build 0)  -->
<!DOCTYPE svg PUBLIC "-//W3C//DTD SVG 1.1//EN" "http://www.w3.org/Graphics/SVG/1.1/DTD/svg11.dtd">
<svg version="1.1"
	 id="Layer_1" xmlns:cc="http://creativecommons.org/ns#" xmlns:rdf="http://www.w3.org/1999/02/22-rdf-syntax-ns#" xmlns:dc="http://purl.org/dc/elements/1.1/"
	 xmlns="http://www.w3.org/2000/svg" xmlns:xlink="http://www.w3.org/1999/xlink" x="0px" y="0px" width="599.984px"
	 height="105.94px" viewBox="0.001 0.001 599.984 105.94" enable-background="new 0.001 0.001 599.984 105.94" xml:space="preserve"
	>
<linearGradient id="path3_1_" gradientUnits="userSpaceOnUse" x1="299.9931" y1="8.144029e-004" x2="299.9931" y2="105.9413">
	<stop  offset="0" style="stop-color:#808080"/>
	<stop  offset="1" style="stop-color:#666666"/>
</linearGradient>
<path id="path3" fill="url(#path3_1_)" d="M514.683,90.953c2.251-1.125,4.449-2.727,6.618-4.771L542.4,66.64l-17.919-19.667
	c-2.453-2.804-4.723-4.771-6.796-5.873c-2.073-1.101-4.343-1.65-6.82-1.65h-3.03V28.855h43.826V39.45h-3.333
	c-1.289,0-2.323,0.183-3.083,0.577c-0.755,0.394-1.135,0.919-1.135,1.573c0,0.707,0.529,1.703,1.616,2.915
	c0.303,0.366,0.529,0.625,0.683,0.784l8.566,9.836l9.273-8.759c1.236-1.236,2.092-2.179,2.573-2.862
	c0.505-0.654,0.76-1.26,0.76-1.756c0-0.76-0.433-1.337-1.27-1.732c-0.832-0.394-2.068-0.577-3.708-0.577h-3.184V28.854h38.354
	v10.596h-3.184c-2.174,0-4.319,0.548-6.469,1.679c-2.145,1.125-4.848,3.251-8.109,6.32l-16.646,15.896l19.369,20.927
	c2.679,2.91,5.108,5.036,7.325,6.373c2.227,1.337,4.473,1.996,6.743,1.996h3.184v10.516h-45.028V92.641h3.184
	c1.789,0,3.179-0.207,4.218-0.606c1.034-0.418,1.563-0.972,1.563-1.626c0-0.524-0.173-1.101-0.558-1.732
	c-0.375-0.63-0.909-1.313-1.587-2.044l-10.89-11.668l-12.58,11.828c-1.087,1.02-1.818,1.808-2.174,2.309
	c-0.375,0.524-0.553,0.943-0.553,1.308c0,0.601,0.38,1.125,1.188,1.573c0.784,0.447,1.794,0.654,3.03,0.654h5.911v10.519H424.805
	V93.02h3.03c3.468,0,5.757-0.534,6.926-1.616c1.164-1.087,1.741-3.588,1.741-7.479V52.98c0-5.281-0.885-9.042-2.626-11.323
	c-1.746-2.27-4.622-3.41-8.614-3.41c-5.714,0-10.231,2.174-13.539,6.522c-3.314,4.343-4.949,10.303-4.949,17.911v21.245
	c0,3.891,0.577,6.392,1.741,7.479c1.159,1.087,3.463,1.616,6.921,1.616h3.03v10.125h-43.678V93.02h5.026
	c3.463,0,5.757-0.534,6.897-1.616c1.135-1.087,1.693-3.588,1.693-7.479V48.102c0-3.915-0.553-6.392-1.693-7.455
	c-1.135-1.063-3.439-1.587-6.897-1.587h-5.026V28.854h31.98v12.583c3.939-4.925,7.999-8.648,12.174-11.116
	c4.165-2.463,8.388-3.689,12.684-3.689c8.234,0,14.164,2.03,17.757,6.065c3.607,4.05,5.411,10.813,5.411,20.287V83.93
	c0,3.891,0.577,6.392,1.736,7.479c2.689,2.506,19.359,2.314,21.831,0c1.164-1.087,1.746-3.588,1.746-7.479V48.108
	c0-3.915-0.582-6.392-1.746-7.455c-1.159-1.063-3.458-1.587-6.921-1.587h-5.608V28.855h32.769v55.072
	c0,3.838,0.582,6.315,1.746,7.426c2.915,2.785,11.236,1.154,14.323-0.399L514.683,90.953z M280.162,84.118V64.567
	c0-7.907,1.664-17.108,5.026-22.182c3.352-5.055,6.921-7.58,12.607-7.58c5.685,0,7.797,2.16,8.869,3.853
	c-8.768,7.773-12.015,17.358-12.015,28.936c0,11.544,3.665,20.841,11.02,27.839c7.345,6.998,17.122,10.51,29.33,10.51
	c12.232,0,22.029-3.511,29.402-10.51c7.378-6.998,11.068-16.295,11.068-27.839c0-11.597-3.689-20.917-11.068-27.964
	c-7.373-7.051-17.171-10.587-29.402-10.587c-6.498,0-12.482,0.996-17.603,2.987c3.324,3.064,5.017,8.783,4.925,12.309
	c3.208-3.324,7.104-4.478,12.678-4.478c6.594,0,11.573,2.299,14.881,6.921c3.309,4.598,4.949,11.544,4.949,20.816
	c0,9.196-1.645,16.064-4.949,20.663c-3.309,4.574-8.287,6.873-14.881,6.873c-6.618,0-11.568-2.275-14.828-6.844
	c-3.261-4.574-4.877-11.443-4.877-20.691c0-6.19,0.837-11.409,2.891-17.204c1.174-3.299,3.4-11.717-5.805-19.022
	c-3.574-2.833-7.835-4.545-13.266-4.545c-3.939,0-7.508,1.058-10.664,3.184c-3.155,2.121-5.911,5.305-8.287,9.523V29.047h-31.98
	v10.207h5.026c3.463,0,5.762,0.529,6.902,1.592c1.135,1.058,1.693,3.535,1.693,7.45v35.823c0,3.891-0.553,6.392-1.693,7.479
	c-1.135,1.087-3.439,1.635-6.902,1.616c-11.063-0.058-15.944-0.144-27.219-0.188c-4.132-0.149-7.205-0.726-8.831-2.838
	c-1.746-2.27-1.89-5.368-1.89-14.655V38.705h20.028v-10.51h-19.739V0.001h-9.701c-0.6,9.273-2.23,16.329-5.73,20.542
	c-5.315,6.392-12.015,6.392-20.773,6.392c-3.939,0-7.503,1.063-10.664,3.184c-3.16,2.121-5.911,5.31-8.287,9.528V28.855h-34.617
	v10.207h6.945c3.559,0,5.911,0.529,7.075,1.616c1.164,1.087,1.741,3.564,1.741,7.426v21.221c0,7.604-1.669,13.568-5.031,17.911
	c-3.352,4.343-7.883,6.517-13.611,6.517c-3.939,0-6.796-1.14-8.537-3.41c-1.741-2.275-2.631-6.036-2.631-11.318V28.854H54.852
	c-5.661,0-10.486,1.111-14.453,3.357c-3.963,2.251-7.373,5.786-10.178,10.611V1.467H0.001v10.135h3.184
	c3.511,0,5.834,0.529,6.969,1.616c1.14,1.087,1.698,3.588,1.698,7.503v83.166h10.005l6.065-9.98c3.559,4.04,7.503,7.046,11.847,8.97
	c4.348,1.919,9.225,2.881,14.655,2.881c9.47,0,16.973-3.487,22.553-10.438c5.589-6.945,8.364-16.367,8.364-28.19
	c0-11.852-2.727-21.196-8.21-28.017l-0.043-0.048h7.643c3.487,0,5.839,0.529,7.022,1.616c1.188,1.087,1.765,3.564,1.765,7.426V79.03
	c0,9.528,1.789,16.329,5.358,20.36c3.578,4.05,9.475,6.065,17.656,6.065c4.348,0,8.614-1.265,12.833-3.766
	c4.223-2.525,8.292-6.214,12.179-11.116v12.583h35.073V93.02h-7.551c-3.463,0-5.757-0.534-6.921-1.616
	c-1.164-1.087-1.741-3.588-1.741-7.479v-21.98c0-7.907,1.659-14.376,5.026-19.45c3.352-5.055,7.556-7.58,12.607-7.58
	c0.885,0,1.847,0.125,2.905,0.404c1.063,0.279,2.169,0.659,3.309,1.135c-3.006,0.861-5.305,2.15-6.873,3.891
	c-1.592,1.77-2.371,3.891-2.371,6.421c0,2.751,0.957,5.026,2.881,6.767c1.919,1.746,4.449,2.626,7.551,2.626
	c3.641,0,6.594-1.188,8.864-3.588c1.212-1.275,2.102-2.742,2.669-4.411v29.98c0,8.691,1.491,15.03,4.473,19.022
	c2.977,3.992,7.749,5.993,14.318,5.988c26.872-0.019,53.74,0,80.612,0v-9.937h-7.551c-3.463,0-5.762-0.529-6.926-1.616
	c-1.164-1.087-1.746-3.588-1.746-7.479L280.162,84.118z M64.71,67.553c0,8.59-1.414,15.006-4.247,19.248
	c-2.852,4.242-7.171,6.368-12.987,6.368c-5.329,0-9.543-2.275-12.626-6.82c-3.088-4.526-4.627-10.789-4.627-18.796
	c0-7.984,1.539-14.246,4.598-18.719c3.059-4.497,7.277-6.748,12.655-6.748c5.815,0,10.135,2.097,12.987,6.291
	C63.296,52.571,64.71,58.964,64.71,67.553L64.71,67.553z"/>
</svg>
