<svg xmlns="http://www.w3.org/2000/svg" height="103.68" viewBox="0 0 276.656 103.68" width="276.66" enable-background="new 0 0 276.656 103.68"><path d="M96.286 7.015c.718.594 3.085 1.092 5.597.6 2.512-.49 8.054-3.712 8.872-5.295.82-1.584.6-2.675-2.512-2.21-3.11.462-14.165 5.076-11.954 6.905zM10.03 57.152c-1.854.958 1.012 3.128 3.865 2.3 2.85-.828 40.115-21.623 67.442-38.552-6.81 5.796-26.775 19.322-47.66 40.76C12.788 83.1 4.783 93.497.643 100.31c-1.288 1.84-.92 5.43 3.68 1.84 4.6-3.588 31.468-26.407 44.166-35.148S72.782 51.084 77.106 49.06c4.325-2.023 12.974-4.692 12.513-3.496-.46 1.197-8.282 7.73-10.766 11.594s-13.066 17.39-3.68 26.316c9.384 8.924 32.203-9.57 35.79-12.422 3.59-2.852 27.42-24.29 30.18-26.96 2.76-2.668 6.073-5.245 5.062-3.127-1.012 2.116-11.686 16.654-10.766 23.094s3.956 11.867 14.63 11.684c10.673-.185 24.014.09 56.31-15.366 2.208-.92 3.22-3.128-1.288-1.196s-37.908 14.355-51.34 13.066c-13.435-1.288-14.355-5.705-12.515-11.593 1.84-5.89 12.79-20.887 14.262-25.487 1.47-4.6 0-6.257-5.062-3.497-5.06 2.762-18.678 15.735-26.59 23.28S94.31 78.597 88.79 80.16c-5.52 1.565-14.537-1.746-12.328-9.936 2.208-8.19 16.378-22.542 18.494-25.21 2.117-2.67 3.957-6.44-4.14-4.325-8.098 2.115-36.53 12.88-73.978 46.65 7.92-10.59 34.42-40.952 72.695-68.28 2.67-1.932 5.245-7.544-1.104-4.875-6.35 2.667-67.353 37.263-78.394 42.968z" fill="#DADEDD"/><path d="M57.592 58.65V35.066h6.24V58.65h-6.24zM86.296 58.65h-6.242V46.614c0-2.545-.135-4.193-.4-4.942-.266-.746-.7-1.327-1.3-1.743-.6-.412-1.32-.622-2.166-.622-1.08 0-2.05.296-2.91.89-.858.59-1.447 1.376-1.765 2.353s-.478 2.785-.478 5.42v10.68h-6.24V35.066h5.797v3.464c2.057-2.666 4.65-4 7.773-4 1.377 0 2.636.248 3.776.745 1.14.498 2.004 1.13 2.59 1.9.585.77.99 1.645 1.22 2.622.23.978.345 2.376.345 4.197V58.65zM98.555 63.463s2.896-.254 3.712-.74c.547-.33.962-.855 1.242-1.58.192-.52.29-1.473.29-2.867v-3.442c-1.866 2.547-4.22 3.817-7.065 3.817-3.17 0-5.68-1.334-7.53-4.02-1.452-2.113-2.175-4.75-2.175-7.904 0-3.954.95-6.975 2.854-9.063 1.9-2.09 4.267-3.132 7.096-3.132 2.917 0 5.322 1.282 7.22 3.844v-3.31h5.842v21.17c0 2.78-.23 4.863-.69 6.24-.457 1.377-1.1 2.458-1.93 3.245-.83.784-1.936 1.397-3.32 1.84-1.387.447-3.137.667-5.255.667-.068 0-.29.02-.29.02v-4.784zm-5.13-17.094c0 2.503.485 4.334 1.455 5.497.97 1.164 2.165 1.74 3.587 1.74 1.526 0 2.813-.59 3.865-1.787 1.052-1.188 1.578-2.956 1.578-5.295 0-2.443-.504-4.256-1.51-5.442-1.007-1.185-2.282-1.777-3.822-1.777-1.495 0-2.728.58-3.698 1.743-.972 1.163-1.456 2.936-1.456 5.32zM126.33 51.148l6.487-.01-.27 1.05c-.797 2.284-2.06 4.02-3.786 5.21-1.724 1.19-3.883 1.79-6.474 1.79-4.102 0-7.14-1.34-9.107-4.022-1.556-2.148-2.335-4.858-2.335-8.13 0-3.91 1.023-6.97 3.066-9.186 2.046-2.214 4.63-3.32 7.754-3.32 3.51 0 6.28 1.16 8.308 3.476 2.027 2.32 2.997 5.868 2.91 10.653h-15.64c.045 1.85.548 3.29 1.512 4.32.96 1.026 2.16 1.543 3.598 1.543.978 0 1.8-.267 2.466-.8.67-.53 1.17-1.39 1.51-2.575zm.35-6.31c-.044-1.806-.51-3.18-1.4-4.12-.89-.94-1.97-1.412-3.242-1.412-1.363 0-2.488.496-3.376 1.49-.888.99-1.326 2.34-1.31 4.04h9.33zM155.31 58.65h-6.24V46.614c0-2.545-.134-4.193-.4-4.942-.267-.746-.7-1.327-1.3-1.743-.6-.412-1.32-.622-2.167-.622-1.08 0-2.05.296-2.908.89-.86.59-1.45 1.376-1.766 2.353-.32.977-.48 2.785-.48 5.42v10.68h-6.242V35.066h5.797v3.464c2.06-2.666 4.65-4 7.774-4 1.378 0 2.635.248 3.775.745 1.142.498 2.003 1.13 2.59 1.9.582.77.993 1.645 1.22 2.622.23.978.343 2.376.343 4.197V58.65z" fill="#464647"/><path d="M166.17 35.067h5.752v3.218c2.06-2.5 4.512-3.75 7.353-3.75 1.51 0 2.82.308 3.934.932 1.11.622 2.02 1.563 2.73 2.818 1.035-1.255 2.157-2.197 3.355-2.818 1.198-.624 2.482-.933 3.844-.933 1.732 0 3.2.35 4.397 1.054 1.2.703 2.098 1.736 2.69 3.1.43 1.006.644 2.635.644 4.887v15.082h-6.243V45.173c0-2.338-.214-3.85-.645-4.53-.577-.89-1.464-1.333-2.663-1.333-.877 0-1.697.266-2.467.798-.773.533-1.328 1.315-1.668 2.343-.34 1.03-.512 2.655-.512 4.877v11.33h-6.24V45.728c0-2.297-.11-3.774-.332-4.442-.222-.668-.566-1.164-1.033-1.49-.466-.324-1.1-.486-1.898-.486-.964 0-1.83.258-2.598.776-.773.518-1.327 1.266-1.66 2.245-.33.978-.498 2.6-.498 4.864v11.46h-6.242v-23.59zM247.73 58.658h-5.796v-3.466c-.96 1.348-2.1 2.353-3.41 3.01-1.31.66-2.632.987-3.964.987-2.71 0-5.033-1.09-6.965-3.275s-2.896-5.233-2.896-9.142c0-4 .937-7.038 2.82-9.12 1.877-2.078 4.256-3.12 7.127-3.12 2.637 0 4.92 1.097 6.843 3.29v-11.73h6.24v32.565zM231.07 46.35c0 2.518.35 4.342 1.046 5.465 1.006 1.63 2.413 2.444 4.218 2.444 1.438 0 2.66-.614 3.665-1.835 1.006-1.22 1.512-3.043 1.512-5.474 0-2.707-.49-4.66-1.466-5.852-.98-1.192-2.23-1.787-3.754-1.787-1.48 0-2.72.588-3.724 1.765-1 1.177-1.5 2.937-1.5 5.276zM248.76 58.658v-23.59H255v23.59h-6.24zM262.17 42.265s-5.02.036-5.817.036c-.015-.15 0-.366.15-1.058.517-2.007 1.733-3.967 3.29-5.063 1.555-1.096 3.867-1.645 6.932-1.645 2.78 0 4.856.33 6.22.99 1.36.658 2.32 1.494 2.875 2.508.556 1.014.833 2.876.833 5.588l-.066 7.287-.003 7.752-5.575-.015s.002-1.473.002-2.562c-1.065 1.036-2.204 1.813-3.42 2.328-1.215.523-2.51.78-3.89.78-2.43 0-4.34-.656-5.74-1.97-1.4-1.324-2.1-2.987-2.1-5.002 0-1.332.317-2.522.955-3.565.636-1.045 1.528-1.845 2.676-2.4 1.148-.555 2.803-1.04 4.964-1.455 2.92-.547 4.94-1.058 6.065-1.53v-.624c0-1.2-.295-2.056-.89-2.565-.592-.513-1.706-.767-3.352-.767-1.11 0-1.977.218-2.6.654-.6.435-1.1 1.202-1.49 2.298zm8.35 5.064c-.8.266-2.065.582-3.797.954s-2.868.734-3.4 1.087c-.814.58-1.223 1.312-1.223 2.202 0 .873.326 1.632.978 2.264.65.637 1.48.958 2.487.958 1.125 0 2.2-.37 3.223-1.112.756-.563 1.25-1.253 1.488-2.066.16-.533.243-1.547.243-3.043V47.33zM217.16 51.138l6.488-.01-.27 1.055c-.8 2.278-2.06 4.015-3.785 5.207-1.725 1.195-3.88 1.793-6.475 1.793-4.104 0-7.138-1.345-9.107-4.025-1.555-2.15-2.332-4.858-2.332-8.13 0-3.908 1.02-6.973 3.064-9.186s4.63-3.32 7.752-3.32c3.512 0 6.28 1.16 8.308 3.477 2.03 2.317 3 5.866 2.91 10.65h-15.637c.044 1.853.55 3.293 1.508 4.32.966 1.03 2.162 1.544 3.602 1.544.975 0 1.8-.267 2.466-.8.67-.533 1.18-1.392 1.51-2.576zm.36-6.308c-.043-1.807-.512-3.18-1.4-4.12-.886-.94-1.968-1.412-3.242-1.412-1.36 0-2.486.495-3.377 1.49-.886.99-1.323 2.338-1.31 4.04h9.33z" fill="#ED1F24"/><g fill="#464647"><path d="M120.06 74.068h-.983l-2.056-4.337-1.91 4.338h-.984l-4.05-8.517h1.295l3.223 6.94 1.79-4.142-1.367-2.797h1.326l3.193 6.926 2.985-6.925h1.256l-3.72 8.518zM124.93 70.228c.15 1.98 1.27 2.967 3.36 2.967 1.625 0 2.7-.664 3.222-1.99h1.184c-.384 1.197-.995 2.018-1.832 2.46-.745.397-1.618.594-2.618.594-1.478 0-2.606-.413-3.385-1.24-.72-.77-1.08-1.832-1.08-3.193 0-1.292.406-2.362 1.22-3.21.814-.85 1.926-1.275 3.333-1.275 1.373 0 2.476.375 3.308 1.125.832.75 1.25 1.766 1.25 3.045v.716h-7.96zm5.83-2.954c-.595-.58-1.406-.868-2.432-.868-.922 0-1.687.243-2.29.728-.608.486-.976 1.173-1.104 2.064h6.7c-.08-.785-.37-1.427-.88-1.924zM141.37 72.95c-.804.86-1.92 1.292-3.352 1.292-1.373 0-2.477-.477-3.315-1.432v1.274h-1.15V62.236h1.15v4.292c.79-.918 1.903-1.378 3.333-1.378 1.43 0 2.547.442 3.35 1.326.745.826 1.117 1.914 1.117 3.263 0 1.338-.37 2.408-1.13 3.21zm-.82-5.723c-.58-.674-1.4-1.012-2.454-1.012-1.138 0-1.987.317-2.55.95-.563.635-.845 1.505-.845 2.61 0 .99.312 1.803.932 2.443.62.64 1.448.96 2.48.96 1.045 0 1.85-.332 2.42-.995.544-.616.817-1.437.817-2.46-.01-1.048-.27-1.88-.81-2.496zM157.42 74.4v-1.78c-.977 1.152-2.21 1.727-3.7 1.727-1.058 0-1.996-.238-2.81-.715-.954-.582-1.43-1.367-1.43-2.356 0-1.42 1.14-2.71 3.42-3.874-1.233-.698-1.85-1.61-1.85-2.74 0-.78.325-1.395.977-1.85.58-.383 1.273-.575 2.077-.575.85 0 1.552.192 2.112.576.65.43.977 1.06.977 1.885 0 1.14-1.135 2.298-3.403 3.473-1.105.57-1.838 1.013-2.2 1.327-.64.56-.958 1.152-.958 1.78 0 .605.314 1.1.94 1.483.595.35 1.275.524 2.043.524 1.467 0 2.537-.594 3.212-1.78.395-.675.593-1.5.593-2.48h1.152v5.377h-1.15zm-1.91-10.742c-.36-.24-.815-.358-1.36-.358-.536 0-.984.117-1.344.35-.396.255-.592.6-.592 1.03 0 .906.616 1.627 1.85 2.163 1.325-.733 1.988-1.454 1.988-2.164-.01-.443-.19-.783-.55-1.022zM173.83 74.085V72.83c-.814.953-1.954 1.43-3.42 1.43-1.396 0-2.496-.442-3.298-1.326-.745-.826-1.117-1.896-1.117-3.21 0-1.327.377-2.41 1.134-3.247.813-.884 1.93-1.326 3.35-1.326 1.43 0 2.55.46 3.35 1.38v-4.293h1.152v11.85h-1.14zm-.88-6.92c-.586-.634-1.436-.95-2.55-.95-1.02 0-1.833.342-2.436 1.03-.546.65-.818 1.477-.818 2.477 0 1.024.272 1.85.818 2.478.58.663 1.392.996 2.436.996 1.032 0 1.867-.338 2.507-1.013.614-.64.922-1.46.922-2.46 0-1.07-.29-1.924-.88-2.558zM176.97 70.228c.15 1.98 1.27 2.967 3.36 2.967 1.625 0 2.7-.664 3.222-1.99h1.184c-.384 1.197-.994 2.018-1.833 2.46-.744.397-1.616.594-2.617.594-1.477 0-2.607-.413-3.386-1.24-.72-.77-1.08-1.832-1.08-3.193 0-1.292.405-2.362 1.22-3.21.814-.85 1.925-1.275 3.334-1.275 1.372 0 2.475.375 3.307 1.125.832.75 1.248 1.766 1.248 3.045v.716h-7.95zm5.83-2.954c-.596-.58-1.406-.868-2.434-.868-.92 0-1.685.243-2.292.728-.606.486-.973 1.173-1.102 2.064h6.7c-.08-.785-.37-1.427-.88-1.924zM191.72 73.805c-.617.325-1.413.488-2.39.488-2.677 0-4.015-1.214-4.015-3.646h1.186c0 .925.226 1.586.673 1.984.447.4 1.173.6 2.173.6.687 0 1.245-.106 1.676-.316.512-.257.768-.636.768-1.14 0-.618-.547-1.05-1.64-1.295l-1.747-.262c-1.814-.267-2.72-1.048-2.72-2.342 0-.84.36-1.492 1.08-1.958.63-.396 1.384-.594 2.27-.594 2.582 0 3.88 1.088 3.892 3.264h-1.205c0-.786-.204-1.35-.61-1.69-.407-.34-1.07-.51-1.99-.51-.616 0-1.133.118-1.552.352-.466.28-.698.656-.698 1.123 0 .61.53 1.006 1.588 1.193.303.06.92.164 1.85.316 1.78.303 2.67 1.1 2.67 2.39-.01.91-.43 1.59-1.26 2.043zM194.66 64.208c-.243 0-.425-.145-.54-.436v-1.257c.14-.29.32-.436.54-.436.186 0 .39.128.61.384v1.36c-.2.256-.41.384-.61.384zm-.54 9.86v-8.726h1.15v8.726h-1.15zM200.58 77.192c-1.07 0-1.95-.204-2.636-.61-.85-.5-1.31-1.386-1.38-2.653h1.153c.07.778.328 1.34.777 1.682.447.344 1.148.516 2.1.516 2.084 0 3.126-.843 3.126-2.53v-.752c-.84.862-1.938 1.29-3.3 1.29-1.337 0-2.396-.405-3.176-1.22-.78-.814-1.17-1.86-1.17-3.14 0-1.315.396-2.383 1.187-3.203.793-.82 1.886-1.23 3.282-1.23 1.326 0 2.384.436 3.177 1.31v-1.118h1.15v8.08c0 2.383-1.43 3.577-4.29 3.577zm2.27-9.8c-.58-.656-1.36-.985-2.338-.985-1.012 0-1.81.317-2.398.95-.588.635-.882 1.435-.882 2.4 0 .978.262 1.763.785 2.356.57.64 1.36.96 2.373.96 1.035 0 1.85-.3 2.443-.9.594-.598.89-1.387.89-2.364 0-.954-.29-1.76-.87-2.417zM212.85 74.068v-5.52c0-.696-.227-1.228-.68-1.593-.454-.366-1.083-.55-1.886-.55-.942 0-1.682.27-2.217.802-.534.534-.802 1.237-.802 2.107v4.754h-1.15v-8.534h1.15v.907c.71-.732 1.71-1.098 3.002-1.098 1.058 0 1.925.244 2.6.732.756.547 1.134 1.315 1.134 2.303v5.69h-1.14zM228.9 74.085v-1.24c-.814.943-1.955 1.414-3.42 1.414-1.386 0-2.484-.432-3.3-1.292-.744-.815-1.116-1.862-1.116-3.14 0-1.305.378-2.363 1.135-3.177.812-.872 1.93-1.308 3.35-1.308 1.43 0 2.548.453 3.35 1.36v-1.36h1.152v8.743h-1.15zm-.88-6.76c-.586-.612-1.436-.92-2.55-.92-1.032 0-1.845.337-2.437 1.008-.545.625-.817 1.43-.817 2.414 0 .995.272 1.793.817 2.396.58.648 1.392.973 2.438.973 1.033 0 1.863-.32 2.49-.964.625-.642.94-1.443.94-2.404 0-1.055-.29-1.888-.88-2.502zM235.48 77.192c-1.07 0-1.95-.204-2.636-.61-.85-.5-1.31-1.386-1.38-2.653h1.153c.07.778.327 1.34.775 1.682.448.344 1.15.516 2.104.516 2.083 0 3.124-.843 3.124-2.53v-.752c-.838.862-1.938 1.29-3.3 1.29-1.337 0-2.395-.405-3.175-1.22-.78-.814-1.17-1.86-1.17-3.14 0-1.315.396-2.383 1.188-3.203.79-.82 1.884-1.23 3.28-1.23 1.326 0 2.385.436 3.177 1.31v-1.118h1.15v8.08c.02 2.383-1.41 3.577-4.27 3.577zm2.27-9.8c-.582-.656-1.36-.985-2.338-.985-1.013 0-1.813.317-2.4.95-.588.635-.88 1.435-.88 2.4 0 .978.26 1.763.785 2.356.57.64 1.36.96 2.372.96 1.034 0 1.85-.3 2.442-.9.594-.598.89-1.387.89-2.364 0-.954-.29-1.76-.87-2.417zM241.61 70.228c.15 1.98 1.27 2.967 3.36 2.967 1.625 0 2.7-.664 3.222-1.99h1.184c-.384 1.197-.994 2.018-1.832 2.46-.745.397-1.617.594-2.617.594-1.478 0-2.606-.413-3.386-1.24-.72-.77-1.08-1.832-1.08-3.193 0-1.292.406-2.362 1.22-3.21.815-.85 1.927-1.275 3.334-1.275 1.372 0 2.475.375 3.307 1.125.833.75 1.25 1.766 1.25 3.045v.716h-7.95zm5.82-2.954c-.596-.58-1.406-.868-2.433-.868-.922 0-1.686.243-2.292.728-.607.486-.974 1.173-1.103 2.064h6.7c-.07-.785-.36-1.427-.88-1.924zM256.96 74.068v-5.52c0-.696-.227-1.228-.68-1.593-.455-.366-1.083-.55-1.886-.55-.942 0-1.682.27-2.217.802-.535.534-.803 1.237-.803 2.107v4.754h-1.15v-8.534h1.15v.907c.71-.732 1.71-1.098 3-1.098 1.06 0 1.927.244 2.602.732.757.547 1.135 1.315 1.135 2.303v5.69h-1.16zM266.18 73.614c-.723.43-1.583.646-2.584.646-1.407 0-2.523-.394-3.35-1.178-.826-.785-1.24-1.83-1.24-3.132 0-1.373.422-2.484 1.267-3.333.843-.85 2.016-1.274 3.516-1.274 1.29 0 2.304.372 3.036 1.117.395.407.686.96.87 1.658l-1.045.505c-.22-.796-.557-1.364-1.012-1.705-.454-.34-1.082-.51-1.885-.51-1.15 0-2.038.323-2.66.97-.624.65-.934 1.506-.934 2.57 0 .996.298 1.787.896 2.37.6.585 1.44.878 2.522.878.768 0 1.434-.17 1.998-.512.563-.34.938-.973 1.125-1.897l1.1.454c-.29 1.094-.83 1.885-1.64 2.374zM272.25 77.192c-1.06 0-1.933-.204-2.617-.61-.85-.513-1.31-1.397-1.38-2.653h1.152c.07.778.328 1.34.776 1.682.45.344 1.15.516 2.104.516 2.082 0 3.123-.843 3.123-2.53v-.28c-.733.755-1.733 1.135-3 1.135-1.13 0-2.026-.274-2.69-.82-.697-.583-1.047-1.403-1.047-2.462v-5.618h1.152v5.602c0 1.49.86 2.234 2.583 2.234 1 0 1.756-.29 2.268-.874.488-.534.733-1.292.733-2.268V65.55h1.15v8.064c.02 2.384-1.42 3.578-4.29 3.578z"/></g></svg>