<svg version="1" xmlns="http://www.w3.org/2000/svg" xmlns:xlink="http://www.w3.org/1999/xlink" width="50.549" height="44.81" viewBox="6.915 63.121 50.549 44.81" enable-background="new 6.915 63.121 50.549 44.81"><defs><path id="a" d="M28.737 84.8L25.4 92.854c-2.3 5.553.346 11.942 5.9 14.242 2.69 1.114 5.652 1.114 8.342 0 2.69-1.114 4.785-3.21 5.9-5.9 2.3-5.552-.347-11.94-5.9-14.242l-8.055-3.336-2.016-.835-.832 2.017z"/></defs><clipPath id="b"><use xlink:href="#a" overflow="visible"/></clipPath><linearGradient id="c" gradientUnits="userSpaceOnUse" x1="-155.052" y1="98.368" x2="-154.052" y2="98.368" gradientTransform="matrix(-10.071 -24.312 24.312 -10.071 -3912.845 -2672.135)"><stop offset="0" stop-color="#00598E"/><stop offset="1" stop-color="#0077C0"/></linearGradient><path clip-path="url(#b)" fill="url(#c)" d="M26.723 116.957L14.11 86.507l30.108-12.472 12.612 30.452-30.107 12.47z"/><defs><path id="d" d="M45.817 73.544l-2.202 5.32c-1.52 3.667.228 7.887 3.896 9.406 1.778.735 3.735.736 5.51 0 1.778-.736 3.16-2.12 3.898-3.896 1.52-3.668-.23-7.888-3.896-9.407l-5.32-2.204-1.33-.552-.552 1.334z"/></defs><clipPath id="e"><use xlink:href="#d" overflow="visible"/></clipPath><linearGradient id="f" gradientUnits="userSpaceOnUse" x1="-161.171" y1="96.057" x2="-160.171" y2="96.057" gradientTransform="matrix(-6.651 -16.058 16.058 -6.651 -2561.057 -1861.185)"><stop offset="0" stop-color="#FFAA05"/><stop offset="1" stop-color="#FFCA05"/></linearGradient><path clip-path="url(#e)" fill="url(#f)" d="M44.487 94.783l-8.33-20.112 19.886-8.234 8.33 20.112-19.886 8.236z"/><defs><path id="g" d="M9.667 88.518l-2.204 5.32c-1.52 3.667.23 7.887 3.897 9.406 1.776.735 3.734.735 5.51 0 1.777-.736 3.16-2.12 3.896-3.896 1.52-3.667-.23-7.887-3.897-9.407l-5.32-2.2-1.334-.553-.55 1.328v.004z"/></defs><clipPath id="h"><use xlink:href="#g" overflow="visible"/></clipPath><linearGradient id="i" gradientUnits="userSpaceOnUse" x1="-161.171" y1="96.06" x2="-160.171" y2="96.06" gradientTransform="matrix(-6.651 -16.058 16.058 -6.651 -2597.256 -1846.185)"><stop offset="0" stop-color="#006432"/><stop offset="1" stop-color="#1D984A"/></linearGradient><path clip-path="url(#h)" fill="url(#i)" d="M8.338 109.757L.008 89.644l19.886-8.237 8.33 20.11-19.886 8.24z"/><defs><path id="j" d="M30.317 64.452l-2.203 5.32c-1.52 3.667.23 7.887 3.897 9.406 1.78.736 3.735.736 5.51 0 1.778-.736 3.16-2.12 3.898-3.897 1.52-3.665-.23-7.884-3.896-9.404l-5.32-2.203-1.33-.552-.552 1.333z"/></defs><clipPath id="k"><use xlink:href="#j" overflow="visible"/></clipPath><linearGradient id="l" gradientUnits="userSpaceOnUse" x1="-161.171" y1="96.057" x2="-160.171" y2="96.057" gradientTransform="matrix(-6.651 -16.058 16.058 -6.651 -2576.556 -1870.284)"><stop offset="0"/><stop offset="1" stop-color="#383435"/></linearGradient><path clip-path="url(#k)" fill="url(#l)" d="M28.987 85.69l-8.33-20.112 19.886-8.235 8.33 20.112-19.886 8.236z"/><defs><path id="m" d="M14.197 71.128l-2.203 5.32c-1.518 3.668.23 7.888 3.897 9.407 1.78.736 3.735.736 5.51 0 1.778-.736 3.16-2.12 3.898-3.897 1.52-3.667-.23-7.886-3.896-9.406l-5.32-2.203-1.33-.55-.552 1.33v-.003z"/></defs><clipPath id="n"><use xlink:href="#m" overflow="visible"/></clipPath><linearGradient id="o" gradientUnits="userSpaceOnUse" x1="-161.171" y1="96.056" x2="-160.171" y2="96.056" gradientTransform="matrix(-6.651 -16.058 16.058 -6.651 -2592.656 -1863.584)"><stop offset="0" stop-color="#B31F24"/><stop offset="1" stop-color="#ED1C24"/></linearGradient><path clip-path="url(#n)" fill="url(#o)" d="M12.87 92.368l-8.33-20.11 19.883-8.237 8.33 20.11-19.883 8.24z"/></svg>