<svg version="1" xmlns="http://www.w3.org/2000/svg" xmlns:xlink="http://www.w3.org/1999/xlink" width="50.549" height="44.81" viewBox="6.915 63.121 50.549 44.81"><defs><path id="a" d="M28.737 84.8L25.4 92.854c-2.3 5.553.346 11.942 5.9 14.242a10.829 10.829 0 0 0 8.342 0 10.833 10.833 0 0 0 5.9-5.9c2.3-5.552-.347-11.94-5.9-14.242l-8.055-3.336-2.016-.835-.833 2.017z"/></defs><clipPath id="b"><use xlink:href="#a" overflow="visible"/></clipPath><linearGradient id="c" gradientUnits="userSpaceOnUse" x1="-155.052" y1="98.368" x2="-154.052" y2="98.368" gradientTransform="scale(-26.315) rotate(67.499 -1.641 162.04)"><stop offset="0" stop-color="#00598E"/><stop offset="1" stop-color="#0077C0"/></linearGradient><path clip-path="url(#b)" fill="url(#c)" d="M26.723 116.957L14.11 86.507l30.108-12.472 12.612 30.452-30.107 12.47z"/><defs><path id="d" d="M45.817 73.544l-2.202 5.32c-1.52 3.667.228 7.887 3.896 9.406a7.156 7.156 0 0 0 5.51 0 7.158 7.158 0 0 0 3.897-3.896c1.52-3.668-.23-7.888-3.896-9.407l-5.32-2.204-1.33-.552-.552 1.333z"/></defs><clipPath id="e"><use xlink:href="#d" overflow="visible"/></clipPath><linearGradient id="f" gradientUnits="userSpaceOnUse" x1="-161.171" y1="96.057" x2="-160.171" y2="96.057" gradientTransform="rotate(-112.498 -1902.352 -74.953) scale(17.381)"><stop offset="0" stop-color="#FFAA05"/><stop offset="1" stop-color="#FFCA05"/></linearGradient><path clip-path="url(#e)" fill="url(#f)" d="M44.487 94.783l-8.33-20.112 19.886-8.235 8.33 20.112-19.886 8.236z"/><defs><path id="g" d="M9.667 88.518l-2.204 5.32c-1.52 3.667.23 7.887 3.897 9.406a7.16 7.16 0 0 0 5.51 0 7.153 7.153 0 0 0 3.896-3.896c1.52-3.667-.23-7.887-3.897-9.407l-5.32-2.202-1.333-.552-.55 1.328v.004z"/></defs><clipPath id="h"><use xlink:href="#g" overflow="visible"/></clipPath><linearGradient id="i" gradientUnits="userSpaceOnUse" x1="-161.171" y1="96.06" x2="-160.171" y2="96.06" gradientTransform="rotate(-112.498 -1915.44 -55.36) scale(17.381)"><stop offset="0" stop-color="#006432"/><stop offset="1" stop-color="#1D984A"/></linearGradient><path clip-path="url(#h)" fill="url(#i)" d="M8.338 109.757L.008 89.644l19.886-8.237 8.33 20.11-19.886 8.24z"/><defs><path id="j" d="M30.317 64.452l-2.203 5.32c-1.52 3.667.23 7.887 3.897 9.406a7.151 7.151 0 0 0 5.51 0 7.156 7.156 0 0 0 3.897-3.897c1.52-3.666-.23-7.885-3.896-9.405l-5.32-2.203-1.33-.552-.552 1.332z"/></defs><clipPath id="k"><use xlink:href="#j" overflow="visible"/></clipPath><linearGradient id="l" gradientUnits="userSpaceOnUse" x1="-161.171" y1="96.057" x2="-160.171" y2="96.057" gradientTransform="rotate(-112.498 -1913.142 -74.325) scale(17.381)"><stop offset="0"/><stop offset="1" stop-color="#383435"/></linearGradient><path clip-path="url(#k)" fill="url(#l)" d="M28.987 85.69l-8.33-20.112 19.886-8.235 8.33 20.112-19.886 8.236z"/><defs><path id="m" d="M14.197 71.128l-2.203 5.32c-1.518 3.668.23 7.888 3.897 9.407a7.151 7.151 0 0 0 5.51 0 7.156 7.156 0 0 0 3.897-3.897c1.52-3.667-.23-7.886-3.896-9.406l-5.32-2.203-1.33-.55-.552 1.33v-.002z"/></defs><clipPath id="n"><use xlink:href="#m" overflow="visible"/></clipPath><linearGradient id="o" gradientUnits="userSpaceOnUse" x1="-161.171" y1="96.056" x2="-160.171" y2="96.056" gradientTransform="rotate(-112.498 -1918.954 -65.596) scale(17.381)"><stop offset="0" stop-color="#B31F24"/><stop offset="1" stop-color="#ED1C24"/></linearGradient><path clip-path="url(#n)" fill="url(#o)" d="M12.87 92.368l-8.33-20.11 19.883-8.237 8.33 20.11L12.87 92.37z"/></svg>