<svg xmlns="http://www.w3.org/2000/svg" width="281.878" height="60.209"><defs><clipPath id="a"><path d="M0 65.122h230.807V0H0v65.122z"/></clipPath><clipPath id="b"><path d="M114.13 64.204h37.468V18.27h-37.47v45.934z"/></clipPath><clipPath id="c"><path d="M129.6 64.204l-15.47-38.388h20.54l3.016-7.546H151.6l-20.54 45.934h-1.46zm-5.17-12.862l5.84-14.633h-11.745l5.906 14.632z"/></clipPath><linearGradient x2="1" gradientUnits="userSpaceOnUse" gradientTransform="matrix(-37.469 0 0 -37.469 151.598 41.237)" id="d"><stop offset="0" stop-color="#fff"/><stop offset="1" stop-color="#231f20"/></linearGradient><clipPath id="e"><path d="M75.406 54.23h30.842V18.27H75.406v35.96z"/></clipPath><clipPath id="f"><path d="M93.387 41.697c0-6.3-2.888-12.468-11.156-12.468h-6.823V18.27h6.824c16.47 0 24.02 10.63 24.02 23.296 0 5.383-2.326 7.35-4.998 7.352-3.615 0-7.865-3.6-7.865-7.22"/></clipPath><linearGradient x2="1" gradientUnits="userSpaceOnUse" gradientTransform="matrix(-30.842 0 0 -30.842 106.248 36.25)" id="g"><stop offset="0" stop-color="#fff"/><stop offset="1" stop-color="#231f20"/></linearGradient><clipPath id="h"><path d="M197.303 53.87h18.514V34.18h-18.514v19.69z"/></clipPath><clipPath id="i"><path d="M209.48 36.71l-5.84 14.632 5.84-14.633z"/></clipPath><linearGradient x2="1" gradientUnits="userSpaceOnUse" gradientTransform="matrix(-10.717 6.188 -6.188 -10.717 211.918 40.932)" id="j"><stop offset="0" stop-color="#fff"/><stop offset="1" stop-color="#231f20"/></linearGradient><clipPath id="k"><path d="M193.337 64.204h37.47V18.27h-37.47v45.934z"/></clipPath><clipPath id="l"><path d="M208.807 64.204l-15.47-38.388h20.54l3.018-7.546h13.913l-20.54 45.934h-1.46zm-5.168-12.862l5.84-14.633h-11.746l5.905 14.632z"/></clipPath><linearGradient x2="1" gradientUnits="userSpaceOnUse" gradientTransform="matrix(-37.47 0 0 -37.47 230.807 41.237)" id="m"><stop offset="0" stop-color="#fff"/><stop offset="1" stop-color="#231f20"/></linearGradient><clipPath><path d="M162.014 36.316z"/></clipPath><clipPath id="n"><path d="M133.458 53.208h55.832V0h-55.832v53.208z"/></clipPath><clipPath id="o"><path d="M162.014 36.316l.305-.03c-.09.02-.19.03-.3.03h-.006zm.375-.046c4.794-.498 7.3-1.917 7.3-4.154 0-2.56-2.952-4.068-7.217-4.068-3.87 0-8.924.787-13.452 5.184l-7.15-8.202c6.185-6.506 11.938-8.052 19.846-8.075h.354c.113 0 .224 0 .338.002 6.054.04 11.95 1.596 15.783 4.992 2.672 2.365.088 12.76-15.87 14.337.023-.005.046-.01.07-.017"/></clipPath><linearGradient x2="1" gradientUnits="userSpaceOnUse" gradientTransform="matrix(11.907 20.624 -20.624 11.907 155.194 15.9)" id="p"><stop offset="0" stop-color="#fff"/><stop offset="1" stop-color="#231f20"/></linearGradient><clipPath id="q"><path d="M22.057 41.986l-2.56-6.184c-1.767-4.263.264-9.168 4.528-10.934 2.065-.856 4.34-.856 6.406 0 2.065.855 3.675 2.463 4.53 4.53 1.765 4.262-.267 9.167-4.53 10.934l-6.182 2.56-1.55.642-.64-1.548z"/></clipPath><linearGradient x2="1" gradientUnits="userSpaceOnUse" gradientTransform="matrix(-7.732 18.666 -18.666 -7.732 30.845 25.039)" id="r"><stop offset="0" stop-color="#06467c"/><stop offset="1" stop-color="#1162b0"/></linearGradient><clipPath id="s"><path d="M35.172 50.627l-1.692-4.084c-1.166-2.816.176-6.057 2.993-7.222 1.362-.563 2.865-.563 4.23 0 1.363.566 2.425 1.628 2.99 2.993 1.168 2.816-.174 6.055-2.99 7.22l-4.086 1.693-1.022.423-.423-1.023z"/></clipPath><linearGradient x2="1" gradientUnits="userSpaceOnUse" gradientTransform="matrix(-5.107 12.328 -12.328 -5.107 40.976 39.435)" id="t"><stop offset="0" stop-color="#fa0"/><stop offset="1" stop-color="#ffdc00"/></linearGradient><clipPath id="u"><path d="M7.418 39.13l-1.692-4.083c-1.167-2.816.174-6.056 2.99-7.223 1.366-.564 2.867-.564 4.23 0 1.366.566 2.428 1.628 2.992 2.992 1.167 2.816-.174 6.056-2.99 7.222L8.86 39.73l-1.02.423-.424-1.022z"/></clipPath><linearGradient x2="1" gradientUnits="userSpaceOnUse" gradientTransform="matrix(-5.107 12.328 -12.328 -5.107 13.221 27.938)" id="v"><stop offset="0" stop-color="#005f32"/><stop offset="1" stop-color="#009632"/></linearGradient><clipPath id="w"><path d="M23.27 57.607l-1.69-4.083c-1.165-2.816.177-6.056 2.992-7.223 1.363-.563 2.865-.563 4.23 0 1.363.567 2.426 1.63 2.99 2.993 1.168 2.816-.175 6.055-2.99 7.222l-4.083 1.692-1.025.423-.424-1.023z"/></clipPath><linearGradient x2="1" gradientUnits="userSpaceOnUse" gradientTransform="matrix(5.107 -12.328 12.328 5.107 23.97 58.744)" id="x"><stop offset="0" stop-color="#1a1818"/><stop offset="1" stop-color="#2a2728"/></linearGradient><clipPath id="y"><path d="M10.895 52.48l-1.692-4.083c-1.166-2.816.177-6.057 2.992-7.222 1.364-.564 2.866-.564 4.232 0 1.362.565 2.425 1.628 2.99 2.992 1.166 2.816-.176 6.055-2.99 7.22l-4.084 1.693-1.024.424-.425-1.023z"/></clipPath><linearGradient x2="1" gradientUnits="userSpaceOnUse" gradientTransform="matrix(4.23 10.213 -10.213 4.23 11.921 41.289)" id="z"><stop offset="0" stop-color="#b40500"/><stop offset="1" stop-color="#f50000"/></linearGradient></defs><g><g><g clip-path="url(#a)" transform="matrix(1.25 0 0 -1.25 -6.631 81.403)"><g><path d="M173.3 51.473c-3.15 2.363-6.76 3.15-10.76 3.15-3.15 0-6.235-.984-6.235-3.413 0-3.15 3.084-3.608 7.612-4.068 9.12-.984 18.636-4.658 18.636-15.223 0-10.435-9.843-14.897-20.145-14.963-8.268-.066-14.174 1.38-20.54 8.073l7.153 8.202c4.53-4.397 9.582-5.184 13.453-5.184 4.266 0 7.218 1.508 7.218 4.068 0 2.297-2.623 3.74-7.675 4.2-10.04.918-18.703 3.478-18.703 14.894 0 9.712 9.515 13.912 19.227 13.912 6.89 0 12.27-1.574 17.192-5.447l-6.43-8.202z" fill="#06467c"/></g><g><path d="M118.525 36.71l5.906 14.632 5.84-14.633h-11.745zm23.344-11.68l4.432 5.085-15.243 34.09h-13.125L97.33 18.27h13.78l3.02 7.547h20.538l3.018-7.546h11.665c-2.668 1.582-5.082 3.786-7.48 6.76" fill="#1162b0"/></g><g><g><g clip-path="url(#b)" opacity=".35"><g><g clip-path="url(#c)"><g><g><path d="M129.6 64.204l-15.47-38.388h20.54l3.016-7.546H151.6l-20.54 45.934h-1.46zm-5.17-12.862l5.84-14.633h-11.745l5.906 14.632z" fill="url(#d)"/></g></g></g></g></g></g></g><g><path d="M75.407 29.23h6.824c8.27 0 11.156 6.167 11.156 12.467 0 6.297-3.214 11.678-11.155 11.678h-6.823V29.23zm6.824 34.973c16.21 0 24.018-9.973 24.018-22.638 0-12.665-7.546-23.295-24.017-23.295H62.546v45.933H82.23z" fill="#1162b0"/></g><g><g><g clip-path="url(#e)" opacity=".35"><g><g clip-path="url(#f)"><g><g><path d="M93.387 41.697c0-6.3-2.888-12.468-11.156-12.468h-6.823V18.27h6.824c16.47 0 24.02 10.63 24.02 23.296 0 5.383-2.326 7.35-4.998 7.352-3.615 0-7.865-3.6-7.865-7.22" fill="url(#g)"/></g></g></g></g></g></g></g><g><path d="M203.64 51.342l-5.906-14.633h11.746l-5.84 14.632zm10.237-25.525h-20.54l-3.017-7.547h-13.78l20.604 45.934h13.124l20.54-45.934h-13.913l-3.018 7.547z" fill="#06467c"/></g><g><g><g clip-path="url(#h)" opacity=".3"><g><g clip-path="url(#i)"><g><g><path d="M209.48 36.71l-5.84 14.632 5.84-14.633z" fill="url(#j)"/></g></g></g></g></g></g></g><g><g><g clip-path="url(#k)" opacity=".35"><g><g clip-path="url(#l)"><g><g><path d="M208.807 64.204l-15.47-38.388h20.54l3.018-7.546h13.913l-20.54 45.934h-1.46zm-5.168-12.862l5.84-14.633h-11.746l5.905 14.632z" fill="url(#m)"/></g></g></g></g></g></g></g><g><g><g clip-path="url(#n)" opacity=".32"><g><g clip-path="url(#o)"><g><g><path d="M162.014 36.316l.305-.03c-.09.02-.19.03-.3.03h-.006zm.375-.046c4.794-.498 7.3-1.917 7.3-4.154 0-2.56-2.952-4.068-7.217-4.068-3.87 0-8.924.787-13.452 5.184l-7.15-8.202c6.185-6.506 11.938-8.052 19.846-8.075h.354c.113 0 .224 0 .338.002 6.054.04 11.95 1.596 15.783 4.992 2.672 2.365.088 12.76-15.87 14.337.023-.005.046-.01.07-.017" fill="url(#p)"/></g></g></g></g></g></g></g></g></g><g><g clip-path="url(#q)" transform="matrix(1.25 0 0 -1.25 -6.631 81.403)"><g><g><path d="M22.057 41.986l-2.56-6.184c-1.767-4.263.264-9.168 4.528-10.934 2.065-.856 4.34-.856 6.406 0 2.065.855 3.675 2.463 4.53 4.53 1.765 4.262-.267 9.167-4.53 10.934l-6.182 2.56-1.55.642-.64-1.548z" fill="url(#r)"/></g></g></g></g><g><g clip-path="url(#s)" transform="matrix(1.25 0 0 -1.25 -6.631 81.403)"><g><g><path d="M35.172 50.627l-1.692-4.084c-1.166-2.816.176-6.057 2.993-7.222 1.362-.563 2.865-.563 4.23 0 1.363.566 2.425 1.628 2.99 2.993 1.168 2.816-.174 6.055-2.99 7.22l-4.086 1.693-1.022.423-.423-1.023z" fill="url(#t)"/></g></g></g></g><g><g clip-path="url(#u)" transform="matrix(1.25 0 0 -1.25 -6.631 81.403)"><g><g><path d="M7.418 39.13l-1.692-4.083c-1.167-2.816.174-6.056 2.99-7.223 1.366-.564 2.867-.564 4.23 0 1.366.566 2.428 1.628 2.992 2.992 1.167 2.816-.174 6.056-2.99 7.222L8.86 39.73l-1.02.423-.424-1.022z" fill="url(#v)"/></g></g></g></g><g><g clip-path="url(#w)" transform="matrix(1.25 0 0 -1.25 -6.631 81.403)"><g><g><path d="M23.27 57.607l-1.69-4.083c-1.165-2.816.177-6.056 2.992-7.223 1.363-.563 2.865-.563 4.23 0 1.363.567 2.426 1.63 2.99 2.993 1.168 2.816-.175 6.055-2.99 7.222l-4.083 1.692-1.025.423-.424-1.023z" fill="url(#x)"/></g></g></g></g><g><g clip-path="url(#y)" transform="matrix(1.25 0 0 -1.25 -6.631 81.403)"><g><g><path d="M10.895 52.48l-1.692-4.083c-1.166-2.816.177-6.057 2.992-7.222 1.364-.564 2.866-.564 4.232 0 1.362.565 2.425 1.628 2.99 2.992 1.166 2.816-.176 6.055-2.99 7.22l-4.084 1.693-1.024.424-.425-1.023z" fill="url(#z)"/></g></g></g></g></g></svg>