<svg xmlns="http://www.w3.org/2000/svg" width="48.513" height="43.004"><defs><clipPath id="a"><path d="M22.057 24.69l-2.56-6.184c-1.767-4.263.264-9.17 4.528-10.934 2.065-.856 4.34-.856 6.406 0 2.065.855 3.675 2.463 4.53 4.528 1.765 4.264-.267 9.17-4.53 10.936l-6.182 2.56-1.55.642-.64-1.548z"/></clipPath><linearGradient x2="1" gradientUnits="userSpaceOnUse" gradientTransform="matrix(-7.732 18.666 -18.666 -7.732 30.845 7.743)" id="b"><stop offset="0" stop-color="#06467c"/><stop offset="1" stop-color="#1162b0"/></linearGradient><clipPath id="c"><path d="M35.172 33.33l-1.692-4.084c-1.166-2.816.176-6.056 2.993-7.22 1.362-.566 2.865-.566 4.23 0 1.363.564 2.425 1.626 2.99 2.99 1.168 2.817-.174 6.056-2.99 7.222l-4.086 1.692-1.022.423-.423-1.022z"/></clipPath><linearGradient x2="1" gradientUnits="userSpaceOnUse" gradientTransform="matrix(-5.107 12.328 -12.328 -5.107 40.976 22.139)" id="d"><stop offset="0" stop-color="#fa0"/><stop offset="1" stop-color="#ffdc00"/></linearGradient><clipPath id="e"><path d="M7.418 21.835L5.726 17.75c-1.167-2.815.174-6.055 2.99-7.223 1.366-.563 2.867-.563 4.23 0 1.366.566 2.428 1.63 2.992 2.993 1.167 2.816-.174 6.056-2.99 7.22L8.86 22.434l-1.02.423-.424-1.02z"/></clipPath><linearGradient x2="1" gradientUnits="userSpaceOnUse" gradientTransform="matrix(-5.107 12.328 -12.328 -5.107 13.221 10.642)" id="f"><stop offset="0" stop-color="#005f32"/><stop offset="1" stop-color="#009632"/></linearGradient><clipPath id="g"><path d="M23.27 40.31l-1.69-4.082c-1.165-2.816.177-6.056 2.992-7.224 1.363-.563 2.865-.563 4.23 0 1.363.566 2.426 1.628 2.99 2.993 1.168 2.816-.175 6.055-2.99 7.22L24.72 40.91l-1.025.423-.424-1.022z"/></clipPath><linearGradient x2="1" gradientUnits="userSpaceOnUse" gradientTransform="matrix(5.107 -12.328 12.328 5.107 23.97 41.447)" id="h"><stop offset="0" stop-color="#1a1818"/><stop offset="1" stop-color="#2a2728"/></linearGradient><clipPath id="i"><path d="M10.895 35.185L9.203 31.1c-1.166-2.816.177-6.056 2.992-7.22 1.364-.566 2.866-.566 4.232 0 1.362.564 2.425 1.627 2.99 2.99 1.166 2.817-.176 6.056-2.99 7.222l-4.084 1.692-1.024.424-.425-1.023z"/></clipPath><linearGradient x2="1" gradientUnits="userSpaceOnUse" gradientTransform="matrix(4.23 10.213 -10.213 4.23 11.921 23.993)" id="j"><stop offset="0" stop-color="#b40500"/><stop offset="1" stop-color="#f50000"/></linearGradient></defs><g><g><g clip-path="url(#a)" transform="matrix(1.25 0 0 -1.25 -6.631 51.666)"><g><g><path d="M22.057 24.69l-2.56-6.184c-1.767-4.263.264-9.17 4.528-10.934 2.065-.856 4.34-.856 6.406 0 2.065.855 3.675 2.463 4.53 4.528 1.765 4.264-.267 9.17-4.53 10.936l-6.182 2.56-1.55.642-.64-1.548z" fill="url(#b)"/></g></g></g></g><g><g clip-path="url(#c)" transform="matrix(1.25 0 0 -1.25 -6.631 51.666)"><g><g><path d="M35.172 33.33l-1.692-4.084c-1.166-2.816.176-6.056 2.993-7.22 1.362-.566 2.865-.566 4.23 0 1.363.564 2.425 1.626 2.99 2.99 1.168 2.817-.174 6.056-2.99 7.222l-4.086 1.692-1.022.423-.423-1.022z" fill="url(#d)"/></g></g></g></g><g><g clip-path="url(#e)" transform="matrix(1.25 0 0 -1.25 -6.631 51.666)"><g><g><path d="M7.418 21.835L5.726 17.75c-1.167-2.815.174-6.055 2.99-7.223 1.366-.563 2.867-.563 4.23 0 1.366.566 2.428 1.63 2.992 2.993 1.167 2.816-.174 6.056-2.99 7.22L8.86 22.434l-1.02.423-.424-1.02z" fill="url(#f)"/></g></g></g></g><g><g clip-path="url(#g)" transform="matrix(1.25 0 0 -1.25 -6.631 51.666)"><g><g><path d="M23.27 40.31l-1.69-4.082c-1.165-2.816.177-6.056 2.992-7.224 1.363-.563 2.865-.563 4.23 0 1.363.566 2.426 1.628 2.99 2.993 1.168 2.816-.175 6.055-2.99 7.22L24.72 40.91l-1.025.423-.424-1.022z" fill="url(#h)"/></g></g></g></g><g><g clip-path="url(#i)" transform="matrix(1.25 0 0 -1.25 -6.631 51.666)"><g><g><path d="M10.895 35.185L9.203 31.1c-1.166-2.816.177-6.056 2.992-7.22 1.364-.566 2.866-.566 4.232 0 1.362.564 2.425 1.627 2.99 2.99 1.166 2.817-.176 6.056-2.99 7.222l-4.084 1.692-1.024.424-.425-1.023z" fill="url(#j)"/></g></g></g></g></g></svg>