<svg xmlns="http://www.w3.org/2000/svg" height="198.42" viewBox="0 0 164.31 198.425" width="164.31" version="1" xmlns:xlink="http://www.w3.org/1999/xlink" enable-background="new 0 0 164.31 198.425"><path d="M82.153 0l-8.71 8.71-9.893 9.893-39.516 39.514c-32.046 32.046-32.046 84.19 0 116.24 15.524 15.524 36.164 24.073 58.118 24.073s42.593-8.55 58.117-24.073c15.5-15.502 24.04-36.142 24.04-58.117s-8.54-42.615-24.04-58.118l-39.517-39.514-9.892-9.892L82.15 0z" fill="#fff"/><path d="M82.152 17.42l-9.893 9.894-39.517 39.514C5.5 94.07 5.5 138.398 32.743 165.64c13.198 13.2 30.745 20.467 49.408 20.467s36.21-7.268 49.41-20.465c27.24-27.242 27.24-71.57 0-98.812L92.042 27.315l-9.893-9.893z" fill="#00598E"/><path d="M82.152 37.207L42.638 76.72c-21.823 21.824-21.823 57.206 0 79.03 10.91 10.91 25.213 16.366 39.514 16.366s28.603-5.455 39.514-16.367c21.823-21.826 21.823-57.208 0-79.03L82.148 37.205z" fill="#0077C0"/><g opacity=".5"><defs><path id="a" d="M42.638 155.75h84.53v28.29H42.64z"/></defs><clipPath id="b"><use overflow="visible" xlink:href="#a"/></clipPath><path d="M58.65 169.23l-3.114 6.253-1.154-.574.2-.607c-.675.323-1.233.19-1.788-.087-1.297-.646-1.73-2-1.042-3.377.713-1.43 2.05-1.85 3.347-1.203.516.26.93.664 1.07 1.316l1.18-2.37 1.3.64zm-5.6 2.25c-.317.636-.173 1.333.516 1.676.582.29 1.336.297 1.755-.544.37-.742-.03-1.435-.62-1.73-.662-.33-1.32-.07-1.65.59zm10.09 1.63l1.272.453-1.658 4.65-1.224-.438.133-.61c-.485.38-1.22.33-1.676.18-1.396-.49-2.082-1.753-1.535-3.286.55-1.548 1.937-2.07 3.305-1.564.583.21 1.05.63 1.146 1.13l.238-.52zm-3.332 1.43c-.275.77.11 1.418.788 1.66.763.27 1.444-.152 1.652-.736.238-.668.033-1.432-.776-1.72-.678-.23-1.39.03-1.664.8zm9.032 1.6c-.297-.34-.613-.52-1.05-.625-.457-.11-.73-.002-.787.23-.063.263.144.467.607.59.936.258 2.024.728 1.714 2.05-.18.78-.963 1.474-2.488 1.105-.71-.172-1.404-.484-2.057-1.36l.84-.847c.475.63 1.022.875 1.525 1.007.405.11.766.022.817-.232.054-.225-.066-.448-.713-.626-.884-.256-1.91-.896-1.64-2.022.266-1.087 1.405-1.294 2.444-1.042.74.18 1.286.507 1.686 1.066l-.9.7zm6.332-.35l1.337.184c-.227 1.623-.45 3.268-.676 4.89l-1.287-.175.005-.63c-.397.473-1.127.572-1.604.52-1.467-.19-2.396-1.29-2.174-2.904.223-1.623 1.473-2.42 2.915-2.2.614.083 1.156.4 1.354.87l.126-.55zm-2.97 2.08c-.11.81.397 1.365 1.11 1.463.802.11 1.383-.445 1.467-1.06.094-.702-.26-1.407-1.114-1.524-.713-.09-1.354.32-1.466 1.13zm7.213 2.46c-.06 1.077-1.696.987-1.637-.09.06-1.07 1.697-.98 1.637.09zm1.53-1.63c-.036-1.49.997-2.613 2.636-2.652 1.65-.04 2.736 1.034 2.77 2.523.037 1.49-.965 2.596-2.644 2.636-1.668.05-2.723-1.01-2.76-2.5zm3.947-.09c-.015-.62-.41-1.29-1.28-1.27-.858.02-1.223.71-1.208 1.328.016.62.4 1.28 1.27 1.26.878-.02 1.233-.67 1.218-1.32zm4.208-2.82l.173.523c.272-.497.685-.748 1.23-.814.466-.06.87.032 1.255.3L91.3 177c-.26-.14-.517-.19-.814-.154-.615.074-1.093.535-1.004 1.27l.31 2.55-1.43.174-.593-4.892 1.33-.16zm6.043 4.64c.172.454.754.488 1.28.37.587-.13 1.2-.552 1.014-1.392l-.15-.674c-.245.65-.85.926-1.316 1.04-1.44.33-2.702-.414-3.053-1.996-.355-1.602.538-2.794 1.968-3.09.605-.134 1.225.025 1.546.364l-.073-.558 1.367-.303 1.096 4.944c.364 1.65-.728 2.64-2.134 2.953-1.338.297-2.59-.08-2.942-1.345l1.398-.31zm-.82-2.96c.183.83.845 1.134 1.538.98 1.644-.364 1.078-2.913-.563-2.55-.693.16-1.158.74-.973 1.57zm7.707-.22c.32 1.03-1.244 1.518-1.564.486-.33-1.04 1.24-1.52 1.56-.49zm3.55-5.79l.253.652-.884 3.46 2.02-.782.48 1.24-3.89 1.5-.22-.568.916-3.652-1.846.713-.45-1.166 3.62-1.39zm4.89-2.36l1.2-.612c.745 1.46 1.5 2.938 2.243 4.4l-1.158.59-.352-.518c-.06.613-.6 1.113-1.02 1.34-1.315.682-2.704.312-3.444-1.14-.747-1.46-.177-2.828 1.132-3.472.553-.282 1.18-.332 1.61-.058l-.22-.53zm-1.24 3.41c.37.73 1.105.894 1.748.566.72-.367.88-1.155.598-1.707-.32-.636-1.018-1.01-1.783-.62-.65.33-.95 1.03-.57 1.76z" fill="#fff" clip-path="url(#b)"/></g><path d="M82.152 56.992l29.62 29.62c16.335 16.335 16.335 42.91 0 59.244-7.91 7.912-18.43 12.27-29.62 12.27s-21.71-4.358-29.62-12.27c-16.335-16.333-16.335-42.91 0-59.243l29.623-29.625" fill="#2CC3EB"/><path d="M82.152 76.777l19.73 19.73c10.877 10.877 10.877 28.578 0 39.456-5.27 5.27-12.278 8.172-19.73 8.172s-14.46-2.902-19.73-8.172c-10.877-10.878-10.877-28.58 0-39.457l19.73-19.726" fill="#9EDCF1"/><path d="M82.152 96.563l9.836 9.836c5.424 5.42 5.424 14.245 0 19.67-3.545 3.544-7.684 4.073-9.836 4.073s-6.29-.53-9.836-4.074c-5.424-5.423-5.424-14.248 0-19.67l9.836-9.84" fill="#fff"/></svg>