<svg xmlns="http://www.w3.org/2000/svg" height="198.42" viewBox="0 0 164.31 198.425" width="164.31" version="1" xmlns:xlink="http://www.w3.org/1999/xlink"><path d="M82.152 0l-8.71 8.71-9.893 9.893L24.03 58.117c-32.046 32.046-32.046 84.19 0 116.24C39.557 189.88 60.197 198.43 82.15 198.43s42.594-8.55 58.118-24.073c15.502-15.502 24.04-36.142 24.04-58.117s-8.538-42.615-24.04-58.118l-39.515-39.514-9.892-9.892L82.15 0z" fill="#fff"/><path d="M82.152 17.42l-9.893 9.894-39.517 39.514C5.5 94.07 5.5 138.398 32.743 165.64c13.198 13.2 30.745 20.467 49.408 20.467s36.21-7.268 49.41-20.465c27.24-27.242 27.24-71.57 0-98.812L92.042 27.315l-9.893-9.893z" fill="#00598E"/><path d="M82.152 37.207L42.638 76.72c-21.823 21.824-21.823 57.206 0 79.03 10.91 10.91 25.213 16.366 39.514 16.366s28.603-5.455 39.514-16.367c21.823-21.826 21.823-57.208 0-79.03L82.148 37.205z" fill="#0077C0"/><g opacity=".5"><defs><path id="a" d="M42.638 155.75h84.532v28.29H42.638z"/></defs><clipPath id="b"><use overflow="visible" xlink:href="#a"/></clipPath><path d="M58.65 169.22l-3.114 6.254-1.154-.574.2-.604c-.674.322-1.233.19-1.788-.088-1.297-.646-1.73-2-1.042-3.377.713-1.43 2.05-1.85 3.347-1.2.516.258.93.664 1.07 1.316l1.18-2.37 1.3.64zm-5.6 2.26c-.317.635-.173 1.332.516 1.676.582.29 1.336.297 1.755-.545.37-.74-.03-1.43-.62-1.726-.662-.33-1.32-.07-1.65.59zm10.092 1.63l1.27.453-1.657 4.65-1.224-.438.136-.61c-.485.38-1.22.33-1.677.177-1.397-.486-2.08-1.75-1.535-3.285.55-1.543 1.937-2.068 3.304-1.56.583.21 1.05.63 1.145 1.132l.24-.52zm-3.334 1.43c-.275.77.11 1.418.787 1.66.763.27 1.445-.154 1.653-.738.238-.668.033-1.43-.776-1.72-.678-.23-1.39.03-1.664.8zm9.032 1.6c-.297-.34-.613-.52-1.05-.625-.457-.11-.73-.002-.787.23-.063.263.144.467.607.59.936.258 2.024.728 1.714 2.05-.178.78-.963 1.474-2.488 1.104-.71-.175-1.405-.486-2.056-1.364l.842-.845c.475.63 1.022.876 1.525 1.008.405.11.766.02.817-.233.054-.225-.066-.448-.712-.626-.885-.256-1.912-.896-1.64-2.02.265-1.09 1.404-1.296 2.443-1.044.74.18 1.286.506 1.686 1.066l-.9.7zm6.332-.35l1.337.184-.675 4.893-1.288-.178.004-.628c-.396.47-1.126.57-1.603.517-1.467-.19-2.396-1.288-2.174-2.9.223-1.625 1.472-2.42 2.915-2.203.614.084 1.156.4 1.353.872l.13-.56zm-2.97 2.08c-.112.812.397 1.367 1.11 1.465.802.11 1.383-.446 1.467-1.06.094-.703-.26-1.408-1.115-1.525-.712-.11-1.354.3-1.465 1.11zm7.213 2.46c-.06 1.077-1.696.986-1.637-.09.06-1.08 1.697-.98 1.637.09zm1.53-1.63c-.036-1.49.998-2.613 2.637-2.652 1.648-.04 2.733 1.034 2.77 2.523.035 1.49-.97 2.596-2.647 2.636-1.67.05-2.725-1.01-2.76-2.5zm3.947-.09c-.015-.62-.41-1.29-1.28-1.27-.86.02-1.222.71-1.207 1.33s.4 1.28 1.27 1.258c.878-.02 1.232-.67 1.217-1.32zm4.205-2.82l.175.522c.272-.497.685-.748 1.23-.814.466-.057.87.035 1.255.3l-.458 1.205c-.26-.14-.52-.19-.817-.154-.615.072-1.093.533-1.004 1.27l.31 2.55-1.43.172-.593-4.892 1.33-.16zm6.046 4.64c.172.454.754.488 1.28.37.587-.13 1.2-.552 1.014-1.392l-.15-.674c-.245.65-.85.926-1.316 1.04-1.44.33-2.702-.414-3.053-1.996-.355-1.602.538-2.794 1.968-3.09.605-.134 1.225.025 1.546.364l-.073-.558 1.367-.303 1.096 4.944c.364 1.65-.728 2.64-2.134 2.953-1.338.297-2.59-.08-2.942-1.345l1.398-.31zm-.82-2.96c.183.83.845 1.134 1.538.98 1.644-.364 1.078-2.913-.563-2.55-.693.16-1.158.74-.973 1.57zm7.707-.22c.32 1.03-1.245 1.518-1.565.486-.32-1.04 1.25-1.52 1.57-.49zm3.55-5.79l.252.652-.882 3.46 2.023-.782.48 1.24-3.89 1.5-.22-.568.915-3.652-1.846.713-.45-1.166 3.63-1.39zm4.89-2.36l1.202-.612 2.242 4.398-1.157.59-.354-.516c-.057.613-.6 1.113-1.02 1.34-1.314.68-2.703.313-3.442-1.14-.742-1.46-.172-2.828 1.138-3.473.552-.28 1.178-.33 1.61-.057l-.22-.53zm-1.24 3.4c.372.73 1.106.895 1.747.567.722-.367.88-1.155.6-1.707-.322-.633-1.02-1.008-1.784-.617-.65.34-.95 1.04-.57 1.76z" fill="#fff" clip-path="url(#b)"/></g><path d="M82.152 56.992l29.62 29.62c16.335 16.335 16.335 42.91 0 59.244-7.91 7.912-18.43 12.27-29.62 12.27s-21.71-4.358-29.62-12.27c-16.335-16.333-16.335-42.91 0-59.243l29.623-29.625" fill="#fa0"/><path d="M82.152 76.777l19.73 19.73c10.877 10.877 10.877 28.578 0 39.456-5.27 5.27-12.278 8.172-19.73 8.172s-14.46-2.902-19.73-8.172c-10.877-10.878-10.877-28.58 0-39.457l19.73-19.726" fill="#FFCA05"/><path d="M82.152 96.563l9.836 9.836c5.424 5.42 5.424 14.245 0 19.67-3.545 3.544-7.684 4.073-9.836 4.073s-6.29-.53-9.836-4.074c-5.424-5.423-5.424-14.248 0-19.67l9.836-9.84" fill="#fff"/></svg>