<svg xmlns="http://www.w3.org/2000/svg" height="131.86" viewBox="0 0 503.471 131.856" width="503.47" version="1" enable-background="new 0 0 503.471 131.856"><path d="M54.59 0L46.86 7.733 15.97 38.62c-21.294 21.295-21.294 55.944 0 77.24 10.317 10.314 24.032 15.996 38.62 15.996s28.305-5.682 38.62-15.997c21.295-21.296 21.295-55.946 0-77.24L62.325 7.732 54.59 0z" fill="#00598E"/><path d="M54.59 15.466L23.705 46.353c-17.058 17.058-17.058 44.715 0 61.773 8.53 8.53 19.708 12.794 30.887 12.794s22.36-4.264 30.888-12.794c17.058-17.058 17.058-44.715 0-61.773L54.59 15.463z" fill="#0077C0"/><path d="M54.59 30.93l23.155 23.155c12.767 12.767 12.767 33.54 0 46.308-6.185 6.185-14.408 9.59-23.154 9.59s-16.968-3.405-23.153-9.59c-12.767-12.767-12.767-33.54 0-46.308l23.154-23.15" fill="#fa0"/><path d="M54.59 46.397l15.422 15.42c8.504 8.505 8.504 22.34 0 30.844-4.12 4.12-9.596 6.39-15.42 6.39s-11.303-2.27-15.422-6.39c-8.504-8.502-8.504-22.338 0-30.842l15.42-15.42" fill="#FFCA05"/><path d="M54.59 61.862l7.69 7.69c4.24 4.238 4.24 11.136 0 15.376-2.772 2.77-6.007 3.184-7.69 3.184s-4.916-.414-7.687-3.184c-4.24-4.24-4.24-11.138 0-15.377l7.688-7.688" fill="#fff"/><path d="M145.86 46.472c12.35 0 18.3 7.6 18.3 17.252 0 9.65-5.75 17.75-18.3 17.75h-15V46.473h15zm-5.2 26.652h5.2c6.3 0 8.5-4.7 8.5-9.5s-2.448-8.9-8.5-8.9h-5.2v18.4zM200.82 81.475h-10.9l-8.15-11.35h-3.45v11.35h-9.902V46.473h17.1c8.952 0 13.603 5.75 13.603 12.05 0 4.3-1.5 7.95-7.4 10.55l9.1 11.802v.6zm-22.51-27.1v8.4h7.3c2.6 0 3.75-1.95 3.75-4.05 0-2.202-1.25-4.35-3.85-4.35h-7.2zM236.76 46.522v19.55c.05 10.352-6.25 16.153-16.5 16.153s-16.502-5.55-16.502-16.25V46.52h9.85v19.452c0 5.5 2.65 7.8 6.65 7.8s6.652-2.4 6.652-7.7V46.52h9.85zM252.26 72.025v9.45h-9.9V46.472h17c9.402 0 14.052 5.9 14.052 12.752 0 7.15-4.7 12.7-14.052 12.8h-7.1zm0-8.35h7.1c2.75 0 4.15-2.002 4.15-4.302s-1.45-4.4-4.15-4.4h-7.1v8.7zM298.51 75.725h-15.65l-2.3 5.75h-10.502l15.7-35.002h10.003l15.652 35.002H300.81l-2.3-5.75zm-7.8-19.452l-4.5 11.15h8.95l-4.45-11.15zM324.11 46.473v26.602h16.75v8.4h-26.65V46.473zM385.73 76.92c-3.957 3.906-8.763 5.458-14.07 5.458-13.77 0-19.126-8.663-19.176-18.176-.05-9.01 6.01-18.574 19.176-18.574 5.057 0 9.613 1.752 13.568 5.607l-6.107 6.008c-2.503-2.404-5.107-3.054-7.46-3.054-6.76 0-9.413 5.506-9.363 10.062.05 4.557 2.454 9.713 9.363 9.713 2.353 0 5.76-1 8.26-3.554l5.81 6.51zm28.73-1.203h-15.67l-2.304 5.76h-10.513l15.72-35.05h10.015l15.67 35.05h-10.614l-2.32-5.76zm-7.81-19.476l-4.504 11.167h8.96l-4.46-11.166zm51.31 4.358L449 71.213h-1.753l-8.763-10.565v20.828h-9.813V46.428h10.366l9.21 11.867 9.214-11.867h10.315v35.048h-9.815V60.598zm24.33 11.415v9.463h-9.913V46.428H489.4c9.413 0 14.07 5.91 14.07 12.768 0 7.16-4.707 12.717-14.07 12.817h-7.11zm0-8.36h7.11c2.755 0 4.155-2.003 4.155-4.307 0-2.303-1.45-4.407-4.155-4.407h-7.11v8.712z" fill="#00598E"/><path d="M133.98 103.8c.104 2.273 1.445 3.122 3.283 3.122 2.107 0 3.366-1.185 3.366-3.32v-5.078h-4.007v-2.806h7.226v7.905c0 3.616-2.272 6.224-6.546 6.224-4.047 0-6.4-1.838-6.442-6.047h3.12zM153.86 109.88c-4.625 0-7.805-2.747-7.805-7.25 0-4.507 3.18-7.254 7.805-7.254s7.805 2.747 7.805 7.253c.01 4.5-3.17 7.25-7.8 7.25m0-11.737c-2.746 0-4.646 1.976-4.646 4.486 0 2.587 1.9 4.464 4.645 4.464 2.808 0 4.646-1.897 4.646-4.465 0-2.54-1.84-4.497-4.65-4.497" fill="#0077C0"/><path fill="#0077C0" d="M173.74 109.56v-5.47h-6.46v5.47h-3.22V95.733h3.22v5.527h6.46v-5.527h3.18v13.827zM190.38 107.17h-7.412l-1.054 2.37h-3.468l6.483-13.83h3.51l6.482 13.83h-3.49l-1.05-2.37zm-3.69-8.334l-2.5 5.61h4.978l-2.48-5.613zM206.5 104.7l-.2-4.34v-4.646h3.24v13.826h-2.77l-7.18-8.85.12 4.55v4.3h-3.26V95.714h2.77zM222.81 104.7l-.21-4.34v-4.646h3.25v13.826h-2.77l-7.18-8.85.12 4.55v4.3h-3.26V95.714h2.76zM240.07 109.54h-11.01V95.713h10.72v2.826h-7.56v2.67h7.13v2.7h-7.13v2.79h7.85zM251.16 99.053c-.806-.81-2.21-1.166-3.346-1.166-1.424 0-2.58.574-2.58 1.522 0 1.264 1.26 1.5 3.118 1.658 2.848.237 5.554 1.285 5.554 4.486 0 3.083-2.974 4.426-6.092 4.446-2.498.02-5.1-.91-6.32-2.845l1.923-1.917c1.114 1.363 2.952 1.956 4.42 1.956 1.712 0 2.89-.652 2.89-1.64.02-1.166-.95-1.7-2.913-1.857-3.056-.277-5.78-1.008-5.74-4.27.02-2.745 2.746-4.207 5.72-4.207 2.23 0 3.902.474 5.39 2.133l-2.02 1.697zM263.23 95.714c2.746 0 5.018 1.185 5.018 3.754 0 1.146-.537 2.213-1.92 2.825 1.838.633 2.602 2.412 2.29 4.012-.432 2.233-2.374 3.24-5.264 3.24h-7.247V95.72h7.12zm-3.96 5.376h3.923c1.26 0 1.88-.494 1.88-1.305 0-.81-.62-1.402-1.84-1.402h-3.963v2.707zm0 5.77h3.964c1.446 0 2.127-.613 2.127-1.58 0-.97-.743-1.62-2.167-1.62h-3.923v3.2zM284.08 95.734v7.726c0 4.11-2.395 6.304-6.195 6.42-3.778.12-6.98-1.954-6.98-6.42v-7.726h3.202v7.726c0 2.47 1.445 3.754 3.798 3.656 2.19-.14 2.974-1.58 2.974-3.656v-7.726h3.21zM299.92 109.54h-3.572l-3.697-4.544h-2.332v4.544h-3.22V95.713h6.855c3.49 0 5.347 2.233 5.347 4.663-.02 1.8-.577 3.4-3.345 4.348l3.965 4.584v.23zm-9.6-11.18v4.032h3.675c1.488 0 2.127-1.067 2.127-1.937-.02-.948-.66-2.094-2.167-2.094h-3.64zM312.22 99.35c-.888-.81-2.23-1.226-3.386-1.226-2.747 0-4.543 1.502-4.543 4.525 0 1.975 1.137 4.445 4.544 4.445 1.012 0 1.962-.158 3.077-.97v-2.21h-3.448v-2.57h6.236v6.027c-1.24 1.7-3.22 2.57-5.885 2.57-5.575 0-7.68-3.697-7.68-7.293 0-3.893 2.394-7.35 7.7-7.35 1.963 0 3.74.513 5.39 2.132l-2.01 1.906z"/><path d="M321.66 103.3c0-1.605 1.243-2.695 2.878-2.695 1.615 0 2.858 1.09 2.858 2.695s-1.243 2.675-2.858 2.675c-1.64 0-2.88-1.07-2.88-2.68" fill="#FFCA05"/><path d="M324.54 100.61c1.615 0 2.858 1.09 2.858 2.695s-1.243 2.675-2.858 2.675v-5.37z" fill="#fa0"/><path d="M334.59 99.796c.185-3.23 3-4.3 5.84-4.3 3.084 0 5.817 1.368 5.817 4.36 0 3.427-2.465 4.418-5.798 4.418-1.222 0-2.982.14-2.982 1.883v.535h8.676v2.853h-11.72v-3.408c0-3.725 3.167-4.557 6.025-4.557 1.056 0 2.63-.298 2.63-1.665 0-1.15-1.016-1.783-2.65-1.783-1.306 0-2.652.535-2.734 1.664h-3.12zM351.11 102.35c-1.368-.714-1.968-1.982-1.78-3.37.31-2.357 2.773-3.626 5.838-3.626 3.313 0 5.693 1.25 6.005 3.746.166 1.347-.56 2.536-1.842 3.09 1.78.635 2.236 2.14 2.256 2.973.083 3.35-3.002 4.736-6.418 4.696-3.313-.02-6.42-1.33-6.336-4.697.01-.81.68-2.27 2.27-2.81m1.12 2.97c-.02.713.58 1.823 2.983 1.823 2.38 0 3-1.09 2.96-1.823-.02-1.03-1.077-1.724-2.96-1.724-1.72 0-2.96.66-2.98 1.72m2.98-4.04c1.676 0 2.546-.793 2.608-1.725.042-.753-.745-1.723-2.65-1.723-2.153 0-2.63 1.208-2.588 1.723.06.934.95 1.724 2.63 1.724" fill="#0077C0"/><path fill="#0077C0" d="M381.26 99.915l-4.48 5.385h-.57l-4.33-5.425v9.685h-3.23V95.694h3.7l4.23 5.326 4.24-5.326h3.67v13.866h-3.23zM397.79 107.17h-7.434l-1.055 2.378h-3.477l6.5-13.87h3.52l6.502 13.87h-3.498l-1.05-2.38zm-3.71-8.365l-2.505 5.628h4.99l-2.49-5.625zM416.54 109.54h-3.583l-3.706-4.557h-2.34v4.557h-3.23V95.674h6.874c3.5 0 5.364 2.24 5.364 4.677-.02 1.804-.58 3.41-3.354 4.36l3.976 4.597v.23zm-9.63-11.21v4.042h3.686c1.49 0 2.132-1.07 2.132-1.942-.02-.95-.662-2.1-2.175-2.1h-3.65zM430.88 107.86c-1.492 1.407-3.418 2.04-5.57 2.04-5.53 0-7.724-3.407-7.744-7.192-.022-3.587 2.422-7.35 7.743-7.35 1.987 0 3.83.732 5.32 2.14l-2.028 1.92c-.87-.81-2.133-1.148-3.293-1.148-3.293 0-4.576 2.437-4.556 4.458s1.16 4.32 4.555 4.32c1.16 0 2.69-.496 3.56-1.328l2 2.14zM442.31 109.56v-5.48h-6.48v5.48h-3.23V95.694h3.23v5.546h6.48v-5.546h3.19v13.866zM453.04 99.796c.185-3.23 3-4.3 5.84-4.3 3.084 0 5.817 1.368 5.817 4.36 0 3.427-2.465 4.418-5.798 4.418-1.222 0-2.982.14-2.982 1.883v.535h8.676v2.853h-11.72v-3.408c0-3.725 3.167-4.557 6.025-4.557 1.056 0 2.63-.298 2.63-1.665 0-1.15-1.016-1.783-2.65-1.783-1.306 0-2.652.535-2.734 1.664h-3.12zM466.89 101.58c0-4.34 2.982-6.34 6.5-6.34 3.52 0 6.38 2.1 6.38 6.34v2.002c0 4.24-2.94 6.36-6.337 6.36-3.395 0-6.543-1.98-6.543-6.34v-2.02zm3.21 2.02c0 2.437 1.366 3.607 3.23 3.607 1.863 0 3.25-1.17 3.25-3.607v-2c0-2.36-1.346-3.548-3.19-3.548s-3.29 1.11-3.29 3.547v2zM482.08 107.01h2.44v-7.49l-2.32.69v-2.692l5.37-1.844v11.336h2.28v2.53h-7.77zM502.66 98.47h-7.62v2.138h2.547c3.105 0 5.9.932 5.88 4.52 0 3.407-3.147 4.596-5.798 4.596-3.356 0-5.902-1.17-5.923-4.46h3.19c0 1.25 1.49 1.725 2.69 1.725.788 0 2.65-.278 2.65-1.863.023-1.546-1.717-1.863-2.69-1.863h-5.55v-7.57h10.623v2.77z"/></svg>