<svg xmlns="http://www.w3.org/2000/svg" height="283.46" viewBox="0 0 283.465 283.464" width="283.46" version="1" xmlns:xlink="http://www.w3.org/1999/xlink"><path d="M283.46 141.73c0 78.277-63.456 141.73-141.73 141.73S0 220.01 0 141.73 63.456 0 141.73 0c78.28 0 141.73 63.455 141.73 141.73" fill="#fff"/><path d="M274.96 141.73c0 73.58-59.648 133.23-133.23 133.23S8.5 215.31 8.5 141.73 68.153 8.5 141.73 8.5s133.23 59.652 133.23 133.23" fill="#00598E"/><path d="M226.77 141.73c0 46.966-38.073 85.04-85.04 85.04s-85.04-38.074-85.04-85.04 38.075-85.04 85.04-85.04 85.04 38.076 85.04 85.04" fill="#fff"/><path d="M32.253 155.53c-2.812.605-3.6 2.387-3.226 4.58.428 2.514 2.162 3.765 4.823 3.312l6.333-1.077-.813-4.78 3.498-.596 1.468 8.622-9.856 1.677c-4.51.767-8.223-1.39-9.09-6.49-.823-4.83.99-8.028 6.23-8.97l.633 3.73zm-.91 27.74c-1.967-5.242-.067-10.066 5.27-12.07 5.333-2.002 9.94.38 11.907 5.622 1.967 5.242.067 10.066-5.267 12.07-5.336 2.01-9.94-.37-11.91-5.62zm13.9-5.21c-1.167-3.11-4.316-4.386-7.287-3.27-3.066 1.15-4.48 4.138-3.312 7.25 1.194 3.182 4.223 4.42 7.265 3.278 2.993-1.13 4.527-4.08 3.333-7.26zm-1.193 29.22l5.877-3.66-4.134-6.64-5.878 3.658-2.06-3.31 14.853-9.246 2.06 3.31-5.94 3.7 4.134 6.64 5.94-3.697 2.035 3.268-14.854 9.245-2.034-3.26zm16.987 15.86l-6.127-6.557-3.062 1.117-2.867-3.068 18.143-6.213 2.9 3.102-7.42 17.682-2.886-3.086 1.32-2.97zm4.65-10.47l-7.25 2.64 4.113 4.4 3.138-7.04zm14.28 21.85l3.01-4.607 3.43-4.768 3.186 2.293-10.224 14.2-2.72-1.958-.515-14.17-3.238 4.754-3.184 4.42-3.205-2.307 10.223-14.2 2.72 1.958.515 14.4zm19.118 10.21l2.075-5.1 2.46-5.333 3.562 1.643-7.325 15.89-3.042-1.403-3.21-13.81-2.272 5.284-2.28 4.95-3.587-1.653 7.324-15.89 3.042 1.402 3.255 14.02zm20.485 12.65l-12.91-3.29 4.32-16.954 12.57 3.203-.883 3.46-8.865-2.257-.833 3.27 8.354 2.128-.846 3.32-8.357-2.13-.87 3.417 9.205 2.345-.88 3.48zm17.75-11.41c-.89-1.1-2.547-1.685-3.917-1.795-1.72-.14-3.173.472-3.27 1.667-.128 1.594 1.367 2.016 3.594 2.396 3.414.576 6.57 2.16 6.246 6.195-.313 3.887-4.037 5.29-7.8 5.014-3.018-.22-6.063-1.643-7.336-4.202l2.512-2.23c1.205 1.828 3.362 2.754 5.13 2.897 2.07.166 3.554-.54 3.654-1.786.144-1.468-.973-2.235-3.323-2.625-3.66-.644-6.873-1.83-6.49-5.94.303-3.46 3.74-5.036 7.33-4.747 2.69.217 4.66.977 6.284 3.214l-2.62 1.95zm15.21-4.81c3.31-.314 6.188.92 6.494 4.154.138 1.443-.382 2.85-1.976 3.777 2.29.59 3.424 2.74 3.24 4.79-.254 2.86-2.473 4.354-5.956 4.684l-8.734.83-1.653-17.42 8.59-.81zm-4.13 7.22l4.728-.448c1.518-.145 2.205-.838 2.108-1.857-.098-1.02-.915-1.695-2.383-1.556l-4.777.45.32 3.42zm.68 7.26l4.777-.453c1.742-.166 2.49-1.015 2.373-2.233-.115-1.22-1.09-1.956-2.806-1.793l-4.728.45.39 4.02zm27.99-20.01l2.705 9.39c1.438 4.997-.58 8.466-4.958 9.882-4.354 1.41-8.803-.04-10.366-5.468l-2.702-9.392 3.723-1.072 2.705 9.392c.864 3.002 2.996 4.08 5.7 3.17 2.497-.9 2.904-2.917 2.18-5.438l-2.706-9.392 3.73-1.07zm25.09 7.22l-3.86 1.944-6.583-3.122-2.52 1.27 2.583 5.135-3.482 1.754-7.867-15.625c2.547-1.28 4.89-2.462 7.41-3.73 3.775-1.9 7.055-.39 8.438 2.356 1 2.044 1.31 4.155-1.143 6.733l6.893 3.02.13.27zm-16.74-7.41l2.293 4.554 3.975-2c1.605-.81 1.69-2.363 1.197-3.346-.563-1.06-1.906-2.007-3.537-1.187l-3.92 1.99zm23.63-13.48c-1.476-.168-3.086.398-4.2 1.244-2.647 2.01-3.23 4.84-.92 7.885 1.513 1.99 4.497 3.644 7.78 1.15.977-.74 1.772-1.596 2.226-3.23l-1.692-2.23-3.324 2.526-1.965-2.587 6.012-4.567 4.61 6.07c.105 2.62-1.14 4.947-3.708 6.897-5.376 4.083-10.23 1.902-12.984-1.72-2.978-3.922-3.314-9.158 1.8-13.043 1.892-1.437 3.997-2.22 6.83-1.797l-.47 3.42zm11.71-10.47c-3.094-2.66-2.092-6.18-.006-8.894 2.27-2.953 5.647-4.52 8.64-2.218 3.43 2.635 2.607 5.754.155 8.944-.9 1.17-2.057 2.96-.313 4.3l.534.412 6.383-8.303 2.854 2.195-8.62 11.216-3.41-2.62c-3.725-2.862-2.226-6.534-.124-9.27.776-1.01 1.637-2.744.27-3.795-1.15-.884-2.53-.4-3.733 1.166-.96 1.25-1.414 2.95-.345 3.897l-2.27 2.97zm12.65-13.27c-4.853-2.53-5.426-6.89-3.46-10.657 1.965-3.767 5.91-5.6 10.65-3.126l2.24 1.168c4.74 2.474 5.47 6.857 3.574 10.492-1.896 3.634-5.87 5.846-10.744 3.303l-2.27-1.17zm4.06-2.26c2.726 1.422 4.796.643 5.836-1.352s.51-4.162-2.217-5.584l-2.24-1.168c-2.638-1.376-4.72-.628-5.747 1.344-1.03 1.973-.598 4.17 2.128 5.593l2.24 1.17zm11.16-13.6l.945-2.794-8.95-3.024-.07 2.932-3.218-1.088-.13-6.877 13.544 4.575.883-2.605 3.03 1.024-3 8.88-3.04-1.02zm-3.91-28.55l-1.613 9.055 2.658.473.54-3.025c.655-3.69 2.403-6.808 6.854-5.99 4.23.755 5.04 4.758 4.48 7.907-.71 3.985-2.703 6.754-6.79 6.052l.675-3.79c1.55.276 2.455-1.39 2.71-2.817.165-.935.216-3.21-1.753-3.562-1.914-.367-2.676 1.63-2.883 2.787l-1.175 6.594-9.4-1.674 2.248-12.623 3.43.62z" fill="#FFCA05"/><path d="M23.883 112.27c2.25-8.86 8.785-11.742 15.707-9.984 6.92 1.757 11.685 7.357 9.398 16.36l-2.732 10.75-25.104-6.376 2.73-10.75zm18.17 8.58l.946-3.73c1.145-4.518-1.825-6.952-5.27-7.826-3.44-.875-6.83.137-7.93 4.476l-.948 3.73 13.2 3.35zM65.3 82.904l-4.02 6.994-10.288 1.043-1.272 2.215 7.282 4.187-3.65 6.353L30.895 90.79l6.307-10.973c3.3-5.742 8.705-6.605 12.747-4.28 2.76 1.585 4.546 3.894 4.04 8.638l10.926-1.486.384.22zm-25.685 4.442l5.39 3.098 2.692-4.684c.96-1.668.132-3.125-1.215-3.9-1.412-.812-3.253-.802-4.21.866l-2.657 4.62zm26.55-41.424L76.21 56.335c5.345 5.487 4.97 11.813-.49 17.08s-11.64 5.52-17.137-.178l-9.994-10.36 5.244-5.06 9.994 10.36c2.825 2.93 5.418 2.792 7.548.737 2.13-2.055 2.31-4.696-.414-7.52L60.92 50.984l5.245-5.06zM89.74 53.29l3.358 6.134-6.426 3.52-12.44-22.718 11.034-6.043c6.1-3.34 11.217-1.165 13.65 3.28 2.543 4.643 1.465 9.916-4.568 13.304l-4.61 2.523zm-2.97-5.42l4.61-2.523c1.784-.978 1.98-2.773 1.165-4.266-.818-1.49-2.506-2.34-4.258-1.38l-4.61 2.525 3.094 5.647zm35.89-4.282l-11.223 2.86-.6 4.543-7.53 1.92 4.866-27.97 7.17-1.826 17.618 22.24-7.6 1.938-2.71-3.702zm-9.15-12.524l-1.19 8.817 6.42-1.633-5.23-7.182zm31.1-10.746l-.73 19.673 12.386.463-.23 6.212-19.71-.733.964-25.884 7.32.272zm45.84 34.4c-3.79 1.587-7.513 1.326-11.152-.137-9.44-3.793-10.727-11.21-8.14-17.747 2.452-6.193 9.24-11.08 18.27-7.45 3.47 1.395 6.11 3.853 7.76 7.586l-5.845 2.435c-1.053-2.338-2.66-3.502-4.273-4.15-4.635-1.863-7.973 1.182-9.195 4.318-1.22 3.14-.994 7.338 3.742 9.242 1.613.648 4.225.9 6.645-.16l2.19 6.064zm18.9 13.422l-8.958-7.342-4.013 2.213-6.013-4.923 25.403-12.67 5.725 4.69-7.458 27.375-6.067-4.972 1.39-4.37zm4.66-14.793l-7.806 4.27 5.124 4.2 2.69-8.47zm26.65 37.645l-10.132-1.655-.665-1.11 3.376-9.566-13.213 7.904-3.723-6.225 22.228-13.298 3.933 6.574-4.03 10.345 11.02 1.34 3.914 6.54-22.23 13.3-3.723-6.225 13.24-7.923zm.07 23.898l-6.804 1.622-1.7-7.127 25.197-6.008 2.918 12.238c1.615 6.767-1.834 11.127-6.766 12.303-5.147 1.227-9.95-1.203-11.625-7.918l-1.23-5.1zm6.01-1.43l1.22 5.11c.472 1.98 2.15 2.645 3.808 2.25 1.655-.396 2.918-1.8 2.455-3.743l-1.22-5.11-6.26 1.49z" fill="#fff"/><path d="M141.73 69.446l-8.312 8.312-33.2 33.2c-22.89 22.89-22.89 60.135 0 83.025 11.088 11.09 25.83 17.195 41.512 17.195s30.424-6.106 41.512-17.195c22.89-22.89 22.89-60.135 0-83.025l-33.2-33.2-8.31-8.314z" fill="#00598E"/><path d="M141.73 86.07l-33.2 33.2c-18.337 18.337-18.337 48.065 0 66.4 9.168 9.17 21.184 13.753 33.2 13.753s24.032-4.584 33.2-13.752c18.337-18.334 18.337-48.062 0-66.4l-33.2-33.2z" fill="#0077C0"/><g opacity=".5"><defs><path id="a" d="M108.53 185.67h71.128v23.745H108.53z"/></defs><clipPath id="b"><use overflow="visible" xlink:href="#a"/></clipPath><path d="M121.93 196.96l-2.63 5.256-.97-.485.17-.505c-.568.27-1.037.157-1.503-.076-1.09-.546-1.452-1.686-.873-2.844.602-1.203 1.726-1.552 2.816-1.007.436.22.782.56.902 1.11l.997-1.995 1.08.54zm-4.72 1.89c-.267.534-.147 1.12.432 1.41.49.245 1.124.253 1.478-.455.312-.624-.027-1.207-.523-1.455-.56-.26-1.11-.04-1.39.51zm8.49 1.38l1.068.383c-.465 1.3-.936 2.61-1.4 3.91l-1.028-.37.112-.513c-.41.318-1.027.275-1.41.148-1.174-.412-1.75-1.475-1.287-2.766.465-1.3 1.63-1.738 2.78-1.31.492.177.883.532.964.954l.21-.43zm-2.81 1.21c-.232.648.09 1.193.66 1.396.642.23 1.216-.127 1.392-.617.202-.565.03-1.205-.65-1.45-.57-.21-1.17.02-1.4.67zm7.62 1.35c-.25-.287-.516-.438-.884-.527-.384-.094-.614-.002-.66.193-.055.223.12.395.51.498.786.217 1.702.613 1.44 1.725-.15.654-.813 1.24-2.095.926-.595-.145-1.18-.408-1.727-1.148l.71-.71c.398.53.858.736 1.28.848.342.094.646.02.69-.195.045-.187-.057-.376-.6-.524-.744-.217-1.608-.756-1.377-1.703.223-.916 1.182-1.088 2.056-.875.622.15 1.083.428 1.418.898l-.77.59zm5.33-.29l1.124.155-.568 4.114-1.082-.15.004-.527c-.334.396-.948.48-1.35.435-1.233-.164-2.015-1.086-1.827-2.444.19-1.365 1.243-2.035 2.456-1.85.517.07.973.337 1.14.733l.12-.46zm-2.5 1.75c-.095.684.333 1.15.933 1.233.675.093 1.164-.374 1.235-.89.082-.593-.22-1.185-.935-1.283-.59-.08-1.13.26-1.22.94zm6.09 2.08c-.05.906-1.427.83-1.376-.076.06-.9 1.43-.83 1.38.08zm1.29-1.37c-.03-1.253.84-2.198 2.218-2.23 1.387-.034 2.3.87 2.33 2.123.03 1.252-.815 2.18-2.227 2.214-1.4.04-2.29-.85-2.32-2.1zm3.32-.08c-.012-.52-.345-1.085-1.076-1.067-.723.018-1.03.596-1.017 1.117s.337 1.078 1.068 1.06c.74-.02 1.04-.57 1.03-1.11zm3.53-2.37l.146.44c.23-.418.575-.63 1.034-.686.393-.048.73.03 1.057.253l-.386 1.013c-.215-.117-.433-.158-.684-.128-.518.063-.92.45-.844 1.067l.262 2.143-1.202.146-.5-4.115 1.12-.13zm5.12 3.89c.145.38.633.41 1.076.31.492-.11 1.006-.466.848-1.17l-.126-.565c-.205.545-.712.78-1.104.875-1.21.28-2.27-.344-2.567-1.672-.3-1.344.448-2.346 1.648-2.596.508-.114 1.028.02 1.298.304l-.062-.468 1.15-.256.926 4.146c.31 1.385-.606 2.217-1.786 2.48-1.124.252-2.175-.064-2.472-1.124l1.16-.26zm-.7-2.48c.156.696.71.95 1.293.82 1.377-.307.9-2.445-.478-2.138-.57.13-.96.62-.81 1.32zm6.48-.2c.27.866-1.047 1.276-1.316.41-.26-.86 1.05-1.27 1.32-.41zm2.99-4.87l.212.55-.74 2.908 1.702-.658.404 1.043-3.27 1.266-.187-.48.77-3.075-1.552.6-.38-.978 3.05-1.18zm4.14-2l1.01-.518c.628 1.23 1.265 2.47 1.893 3.697l-.973.496-.298-.434c-.048.516-.503.938-.857 1.13-1.105.573-2.273.265-2.897-.956-.628-1.227-.15-2.378.95-2.923.465-.237.99-.28 1.354-.05l-.17-.46zm-1.05 2.86c.313.613.932.75 1.47.476.607-.31.74-.974.503-1.438-.272-.532-.858-.846-1.502-.517-.54.28-.78.87-.47 1.48z" fill="#fff" clip-path="url(#b)"/></g><path d="M141.73 102.69l24.888 24.888c13.724 13.724 13.724 36.054 0 49.777-6.648 6.648-15.486 10.31-24.888 10.31s-18.24-3.662-24.888-10.31c-13.724-13.723-13.724-36.053 0-49.777l24.89-24.89" fill="#fa0"/><path d="M141.73 119.32l16.576 16.576c9.14 9.14 9.14 24.013 0 33.153-4.427 4.426-10.314 6.864-16.576 6.864s-12.15-2.438-16.576-6.866c-9.14-9.14-9.14-24.013 0-33.154l16.58-16.58" fill="#FFCA05"/><path d="M141.73 135.94l8.264 8.264c4.557 4.558 4.557 11.972 0 16.53-2.978 2.978-6.456 3.423-8.264 3.423s-5.286-.445-8.264-3.424c-4.557-4.557-4.557-11.972 0-16.53l8.26-8.26" fill="#fff"/></svg>