<svg xmlns="http://www.w3.org/2000/svg" height="210" viewBox="0 0 372.608 210" width="372.61" version="1"><path d="M186.3 0l-7.733 7.733-30.89 30.887c-21.295 21.295-21.295 55.944 0 77.24 10.316 10.315 24.03 15.996 38.62 15.996s28.304-5.682 38.62-15.997c21.294-21.297 21.294-55.947 0-77.24l-30.88-30.89-7.74-7.73z" fill="#00598E"/><path d="M186.3 15.466l-30.887 30.887c-17.058 17.058-17.058 44.715 0 61.774 8.53 8.53 19.708 12.793 30.887 12.793s22.358-4.264 30.887-12.793c17.058-17.06 17.058-44.716 0-61.774l-30.89-30.89z" fill="#0077C0"/><path d="M186.3 30.93l23.154 23.155c12.767 12.767 12.767 33.54 0 46.308-6.185 6.185-14.408 9.59-23.154 9.59s-16.97-3.405-23.154-9.59c-12.767-12.767-12.767-33.54 0-46.308l23.15-23.15" fill="#fa0"/><path d="M186.3 46.397l15.42 15.42c8.505 8.505 8.505 22.34 0 30.844-4.118 4.12-9.595 6.39-15.42 6.39s-11.302-2.27-15.42-6.39c-8.505-8.5-8.505-22.337 0-30.84L186.3 46.4" fill="#FFCA05"/><path d="M186.3 61.862l7.69 7.69c4.238 4.238 4.238 11.136 0 15.376-2.773 2.77-6.008 3.184-7.69 3.184s-4.918-.414-7.688-3.184c-4.24-4.24-4.24-11.138 0-15.377l7.69-7.687" fill="#fff"/><path d="M15 146.47c12.352 0 18.302 7.6 18.302 17.252 0 9.65-5.75 17.75-18.3 17.75H0V146.47h15zm-5.2 26.65H15c6.3 0 8.5-4.7 8.5-9.5s-2.448-8.9-8.5-8.9H9.8v18.4zm60.152 8.36h-10.9l-8.15-11.35h-3.45v11.35H37.55v-35.002h17.1c8.952 0 13.603 5.75 13.603 12.05 0 4.3-1.5 7.95-7.4 10.55l9.1 11.802v.6zm-22.5-27.11v8.4h7.3c2.6 0 3.75-1.95 3.75-4.05 0-2.2-1.25-4.35-3.85-4.35h-7.2zm58.448-7.85v19.55c.05 10.352-6.25 16.153-16.5 16.153s-16.502-5.55-16.502-16.25V146.52h9.85v19.452c0 5.5 2.65 7.8 6.65 7.8s6.652-2.4 6.652-7.7V146.52h9.85zm15.5 25.51v9.45h-9.9v-35.003h17c9.402 0 14.052 5.9 14.052 12.752 0 7.15-4.7 12.7-14.052 12.8h-7.1zm0-8.35h7.1c2.75 0 4.15-2 4.15-4.3s-1.45-4.402-4.15-4.402h-7.1v8.7zm46.25 12.04H152l-2.3 5.75h-10.502l15.7-35.002H164.9l15.653 35.002h-10.6l-2.3-5.75zm-7.8-19.45l-4.5 11.15h8.95l-4.45-11.15zm33.4-9.8v26.61H210v8.4h-26.65v-35.01zm61.62 30.45c-3.957 3.907-8.763 5.46-14.07 5.46-13.77 0-19.126-8.664-19.176-18.177-.05-9.01 6.01-18.574 19.176-18.574 5.057 0 9.613 1.75 13.568 5.605l-6.107 6.008c-2.502-2.404-5.106-3.054-7.46-3.054-6.757 0-9.412 5.506-9.362 10.062.05 4.557 2.454 9.713 9.363 9.713 2.354 0 5.76-1 8.26-3.554l5.81 6.5zm28.73-1.2h-15.67l-2.304 5.76h-10.513l15.72-35.05h10.015l15.67 35.05h-10.614l-2.32-5.76zm-7.81-19.48l-4.504 11.166h8.96l-4.46-11.17zm51.31 4.36l-8.96 10.615h-1.753l-8.763-10.565v20.828h-9.813V146.43h10.367l9.21 11.867 9.214-11.867h10.316v35.048h-9.82v-20.89zm24.33 11.41v9.463h-9.913v-35.048h17.024c9.414 0 14.07 5.91 14.07 12.768 0 7.16-4.706 12.717-14.07 12.817h-7.11zm0-8.36h7.11c2.755 0 4.155-2.002 4.155-4.306 0-2.303-1.45-4.407-4.154-4.407h-7.11v8.72z" fill="#00598E"/><path d="M3.118 203.8c.104 2.273 1.445 3.122 3.283 3.122 2.11 0 3.368-1.185 3.368-3.32v-5.078H5.76v-2.806h7.227v7.905c0 3.616-2.27 6.224-6.545 6.224-4.047 0-6.4-1.838-6.442-6.047h3.118zM23 209.88c-4.626 0-7.806-2.747-7.806-7.25 0-4.507 3.18-7.254 7.805-7.254s7.803 2.747 7.803 7.253c0 4.5-3.18 7.25-7.805 7.25m0-11.74c-2.747 0-4.647 1.974-4.647 4.484 0 2.588 1.9 4.465 4.647 4.465 2.807 0 4.645-1.898 4.645-4.466 0-2.54-1.838-4.5-4.646-4.5M42.88 209.57v-5.48h-6.463v5.48h-3.22v-13.84h3.22v5.54h6.462v-5.54h3.18v13.84zm16.638-2.4h-7.412l-1.054 2.37h-3.468l6.483-13.83h3.51l6.483 13.83h-3.49l-1.052-2.37zm-3.696-8.33l-2.5 5.61H58.3l-2.478-5.61zm19.818 5.86l-.206-4.34v-4.65h3.242v13.83h-2.768l-7.185-8.85.124 4.55v4.3h-3.263v-13.83h2.767zm16.31 0l-.208-4.34v-4.65h3.242v13.83h-2.766l-7.186-8.85.124 4.55v4.3h-3.262v-13.83h2.766zm17.26 4.84H98.202v-13.83h10.718v2.83h-7.56v2.67h7.12v2.7h-7.12v2.79h7.85zm11.08-10.49c-.806-.81-2.21-1.166-3.346-1.166-1.424 0-2.58.574-2.58 1.522 0 1.265 1.26 1.502 3.118 1.66 2.848.236 5.554 1.284 5.554 4.485 0 3.085-2.974 4.428-6.092 4.448-2.498.02-5.1-.91-6.32-2.845l1.923-1.917c1.114 1.363 2.952 1.956 4.42 1.956 1.712 0 2.89-.65 2.89-1.64.02-1.165-.95-1.698-2.913-1.856-3.056-.277-5.78-1.008-5.74-4.27.02-2.745 2.746-4.207 5.72-4.207 2.23 0 3.902.473 5.39 2.132l-2.02 1.7zm12.08-3.34c2.746 0 5.018 1.185 5.018 3.754 0 1.146-.537 2.213-1.92 2.825 1.838.63 2.602 2.41 2.29 4.01-.432 2.233-2.374 3.24-5.264 3.24h-7.247v-13.83h7.12zm-3.97 5.38h3.923c1.26 0 1.88-.494 1.88-1.305 0-.81-.62-1.402-1.84-1.402H128.4v2.71zm0 5.77h3.964c1.446 0 2.127-.613 2.127-1.58 0-.97-.742-1.62-2.166-1.62H128.4v3.2zm24.82-11.13v7.726c0 4.11-2.395 6.304-6.195 6.42-3.778.12-6.98-1.954-6.98-6.42v-7.726h3.202v7.726c0 2.47 1.445 3.754 3.798 3.656 2.19-.14 2.974-1.58 2.974-3.656v-7.726h3.21zm15.83 13.82h-3.572l-3.696-4.544h-2.334v4.544h-3.22v-13.832h6.855c3.49 0 5.347 2.233 5.347 4.663-.02 1.8-.577 3.4-3.345 4.35l3.965 4.584v.24zm-9.6-11.19v4.03h3.675c1.488 0 2.127-1.066 2.127-1.936-.02-.948-.66-2.094-2.167-2.094h-3.63zm21.91.99c-.888-.81-2.23-1.225-3.386-1.225-2.747 0-4.543 1.502-4.543 4.525 0 1.977 1.138 4.446 4.545 4.446 1.012 0 1.962-.158 3.077-.97v-2.21h-3.448v-2.57h6.236v6.027c-1.24 1.7-3.22 2.57-5.885 2.57-5.575 0-7.68-3.697-7.68-7.293 0-3.892 2.394-7.35 7.7-7.35 1.963 0 3.74.514 5.39 2.133l-2.01 1.92z" fill="#0077C0"/><path d="M190.8 203.3c0-1.605 1.243-2.695 2.878-2.695 1.615 0 2.858 1.09 2.858 2.695s-1.243 2.675-2.858 2.675c-1.64 0-2.88-1.07-2.88-2.68" fill="#FFCA05"/><path d="M193.67 200.61c1.615 0 2.858 1.09 2.858 2.695s-1.243 2.675-2.858 2.675v-5.37z" fill="#fa0"/><path d="M203.72 199.8c.185-3.23 3-4.3 5.84-4.3 3.084 0 5.817 1.368 5.817 4.36 0 3.427-2.465 4.418-5.798 4.418-1.223 0-2.983.14-2.983 1.883v.537h8.676v2.853h-11.72v-3.41c0-3.724 3.167-4.556 6.025-4.556 1.056 0 2.63-.298 2.63-1.665 0-1.15-1.016-1.785-2.65-1.785-1.306 0-2.652.535-2.734 1.664h-3.12zm16.53 2.55c-1.368-.714-1.968-1.982-1.78-3.37.31-2.357 2.773-3.626 5.838-3.626 3.313 0 5.693 1.25 6.005 3.746.166 1.347-.56 2.536-1.842 3.09 1.78.635 2.237 2.14 2.257 2.973.083 3.35-3.002 4.736-6.418 4.696-3.314-.02-6.42-1.33-6.337-4.698.01-.81.67-2.27 2.27-2.81m1.11 2.97c-.02.713.58 1.823 2.983 1.823 2.38 0 3-1.09 2.96-1.823-.02-1.03-1.077-1.724-2.96-1.724-1.71 0-2.95.66-2.98 1.72m2.99-4.04c1.676 0 2.546-.793 2.608-1.725.042-.753-.745-1.723-2.65-1.723-2.153 0-2.63 1.208-2.588 1.723.06.93.95 1.72 2.63 1.72M250.39 199.92l-4.47 5.38h-.58l-4.32-5.42v9.68h-3.24v-13.87h3.71l4.23 5.33 4.24-5.33h3.66v13.87h-3.23zm16.54 7.25h-7.434l-1.055 2.378h-3.476l6.5-13.87h3.52l6.502 13.87h-3.498l-1.05-2.38zm-3.71-8.37l-2.505 5.628h4.99l-2.49-5.63zm22.46 10.74h-3.583l-3.706-4.557h-2.34v4.557h-3.23v-13.87h6.875c3.5 0 5.364 2.24 5.364 4.676-.02 1.803-.58 3.408-3.355 4.36l3.976 4.596v.23zm-9.63-11.21v4.042h3.686c1.49 0 2.132-1.07 2.132-1.942-.02-.95-.662-2.1-2.175-2.1h-3.65zm23.96 9.53c-1.492 1.407-3.417 2.04-5.57 2.04-5.53 0-7.724-3.407-7.744-7.192-.022-3.586 2.422-7.352 7.743-7.352 1.986 0 3.83.734 5.32 2.14l-2.03 1.923c-.87-.814-2.132-1.15-3.292-1.15-3.293 0-4.576 2.436-4.556 4.457s1.16 4.32 4.555 4.32c1.16 0 2.69-.496 3.56-1.328l2.01 2.14zm11.44 1.7v-5.48h-6.48v5.48h-3.23v-13.87h3.23v5.55h6.48v-5.55h3.19v13.87zm10.73-9.76c.185-3.23 3-4.3 5.84-4.3 3.084 0 5.817 1.368 5.817 4.36 0 3.427-2.465 4.418-5.798 4.418-1.223 0-2.983.14-2.983 1.883v.537h8.676v2.853h-11.72v-3.41c0-3.724 3.167-4.556 6.025-4.556 1.056 0 2.63-.298 2.63-1.665 0-1.15-1.016-1.785-2.65-1.785-1.306 0-2.652.535-2.734 1.664h-3.12zm13.84 1.78c0-4.34 2.982-6.34 6.5-6.34 3.52 0 6.38 2.1 6.38 6.34v2.002c0 4.24-2.94 6.36-6.337 6.36-3.395 0-6.543-1.98-6.543-6.34v-2.02zm3.22 2.02c0 2.437 1.366 3.607 3.23 3.607 1.863 0 3.25-1.17 3.25-3.607v-2c0-2.36-1.346-3.548-3.19-3.548s-3.29 1.11-3.29 3.547v2zm11.98 3.41h2.44v-7.49l-2.32.69v-2.69l5.36-1.85v11.34h2.28v2.53h-7.76zm20.58-8.54h-7.62v2.14h2.547c3.105 0 5.9.93 5.88 4.518 0 3.408-3.147 4.597-5.798 4.597-3.357 0-5.903-1.17-5.924-4.46h3.19c0 1.25 1.49 1.725 2.69 1.725.788 0 2.65-.277 2.65-1.862.023-1.546-1.717-1.863-2.69-1.863h-5.55v-7.57h10.62v2.77z" fill="#0077C0"/></svg>