<svg xmlns="http://www.w3.org/2000/svg" width="252.061" height="264.019"><defs><clipPath id="a"><path d="M0 211.215h201.65V0H0v211.215z"/></clipPath></defs><g><g><g clip-path="url(#a)" transform="matrix(1.25 0 0 -1.25 0 264.019)"><g><path d="M99.095 195.66l-31.068-31.07c-17.16-17.16-17.16-44.978 0-62.136 8.58-8.58 19.824-12.868 31.068-12.868s22.49 4.288 31.068 12.868c17.16 17.16 17.16 44.977 0 62.137L99.095 195.66z" fill="#fff"/></g><g><path d="M99.095 195.66l-31.068-31.07c-17.16-17.16-17.16-44.978 0-62.136 8.58-8.58 19.824-12.868 31.068-12.868s22.49 4.288 31.068 12.868c17.16 17.16 17.16 44.977 0 62.137L99.095 195.66zm0-46.67l7.734-7.734c2.786-2.787 3.202-6.04 3.202-7.733 0-1.692-.416-4.947-3.203-7.734-2.788-2.788-6.043-3.204-7.735-3.204-1.692 0-4.946.416-7.734 3.203-4.263 4.264-4.263 11.202 0 15.466l7.735 7.734" fill="#92eaff"/></g><g><path d="M99.095 195.66l-31.068-31.07c-17.16-17.16-17.16-44.978 0-62.136 8.58-8.58 19.824-12.868 31.068-12.868s22.49 4.288 31.068 12.868c17.16 17.16 17.16 44.977 0 62.137L99.095 195.66zm0-31.114l15.512-15.512c8.553-8.553 8.553-22.47 0-31.023-4.143-4.144-9.652-6.424-15.512-6.424-5.86 0-11.368 2.28-15.512 6.425-4.143 4.144-6.425 9.653-6.425 15.513 0 5.86 2.282 11.368 6.425 15.51l15.512 15.513" fill="#27b7e8"/></g><g><path d="M9.41 36.377H14.4c6.048 0 8.16 4.513 8.16 9.12 0 4.61-2.352 8.546-8.16 8.546H9.41V36.377zM14.4 61.963c11.857 0 17.57-7.296 17.57-16.562 0-9.263-5.52-17.04-17.57-17.04H0v33.603h14.402z" fill="#06467c"/></g><g><path d="M45.553 54.38v-8.066h7.01c2.495 0 3.6 1.873 3.6 3.888 0 2.113-1.2 4.177-3.697 4.177h-6.913zm21.602-26.02H56.69l-7.824 10.897h-3.313V28.36h-9.505v33.603h16.418c8.592 0 13.057-5.52 13.057-11.568 0-4.13-1.44-7.633-7.105-10.13l8.737-11.328v-.577z" fill="#06467c"/></g><g><path d="M100.707 61.915v-18.77c.048-9.936-6-15.504-15.842-15.504-9.84 0-15.84 5.33-15.84 15.6v18.675h9.456V43.24c0-5.28 2.545-7.487 6.385-7.487s6.385 2.305 6.385 7.392v18.77h9.457z" fill="#06467c"/></g><g><path d="M115.585 45.45h6.816c2.642 0 3.986 1.92 3.986 4.128s-1.392 4.225-3.985 4.225h-6.815V45.45zm0-8.017V28.36h-9.505v33.603h16.32c9.027 0 13.49-5.664 13.49-12.24 0-6.866-4.512-12.194-13.49-12.29h-6.815z" fill="#06467c"/></g><g><path d="M153.505 52.555l-4.32-10.705h8.592l-4.272 10.705zm7.49-18.674h-15.026l-2.21-5.52h-10.08l15.073 33.603h9.6L173.38 28.36H163.2l-2.208 5.52z" fill="#06467c"/></g><g><path d="M185.568 61.963V36.425h16.08V28.36h-25.585v33.603h9.505z" fill="#06467c"/></g><g><path d="M48.783 2.06C47.343.64 45.483 0 43.403 0 38.06 0 35.94 3.442 35.92 7.26c-.02 3.623 2.34 7.423 7.482 7.423 1.92 0 3.7-.74 5.14-2.16l-1.96-1.94c-.84.82-2.06 1.16-3.18 1.16-3.18 0-4.42-2.46-4.4-4.5.02-2.042 1.12-4.363 4.4-4.363 1.12 0 2.6.5 3.44 1.34l1.94-2.16z" fill="#1162b0"/></g><g><path d="M56.982 11.203l-2.42-5.682h4.82l-2.4 5.683zm3.58-8.442h-7.18L52.36.36H49l6.28 14.003h3.402L64.962.36h-3.38l-1.02 2.4z" fill="#1162b0"/></g><g><path d="M69.56 7.182h3.48c1.502 0 2.242.98 2.242 2.1s-.76 2.12-2.24 2.12h-3.48v-4.22zm0-2.86V.362h-3.12v14.002h6.6c3.583 0 5.363-2.32 5.363-5.022 0-2.8-1.8-4.98-5.362-5.02h-3.48z" fill="#1162b0"/></g><g><path d="M91.083.36H80.42v14.003h10.383v-2.86H83.48V8.8h6.903V6.06H83.48V3.24h7.603V.36z" fill="#1162b0"/></g><g><path d="M101.58 11.583h-4.26v2.78h11.623v-2.78h-4.26V.36h-3.102v11.223z" fill="#1162b0"/></g><g><path d="M117.402 11.902c-2.66 0-4.5-2-4.5-4.54 0-2.62 1.84-4.522 4.5-4.522 2.72 0 4.5 1.92 4.5 4.522 0 2.56-1.78 4.54-4.5 4.54m0-11.882c-4.48 0-7.562 2.78-7.562 7.342 0 4.56 3.08 7.34 7.562 7.34 4.48 0 7.562-2.78 7.562-7.34 0-4.562-3.082-7.342-7.562-7.342" fill="#1162b0"/></g><g><path d="M141.663.38h-2.56l-3 7.822L133.2.38h-2.56l-5.22 13.983h3.5l1.74-4.78 1.26-4.52 3.14 9.3h2.042l3.28-9.3 1.2 4.5 1.662 4.8h3.5L141.664.38z" fill="#1162b0"/></g><g><path d="M158.143 5.262l-.2 4.4v4.702h3.14V.36h-2.68l-6.962 8.963.12-4.6V.36h-3.16v14.004h2.68l7.063-9.102z" fill="#1162b0"/></g><g><path d="M99.095 211.215l-7.778-7.778L60.25 172.37c-21.42-21.42-21.42-56.274 0-77.694 10.375-10.376 24.17-16.09 38.845-16.09 14.674 0 28.47 5.714 38.846 16.09 21.422 21.42 21.422 56.273 0 77.693l-31.067 31.067-7.778 7.778zm0-15.556l31.068-31.07c17.16-17.158 17.16-44.977 0-62.136-8.58-8.58-19.824-12.87-31.068-12.87s-22.49 4.29-31.068 12.87c-17.16 17.16-17.16 44.978 0 62.137l31.068 31.07" fill="#06467c"/></g><g><path d="M99.095 195.66l-31.068-31.07c-17.16-17.16-17.16-44.978 0-62.136 8.58-8.58 19.824-12.868 31.068-12.868s22.49 4.288 31.068 12.868c17.16 17.16 17.16 44.977 0 62.137L99.095 195.66zm0-15.557l23.29-23.29c12.842-12.842 12.842-33.738 0-46.58-6.22-6.222-14.492-9.648-23.29-9.648-8.798 0-17.07 3.427-23.29 9.648-12.842 12.84-12.842 33.737 0 46.58l23.29 23.29" fill="#1162b0"/></g></g></g></g></svg>