<svg xmlns="http://www.w3.org/2000/svg" height="171.21" width="573.84" version="1" xmlns:xlink="http://www.w3.org/1999/xlink" viewBox="0 0 573.838 171.214" enable-background="new 0 0 573.838 171.214"><g><g><path d="M278.57 105.86h-26.752l-3.932 9.83h-17.95l26.84-59.83h17.093l26.75 59.83H282.5l-3.93-9.83zm-13.33-33.245l-7.693 19.06h15.3l-7.61-19.06z" fill="#0077C0"/><linearGradient id="a" y2="98.768" gradientUnits="userSpaceOnUse" y1="98.768" x2="251.92" x1="270.43"><stop stop-color="#0077C0" offset=".005"/><stop stop-color="#00558A" offset="1"/></linearGradient><path fill="url(#a)" d="M270.43 105.86h-18.51l5.63-14.185h12.88z"/></g><g><path d="M225.72 72.444c-4.103-3.077-8.804-4.103-14.018-4.103-4.102 0-8.12 1.283-8.12 4.446 0 4.103 4.018 4.7 9.916 5.3 11.88 1.28 24.273 6.066 24.273 19.827 0 13.59-12.82 19.402-26.24 19.488-10.768.086-18.46-1.795-26.75-10.513l9.316-10.684c5.898 5.727 12.48 6.752 17.52 6.752 5.556 0 9.402-1.964 9.402-5.3 0-2.99-3.417-4.87-9.998-5.47-13.078-1.195-24.36-4.53-24.36-19.4 0-12.65 12.392-18.12 25.042-18.12 8.976 0 15.983 2.05 22.394 7.096l-8.37 10.68z" fill="#0077C0"/><linearGradient id="b" y2="96.596" gradientUnits="userSpaceOnUse" y1="110.62" x2="226.46" x1="212.44"><stop stop-color="#0077C0" offset=".483"/><stop stop-color="#00558A" offset="1"/></linearGradient><path d="M233.28 108.11c0 3.49-6.338 6.965-13.766 8.517-3.06.64-5.736-8.762-4.503-11.62 1.393-3.23 5.13-3.25 5.914-6.47 1.387-5.696-9.904-6.35-9.904-6.35 14.36.76 22.26 8.99 22.26 15.92z" fill="url(#b)"/></g><g><path d="M184.78 106.89l5.775-6.623-19.854-44.4h-17.093l-26.838 59.827h17.948l3.93-9.83h26.753l3.933 9.83h14.283c-3.48-2.07-6.19-4.76-8.84-8.81m-30.4-15.215l7.693-19.06 7.605 19.06h-15.3z" fill="#00598E"/><linearGradient id="c" y2="98.768" gradientUnits="userSpaceOnUse" y1="98.768" x2="148.65" x1="168.39"><stop stop-color="#00598E" offset="0"/><stop stop-color="#003A5C" offset="1"/></linearGradient><path fill="url(#c)" d="M168.39 105.86h-19.74l5.73-14.185h14.01z"/></g><g><path d="M107.11 55.862c21.11 0 31.282 12.99 31.282 29.486s-9.83 30.342-31.282 30.342H81.464V55.862h25.646zm-8.893 45.558h8.89c10.768 0 14.528-8.034 14.528-16.24 0-8.202-4.187-15.21-14.53-15.21h-8.888v31.45z" fill="#00598E"/><linearGradient id="d" y2="108.55" gradientUnits="userSpaceOnUse" y1="108.55" x2="98.217" x1="108.39"><stop stop-color="#00598E" offset="0"/><stop stop-color="#003A5C" offset="1"/></linearGradient><path fill="url(#d)" d="M98.217 101.42h10.17v14.275h-10.17z"/></g></g><g><g fill="#00598E"><path d="M356.21 65.9c4.647 0 6.71 3.123 6.71 6.65s-1.986 6.845-6.71 6.845h-5.533V65.9h5.53zm-2.56 10.72h2.563c2.93 0 3.74-2.16 3.74-4.108 0-1.946-.925-3.894-3.74-3.894h-2.563v8zM376.98 79.395h-3.335l-3.45-4.434h-2.18v4.435h-3.007V65.9h6.4c3.258 0 4.993 2.18 4.993 4.55-.018 1.754-.538 3.316-3.122 4.24l3.702 4.473v.232zm-8.96-10.912v3.933h3.432c1.388 0 1.985-1.04 1.985-1.89-.02-.925-.617-2.043-2.023-2.043h-3.4zM390.9 65.92v7.538c0 4.01-2.237 6.15-5.784 6.265-3.528.116-6.516-1.91-6.516-6.265V65.92h2.988v7.538c0 2.41 1.35 3.662 3.547 3.566 2.043-.135 2.776-1.542 2.776-3.566V65.92h2.98zM396.54 75.578v3.817h-3.008V65.9h6.362c3.45 0 5.167 2.237 5.167 4.84 0 2.698-1.734 4.8-5.166 4.838h-3.35zm0-2.757h3.354c1.446 0 2.16-.943 2.16-2.023s-.733-2.043-2.16-2.043h-3.354v4.067zM415.36 77.08h-6.92l-.984 2.315h-3.24l6.055-13.495h3.28l6.052 13.495h-3.26l-.98-2.314zm-3.45-8.134l-2.332 5.475h4.646l-2.32-5.474zM423.85 65.9v10.738h6.74v2.757h-9.75V65.9z"/></g><g fill="#00598E"><path d="M449.4 77.08h-6.92l-.984 2.315h-3.24l6.055-13.495h3.277l6.054 13.495h-3.257l-.98-2.314zm-3.46-8.134l-2.333 5.475h4.647l-2.32-5.474zM462.7 69.158c-.752-.79-2.063-1.137-3.124-1.137-1.33 0-2.41.56-2.41 1.485 0 1.234 1.176 1.465 2.91 1.62 2.662.23 5.187 1.252 5.187 4.376 0 3.008-2.775 4.32-5.687 4.338-2.333.02-4.76-.886-5.898-2.776l1.792-1.87c1.04 1.33 2.756 1.91 4.125 1.91 1.6 0 2.7-.638 2.7-1.6.02-1.14-.887-1.66-2.72-1.813-2.852-.272-5.396-.984-5.358-4.166.02-2.68 2.564-4.106 5.34-4.106 2.082 0 3.644.463 5.032 2.082l-1.89 1.658zM475.12 69.158c-.752-.79-2.063-1.137-3.123-1.137-1.33 0-2.41.56-2.41 1.485 0 1.234 1.176 1.465 2.91 1.62 2.66.23 5.187 1.252 5.187 4.376 0 3.008-2.776 4.32-5.687 4.338-2.333.02-4.762-.886-5.9-2.776l1.794-1.87c1.042 1.33 2.758 1.91 4.126 1.91 1.6 0 2.7-.638 2.7-1.6.02-1.14-.887-1.66-2.72-1.813-2.852-.272-5.397-.984-5.36-4.166.022-2.68 2.565-4.106 5.342-4.106 2.082 0 3.643.463 5.03 2.082l-1.89 1.658zM486.08 79.723c-4.318 0-7.287-2.68-7.287-7.075s2.97-7.075 7.287-7.075c4.318 0 7.287 2.68 7.287 7.075s-2.98 7.075-7.29 7.075m0-11.45c-2.564 0-4.337 1.927-4.337 4.375 0 2.526 1.773 4.357 4.337 4.357 2.623 0 4.337-1.85 4.337-4.357-.01-2.467-1.72-4.376-4.34-4.376"/><path d="M507.04 77.756c-1.388 1.37-3.18 1.986-5.186 1.986-5.147 0-7.19-3.316-7.21-6.998-.018-3.49 2.256-7.152 7.21-7.152 1.85 0 3.567.713 4.954 2.082l-1.888 1.87c-.81-.79-1.986-1.12-3.066-1.12-3.065 0-4.26 2.373-4.24 4.34s1.08 4.202 4.24 4.202c1.08 0 2.506-.482 3.316-1.292l1.88 2.082zM508.64 65.9h2.99v13.495h-2.99zM524.01 77.08h-6.92l-.984 2.315h-3.24l6.055-13.495h3.28l6.052 13.495h-3.26l-.98-2.314zm-3.45-8.134l-2.332 5.475h4.646l-2.32-5.474zM531.22 68.58h-4.1V65.9h11.2v2.68h-4.11v10.815h-2.99zM539.96 65.9h2.988v13.495h-2.988zM552.28 79.723c-4.318 0-7.287-2.68-7.287-7.075s2.97-7.075 7.287-7.075c4.318 0 7.287 2.68 7.287 7.075s-2.97 7.075-7.29 7.075m0-11.45c-2.564 0-4.337 1.927-4.337 4.375 0 2.526 1.773 4.357 4.337 4.357 2.623 0 4.337-1.85 4.337-4.357 0-2.467-1.72-4.376-4.34-4.376"/><path d="M571 74.67l-.19-4.24V65.9h3.03v13.495h-2.58l-6.71-8.637.11 4.435v4.202h-3.04V65.9h2.58z"/></g><g fill="#0077C0"><path d="M397.94 95.455c-.752-.79-2.063-1.137-3.123-1.137-1.33 0-2.41.56-2.41 1.484 0 1.234 1.176 1.464 2.91 1.62 2.66.23 5.187 1.252 5.187 4.375 0 3.008-2.776 4.32-5.687 4.337-2.332.02-4.762-.885-5.9-2.775l1.794-1.87c1.042 1.33 2.758 1.907 4.126 1.907 1.6 0 2.7-.636 2.7-1.6.02-1.137-.887-1.657-2.72-1.81-2.852-.27-5.397-.984-5.36-4.166.022-2.677 2.566-4.105 5.342-4.105 2.082 0 3.643.463 5.03 2.08l-1.89 1.657zM408.89 106.02c-4.318 0-7.287-2.68-7.287-7.075 0-4.396 2.97-7.076 7.287-7.076s7.287 2.68 7.287 7.075-2.97 7.075-7.29 7.075m0-11.45c-2.564 0-4.337 1.926-4.337 4.376 0 2.525 1.773 4.355 4.337 4.355 2.622 0 4.337-1.848 4.337-4.354 0-2.467-1.72-4.376-4.34-4.376"/><path d="M430.33 92.217v7.538c0 4.01-2.237 6.148-5.784 6.265-3.528.115-6.516-1.91-6.516-6.265v-7.538h2.988v7.538c0 2.41 1.35 3.663 3.547 3.566 2.043-.134 2.776-1.54 2.776-3.565v-7.538h2.98zM435.89 94.878h-4.11v-2.68h11.2v2.68h-4.1v10.812h-2.99zM453.67 105.71v-5.34h-6.04v5.34h-3V92.217h3v5.398h6.04v-5.398h2.97v13.493z"/></g><g fill="#0077C0"><path d="M472.78 103.38h-6.92l-.984 2.312h-3.24l6.055-13.496h3.277l6.054 13.496h-3.257l-.98-2.31zm-3.45-8.136l-2.333 5.475h4.647l-2.32-5.477zM478.26 105.69V92.217h9.83v2.756h-6.83v3.2h6.41v2.677h-6.41v4.84zM502.11 105.69h-3.336l-3.45-4.434h-2.178v4.434h-3.008V92.196h6.4c3.26 0 4.994 2.18 4.994 4.55-.02 1.754-.54 3.316-3.124 4.242l3.702 4.472v.23zm-8.97-10.91v3.934h3.432c1.388 0 1.985-1.042 1.985-1.89-.02-.926-.617-2.043-2.025-2.043h-3.4zM503.92 92.197h2.99v13.496h-2.99zM521.36 104.05c-1.388 1.37-3.18 1.986-5.186 1.986-5.147 0-7.19-3.316-7.21-7-.018-3.488 2.256-7.15 7.21-7.15 1.85 0 3.567.712 4.954 2.08l-1.888 1.87c-.81-.79-1.986-1.117-3.066-1.117-3.065 0-4.26 2.37-4.24 4.336.018 1.967 1.08 4.203 4.24 4.203 1.08 0 2.506-.482 3.316-1.292l1.88 2.08zM532.52 103.38h-6.92l-.984 2.312h-3.24l6.055-13.496h3.277l6.054 13.496h-3.257l-.98-2.31zm-3.45-8.136l-2.333 5.475h4.647l-2.32-5.477z"/></g></g><g><defs><path id="e" d="M28.73 84.802l-3.337 8.054c-2.3 5.553.346 11.942 5.9 14.242 2.69 1.114 5.652 1.114 8.342 0s4.785-3.21 5.9-5.9c2.3-5.552-.347-11.94-5.9-14.242L31.58 83.62l-2.016-.835-.835 2.016z"/></defs><clipPath id="f"><use overflow="visible" xlink:href="#e"/></clipPath><linearGradient id="g" x1="-130.57" gradientUnits="userSpaceOnUse" y1="383.22" gradientTransform="matrix(-10.071 -24.313 -24.313 10.071 8042.6 -6927.1)" x2="-129.57" y2="383.22"><stop stop-color="#00598E" offset="0"/><stop stop-color="#0077C0" offset="1"/></linearGradient><path clip-path="url(#f)" fill="url(#g)" d="M26.716 116.96L14.102 86.51l30.11-12.473 12.612 30.453z"/><defs><path id="h" d="M45.81 73.546l-2.202 5.32c-1.52 3.667.228 7.887 3.896 9.406 1.776.735 3.733.736 5.51 0 1.776-.736 3.16-2.12 3.896-3.896 1.52-3.668-.23-7.888-3.896-9.407l-5.32-2.204-1.33-.552-.553 1.332z"/></defs><clipPath id="i"><use overflow="visible" xlink:href="#h"/></clipPath><linearGradient id="j" x1="-130.57" gradientUnits="userSpaceOnUse" y1="383.22" gradientTransform="matrix(-6.651 -16.058 -16.058 6.651 5338.6 -4557.5)" x2="-129.57" y2="383.22"><stop stop-color="#FFAA05" offset="0"/><stop stop-color="#FFCA05" offset="1"/></linearGradient><path clip-path="url(#i)" fill="url(#j)" d="M44.48 94.785l-8.33-20.112 19.886-8.236 8.33 20.112z"/><defs><path id="k" d="M9.66 88.52l-2.204 5.32c-1.52 3.667.23 7.887 3.897 9.406 1.776.735 3.734.735 5.51 0 1.777-.736 3.16-2.12 3.896-3.896 1.52-3.667-.23-7.887-3.897-9.407l-5.32-2.203-1.332-.552-.55 1.328z"/></defs><clipPath id="l"><use overflow="visible" xlink:href="#k"/></clipPath><linearGradient id="m" x1="-130.57" gradientUnits="userSpaceOnUse" y1="383.22" gradientTransform="matrix(-6.651 -16.058 -16.058 6.651 5302.4 -4542.5)" x2="-129.57" y2="383.22"><stop stop-color="#006432" offset="0"/><stop stop-color="#1D984A" offset="1"/></linearGradient><path clip-path="url(#l)" fill="url(#m)" d="M8.33 109.76L0 89.647l19.886-8.237 8.33 20.11z"/><defs><path id="n" d="M30.31 64.454l-2.203 5.32c-1.52 3.667.23 7.887 3.897 9.406 1.777.736 3.733.736 5.51 0 1.776-.736 3.16-2.12 3.896-3.897 1.52-3.667-.23-7.886-3.896-9.406l-5.32-2.203-1.33-.552-.553 1.332z"/></defs><clipPath id="o"><use overflow="visible" xlink:href="#n"/></clipPath><linearGradient id="p" x1="-130.57" gradientUnits="userSpaceOnUse" y1="383.22" gradientTransform="matrix(-6.651 -16.058 -16.058 6.651 5323.1 -4566.6)" x2="-129.57" y2="383.22"><stop offset="0"/><stop stop-color="#383435" offset="1"/></linearGradient><path clip-path="url(#o)" fill="url(#p)" d="M28.98 85.693L20.65 65.58l19.886-8.235 8.33 20.112z"/><defs><path id="q" d="M14.19 71.13l-2.203 5.32c-1.518 3.668.23 7.888 3.897 9.407 1.777.736 3.733.736 5.51 0 1.776-.736 3.16-2.12 3.896-3.897 1.52-3.667-.23-7.886-3.896-9.406l-5.32-2.203-1.33-.55-.553 1.33z"/></defs><clipPath id="r"><use overflow="visible" xlink:href="#q"/></clipPath><linearGradient id="s" x1="-130.57" gradientUnits="userSpaceOnUse" y1="383.22" gradientTransform="matrix(-6.651 -16.058 -16.058 6.651 5307 -4559.9)" x2="-129.57" y2="383.22"><stop stop-color="#B31F24" offset="0"/><stop stop-color="#ED1C24" offset="1"/></linearGradient><path clip-path="url(#r)" fill="url(#s)" d="M12.862 92.37l-8.33-20.11 19.884-8.237 8.33 20.11z"/></g><path fill="#BEBEC8" d="M360.76 171.21c-.217 0-.424-.125-.518-.336L284.202.804c-.128-.286 0-.62.286-.75.285-.128.622 0 .75.287l76.038 170.08c.128.287 0 .622-.287.75-.07.03-.15.04-.23.04"/></svg>