<svg xmlns="http://www.w3.org/2000/svg" height="62.736" viewBox="0.008 54.665 533.827 62.736" width="533.83" version="1" xmlns:xlink="http://www.w3.org/1999/xlink" enable-background="new 0.008 54.665 533.827 62.736"><g><g><path d="M278.57 105.86h-26.75l-3.932 9.83h-17.95l26.838-59.828h17.094l26.75 59.828H282.5l-3.93-9.83zm-13.33-33.247l-7.693 19.06h15.3l-7.61-19.06z" fill="#0077C0"/><linearGradient id="a" y2="52.535" gradientUnits="userSpaceOnUse" x2="249.52" gradientTransform="matrix(1 0 0 -1 2.407 151.3)" y1="52.535" x1="268.03"><stop stop-color="#0077C0" offset=".005"/><stop stop-color="#00558A" offset="1"/></linearGradient><path fill="url(#a)" d="M270.43 105.86h-18.51l5.63-14.187h12.88z"/></g><g><path d="M225.72 72.442c-4.103-3.077-8.804-4.103-14.018-4.103-4.102 0-8.12 1.28-8.12 4.444 0 4.103 4.018 4.7 9.916 5.3 11.88 1.28 24.272 6.066 24.272 19.827 0 13.59-12.82 19.403-26.24 19.49-10.768.084-18.46-1.797-26.75-10.515l9.317-10.684c5.898 5.728 12.48 6.753 17.52 6.753 5.556 0 9.402-1.964 9.402-5.3 0-2.99-3.418-4.87-10-5.47-13.077-1.195-24.36-4.53-24.36-19.4 0-12.65 12.394-18.12 25.043-18.12 8.976 0 15.983 2.05 22.393 7.096l-8.37 10.677v-.002z" fill="#0077C0"/><linearGradient id="b" y2="54.709" gradientUnits="userSpaceOnUse" x2="224.06" gradientTransform="matrix(1 0 0 -1 2.407 151.3)" y1="40.679" x1="210.04"><stop stop-color="#0077C0" offset=".483"/><stop stop-color="#00558A" offset="1"/></linearGradient><path d="M233.28 108.11c0 3.49-6.338 6.965-13.766 8.517-3.06.64-5.736-8.762-4.503-11.62 1.393-3.23 5.13-3.25 5.914-6.47 1.387-5.696-9.904-6.35-9.904-6.35 14.36.76 22.26 8.99 22.26 15.92z" fill="url(#b)"/></g><g><path d="M184.78 106.89l5.775-6.623-19.854-44.4h-17.093l-26.837 59.827h17.95l3.93-9.83h26.75l3.933 9.83h14.283c-3.48-2.07-6.19-4.76-8.84-8.81m-30.4-15.223l7.693-19.06 7.605 19.06h-15.3z" fill="#00598E"/><linearGradient id="c" y2="52.535" gradientUnits="userSpaceOnUse" x2="146.25" gradientTransform="matrix(1 0 0 -1 2.407 151.3)" y1="52.535" x1="165.99"><stop stop-color="#00598E" offset="0"/><stop stop-color="#003A5C" offset="1"/></linearGradient><path fill="url(#c)" d="M168.39 105.86h-19.74l5.73-14.187h14.01z"/></g><g><path d="M107.12 55.86c21.11 0 31.28 12.99 31.28 29.486s-9.83 30.34-31.28 30.34H81.47V55.86h25.65zm-8.898 45.56h8.89c10.768 0 14.528-8.034 14.528-16.24 0-8.202-4.187-15.21-14.53-15.21h-8.888v31.45z" fill="#00598E"/><linearGradient id="d" y2="42.745" gradientUnits="userSpaceOnUse" x2="95.817" gradientTransform="matrix(1 0 0 -1 2.407 151.3)" y1="42.745" x1="105.99"><stop stop-color="#00598E" offset="0"/><stop stop-color="#003A5C" offset="1"/></linearGradient><path fill="url(#d)" d="M98.222 101.42h10.17v14.275h-10.17z"/></g></g><g><g fill="#00598E"><path d="M316.21 65.898c4.647 0 6.71 3.123 6.71 6.65s-1.986 6.845-6.71 6.845h-5.533V65.898h5.53zm-2.56 10.72h2.563c2.93 0 3.74-2.16 3.74-4.108 0-1.946-.925-3.894-3.74-3.894h-2.563v8zM336.98 79.393h-3.335l-3.45-4.434h-2.18v4.433h-3.007V65.898h6.4c3.258 0 4.993 2.18 4.993 4.55-.018 1.754-.538 3.316-3.122 4.24l3.702 4.473.01.233zm-8.96-10.912v3.934h3.432c1.388 0 1.985-1.04 1.985-1.89-.02-.925-.617-2.043-2.023-2.043h-3.4zM350.9 65.918v7.538c0 4.01-2.237 6.15-5.784 6.265-3.528.117-6.516-1.908-6.516-6.264v-7.538h2.988v7.538c0 2.41 1.35 3.662 3.547 3.566 2.043-.135 2.776-1.542 2.776-3.566v-7.538h2.98zM356.54 75.576v3.817h-3.008V65.898h6.362c3.45 0 5.167 2.237 5.167 4.84 0 2.698-1.734 4.8-5.166 4.838h-3.35zm0-2.757h3.354c1.446 0 2.16-.945 2.16-2.025s-.733-2.043-2.16-2.043h-3.354v4.067zM375.36 77.08h-6.92l-.984 2.313h-3.24l6.055-13.495h3.28l6.052 13.495h-3.26l-.98-2.314zm-3.45-8.136l-2.332 5.475h4.646l-2.32-5.476zM383.85 65.898v10.738h6.74v2.757h-9.75V65.898z"/></g><g fill="#00598E"><path d="M409.4 77.08h-6.92l-.984 2.313h-3.24l6.055-13.495h3.277l6.054 13.495h-3.257l-.98-2.314zm-3.46-8.136l-2.333 5.475h4.647l-2.32-5.476zM422.7 69.156c-.752-.79-2.063-1.137-3.124-1.137-1.33 0-2.41.558-2.41 1.483 0 1.234 1.176 1.465 2.91 1.62 2.662.23 5.187 1.252 5.187 4.376 0 3.006-2.775 4.317-5.687 4.336-2.333.02-4.76-.886-5.898-2.776l1.792-1.87c1.04 1.33 2.756 1.91 4.125 1.91 1.6 0 2.7-.638 2.7-1.6.02-1.14-.887-1.66-2.72-1.813-2.852-.27-5.396-.983-5.358-4.165.02-2.68 2.564-4.106 5.34-4.106 2.082 0 3.644.463 5.032 2.082l-1.89 1.658zM435.12 69.156c-.752-.79-2.063-1.137-3.123-1.137-1.33 0-2.41.558-2.41 1.483 0 1.234 1.176 1.465 2.91 1.62 2.66.23 5.187 1.252 5.187 4.376 0 3.006-2.776 4.317-5.687 4.336-2.333.02-4.762-.886-5.9-2.776l1.794-1.87c1.042 1.33 2.758 1.91 4.126 1.91 1.6 0 2.7-.638 2.7-1.6.02-1.14-.887-1.66-2.72-1.813-2.852-.27-5.397-.983-5.36-4.165.022-2.68 2.565-4.106 5.342-4.106 2.082 0 3.643.463 5.03 2.082l-1.89 1.658zM446.08 79.72c-4.318 0-7.287-2.678-7.287-7.074s2.97-7.075 7.287-7.075 7.287 2.68 7.287 7.076c0 4.396-2.98 7.075-7.29 7.075m-.01-11.45c-2.564 0-4.337 1.928-4.337 4.376 0 2.526 1.773 4.357 4.337 4.357 2.623 0 4.337-1.85 4.337-4.357-.01-2.467-1.72-4.376-4.34-4.376"/><path d="M467.04 77.754c-1.388 1.37-3.18 1.986-5.186 1.986-5.147 0-7.19-3.316-7.21-6.998-.018-3.49 2.256-7.152 7.21-7.152 1.85 0 3.567.713 4.954 2.082l-1.888 1.87c-.81-.79-1.986-1.12-3.066-1.12-3.065 0-4.26 2.373-4.24 4.34s1.08 4.202 4.24 4.202c1.08 0 2.506-.482 3.316-1.292l1.88 2.082zM468.64 65.898h2.99v13.495h-2.99zM484 77.08h-6.92l-.984 2.313h-3.24l6.055-13.495h3.28l6.052 13.495h-3.26l-.98-2.314zm-3.44-8.136l-2.332 5.475h4.646l-2.32-5.476zM491.22 68.578h-4.1v-2.68h11.2v2.68h-4.12v10.815h-2.98zM499.96 65.898h2.988v13.495h-2.988zM512.28 79.72c-4.318 0-7.287-2.678-7.287-7.074s2.97-7.075 7.287-7.075 7.287 2.68 7.287 7.076-2.97 7.075-7.29 7.075m-.01-11.45c-2.564 0-4.337 1.928-4.337 4.376 0 2.526 1.773 4.357 4.337 4.357 2.623 0 4.337-1.85 4.337-4.357 0-2.467-1.72-4.376-4.34-4.376"/><path d="M530.99 74.67l-.19-4.242v-4.53h3.03v13.495h-2.58l-6.71-8.637.11 4.435v4.203h-3.03V65.898h2.58z"/></g><g fill="#0077C0"><path d="M334.94 95.453c-.752-.79-2.063-1.137-3.123-1.137-1.33 0-2.41.56-2.41 1.484 0 1.234 1.176 1.464 2.91 1.62 2.66.23 5.187 1.252 5.187 4.375 0 3.008-2.776 4.32-5.687 4.337-2.332.02-4.762-.885-5.9-2.775l1.794-1.87c1.042 1.33 2.758 1.908 4.126 1.908 1.6 0 2.7-.636 2.7-1.6.02-1.137-.887-1.657-2.72-1.81-2.852-.27-5.397-.984-5.36-4.166.022-2.68 2.566-4.107 5.342-4.107 2.082 0 3.643.463 5.03 2.08l-1.89 1.657v-.002zM345.89 106.02c-4.318 0-7.287-2.68-7.287-7.075 0-4.396 2.97-7.076 7.287-7.076s7.287 2.68 7.287 7.075-2.97 7.075-7.29 7.075m-.01-11.453c-2.564 0-4.337 1.927-4.337 4.377 0 2.525 1.773 4.355 4.337 4.355 2.622 0 4.337-1.85 4.337-4.356 0-2.467-1.72-4.376-4.34-4.376"/><path d="M367.33 92.215v7.538c0 4.01-2.237 6.148-5.784 6.265-3.528.115-6.516-1.91-6.516-6.265v-7.538h2.988v7.538c0 2.41 1.35 3.663 3.547 3.566 2.043-.136 2.776-1.542 2.776-3.567v-7.538h2.98zM372.89 94.876h-4.11v-2.68h11.2v2.68h-4.1v10.814h-2.99zM390.67 105.71v-5.34h-6.04v5.34h-3V92.215h3v5.398h6.04v-5.398h2.97v13.495z"/></g><g fill="#0077C0"><path d="M409.78 103.38h-6.92l-.984 2.312h-3.24l6.055-13.496h3.277l6.054 13.496h-3.257l-.98-2.31zm-3.45-8.138l-2.333 5.475h4.647l-2.32-5.476zM415.26 105.69V92.215h9.83v2.756h-6.83v3.2h6.41v2.68h-6.41v4.84zM439.11 105.69h-3.336l-3.45-4.434h-2.178v4.434h-3.008V92.194h6.4c3.26 0 4.994 2.18 4.994 4.55-.02 1.754-.54 3.316-3.124 4.242l3.702 4.472.01.23zm-8.97-10.91v3.932h3.432c1.388 0 1.985-1.042 1.985-1.89-.02-.926-.617-2.043-2.025-2.043h-3.4zM440.92 92.195h2.99v13.496h-2.99zM458.36 104.05c-1.388 1.37-3.18 1.986-5.186 1.986-5.147 0-7.19-3.316-7.21-7-.018-3.488 2.256-7.15 7.21-7.15 1.85 0 3.567.712 4.954 2.08l-1.888 1.87c-.81-.79-1.986-1.117-3.066-1.117-3.065 0-4.26 2.37-4.24 4.336.018 1.967 1.08 4.203 4.24 4.203 1.08 0 2.506-.482 3.316-1.292l1.88 2.08zM469.52 103.38h-6.92l-.984 2.312h-3.24l6.055-13.496h3.277l6.054 13.496h-3.257l-.98-2.31zm-3.46-8.138l-2.333 5.475h4.647l-2.32-5.476z"/></g></g><g><defs><path id="e" d="M28.736 84.8L25.4 92.854c-2.3 5.553.346 11.942 5.9 14.242 2.69 1.114 5.652 1.114 8.342 0s4.785-3.21 5.9-5.9c2.3-5.552-.347-11.94-5.9-14.242l-8.054-3.336-2.017-.835-.834 2.016v-.003z"/></defs><clipPath id="g"><use overflow="visible" xlink:href="#e"/></clipPath><linearGradient id="f" y2="98.368" gradientUnits="userSpaceOnUse" x2="-154.05" gradientTransform="matrix(-10.071 -24.312 24.312 -10.071 -3912.8 -2672.1)" y1="98.368" x1="-155.05"><stop stop-color="#00598E" offset="0"/><stop stop-color="#0077C0" offset="1"/></linearGradient><path fill="url(#f)" clip-path="url(#g)" d="M26.723 116.96L14.11 86.507l30.108-12.472L56.83 104.49z"/><defs><path id="h" d="M45.818 73.544l-2.203 5.32c-1.52 3.667.228 7.887 3.896 9.406 1.777.735 3.734.736 5.51 0 1.777-.736 3.16-2.12 3.897-3.896 1.52-3.668-.23-7.888-3.896-9.407l-5.32-2.203-1.33-.552-.552 1.332z"/></defs><clipPath id="j"><use overflow="visible" xlink:href="#h"/></clipPath><linearGradient id="i" y2="96.057" gradientUnits="userSpaceOnUse" x2="-160.17" gradientTransform="matrix(-6.651 -16.058 16.058 -6.651 -2561.1 -1861)" y1="96.057" x1="-161.17"><stop stop-color="#FFAA05" offset="0"/><stop stop-color="#FFCA05" offset="1"/></linearGradient><path fill="url(#i)" clip-path="url(#j)" d="M44.488 94.783l-8.33-20.112 19.884-8.235 8.33 20.112z"/><defs><path id="k" d="M9.667 88.518l-2.204 5.32c-1.52 3.667.23 7.887 3.897 9.406 1.776.735 3.734.735 5.51 0 1.777-.736 3.16-2.12 3.896-3.896 1.52-3.667-.228-7.887-3.896-9.407l-5.32-2.202-1.332-.552-.55 1.328v.008z"/></defs><clipPath id="m"><use overflow="visible" xlink:href="#k"/></clipPath><linearGradient id="l" y2="96.061" gradientUnits="userSpaceOnUse" x2="-160.17" gradientTransform="matrix(-6.651 -16.058 16.058 -6.651 -2597.3 -1846)" y1="96.061" x1="-161.17"><stop stop-color="#006432" offset="0"/><stop stop-color="#1D984A" offset="1"/></linearGradient><path fill="url(#l)" clip-path="url(#m)" d="M8.338 109.76L.008 89.645l19.885-8.237 8.33 20.112z"/><defs><path id="n" d="M30.318 64.452l-2.204 5.32c-1.52 3.667.23 7.887 3.897 9.406 1.778.736 3.734.736 5.51 0 1.777-.736 3.16-2.12 3.897-3.897 1.52-3.666-.23-7.885-3.896-9.405l-5.32-2.203-1.33-.552-.552 1.332z"/></defs><clipPath id="p"><use overflow="visible" xlink:href="#n"/></clipPath><linearGradient id="o" y2="96.057" gradientUnits="userSpaceOnUse" x2="-160.17" gradientTransform="matrix(-6.651 -16.058 16.058 -6.651 -2576.6 -1870.1)" y1="96.057" x1="-161.17"><stop offset="0"/><stop stop-color="#383435" offset="1"/></linearGradient><path fill="url(#o)" clip-path="url(#p)" d="M28.988 85.69l-8.33-20.11 19.885-8.236 8.33 20.11z"/><defs><path id="q" d="M14.198 71.13l-2.204 5.32c-1.518 3.666.23 7.886 3.897 9.405 1.778.736 3.734.736 5.51 0 1.777-.736 3.16-2.12 3.897-3.897 1.52-3.667-.23-7.886-3.896-9.406l-5.32-2.203-1.33-.552-.552 1.33z"/></defs><clipPath id="s"><use overflow="visible" xlink:href="#q"/></clipPath><linearGradient id="r" y2="96.057" gradientUnits="userSpaceOnUse" x2="-160.17" gradientTransform="matrix(-6.651 -16.058 16.058 -6.651 -2592.7 -1863.4)" y1="96.057" x1="-161.17"><stop stop-color="#B31F24" offset="0"/><stop stop-color="#ED1C24" offset="1"/></linearGradient><path fill="url(#r)" clip-path="url(#s)" d="M12.87 92.368l-8.33-20.11 19.883-8.236 8.33 20.11z"/></g></svg>