<svg xmlns="http://www.w3.org/2000/svg" height="62.736" viewBox="0.008 54.665 300.614 62.736" width="300.61" version="1" xmlns:xlink="http://www.w3.org/1999/xlink" enable-background="new 0.008 54.665 300.614 62.736"><g><g><path d="M278.57 105.86h-26.75l-3.932 9.83h-17.95l26.838-59.828h17.094l26.75 59.828H282.5l-3.93-9.83zm-13.33-33.247l-7.693 19.06h15.3l-7.61-19.06z" fill="#0077C0"/><linearGradient id="a" y2="52.535" gradientUnits="userSpaceOnUse" x2="249.52" gradientTransform="matrix(1 0 0 -1 2.407 151.3)" y1="52.535" x1="268.03"><stop stop-color="#0077C0" offset=".005"/><stop stop-color="#00558A" offset="1"/></linearGradient><path fill="url(#a)" d="M270.43 105.86h-18.51l5.63-14.187h12.88z"/></g><g><path d="M225.72 72.442c-4.103-3.077-8.804-4.103-14.018-4.103-4.102 0-8.12 1.28-8.12 4.444 0 4.103 4.018 4.7 9.916 5.3 11.88 1.28 24.272 6.066 24.272 19.827 0 13.59-12.82 19.403-26.24 19.49-10.768.084-18.46-1.797-26.75-10.515l9.317-10.684c5.898 5.728 12.48 6.753 17.52 6.753 5.556 0 9.402-1.964 9.402-5.3 0-2.99-3.418-4.87-10-5.47-13.077-1.195-24.36-4.53-24.36-19.4 0-12.65 12.394-18.12 25.043-18.12 8.976 0 15.983 2.05 22.393 7.096l-8.37 10.677v-.002z" fill="#0077C0"/><linearGradient id="b" y2="54.709" gradientUnits="userSpaceOnUse" x2="224.06" gradientTransform="matrix(1 0 0 -1 2.407 151.3)" y1="40.679" x1="210.04"><stop stop-color="#0077C0" offset=".483"/><stop stop-color="#00558A" offset="1"/></linearGradient><path d="M233.28 108.11c0 3.49-6.338 6.965-13.766 8.517-3.06.64-5.736-8.762-4.503-11.62 1.393-3.23 5.13-3.25 5.914-6.47 1.387-5.696-9.904-6.35-9.904-6.35 14.36.76 22.26 8.99 22.26 15.92z" fill="url(#b)"/></g><g><path d="M184.78 106.89l5.775-6.623-19.854-44.4h-17.093l-26.837 59.827h17.95l3.93-9.83h26.75l3.933 9.83h14.283c-3.48-2.07-6.19-4.76-8.84-8.81m-30.4-15.223l7.693-19.06 7.605 19.06h-15.3z" fill="#00598E"/><linearGradient id="c" y2="52.535" gradientUnits="userSpaceOnUse" x2="146.25" gradientTransform="matrix(1 0 0 -1 2.407 151.3)" y1="52.535" x1="165.99"><stop stop-color="#00598E" offset="0"/><stop stop-color="#003A5C" offset="1"/></linearGradient><path fill="url(#c)" d="M168.39 105.86h-19.74l5.73-14.187h14.01z"/></g><g><path d="M107.12 55.86c21.11 0 31.28 12.99 31.28 29.486s-9.83 30.34-31.28 30.34H81.47V55.86h25.65zm-8.898 45.56h8.89c10.768 0 14.528-8.034 14.528-16.24 0-8.202-4.187-15.21-14.53-15.21h-8.888v31.45z" fill="#00598E"/><linearGradient id="d" y2="42.745" gradientUnits="userSpaceOnUse" x2="95.817" gradientTransform="matrix(1 0 0 -1 2.407 151.3)" y1="42.745" x1="105.99"><stop stop-color="#00598E" offset="0"/><stop stop-color="#003A5C" offset="1"/></linearGradient><path fill="url(#d)" d="M98.222 101.42h10.17v14.275h-10.17z"/></g></g><g><defs><path id="e" d="M28.736 84.8L25.4 92.854c-2.3 5.553.346 11.942 5.9 14.242 2.69 1.114 5.652 1.114 8.342 0s4.785-3.21 5.9-5.9c2.3-5.552-.347-11.94-5.9-14.242l-8.054-3.336-2.017-.835-.834 2.016v-.003z"/></defs><clipPath id="g"><use overflow="visible" xlink:href="#e"/></clipPath><linearGradient id="f" y2="98.368" gradientUnits="userSpaceOnUse" x2="-154.05" gradientTransform="matrix(-10.071 -24.312 24.312 -10.071 -3912.8 -2672.1)" y1="98.368" x1="-155.05"><stop stop-color="#00598E" offset="0"/><stop stop-color="#0077C0" offset="1"/></linearGradient><path fill="url(#f)" clip-path="url(#g)" d="M26.723 116.96L14.11 86.507l30.108-12.472L56.83 104.49z"/><defs><path id="h" d="M45.818 73.544l-2.203 5.32c-1.52 3.667.228 7.887 3.896 9.406 1.777.735 3.734.736 5.51 0 1.777-.736 3.16-2.12 3.897-3.896 1.52-3.668-.23-7.888-3.896-9.407l-5.32-2.203-1.33-.552-.552 1.332z"/></defs><clipPath id="j"><use overflow="visible" xlink:href="#h"/></clipPath><linearGradient id="i" y2="96.057" gradientUnits="userSpaceOnUse" x2="-160.17" gradientTransform="matrix(-6.651 -16.058 16.058 -6.651 -2561.1 -1861)" y1="96.057" x1="-161.17"><stop stop-color="#FFAA05" offset="0"/><stop stop-color="#FFCA05" offset="1"/></linearGradient><path fill="url(#i)" clip-path="url(#j)" d="M44.488 94.783l-8.33-20.112 19.884-8.235 8.33 20.112z"/><defs><path id="k" d="M9.667 88.518l-2.204 5.32c-1.52 3.667.23 7.887 3.897 9.406 1.776.735 3.734.735 5.51 0 1.777-.736 3.16-2.12 3.896-3.896 1.52-3.667-.228-7.887-3.896-9.407l-5.32-2.202-1.332-.552-.55 1.328v.008z"/></defs><clipPath id="m"><use overflow="visible" xlink:href="#k"/></clipPath><linearGradient id="l" y2="96.061" gradientUnits="userSpaceOnUse" x2="-160.17" gradientTransform="matrix(-6.651 -16.058 16.058 -6.651 -2597.3 -1846)" y1="96.061" x1="-161.17"><stop stop-color="#006432" offset="0"/><stop stop-color="#1D984A" offset="1"/></linearGradient><path fill="url(#l)" clip-path="url(#m)" d="M8.338 109.76L.008 89.645l19.885-8.237 8.33 20.112z"/><defs><path id="n" d="M30.318 64.452l-2.204 5.32c-1.52 3.667.23 7.887 3.897 9.406 1.778.736 3.734.736 5.51 0 1.777-.736 3.16-2.12 3.897-3.897 1.52-3.666-.23-7.885-3.896-9.405l-5.32-2.203-1.33-.552-.552 1.332z"/></defs><clipPath id="p"><use overflow="visible" xlink:href="#n"/></clipPath><linearGradient id="o" y2="96.057" gradientUnits="userSpaceOnUse" x2="-160.17" gradientTransform="matrix(-6.651 -16.058 16.058 -6.651 -2576.6 -1870.1)" y1="96.057" x1="-161.17"><stop offset="0"/><stop stop-color="#383435" offset="1"/></linearGradient><path fill="url(#o)" clip-path="url(#p)" d="M28.988 85.69l-8.33-20.11 19.885-8.236 8.33 20.11z"/><defs><path id="q" d="M14.198 71.13l-2.204 5.32c-1.518 3.666.23 7.886 3.897 9.405 1.778.736 3.734.736 5.51 0 1.777-.736 3.16-2.12 3.897-3.897 1.52-3.667-.23-7.886-3.896-9.406l-5.32-2.203-1.33-.552-.552 1.33z"/></defs><clipPath id="s"><use overflow="visible" xlink:href="#q"/></clipPath><linearGradient id="r" y2="96.057" gradientUnits="userSpaceOnUse" x2="-160.17" gradientTransform="matrix(-6.651 -16.058 16.058 -6.651 -2592.7 -1863.4)" y1="96.057" x1="-161.17"><stop stop-color="#B31F24" offset="0"/><stop stop-color="#ED1C24" offset="1"/></linearGradient><path fill="url(#r)" clip-path="url(#s)" d="M12.87 92.368l-8.33-20.11 19.883-8.236 8.33 20.11z"/></g></svg>