<?xml version="1.0" encoding="UTF-8" standalone="no"?>
<!-- Created with Inkscape (http://www.inkscape.org/) -->

<svg
   xmlns:dc="http://purl.org/dc/elements/1.1/"
   xmlns:cc="http://creativecommons.org/ns#"
   xmlns:rdf="http://www.w3.org/1999/02/22-rdf-syntax-ns#"
   xmlns:svg="http://www.w3.org/2000/svg"
   xmlns="http://www.w3.org/2000/svg"
   xmlns:sodipodi="http://sodipodi.sourceforge.net/DTD/sodipodi-0.dtd"
   xmlns:inkscape="http://www.inkscape.org/namespaces/inkscape"
   id="svg2"
   version="1.1"
   inkscape:version="0.48.4 r9939"
   width="281.87787"
   height="60.208782"
   xml:space="preserve"
   sodipodi:docname="dasa-logo-short.ai"><metadata
     id="metadata8"><rdf:RDF><cc:Work
         rdf:about=""><dc:format>image/svg+xml</dc:format><dc:type
           rdf:resource="http://purl.org/dc/dcmitype/StillImage" /><dc:title></dc:title></cc:Work></rdf:RDF></metadata><defs
     id="defs6"><clipPath
       clipPathUnits="userSpaceOnUse"
       id="clipPath16"><path
         d="m 0,65.122 230.807,0 L 230.807,0 0,0 0,65.122 z"
         id="path18"
         inkscape:connector-curvature="0" /></clipPath><clipPath
       clipPathUnits="userSpaceOnUse"
       id="clipPath32"><path
         d="m 114.129,64.2039 37.469,0 0,-45.934 -37.469,0 0,45.934 z"
         id="path34"
         inkscape:connector-curvature="0" /></clipPath><clipPath
       clipPathUnits="userSpaceOnUse"
       id="clipPath36"><path
         d="m 129.599,64.204 -15.47,-38.388 20.54,0 3.017,-7.546 13.913,0 -20.539,45.934 -1.461,0 z m -5.168,-12.862 5.84,-14.633 -11.746,0 5.906,14.633 z"
         id="path38"
         inkscape:connector-curvature="0" /></clipPath><linearGradient
       x1="0"
       y1="0"
       x2="1"
       y2="0"
       gradientUnits="userSpaceOnUse"
       gradientTransform="matrix(-37.468998,0,0,-37.468998,151.5984,41.236908)"
       spreadMethod="pad"
       id="linearGradient40"><stop
         style="stop-opacity:1;stop-color:#ffffff"
         offset="0"
         id="stop42" /><stop
         style="stop-opacity:1;stop-color:#231f20"
         offset="1"
         id="stop44" /></linearGradient><clipPath
       clipPathUnits="userSpaceOnUse"
       id="clipPath68"><path
         d="m 75.4064,54.2299 30.8416,0 0,-35.96 -30.8416,0 0,35.96 z"
         id="path70"
         inkscape:connector-curvature="0" /></clipPath><clipPath
       clipPathUnits="userSpaceOnUse"
       id="clipPath72"><path
         d="m 93.387,41.697 c 0,-6.299 -2.888,-12.468 -11.156,-12.468 l 0,0 -6.824,0 0,-10.959 6.824,0 c 16.47,0 24.018,10.631 24.018,23.296 l 0,0 c 0,5.383 -2.325,7.351 -4.997,7.352 l 0,0 c -3.615,10e-4 -7.865,-3.599 -7.865,-7.221"
         id="path74"
         inkscape:connector-curvature="0" /></clipPath><linearGradient
       x1="0"
       y1="0"
       x2="1"
       y2="0"
       gradientUnits="userSpaceOnUse"
       gradientTransform="matrix(-30.842001,0,0,-30.842001,106.24841,36.249905)"
       spreadMethod="pad"
       id="linearGradient76"><stop
         style="stop-opacity:1;stop-color:#ffffff"
         offset="0"
         id="stop78" /><stop
         style="stop-opacity:1;stop-color:#231f20"
         offset="1"
         id="stop80" /></linearGradient><clipPath
       clipPathUnits="userSpaceOnUse"
       id="clipPath104"><path
         d="m 197.303,53.8711 18.514,0 0,-19.6915 -18.514,0 0,19.6915 z"
         id="path106"
         inkscape:connector-curvature="0" /></clipPath><clipPath
       clipPathUnits="userSpaceOnUse"
       id="clipPath108"><path
         d="m 209.48,36.709 -5.841,14.633 5.841,-14.633 z"
         id="path110"
         inkscape:connector-curvature="0" /></clipPath><linearGradient
       x1="0"
       y1="0"
       x2="1"
       y2="0"
       gradientUnits="userSpaceOnUse"
       gradientTransform="matrix(-10.71708,6.1875348,-6.1875348,-10.71708,211.91841,40.931591)"
       spreadMethod="pad"
       id="linearGradient112"><stop
         style="stop-opacity:1;stop-color:#ffffff"
         offset="0"
         id="stop114" /><stop
         style="stop-opacity:1;stop-color:#231f20"
         offset="1"
         id="stop116" /></linearGradient><clipPath
       clipPathUnits="userSpaceOnUse"
       id="clipPath136"><path
         d="m 193.337,64.2039 37.47,0 0,-45.934 -37.47,0 0,45.934 z"
         id="path138"
         inkscape:connector-curvature="0" /></clipPath><clipPath
       clipPathUnits="userSpaceOnUse"
       id="clipPath140"><path
         d="m 208.807,64.204 -15.47,-38.388 20.539,0 3.019,-7.546 13.913,0 -20.541,45.934 -1.46,0 z m -5.168,-12.862 5.841,-14.633 -11.746,0 5.905,14.633 z"
         id="path142"
         inkscape:connector-curvature="0" /></clipPath><linearGradient
       x1="0"
       y1="0"
       x2="1"
       y2="0"
       gradientUnits="userSpaceOnUse"
       gradientTransform="matrix(-37.470001,0,0,-37.470001,230.8074,41.236908)"
       spreadMethod="pad"
       id="linearGradient144"><stop
         style="stop-opacity:1;stop-color:#ffffff"
         offset="0"
         id="stop146" /><stop
         style="stop-opacity:1;stop-color:#231f20"
         offset="1"
         id="stop148" /></linearGradient><clipPath
       clipPathUnits="userSpaceOnUse"
       id="clipPath168"><path
         d="m 162.014,36.3159 0,0 0,0 0,0 z"
         id="path170"
         inkscape:connector-curvature="0" /></clipPath><clipPath
       clipPathUnits="userSpaceOnUse"
       id="clipPath180"><path
         d="m 133.458,53.2077 55.832,0 0,-53.2077 -55.832,0 0,53.2077 z"
         id="path182"
         inkscape:connector-curvature="0" /></clipPath><clipPath
       clipPathUnits="userSpaceOnUse"
       id="clipPath184"><path
         d="m 162.014,36.316 c 0.102,-0.009 0.204,-0.019 0.305,-0.029 l 0,0 c -0.089,0.018 -0.189,0.028 -0.299,0.029 l 0,0 -0.006,0 z m 0.375,-0.046 c 4.795,-0.498 7.302,-1.917 7.302,-4.154 l 0,0 c 0,-2.56 -2.953,-4.068 -7.218,-4.068 l 0,0 c -3.871,0 -8.924,0.787 -13.452,5.184 l 0,0 -7.151,-8.202 c 6.185,-6.506 11.938,-8.052 19.846,-8.075 l 0,0 0.354,0 c 0.113,0 0.224,0.001 0.338,0.002 l 0,0 c 6.054,0.039 11.951,1.596 15.783,4.992 l 0,0 c 2.671,2.366 0.087,12.76 -15.872,14.338 l 0,0 c 0.024,-0.005 0.047,-0.011 0.07,-0.017"
         id="path186"
         inkscape:connector-curvature="0" /></clipPath><linearGradient
       x1="0"
       y1="0"
       x2="1"
       y2="0"
       gradientUnits="userSpaceOnUse"
       gradientTransform="matrix(11.907329,20.624149,-20.624149,11.907329,155.19437,15.899796)"
       spreadMethod="pad"
       id="linearGradient188"><stop
         style="stop-opacity:1;stop-color:#ffffff"
         offset="0"
         id="stop190" /><stop
         style="stop-opacity:1;stop-color:#231f20"
         offset="1"
         id="stop192" /></linearGradient><clipPath
       clipPathUnits="userSpaceOnUse"
       id="clipPath212"><path
         d="m 22.057,41.986 -2.56,-6.184 c -1.767,-4.263 0.264,-9.168 4.528,-10.934 l 0,0 c 2.065,-0.856 4.34,-0.856 6.406,0 l 0,0 c 2.064,0.855 3.674,2.463 4.529,4.529 l 0,0 c 1.765,4.263 -0.267,9.168 -4.529,10.935 l 0,0 -6.183,2.561 -1.55,0.641 -0.641,-1.548 z"
         id="path214"
         inkscape:connector-curvature="0" /></clipPath><linearGradient
       x1="0"
       y1="0"
       x2="1"
       y2="0"
       gradientUnits="userSpaceOnUse"
       gradientTransform="matrix(-7.7318916,18.666479,-18.666479,-7.7318916,30.845411,25.039274)"
       spreadMethod="pad"
       id="linearGradient220"><stop
         style="stop-opacity:1;stop-color:#06467c"
         offset="0"
         id="stop222" /><stop
         style="stop-opacity:1;stop-color:#1162b0"
         offset="1"
         id="stop224" /></linearGradient><clipPath
       clipPathUnits="userSpaceOnUse"
       id="clipPath232"><path
         d="M 35.172,50.627 33.48,46.543 c -1.166,-2.816 0.176,-6.057 2.993,-7.222 l 0,0 c 1.362,-0.564 2.865,-0.564 4.229,0 l 0,0 c 1.364,0.565 2.426,1.627 2.991,2.992 l 0,0 c 1.168,2.816 -0.174,6.055 -2.991,7.221 l 0,0 -4.085,1.692 -1.022,0.423 -0.423,-1.022 z"
         id="path234"
         inkscape:connector-curvature="0" /></clipPath><linearGradient
       x1="0"
       y1="0"
       x2="1"
       y2="0"
       gradientUnits="userSpaceOnUse"
       gradientTransform="matrix(-5.106616,12.32834,-12.32834,-5.106616,40.976173,39.43475)"
       spreadMethod="pad"
       id="linearGradient240"><stop
         style="stop-opacity:1;stop-color:#ffaa00"
         offset="0"
         id="stop242" /><stop
         style="stop-opacity:1;stop-color:#ffdc00"
         offset="1"
         id="stop244" /></linearGradient><clipPath
       clipPathUnits="userSpaceOnUse"
       id="clipPath252"><path
         d="M 7.418,39.131 5.726,35.047 C 4.559,32.231 5.9,28.991 8.717,27.824 l 0,0 c 1.365,-0.564 2.866,-0.564 4.23,0 l 0,0 c 1.365,0.566 2.427,1.628 2.991,2.992 l 0,0 c 1.167,2.816 -0.174,6.056 -2.991,7.222 l 0,0 -4.085,1.692 -1.021,0.423 -0.423,-1.022 z"
         id="path254"
         inkscape:connector-curvature="0" /></clipPath><linearGradient
       x1="0"
       y1="0"
       x2="1"
       y2="0"
       gradientUnits="userSpaceOnUse"
       gradientTransform="matrix(-5.1066461,12.328412,-12.328412,-5.1066461,13.220754,27.938045)"
       spreadMethod="pad"
       id="linearGradient260"><stop
         style="stop-opacity:1;stop-color:#005f32"
         offset="0"
         id="stop262" /><stop
         style="stop-opacity:1;stop-color:#009632"
         offset="1"
         id="stop264" /></linearGradient><clipPath
       clipPathUnits="userSpaceOnUse"
       id="clipPath272"><path
         d="M 23.271,57.607 21.58,53.524 c -1.165,-2.816 0.177,-6.056 2.992,-7.223 l 0,0 c 1.363,-0.564 2.865,-0.564 4.231,0 l 0,0 c 1.362,0.566 2.425,1.628 2.99,2.992 l 0,0 c 1.167,2.816 -0.176,6.055 -2.99,7.222 l 0,0 -4.084,1.692 -1.024,0.423 -0.424,-1.023 z"
         id="path274"
         inkscape:connector-curvature="0" /></clipPath><linearGradient
       x1="0"
       y1="0"
       x2="1"
       y2="0"
       gradientUnits="userSpaceOnUse"
       gradientTransform="matrix(5.1066222,-12.328355,12.328355,5.1066222,23.969501,58.743542)"
       spreadMethod="pad"
       id="linearGradient280"><stop
         style="stop-opacity:1;stop-color:#1a1818"
         offset="0"
         id="stop282" /><stop
         style="stop-opacity:1;stop-color:#2a2728"
         offset="1"
         id="stop284" /></linearGradient><clipPath
       clipPathUnits="userSpaceOnUse"
       id="clipPath292"><path
         d="M 10.895,52.481 9.203,48.397 C 8.037,45.581 9.38,42.34 12.195,41.175 l 0,0 c 1.364,-0.564 2.866,-0.564 4.232,0 l 0,0 c 1.362,0.565 2.425,1.628 2.99,2.992 l 0,0 c 1.166,2.816 -0.176,6.055 -2.99,7.221 l 0,0 -4.084,1.692 -1.024,0.424 -0.424,-1.023 z"
         id="path294"
         inkscape:connector-curvature="0" /></clipPath><linearGradient
       x1="0"
       y1="0"
       x2="1"
       y2="0"
       gradientUnits="userSpaceOnUse"
       gradientTransform="matrix(4.2304287,10.21317,-10.21317,4.2304287,11.921005,41.288883)"
       spreadMethod="pad"
       id="linearGradient300"><stop
         style="stop-opacity:1;stop-color:#b40500"
         offset="0"
         id="stop302" /><stop
         style="stop-opacity:1;stop-color:#f50000"
         offset="1"
         id="stop304" /></linearGradient></defs><sodipodi:namedview
     pagecolor="#ffffff"
     bordercolor="#666666"
     borderopacity="1"
     objecttolerance="10"
     gridtolerance="10"
     guidetolerance="10"
     inkscape:pageopacity="0"
     inkscape:pageshadow="2"
     inkscape:window-width="640"
     inkscape:window-height="480"
     id="namedview4"
     showgrid="false"
     fit-margin-top="0"
     fit-margin-left="0"
     fit-margin-right="0"
     fit-margin-bottom="0"
     inkscape:zoom="1.1299484"
     inkscape:cx="137.6235"
     inkscape:cy="19.507593"
     inkscape:window-x="0"
     inkscape:window-y="25"
     inkscape:window-maximized="0"
     inkscape:current-layer="g10" /><g
     id="g10"
     inkscape:groupmode="layer"
     inkscape:label="dasa-logo-short"
     transform="matrix(1.25,0,0,-1.25,-6.630883,81.4025)"><g
       id="g12"><g
         id="g14"
         clip-path="url(#clipPath16)"><g
           id="g20"
           transform="translate(173.3009,51.4731)"><path
             d="m 0,0 c -3.15,2.363 -6.76,3.15 -10.762,3.15 -3.15,0 -6.234,-0.984 -6.234,-3.413 0,-3.15 3.084,-3.608 7.612,-4.068 9.121,-0.984 18.636,-4.658 18.636,-15.223 0,-10.434 -9.843,-14.896 -20.145,-14.962 -8.268,-0.066 -14.174,1.379 -20.539,8.073 l 7.152,8.202 c 4.529,-4.397 9.581,-5.184 13.452,-5.184 4.266,0 7.218,1.508 7.218,4.068 0,2.297 -2.624,3.74 -7.676,4.2 -10.041,0.918 -18.703,3.478 -18.703,14.894 0,9.712 9.515,13.912 19.227,13.912 6.891,0 12.27,-1.574 17.193,-5.447 L 0,0 z"
             style="fill:#06467c;fill-opacity:1;fill-rule:nonzero;stroke:none"
             id="path22"
             inkscape:connector-curvature="0" /></g><g
           id="g24"
           transform="translate(118.5255,36.7086)"><path
             d="M 0,0 5.906,14.633 11.746,0 0,0 z m 23.344,-11.679 4.433,5.085 -15.243,34.089 -13.124,0 -20.605,-45.933 13.781,0 3.018,7.546 20.539,0 3.018,-7.546 11.665,0 c -2.669,1.581 -5.083,3.785 -7.482,6.759"
             style="fill:#1162b0;fill-opacity:1;fill-rule:nonzero;stroke:none"
             id="path26"
             inkscape:connector-curvature="0" /></g><g
           id="g28"><g
             id="g30" /><g
             id="g46"><g
               clip-path="url(#clipPath32)"
               id="g48"
               style="opacity:0.35000604"><g
                 id="g50"><g
                   clip-path="url(#clipPath36)"
                   id="g52"><g
                     id="g54"><g
                       id="g56"><path
                         d="m 129.599,64.204 -15.47,-38.388 20.54,0 3.017,-7.546 13.913,0 -20.539,45.934 -1.461,0 z m -5.168,-12.862 5.84,-14.633 -11.746,0 5.906,14.633 z"
                         style="fill:url(#linearGradient40);stroke:none"
                         id="path58"
                         inkscape:connector-curvature="0" /></g></g></g></g></g></g></g><g
           id="g60"
           transform="translate(75.4067,29.2294)"><path
             d="m 0,0 6.824,0 c 8.268,0 11.155,6.168 11.155,12.468 0,6.297 -3.214,11.678 -11.155,11.678 L 0,24.146 0,0 z m 6.824,34.974 c 16.208,0 24.017,-9.973 24.017,-22.638 0,-12.665 -7.546,-23.295 -24.017,-23.295 l -19.686,0 0,45.933 19.686,0 z"
             style="fill:#1162b0;fill-opacity:1;fill-rule:nonzero;stroke:none"
             id="path62"
             inkscape:connector-curvature="0" /></g><g
           id="g64"><g
             id="g66" /><g
             id="g82"><g
               clip-path="url(#clipPath68)"
               id="g84"
               style="opacity:0.35000604"><g
                 id="g86"><g
                   clip-path="url(#clipPath72)"
                   id="g88"><g
                     id="g90"><g
                       id="g92"><path
                         d="m 93.387,41.697 c 0,-6.299 -2.888,-12.468 -11.156,-12.468 l 0,0 -6.824,0 0,-10.959 6.824,0 c 16.47,0 24.018,10.631 24.018,23.296 l 0,0 c 0,5.383 -2.325,7.351 -4.997,7.352 l 0,0 c -3.615,10e-4 -7.865,-3.599 -7.865,-7.221"
                         style="fill:url(#linearGradient76);stroke:none"
                         id="path94"
                         inkscape:connector-curvature="0" /></g></g></g></g></g></g></g><g
           id="g96"
           transform="translate(203.6398,51.3417)"><path
             d="m 0,0 -5.906,-14.633 11.746,0 L 0,0 z m 10.237,-25.525 -20.539,0 -3.018,-7.547 -13.781,0 20.605,45.934 13.124,0 20.539,-45.934 -13.912,0 -3.018,7.547 z"
             style="fill:#06467c;fill-opacity:1;fill-rule:nonzero;stroke:none"
             id="path98"
             inkscape:connector-curvature="0" /></g><g
           id="g100"><g
             id="g102" /><g
             id="g118"><g
               clip-path="url(#clipPath104)"
               id="g120"
               style="opacity:0.30000299"><g
                 id="g122"><g
                   clip-path="url(#clipPath108)"
                   id="g124"><g
                     id="g126"><g
                       id="g128"><path
                         d="m 209.48,36.709 -5.841,14.633 5.841,-14.633 z"
                         style="fill:url(#linearGradient112);stroke:none"
                         id="path130"
                         inkscape:connector-curvature="0" /></g></g></g></g></g></g></g><g
           id="g132"><g
             id="g134" /><g
             id="g150"><g
               clip-path="url(#clipPath136)"
               id="g152"
               style="opacity:0.35000604"><g
                 id="g154"><g
                   clip-path="url(#clipPath140)"
                   id="g156"><g
                     id="g158"><g
                       id="g160"><path
                         d="m 208.807,64.204 -15.47,-38.388 20.539,0 3.019,-7.546 13.913,0 -20.541,45.934 -1.46,0 z m -5.168,-12.862 5.841,-14.633 -11.746,0 5.905,14.633 z"
                         style="fill:url(#linearGradient144);stroke:none"
                         id="path162"
                         inkscape:connector-curvature="0" /></g></g></g></g></g></g></g><g
           id="g164"><g
             id="g166" /><g
             id="g172"><g
               clip-path="url(#clipPath168)"
               id="g174"
               style="opacity:0.35000604" /></g></g><g
           id="g176"><g
             id="g178" /><g
             id="g194"><g
               clip-path="url(#clipPath180)"
               id="g196"
               style="opacity:0.32000703"><g
                 id="g198"><g
                   clip-path="url(#clipPath184)"
                   id="g200"><g
                     id="g202"><g
                       id="g204"><path
                         d="m 162.014,36.316 c 0.102,-0.009 0.204,-0.019 0.305,-0.029 l 0,0 c -0.089,0.018 -0.189,0.028 -0.299,0.029 l 0,0 -0.006,0 z m 0.375,-0.046 c 4.795,-0.498 7.302,-1.917 7.302,-4.154 l 0,0 c 0,-2.56 -2.953,-4.068 -7.218,-4.068 l 0,0 c -3.871,0 -8.924,0.787 -13.452,5.184 l 0,0 -7.151,-8.202 c 6.185,-6.506 11.938,-8.052 19.846,-8.075 l 0,0 0.354,0 c 0.113,0 0.224,0.001 0.338,0.002 l 0,0 c 6.054,0.039 11.951,1.596 15.783,4.992 l 0,0 c 2.671,2.366 0.087,12.76 -15.872,14.338 l 0,0 c 0.024,-0.005 0.047,-0.011 0.07,-0.017"
                         style="fill:url(#linearGradient188);stroke:none"
                         id="path206"
                         inkscape:connector-curvature="0" /></g></g></g></g></g></g></g></g></g><g
       id="g208"><g
         id="g210"
         clip-path="url(#clipPath212)"><g
           id="g216"><g
             id="g218"><path
               d="m 22.057,41.986 -2.56,-6.184 c -1.767,-4.263 0.264,-9.168 4.528,-10.934 l 0,0 c 2.065,-0.856 4.34,-0.856 6.406,0 l 0,0 c 2.064,0.855 3.674,2.463 4.529,4.529 l 0,0 c 1.765,4.263 -0.267,9.168 -4.529,10.935 l 0,0 -6.183,2.561 -1.55,0.641 -0.641,-1.548 z"
               style="fill:url(#linearGradient220);stroke:none"
               id="path226"
               inkscape:connector-curvature="0" /></g></g></g></g><g
       id="g228"><g
         id="g230"
         clip-path="url(#clipPath232)"><g
           id="g236"><g
             id="g238"><path
               d="M 35.172,50.627 33.48,46.543 c -1.166,-2.816 0.176,-6.057 2.993,-7.222 l 0,0 c 1.362,-0.564 2.865,-0.564 4.229,0 l 0,0 c 1.364,0.565 2.426,1.627 2.991,2.992 l 0,0 c 1.168,2.816 -0.174,6.055 -2.991,7.221 l 0,0 -4.085,1.692 -1.022,0.423 -0.423,-1.022 z"
               style="fill:url(#linearGradient240);stroke:none"
               id="path246"
               inkscape:connector-curvature="0" /></g></g></g></g><g
       id="g248"><g
         id="g250"
         clip-path="url(#clipPath252)"><g
           id="g256"><g
             id="g258"><path
               d="M 7.418,39.131 5.726,35.047 C 4.559,32.231 5.9,28.991 8.717,27.824 l 0,0 c 1.365,-0.564 2.866,-0.564 4.23,0 l 0,0 c 1.365,0.566 2.427,1.628 2.991,2.992 l 0,0 c 1.167,2.816 -0.174,6.056 -2.991,7.222 l 0,0 -4.085,1.692 -1.021,0.423 -0.423,-1.022 z"
               style="fill:url(#linearGradient260);stroke:none"
               id="path266"
               inkscape:connector-curvature="0" /></g></g></g></g><g
       id="g268"><g
         id="g270"
         clip-path="url(#clipPath272)"><g
           id="g276"><g
             id="g278"><path
               d="M 23.271,57.607 21.58,53.524 c -1.165,-2.816 0.177,-6.056 2.992,-7.223 l 0,0 c 1.363,-0.564 2.865,-0.564 4.231,0 l 0,0 c 1.362,0.566 2.425,1.628 2.99,2.992 l 0,0 c 1.167,2.816 -0.176,6.055 -2.99,7.222 l 0,0 -4.084,1.692 -1.024,0.423 -0.424,-1.023 z"
               style="fill:url(#linearGradient280);stroke:none"
               id="path286"
               inkscape:connector-curvature="0" /></g></g></g></g><g
       id="g288"><g
         id="g290"
         clip-path="url(#clipPath292)"><g
           id="g296"><g
             id="g298"><path
               d="M 10.895,52.481 9.203,48.397 C 8.037,45.581 9.38,42.34 12.195,41.175 l 0,0 c 1.364,-0.564 2.866,-0.564 4.232,0 l 0,0 c 1.362,0.565 2.425,1.628 2.99,2.992 l 0,0 c 1.166,2.816 -0.176,6.055 -2.99,7.221 l 0,0 -4.084,1.692 -1.024,0.424 -0.424,-1.023 z"
               style="fill:url(#linearGradient300);stroke:none"
               id="path306"
               inkscape:connector-curvature="0" /></g></g></g></g></g></svg>