<?xml version="1.0" encoding="UTF-8" standalone="no"?>
<!-- Created with Inkscape (http://www.inkscape.org/) -->

<svg
   xmlns:dc="http://purl.org/dc/elements/1.1/"
   xmlns:cc="http://creativecommons.org/ns#"
   xmlns:rdf="http://www.w3.org/1999/02/22-rdf-syntax-ns#"
   xmlns:svg="http://www.w3.org/2000/svg"
   xmlns="http://www.w3.org/2000/svg"
   xmlns:sodipodi="http://sodipodi.sourceforge.net/DTD/sodipodi-0.dtd"
   xmlns:inkscape="http://www.inkscape.org/namespaces/inkscape"
   id="svg2"
   version="1.1"
   inkscape:version="0.48.4 r9939"
   width="48.512508"
   height="43.00375"
   xml:space="preserve"
   sodipodi:docname="dasa-logo-stamp.ai"><metadata
     id="metadata8"><rdf:RDF><cc:Work
         rdf:about=""><dc:format>image/svg+xml</dc:format><dc:type
           rdf:resource="http://purl.org/dc/dcmitype/StillImage" /><dc:title></dc:title></cc:Work></rdf:RDF></metadata><defs
     id="defs6"><clipPath
       clipPathUnits="userSpaceOnUse"
       id="clipPath16"><path
         d="m 22.057,24.69 -2.56,-6.184 C 17.73,14.243 19.761,9.337 24.025,7.572 l 0,0 c 2.065,-0.856 4.34,-0.856 6.406,0 l 0,0 c 2.064,0.855 3.674,2.463 4.529,4.528 l 0,0 c 1.765,4.264 -0.267,9.169 -4.529,10.936 l 0,0 -6.183,2.561 -1.55,0.641 -0.641,-1.548 z"
         id="path18"
         inkscape:connector-curvature="0" /></clipPath><linearGradient
       x1="0"
       y1="0"
       x2="1"
       y2="0"
       gradientUnits="userSpaceOnUse"
       gradientTransform="matrix(-7.7318916,18.666479,-18.666479,-7.7318916,30.845411,7.7430754)"
       spreadMethod="pad"
       id="linearGradient24"><stop
         style="stop-opacity:1;stop-color:#06467c"
         offset="0"
         id="stop26" /><stop
         style="stop-opacity:1;stop-color:#1162b0"
         offset="1"
         id="stop28" /></linearGradient><clipPath
       clipPathUnits="userSpaceOnUse"
       id="clipPath36"><path
         d="M 35.172,33.331 33.48,29.246 c -1.166,-2.816 0.176,-6.056 2.993,-7.221 l 0,0 c 1.362,-0.565 2.865,-0.565 4.229,0 l 0,0 c 1.364,0.565 2.426,1.627 2.991,2.991 l 0,0 c 1.168,2.817 -0.174,6.056 -2.991,7.222 l 0,0 -4.085,1.692 -1.022,0.423 -0.423,-1.022 z"
         id="path38"
         inkscape:connector-curvature="0" /></clipPath><linearGradient
       x1="0"
       y1="0"
       x2="1"
       y2="0"
       gradientUnits="userSpaceOnUse"
       gradientTransform="matrix(-5.106616,12.32834,-12.32834,-5.106616,40.976173,22.138548)"
       spreadMethod="pad"
       id="linearGradient44"><stop
         style="stop-opacity:1;stop-color:#ffaa00"
         offset="0"
         id="stop46" /><stop
         style="stop-opacity:1;stop-color:#ffdc00"
         offset="1"
         id="stop48" /></linearGradient><clipPath
       clipPathUnits="userSpaceOnUse"
       id="clipPath56"><path
         d="M 7.418,21.835 5.726,17.751 C 4.559,14.935 5.9,11.695 8.717,10.527 l 0,0 c 1.365,-0.563 2.866,-0.563 4.23,0 l 0,0 c 1.365,0.566 2.427,1.629 2.991,2.993 l 0,0 c 1.167,2.816 -0.174,6.056 -2.991,7.221 l 0,0 -4.085,1.692 -1.021,0.423 -0.423,-1.021 z"
         id="path58"
         inkscape:connector-curvature="0" /></clipPath><linearGradient
       x1="0"
       y1="0"
       x2="1"
       y2="0"
       gradientUnits="userSpaceOnUse"
       gradientTransform="matrix(-5.1066461,12.328412,-12.328412,-5.1066461,13.220754,10.641846)"
       spreadMethod="pad"
       id="linearGradient64"><stop
         style="stop-opacity:1;stop-color:#005f32"
         offset="0"
         id="stop66" /><stop
         style="stop-opacity:1;stop-color:#009632"
         offset="1"
         id="stop68" /></linearGradient><clipPath
       clipPathUnits="userSpaceOnUse"
       id="clipPath76"><path
         d="M 23.271,40.311 21.58,36.228 c -1.165,-2.816 0.177,-6.056 2.992,-7.224 l 0,0 c 1.363,-0.563 2.865,-0.563 4.231,0 l 0,0 c 1.362,0.566 2.425,1.628 2.99,2.993 l 0,0 c 1.167,2.816 -0.176,6.055 -2.99,7.221 l 0,0 -4.084,1.692 -1.024,0.423 -0.424,-1.022 z"
         id="path78"
         inkscape:connector-curvature="0" /></clipPath><linearGradient
       x1="0"
       y1="0"
       x2="1"
       y2="0"
       gradientUnits="userSpaceOnUse"
       gradientTransform="matrix(5.1066222,-12.328355,12.328355,5.1066222,23.969501,41.447342)"
       spreadMethod="pad"
       id="linearGradient84"><stop
         style="stop-opacity:1;stop-color:#1a1818"
         offset="0"
         id="stop86" /><stop
         style="stop-opacity:1;stop-color:#2a2728"
         offset="1"
         id="stop88" /></linearGradient><clipPath
       clipPathUnits="userSpaceOnUse"
       id="clipPath96"><path
         d="M 10.895,35.185 9.203,31.1 C 8.037,28.284 9.38,25.044 12.195,23.879 l 0,0 c 1.364,-0.565 2.866,-0.565 4.232,0 l 0,0 c 1.362,0.565 2.425,1.628 2.99,2.991 l 0,0 c 1.166,2.817 -0.176,6.056 -2.99,7.222 l 0,0 -4.084,1.692 -1.024,0.424 -0.424,-1.023 z"
         id="path98"
         inkscape:connector-curvature="0" /></clipPath><linearGradient
       x1="0"
       y1="0"
       x2="1"
       y2="0"
       gradientUnits="userSpaceOnUse"
       gradientTransform="matrix(4.2304287,10.21317,-10.21317,4.2304287,11.921005,23.992685)"
       spreadMethod="pad"
       id="linearGradient104"><stop
         style="stop-opacity:1;stop-color:#b40500"
         offset="0"
         id="stop106" /><stop
         style="stop-opacity:1;stop-color:#f50000"
         offset="1"
         id="stop108" /></linearGradient></defs><sodipodi:namedview
     pagecolor="#ffffff"
     bordercolor="#666666"
     borderopacity="1"
     objecttolerance="10"
     gridtolerance="10"
     guidetolerance="10"
     inkscape:pageopacity="0"
     inkscape:pageshadow="2"
     inkscape:window-width="640"
     inkscape:window-height="480"
     id="namedview4"
     showgrid="false"
     fit-margin-top="0"
     fit-margin-left="0"
     fit-margin-right="0"
     fit-margin-bottom="0"
     inkscape:zoom="4.1250628"
     inkscape:cx="24.255616"
     inkscape:cy="19.943125"
     inkscape:window-x="0"
     inkscape:window-y="25"
     inkscape:window-maximized="0"
     inkscape:current-layer="g10" /><g
     id="g10"
     inkscape:groupmode="layer"
     inkscape:label="dasa-logo-stamp"
     transform="matrix(1.25,0,0,-1.25,-6.630883,51.66625)"><g
       id="g12"><g
         id="g14"
         clip-path="url(#clipPath16)"><g
           id="g20"><g
             id="g22"><path
               d="m 22.057,24.69 -2.56,-6.184 C 17.73,14.243 19.761,9.337 24.025,7.572 l 0,0 c 2.065,-0.856 4.34,-0.856 6.406,0 l 0,0 c 2.064,0.855 3.674,2.463 4.529,4.528 l 0,0 c 1.765,4.264 -0.267,9.169 -4.529,10.936 l 0,0 -6.183,2.561 -1.55,0.641 -0.641,-1.548 z"
               style="fill:url(#linearGradient24);stroke:none"
               id="path30"
               inkscape:connector-curvature="0" /></g></g></g></g><g
       id="g32"><g
         id="g34"
         clip-path="url(#clipPath36)"><g
           id="g40"><g
             id="g42"><path
               d="M 35.172,33.331 33.48,29.246 c -1.166,-2.816 0.176,-6.056 2.993,-7.221 l 0,0 c 1.362,-0.565 2.865,-0.565 4.229,0 l 0,0 c 1.364,0.565 2.426,1.627 2.991,2.991 l 0,0 c 1.168,2.817 -0.174,6.056 -2.991,7.222 l 0,0 -4.085,1.692 -1.022,0.423 -0.423,-1.022 z"
               style="fill:url(#linearGradient44);stroke:none"
               id="path50"
               inkscape:connector-curvature="0" /></g></g></g></g><g
       id="g52"><g
         id="g54"
         clip-path="url(#clipPath56)"><g
           id="g60"><g
             id="g62"><path
               d="M 7.418,21.835 5.726,17.751 C 4.559,14.935 5.9,11.695 8.717,10.527 l 0,0 c 1.365,-0.563 2.866,-0.563 4.23,0 l 0,0 c 1.365,0.566 2.427,1.629 2.991,2.993 l 0,0 c 1.167,2.816 -0.174,6.056 -2.991,7.221 l 0,0 -4.085,1.692 -1.021,0.423 -0.423,-1.021 z"
               style="fill:url(#linearGradient64);stroke:none"
               id="path70"
               inkscape:connector-curvature="0" /></g></g></g></g><g
       id="g72"><g
         id="g74"
         clip-path="url(#clipPath76)"><g
           id="g80"><g
             id="g82"><path
               d="M 23.271,40.311 21.58,36.228 c -1.165,-2.816 0.177,-6.056 2.992,-7.224 l 0,0 c 1.363,-0.563 2.865,-0.563 4.231,0 l 0,0 c 1.362,0.566 2.425,1.628 2.99,2.993 l 0,0 c 1.167,2.816 -0.176,6.055 -2.99,7.221 l 0,0 -4.084,1.692 -1.024,0.423 -0.424,-1.022 z"
               style="fill:url(#linearGradient84);stroke:none"
               id="path90"
               inkscape:connector-curvature="0" /></g></g></g></g><g
       id="g92"><g
         id="g94"
         clip-path="url(#clipPath96)"><g
           id="g100"><g
             id="g102"><path
               d="M 10.895,35.185 9.203,31.1 C 8.037,28.284 9.38,25.044 12.195,23.879 l 0,0 c 1.364,-0.565 2.866,-0.565 4.232,0 l 0,0 c 1.362,0.565 2.425,1.628 2.99,2.991 l 0,0 c 1.166,2.817 -0.176,6.056 -2.99,7.222 l 0,0 -4.084,1.692 -1.024,0.424 -0.424,-1.023 z"
               style="fill:url(#linearGradient104);stroke:none"
               id="path110"
               inkscape:connector-curvature="0" /></g></g></g></g></g></svg>