<svg xmlns="http://www.w3.org/2000/svg" width="737.141" height="258.661" viewBox="0 0 737.1412 258.66126"><defs><linearGradient x2="1" gradientUnits="userSpaceOnUse" gradientTransform="matrix(-18.508 0 0 18.508 449.436 284.48)" id="a"><stop offset="0" stop-color="#0077c0"/><stop offset=".005" stop-color="#0077c0"/><stop offset="1" stop-color="#00558a"/></linearGradient><clipPath id="b"><path d="M0 595.28h841.89V0H0v595.28z"/></clipPath><linearGradient x2="1" gradientUnits="userSpaceOnUse" gradientTransform="scale(19.833) rotate(45 -6.724 30.697)" id="c"><stop offset="0" stop-color="#0077c0"/><stop offset=".483" stop-color="#0077c0"/><stop offset="1" stop-color="#00558a"/></linearGradient><clipPath id="d"><path d="M0 595.28h841.89V0H0v595.28z"/></clipPath><linearGradient x2="1" gradientUnits="userSpaceOnUse" gradientTransform="matrix(-19.74 0 0 19.74 347.402 284.48)" id="e"><stop offset="0" stop-color="#00598e"/><stop offset="1" stop-color="#003a5c"/></linearGradient><clipPath id="f"><path d="M0 595.28h841.89V0H0v595.28z"/></clipPath><linearGradient x2="1" gradientUnits="userSpaceOnUse" gradientTransform="matrix(-10.17 0 0 10.17 287.395 274.693)" id="g"><stop offset="0" stop-color="#00598e"/><stop offset="1" stop-color="#003a5c"/></linearGradient><linearGradient x2="1" gradientUnits="userSpaceOnUse" gradientTransform="scale(26.316) rotate(112.5 .656 8.034)" id="h"><stop offset="0" stop-color="#00598e"/><stop offset="1" stop-color="#0077c0"/></linearGradient><linearGradient x2="1" gradientUnits="userSpaceOnUse" gradientTransform="scale(17.38) rotate(112.5 1.012 12.957)" id="i"><stop offset="0" stop-color="#ffaa05"/><stop offset="1" stop-color="#ffca05"/></linearGradient><linearGradient x2="1" gradientUnits="userSpaceOnUse" gradientTransform="scale(17.38) rotate(112.5 .26 11.83)" id="j"><stop offset="0" stop-color="#006432"/><stop offset="1" stop-color="#1d984a"/></linearGradient><linearGradient x2="1" gradientUnits="userSpaceOnUse" gradientTransform="scale(17.38) rotate(112.5 .39 12.92)" id="k"><stop offset="0"/><stop offset="1" stop-color="#383435"/></linearGradient><linearGradient x2="1" gradientUnits="userSpaceOnUse" gradientTransform="scale(17.38) rotate(112.5 .056 12.418)" id="l"><stop offset="0" stop-color="#b31f24"/><stop offset="1" stop-color="#ed1c24"/></linearGradient><clipPath id="m"><path d="M0 595.28h841.89V0H0v595.28z"/></clipPath></defs><path d="M737.14 258.66H0V0h737.14v258.66z" fill="#fff"/><path d="M397.7 113.09l-9.617 23.825h19.125l-9.51-23.825zm16.667 41.558h-33.44l-4.915 12.287h-22.436l33.547-74.786h21.368l33.44 74.785h-22.65l-4.913-12.287z" fill="#0077c0"/><path d="M449.436 277.386h-18.508l5.627 14.186h12.88v-14.186z" fill="url(#a)" transform="matrix(1.25 0 0 -1.25 -157.61 501.38)"/><g clip-path="url(#b)" transform="matrix(1.25 0 0 -1.25 -157.61 501.38)"><path d="M404.732 310.803c-4.103 3.077-8.804 4.103-14.018 4.103-4.102 0-8.12-1.282-8.12-4.445 0-4.102 4.018-4.7 9.916-5.298 11.88-1.282 24.273-6.067 24.273-19.828 0-13.59-12.82-19.402-26.24-19.488-10.77-.085-18.46 1.796-26.75 10.514l9.315 10.684c5.898-5.727 12.48-6.752 17.52-6.752 5.556 0 9.402 1.964 9.402 5.3 0 2.99-3.417 4.87-9.998 5.47-13.078 1.195-24.36 4.53-24.36 19.4 0 12.65 12.392 18.12 25.042 18.12 8.976 0 15.983-2.05 22.394-7.096l-8.376-10.683z" fill="#0077c0"/></g><path d="M399.936 284.712c-.785-3.22-4.52-3.242-5.913-6.47-1.232-2.86 1.442-12.26 4.503-11.62 7.428 1.55 13.767 5.026 13.766 8.516-.002 6.926-7.904 15.158-22.26 15.923 0 0 11.29-.653 9.904-6.348" fill="url(#c)" transform="matrix(1.25 0 0 -1.25 -157.61 501.38)"/><g clip-path="url(#d)" transform="matrix(1.25 0 0 -1.25 -157.61 501.38)"><path d="M333.387 291.572l7.693 19.06 7.606-19.06h-15.3zm30.405-15.212l5.775 6.623-19.854 44.4H332.62l-26.84-59.827h17.95l3.93 9.83h26.753l3.932-9.83h14.283c-3.476 2.06-6.187 4.756-8.836 8.804" fill="#00598e"/></g><path d="M333.387 291.572l-5.726-14.187h19.742v14.187h-14.015z" fill="url(#e)" transform="matrix(1.25 0 0 -1.25 -157.61 501.38)"/><g clip-path="url(#f)" transform="matrix(1.25 0 0 -1.25 -157.61 501.38)"><path d="M277.225 281.83h8.89c10.768 0 14.528 8.034 14.528 16.24 0 8.202-4.187 15.21-14.53 15.21h-8.888v-31.45zm8.89 45.554c21.11 0 31.28-12.99 31.28-29.486 0-16.496-9.83-30.342-31.28-30.342H260.47v59.83l25.642-.002z" fill="#00598e"/></g><path d="M277.225 267.556h10.17v14.275h-10.17v-14.274z" fill="url(#g)" transform="matrix(1.25 0 0 -1.25 -157.61 501.38)"/><path d="M207.737 298.445l-3.335-8.054c-2.302-5.552.345-11.94 5.898-14.24 2.69-1.115 5.653-1.115 8.343 0 2.69 1.113 4.786 3.208 5.9 5.898 2.3 5.553-.347 11.942-5.9 14.243l-8.054 3.337-2.018.835-.835-2.017z" fill="url(#h)" transform="matrix(1.25 0 0 -1.25 -157.61 501.38)"/><path d="M224.82 309.7l-2.203-5.318c-1.52-3.668.227-7.888 3.895-9.407 1.777-.735 3.733-.736 5.51 0 1.776.736 3.16 2.12 3.897 3.896 1.517 3.67-.23 7.89-3.897 9.408l-5.32 2.203-1.33.553-.554-1.332z" fill="url(#i)" transform="matrix(1.25 0 0 -1.25 -157.61 501.38)"/><path d="M188.67 294.727l-2.205-5.32c-1.52-3.667.228-7.887 3.897-9.406 1.775-.734 3.734-.734 5.51 0 1.776.737 3.16 2.12 3.896 3.897 1.52 3.667-.23 7.887-3.897 9.407l-5.318 2.203-1.332.552-.55-1.333z" fill="url(#j)" transform="matrix(1.25 0 0 -1.25 -157.61 501.38)"/><path d="M209.32 318.793l-2.205-5.32c-1.52-3.667.23-7.887 3.897-9.406 1.778-.736 3.733-.736 5.51 0 1.777.736 3.16 2.12 3.896 3.897 1.52 3.667-.23 7.886-3.896 9.406l-5.32 2.203-1.33.552-.553-1.332z" fill="url(#k)" transform="matrix(1.25 0 0 -1.25 -157.61 501.38)"/><path d="M193.2 312.116l-2.205-5.32c-1.518-3.667.23-7.887 3.897-9.406 1.778-.736 3.734-.736 5.51 0 1.777.736 3.16 2.12 3.896 3.897 1.52 3.667-.228 7.886-3.896 9.406l-5.32 2.203-1.33.55-.553-1.33z" fill="url(#l)" transform="matrix(1.25 0 0 -1.25 -157.61 501.38)"/><g clip-path="url(#m)" transform="matrix(1.25 0 0 -1.25 -157.61 501.38)"><path d="M521.853 254.06l-38.815 86.818h-1.242l38.814-86.818h1.243z" fill="#bebec8"/><path d="M637.305 288.055c0 1.65-1.187 2.794-2.926 2.794h-3.85v-5.61h3.85c1.738 0 2.925 1.165 2.925 2.815m-.11-10.253l-3.74 5.83h-2.925v-5.83h-1.83v14.676h5.9c2.684 0 4.598-1.716 4.598-4.423 0-2.64-1.805-4.092-3.807-4.27l3.962-5.983h-2.156zm-21.232 0v14.676h9.617v-1.63h-7.79v-4.73h7.636v-1.627h-7.635v-5.06h7.79v-1.628h-9.617zm-5.013 4.158c0 1.343-.924 2.53-2.73 2.53h-4.487v-5.06h4.488c1.718 0 2.73.968 2.73 2.53m-.286 6.513c0 1.32-.88 2.376-2.53 2.376h-4.4v-4.73h4.4c1.65 0 2.53 1.01 2.53 2.353m-8.757-10.67v14.675h6.535c2.552 0 4.115-1.54 4.115-3.74 0-1.85-1.232-3.08-2.576-3.367 1.563-.24 2.862-1.848 2.862-3.608 0-2.354-1.562-3.96-4.246-3.96h-6.69zm-5.477 0v12.078l-4.994-12.078h-.748l-4.973 12.08V277.8h-1.826v14.676h2.618l4.555-11.046 4.576 11.046h2.616v-14.676h-1.826zm-25.28 0v14.675h9.616v-1.63h-7.79v-4.73h7.636v-1.627h-7.635v-5.06h7.79v-1.628h-9.616zm-5.476 0v12.078l-4.994-12.078h-.748l-4.973 12.08V277.8h-1.827v14.676h2.62l4.554-11.046 4.576 11.046h2.617v-14.676h-1.826zm83.654 25v14.675h3.784v-11.376h5.898v-3.3h-9.682zm-9.216 10.934l-1.87-5.523h3.74l-1.87 5.523zm3.63-10.935l-.726 2.112h-5.787l-.728-2.112h-4.29l5.523 14.676h4.752l5.545-14.676h-4.29zm-25.874 5.94v8.736h3.85v-8.604c0-1.738 1.034-2.992 3.103-2.992 2.026 0 3.08 1.254 3.08 2.992v8.604h3.83v-8.714c0-3.652-2.222-6.227-6.91-6.227-4.73 0-6.952 2.597-6.952 6.205m-5.983 1.41c0 2.265-1.363 4.025-4.05 4.025h-2.397v-8.075h2.377c2.574 0 4.07 1.87 4.07 4.05m-10.23-7.35v14.676h6.16c4.62 0 7.943-2.773 7.943-7.327s-3.322-7.348-7.922-7.348h-6.18zm-6.645 14.676h3.783v-14.676h-3.783v14.676zm-11.594-14.676l-5.523 14.676h4.29l3.61-10.584 3.63 10.584h4.29l-5.545-14.676h-4.752zm-10.603 14.676h3.783v-14.676h-3.783v14.676zm-5.983-7.327c0 2.267-1.365 4.027-4.048 4.027h-2.4v-8.075h2.378c2.574 0 4.07 1.87 4.07 4.05m-10.232-7.35v14.676h6.162c4.62 0 7.94-2.773 7.94-7.327s-3.32-7.348-7.918-7.348h-6.184zm-6.51 0l-6.205 8.493v-8.493h-3.785v14.676h3.894l5.942-8.075v8.075h3.807v-14.676h-3.652zm-16.633 14.676h3.783v-14.676h-3.783v14.676z" fill="#0077c0"/></g></svg>