<svg xmlns="http://www.w3.org/2000/svg" width="831.324" height="214.02" viewBox="0 0 831.32369 214.01962"><defs><linearGradient x2="1" gradientUnits="userSpaceOnUse" gradientTransform="matrix(-18.5 0 0 18.5 407.87 284.48)" id="a"><stop offset="0" stop-color="#0077c0"/><stop offset=".005" stop-color="#0077c0"/><stop offset="1" stop-color="#00558a"/></linearGradient><clipPath id="b"><path d="M0 595.28h841.89V0H0v595.28z"/></clipPath><linearGradient x2="1" gradientUnits="userSpaceOnUse" gradientTransform="scale(19.83) rotate(45 -7.77 28.17)" id="c"><stop offset="0" stop-color="#0077c0"/><stop offset=".483" stop-color="#0077c0"/><stop offset="1" stop-color="#00558a"/></linearGradient><clipPath id="d"><path d="M0 595.28h841.89V0H0v595.28z"/></clipPath><linearGradient x2="1" gradientUnits="userSpaceOnUse" gradientTransform="matrix(-19.74 0 0 19.74 305.83 284.48)" id="e"><stop offset="0" stop-color="#00598e"/><stop offset="1" stop-color="#003a5c"/></linearGradient><clipPath id="f"><path d="M0 595.28h841.89V0H0v595.28z"/></clipPath><linearGradient x2="1" gradientUnits="userSpaceOnUse" gradientTransform="matrix(-10.17 0 0 10.17 245.82 274.69)" id="g"><stop offset="0" stop-color="#00598e"/><stop offset="1" stop-color="#003a5c"/></linearGradient><linearGradient x2="1" gradientUnits="userSpaceOnUse" gradientTransform="scale(26.32) rotate(112.5 -.13 7.51)" id="h"><stop offset="0" stop-color="#00598e"/><stop offset="1" stop-color="#0077c0"/></linearGradient><linearGradient x2="1" gradientUnits="userSpaceOnUse" gradientTransform="rotate(112.5 -3.2 211.3) scale(17.38)" id="i"><stop offset="0" stop-color="#ffaa05"/><stop offset="1" stop-color="#ffca05"/></linearGradient><linearGradient x2="1" gradientUnits="userSpaceOnUse" gradientTransform="rotate(112.5 -16.27 191.74) scale(17.38)" id="j"><stop offset="0" stop-color="#006432"/><stop offset="1" stop-color="#1d984a"/></linearGradient><linearGradient x2="1" gradientUnits="userSpaceOnUse" gradientTransform="rotate(112.5 -13.98 210.67) scale(17.38)" id="k"><stop offset="0"/><stop offset="1" stop-color="#383435"/></linearGradient><linearGradient x2="1" gradientUnits="userSpaceOnUse" gradientTransform="rotate(112.5 -19.81 201.95) scale(17.38)" id="l"><stop offset="0" stop-color="#b31f24"/><stop offset="1" stop-color="#ed1c24"/></linearGradient><clipPath id="m"><path d="M0 595.28h841.89V0H0v595.28z"/></clipPath></defs><path d="M831.323 214.02H512.687L417.727 0h413.596v214.02z" fill="#00598e"/><path d="M831.324 0H0v214.02h831.324V0zm-2.5 211.52H2.5V2.5h826.324v209.02z" fill="#00598e"/><path d="M392.827 90.77l-9.616 23.825h19.126l-9.51-23.825zm16.667 41.558h-33.44l-4.915 12.287h-22.437L382.25 69.83h21.368l33.44 74.785h-22.65l-4.914-12.287z" fill="#0077c0"/><path d="M407.865 277.386h-18.508l5.627 14.186h12.88v-14.186z" fill="url(#a)" transform="matrix(1.25 0 0 -1.25 -110.52 479.06)"/><g clip-path="url(#b)" transform="matrix(1.25 0 0 -1.25 -110.52 479.06)"><path d="M363.16 310.803c-4.102 3.077-8.803 4.103-14.017 4.103-4.102 0-8.12-1.282-8.12-4.445 0-4.102 4.018-4.7 9.916-5.298 11.88-1.282 24.272-6.067 24.272-19.828 0-13.59-12.82-19.402-26.24-19.488-10.77-.085-18.46 1.796-26.75 10.514l9.315 10.684c5.898-5.727 12.48-6.752 17.52-6.752 5.556 0 9.402 1.964 9.402 5.3 0 2.99-3.418 4.87-10 5.47-13.077 1.195-24.36 4.53-24.36 19.4 0 12.65 12.393 18.12 25.043 18.12 8.976 0 15.983-2.05 22.394-7.096l-8.376-10.683z" fill="#0077c0"/></g><path d="M358.365 284.712c-.785-3.22-4.52-3.242-5.913-6.47-1.232-2.86 1.442-12.26 4.503-11.62 7.428 1.55 13.766 5.026 13.766 8.516 0 6.926-7.903 15.158-22.26 15.923 0 0 11.293-.653 9.905-6.348" fill="url(#c)" transform="matrix(1.25 0 0 -1.25 -110.52 479.06)"/><g clip-path="url(#d)" transform="matrix(1.25 0 0 -1.25 -110.52 479.06)"><path d="M291.816 291.572l7.693 19.06 7.605-19.06h-15.3zm30.405-15.212l5.776 6.623-19.854 44.4h-17.094l-26.838-59.827h17.95l3.93 9.83h26.752l3.932-9.83h14.283c-3.476 2.06-6.187 4.756-8.836 8.804" fill="#00598e"/></g><path d="M291.816 291.572l-5.726-14.187h19.74v14.187h-14.014z" fill="url(#e)" transform="matrix(1.25 0 0 -1.25 -110.52 479.06)"/><g clip-path="url(#f)" transform="matrix(1.25 0 0 -1.25 -110.52 479.06)"><path d="M235.654 281.83h8.89c10.768 0 14.528 8.034 14.528 16.24 0 8.202-4.187 15.21-14.53 15.21h-8.888v-31.45zm8.89 45.554c21.11 0 31.28-12.99 31.28-29.486 0-16.496-9.83-30.342-31.28-30.342H218.9v59.83l25.643-.002z" fill="#00598e"/></g><path d="M235.654 267.556h10.17v14.275h-10.17v-14.274z" fill="url(#g)" transform="matrix(1.25 0 0 -1.25 -110.52 479.06)"/><path d="M166.166 298.445l-3.335-8.054c-2.3-5.552.346-11.94 5.9-14.24 2.69-1.115 5.652-1.115 8.342 0 2.69 1.113 4.786 3.208 5.9 5.898 2.3 5.553-.347 11.942-5.9 14.243l-8.054 3.337-2.017.835-.834-2.017z" fill="url(#h)" transform="matrix(1.25 0 0 -1.25 -110.52 479.06)"/><path d="M183.248 309.7l-2.202-5.318c-1.52-3.668.227-7.888 3.895-9.407 1.778-.735 3.734-.736 5.512 0 1.775.736 3.16 2.12 3.896 3.896 1.518 3.67-.23 7.89-3.896 9.408l-5.32 2.203-1.33.553-.554-1.332z" fill="url(#i)" transform="matrix(1.25 0 0 -1.25 -110.52 479.06)"/><path d="M147.098 294.727l-2.204-5.32c-1.52-3.667.228-7.887 3.897-9.406 1.776-.734 3.735-.734 5.51 0 1.777.737 3.16 2.12 3.897 3.897 1.52 3.667-.23 7.887-3.897 9.407l-5.32 2.203-1.33.552-.552-1.333z" fill="url(#j)" transform="matrix(1.25 0 0 -1.25 -110.52 479.06)"/><path d="M167.748 318.793l-2.204-5.32c-1.52-3.667.23-7.887 3.897-9.406 1.78-.736 3.734-.736 5.51 0 1.778.736 3.162 2.12 3.897 3.897 1.52 3.667-.23 7.886-3.896 9.406l-5.32 2.203-1.33.552-.552-1.332z" fill="url(#k)" transform="matrix(1.25 0 0 -1.25 -110.52 479.06)"/><path d="M151.628 312.116l-2.204-5.32c-1.518-3.667.23-7.887 3.897-9.406 1.78-.736 3.734-.736 5.51 0 1.778.736 3.162 2.12 3.897 3.897 1.52 3.667-.228 7.886-3.896 9.406l-5.32 2.203-1.33.55-.552-1.33z" fill="url(#l)" transform="matrix(1.25 0 0 -1.25 -110.52 479.06)"/><g clip-path="url(#m)" transform="matrix(1.25 0 0 -1.25 -110.52 479.06)"><path d="M498.197 212.033c-.217 0-.424.125-.518.336" fill="#bebec8"/><path d="M509.222 311.795c0 2.942-1.916 5.21-4.886 5.21-2.996 0-4.912-2.268-4.912-5.21 0-2.916 1.916-5.21 4.912-5.21 2.97 0 4.886 2.294 4.886 5.21m-14.52 0c0 5.48 4.128 9.313 9.634 9.313 5.507 0 9.61-3.834 9.61-9.313 0-5.48-4.103-9.313-9.61-9.313-5.506 0-9.635 3.834-9.635 9.313M527.125 314.845c0 1.215-1.025 1.917-2.24 1.917h-3.67l-.002-3.86h3.67c1.216 0 2.24.674 2.24 1.943m-.512-12.04l-3.022 6.048h-2.375v-6.047h-4.644v18.005h9.015c3.995 0 6.263-2.645 6.263-5.992 0-3.13-1.916-4.805-3.59-5.398l3.67-6.614h-5.317zM533.77 311.795c0 5.722 4.37 9.313 9.743 9.313 4.022 0 6.45-2.133 7.693-4.374l-3.887-2.024c-.676 1.188-2.052 2.294-3.807 2.294-2.942 0-5.02-2.267-5.02-5.21 0-2.94 2.078-5.21 5.02-5.21 1.322 0 2.672.54 3.32 1.08v1.404h-4.048v4.077h8.69v-7.154c-1.942-2.13-4.56-3.508-7.962-3.508-5.372 0-9.744 3.59-9.744 9.313M562.036 316.222l-2.295-6.775h4.59l-2.294 6.775zm4.454-13.416l-.89 2.592h-7.1l-.89-2.592h-5.264l6.775 18.005h5.83l6.804-18.004h-5.264zM585.605 302.806l-7.61 10.42v-10.42h-4.645v18.004h4.778l7.29-9.906v9.906h4.668v-18.004h-4.48zM593.6 320.81h4.644v-18.003H593.6v18.004zM600.458 305.343l2.456 3.482c1.296-1.295 3.293-2.375 5.75-2.375 1.593 0 2.565.62 2.565 1.484 0 .945-1.35 1.242-3.08 1.593-2.967.594-7.125 1.404-7.125 5.83 0 3.024 2.565 5.723 7.18 5.723 2.89 0 5.4-.864 7.316-2.51l-2.537-3.32c-1.51 1.24-3.482 1.862-5.263 1.862-1.35 0-1.944-.54-1.944-1.295 0-.864 1.377-1.16 3.105-1.566 2.97-.62 7.072-1.51 7.072-5.75 0-3.615-2.672-6.018-7.504-6.018-3.643 0-6.18 1.133-7.99 2.86M625.89 316.222l-2.295-6.775h4.59l-2.295 6.775zm4.454-13.416l-.89 2.592h-7.1l-.89-2.592H616.2l6.775 18.005h5.83l6.803-18.004h-5.264zM639.552 302.806v13.955h-5.048v4.05h14.71v-4.05h-5.02v-13.954h-4.642zM651.703 320.81h4.644v-18.003h-4.644v18.004zM673.46 311.795c0 2.942-1.915 5.21-4.885 5.21-2.996 0-4.912-2.268-4.912-5.21 0-2.916 1.916-5.21 4.912-5.21 2.97 0 4.886 2.294 4.886 5.21m-14.52 0c0 5.48 4.13 9.313 9.635 9.313 5.507 0 9.61-3.834 9.61-9.313 0-5.48-4.103-9.313-9.61-9.313-5.506 0-9.635 3.834-9.635 9.313M693.063 302.806l-7.61 10.42v-10.42h-4.645v18.004h4.778l7.29-9.906v9.906h4.668v-18.004h-4.48zM559.495 273.806v14.82l-6.127-14.82h-.918l-6.1 14.82v-14.82h-2.24v18.004h3.21l5.59-13.55 5.613 13.55h3.212v-18.004h-2.24zM566.22 273.806v18.004h11.797v-1.997h-9.556v-5.804h9.367v-1.998h-9.366v-6.208h9.557v-1.998H566.22zM597.24 273.806v14.82l-6.127-14.82h-.918l-6.1 14.82v-14.82h-2.24v18.004h3.21l5.59-13.55 5.613 13.55h3.212v-18.004h-2.24zM615.06 278.908c0 1.646-1.133 3.104-3.346 3.104h-5.507v-6.208h5.507c2.106 0 3.347 1.187 3.347 3.104m-.35 7.99c0 1.62-1.08 2.915-3.104 2.915h-5.4v-5.803h5.4c2.024 0 3.104 1.24 3.104 2.888m-10.743-13.092v18.005h8.017c3.132 0 5.048-1.89 5.048-4.588 0-2.268-1.512-3.78-3.158-4.13 1.916-.297 3.508-2.267 3.508-4.427 0-2.888-1.916-4.86-5.21-4.86h-8.205zM621.22 273.806v18.004h11.796v-1.997h-9.556v-5.804h9.366v-1.998h-9.366v-6.208h9.556v-1.998H621.22zM647.406 286.385c0 2.024-1.457 3.428-3.59 3.428h-4.723v-6.883h4.723c2.133 0 3.59 1.43 3.59 3.455m-.135-12.58l-4.588 7.155h-3.59v-7.154h-2.24v18.005h7.235c3.293 0 5.64-2.105 5.64-5.425 0-3.24-2.213-5.02-4.67-5.237l4.86-7.342h-2.646z" fill="#fff"/></g></svg>