<svg xmlns="http://www.w3.org/2000/svg" width="778.351" height="214.02" viewBox="0 0 778.35122 214.02001"><defs><linearGradient x2="1" gradientUnits="userSpaceOnUse" gradientTransform="matrix(-18.50796 0 0 18.50796 432.004 284.479)" id="a"><stop offset="0" stop-color="#0077c0"/><stop offset=".005" stop-color="#0077c0"/><stop offset="1" stop-color="#00558a"/></linearGradient><clipPath id="b"><path d="M0 595.28h841.89V0H0v595.28z"/></clipPath><linearGradient x2="1" gradientUnits="userSpaceOnUse" gradientTransform="scale(19.83345 -19.83345) rotate(-45 -7.164 -29.636)" id="c"><stop offset="0" stop-color="#0077c0"/><stop offset=".483" stop-color="#0077c0"/><stop offset="1" stop-color="#00558a"/></linearGradient><clipPath id="d"><path d="M0 595.28h841.89V0H0v595.28z"/></clipPath><linearGradient x2="1" gradientUnits="userSpaceOnUse" gradientTransform="matrix(-19.74051 0 0 19.74051 329.969 284.479)" id="e"><stop offset="0" stop-color="#00598e"/><stop offset="1" stop-color="#003a5c"/></linearGradient><clipPath id="f"><path d="M0 595.28h841.89V0H0v595.28z"/></clipPath><linearGradient x2="1" gradientUnits="userSpaceOnUse" gradientTransform="matrix(-10.1705 0 0 10.1705 269.962 274.693)" id="g"><stop offset="0" stop-color="#00598e"/><stop offset="1" stop-color="#003a5c"/></linearGradient><linearGradient x2="1" gradientUnits="userSpaceOnUse" gradientTransform="rotate(112.5 8.542 205.59) scale(26.31625)" id="h"><stop offset="0" stop-color="#00598e"/><stop offset="1" stop-color="#0077c0"/></linearGradient><linearGradient x2="1" gradientUnits="userSpaceOnUse" gradientTransform="scale(-17.38068) rotate(-67.5 -18.89 .764)" id="i"><stop offset="0" stop-color="#ffaa05"/><stop offset="1" stop-color="#ffca05"/></linearGradient><linearGradient x2="1" gradientUnits="userSpaceOnUse" gradientTransform="scale(-17.38068) rotate(-67.5 -17.205 -.361)" id="j"><stop offset="0" stop-color="#006432"/><stop offset="1" stop-color="#1d984a"/></linearGradient><linearGradient x2="1" gradientUnits="userSpaceOnUse" gradientTransform="scale(-17.38068) rotate(-67.5 -18.835 -.165)" id="k"><stop offset="0"/><stop offset="1" stop-color="#383435"/></linearGradient><linearGradient x2="1" gradientUnits="userSpaceOnUse" gradientTransform="scale(-17.38068) rotate(-67.5 -18.084 -.667)" id="l"><stop offset="0" stop-color="#b31f24"/><stop offset="1" stop-color="#ed1c24"/></linearGradient><clipPath id="m"><path d="M0 595.28h841.89V0H0v595.28z"/></clipPath></defs><path d="M778.35 214.02H512.688L417.726 0H778.35v214.02z" fill="#0077c0"/><path d="M778.351 0H0v214.02h778.351V0zm-2.5 211.52H2.5V2.5h773.351v209.02z" fill="#0077c0"/><path d="M392.827 90.77l-9.616 23.825h19.125l-9.51-23.825zm16.667 41.558h-33.44l-4.915 12.287h-22.436l33.548-74.786h21.367l33.44 74.786h-22.65l-4.914-12.287z" fill="#0077c0"/><path d="M432.004 277.386h-18.508l5.626 14.186h12.882v-14.186z" fill="url(#a)" transform="matrix(1.25 0 0 -1.25 -140.692 479.06)"/><g clip-path="url(#b)" transform="matrix(1.25 0 0 -1.25 -140.692 479.06)"><path d="M387.3 310.803c-4.104 3.077-8.805 4.103-14.019 4.103-4.102 0-8.119-1.282-8.119-4.445 0-4.103 4.017-4.7 9.915-5.299 11.88-1.282 24.273-6.067 24.273-19.828 0-13.59-12.82-19.402-26.24-19.488-10.769-.085-18.46 1.796-26.75 10.514l9.315 10.684c5.898-5.727 12.48-6.752 17.521-6.752 5.555 0 9.401 1.964 9.401 5.299 0 2.991-3.417 4.87-9.998 5.47-13.078 1.196-24.36 4.53-24.36 19.4 0 12.65 12.392 18.12 25.042 18.12 8.976 0 15.983-2.05 22.394-7.095l-8.376-10.683z" fill="#0077c0"/></g><path d="M382.503 284.712c-.785-3.221-4.521-3.242-5.913-6.471-1.232-2.858 1.442-12.259 4.503-11.62 7.428 1.551 13.767 5.027 13.766 8.517-.002 6.926-7.904 15.158-22.26 15.923 0 0 11.292-.654 9.904-6.349" fill="url(#c)" transform="matrix(1.25 0 0 -1.25 -140.692 479.06)"/><g clip-path="url(#d)" transform="matrix(1.25 0 0 -1.25 -140.692 479.06)"><path d="M315.954 291.572l7.693 19.06 7.606-19.06h-15.299zm30.405-15.212l5.775 6.623-19.854 44.401h-17.094l-26.838-59.828h17.95l3.93 9.83h26.752l3.932-9.83h14.283c-3.476 2.06-6.187 4.756-8.836 8.804" fill="#00598e"/></g><path d="M315.954 291.572l-5.726-14.187h19.741v14.187h-14.015z" fill="url(#e)" transform="matrix(1.25 0 0 -1.25 -140.692 479.06)"/><g clip-path="url(#f)" transform="matrix(1.25 0 0 -1.25 -140.692 479.06)"><path d="M259.792 281.83h8.889c10.769 0 14.529 8.034 14.529 16.24 0 8.202-4.187 15.211-14.529 15.211h-8.889v-31.45zm8.889 45.554c21.111 0 31.282-12.99 31.282-29.486 0-16.496-9.83-30.342-31.282-30.342h-25.642v59.829h25.642z" fill="#00598e"/></g><path d="M259.792 267.556h10.17v14.275h-10.17v-14.275z" fill="url(#g)" transform="matrix(1.25 0 0 -1.25 -140.692 479.06)"/><path d="M190.304 298.445l-3.335-8.054c-2.302-5.553.345-11.942 5.898-14.242a10.832 10.832 0 0 1 8.343 0 10.833 10.833 0 0 1 5.901 5.899c2.298 5.553-.348 11.942-5.901 14.243l-8.054 3.336-2.017.835-.835-2.017z" fill="url(#h)" transform="matrix(1.25 0 0 -1.25 -140.692 479.06)"/><path d="M207.386 309.701l-2.202-5.319c-1.52-3.668.227-7.888 3.896-9.407a7.156 7.156 0 0 1 5.51 0 7.16 7.16 0 0 1 3.896 3.896c1.518 3.668-.23 7.888-3.896 9.407l-5.32 2.203-1.331.552-.553-1.332z" fill="url(#i)" transform="matrix(1.25 0 0 -1.25 -140.692 479.06)"/><path d="M171.236 294.727l-2.204-5.319c-1.52-3.668.228-7.888 3.897-9.407a7.158 7.158 0 0 1 5.509 0 7.155 7.155 0 0 1 3.897 3.896c1.52 3.667-.228 7.887-3.897 9.407l-5.319 2.203-1.332.552-.551-1.332z" fill="url(#j)" transform="matrix(1.25 0 0 -1.25 -140.692 479.06)"/><path d="M191.886 318.793l-2.204-5.319c-1.518-3.668.23-7.888 3.897-9.407a7.154 7.154 0 0 1 5.511 0 7.15 7.15 0 0 1 3.895 3.897c1.519 3.667-.228 7.886-3.895 9.406l-5.321 2.203-1.33.552-.553-1.332z" fill="url(#k)" transform="matrix(1.25 0 0 -1.25 -140.692 479.06)"/><path d="M175.766 312.116l-2.204-5.32c-1.517-3.667.231-7.887 3.897-9.406a7.151 7.151 0 0 1 5.51 0 7.148 7.148 0 0 1 3.896 3.897c1.519 3.667-.228 7.886-3.896 9.406l-5.32 2.203-1.331.551-.552-1.331z" fill="url(#l)" transform="matrix(1.25 0 0 -1.25 -140.692 479.06)"/><g clip-path="url(#m)" transform="matrix(1.25 0 0 -1.25 -140.692 479.06)"><path d="M522.335 212.033a.567.567 0 0 0-.518.336" fill="#bebec8"/><path d="M519.755 320.811h4.644v-18.004h-4.644v18.004zM540.163 302.806l-7.61 10.42v-10.42h-4.645v18.004h4.778l7.29-9.906v9.906h4.668v-18.004h-4.48zM560.71 311.822c0 2.78-1.673 4.939-4.967 4.939h-2.94v-9.906h2.914c3.158 0 4.993 2.295 4.993 4.967m-12.552-9.016v18.005h7.56c5.667 0 9.743-3.402 9.743-8.99 0-5.586-4.076-9.015-9.718-9.015h-7.585zM568.058 320.811h4.644v-18.004h-4.644v18.004zM581.07 302.806l-6.774 18.004h5.263l4.427-12.983 4.454 12.983h5.264l-6.803-18.004h-5.83zM595.3 320.811h4.644v-18.004H595.3v18.004zM616.005 311.822c0 2.78-1.673 4.939-4.967 4.939h-2.94v-9.906h2.914c3.158 0 4.993 2.295 4.993 4.967m-12.552-9.016v18.005h7.56c5.667 0 9.743-3.402 9.743-8.99 0-5.586-4.076-9.015-9.718-9.015h-7.585zM623.353 310.094v10.716h4.725v-10.554c0-2.133 1.268-3.67 3.805-3.67 2.484 0 3.78 1.537 3.78 3.67v10.554h4.696v-10.689c0-4.48-2.727-7.639-8.476-7.639-5.803 0-8.53 3.185-8.53 7.612M650.648 316.222l-2.295-6.775h4.589l-2.294 6.775zm4.454-13.416l-.891 2.592h-7.1l-.89-2.592h-5.263l6.775 18.005h5.83l6.803-18.005h-5.264zM661.962 302.806v18.004h4.644v-13.955h7.233v-4.049h-11.877zM559.292 273.806v14.82l-6.127-14.82h-.918l-6.1 14.82v-14.82h-2.24v18.004h3.211l5.588-13.55 5.614 13.55h3.212v-18.004h-2.24zM566.019 273.806v18.004h11.796v-1.997h-9.556v-5.804h9.366v-1.997h-9.366v-6.208h9.556v-1.998h-11.796zM597.037 273.806v14.82l-6.127-14.82h-.918l-6.1 14.82v-14.82h-2.24v18.004h3.211l5.588-13.55 5.614 13.55h3.212v-18.004h-2.24zM614.859 278.908c0 1.646-1.134 3.104-3.347 3.104h-5.507v-6.208h5.507c2.106 0 3.347 1.187 3.347 3.104m-.351 7.99c0 1.619-1.08 2.915-3.104 2.915h-5.4v-5.803h5.4c2.024 0 3.104 1.24 3.104 2.888m-10.743-13.092v18.005h8.017c3.132 0 5.048-1.89 5.048-4.59 0-2.267-1.512-3.778-3.158-4.13 1.916-.296 3.508-2.266 3.508-4.426 0-2.888-1.916-4.86-5.21-4.86h-8.205zM621.018 273.806v18.004h11.796v-1.997h-9.556v-5.804h9.366v-1.997h-9.366v-6.208h9.556v-1.998h-11.796zM647.203 286.385c0 2.024-1.457 3.428-3.59 3.428h-4.723v-6.883h4.723c2.133 0 3.59 1.43 3.59 3.455m-.135-12.58l-4.589 7.155h-3.589v-7.154h-2.24v18.005h7.234c3.293 0 5.641-2.106 5.641-5.426 0-3.24-2.214-5.021-4.67-5.237l4.86-7.342h-2.647z" fill="#fff"/></g></svg>