<svg xmlns="http://www.w3.org/2000/svg" width="791.427" height="258.661" viewBox="0 0 791.42745 258.66126"><defs><linearGradient x2="1" gradientUnits="userSpaceOnUse" gradientTransform="matrix(-18.50796 0 0 18.50796 427.722 284.479)" id="a"><stop offset="0" stop-color="#0077c0"/><stop offset=".005" stop-color="#0077c0"/><stop offset="1" stop-color="#00558a"/></linearGradient><clipPath id="b"><path d="M0 595.28h841.89V0H0v595.28z"/></clipPath><linearGradient x2="1" gradientUnits="userSpaceOnUse" gradientTransform="scale(19.83345 -19.83345) rotate(-45 -7.272 -29.376)" id="c"><stop offset="0" stop-color="#0077c0"/><stop offset=".483" stop-color="#0077c0"/><stop offset="1" stop-color="#00558a"/></linearGradient><clipPath id="d"><path d="M0 595.28h841.89V0H0v595.28z"/></clipPath><linearGradient x2="1" gradientUnits="userSpaceOnUse" gradientTransform="matrix(-19.74051 0 0 19.74051 325.687 284.479)" id="e"><stop offset="0" stop-color="#00598e"/><stop offset="1" stop-color="#003a5c"/></linearGradient><clipPath id="f"><path d="M0 595.28h841.89V0H0v595.28z"/></clipPath><linearGradient x2="1" gradientUnits="userSpaceOnUse" gradientTransform="matrix(-10.1705 0 0 10.1705 265.68 274.693)" id="g"><stop offset="0" stop-color="#00598e"/><stop offset="1" stop-color="#003a5c"/></linearGradient><linearGradient x2="1" gradientUnits="userSpaceOnUse" gradientTransform="rotate(112.5 6.401 204.159) scale(26.31625)" id="h"><stop offset="0" stop-color="#00598e"/><stop offset="1" stop-color="#0077c0"/></linearGradient><linearGradient x2="1" gradientUnits="userSpaceOnUse" gradientTransform="scale(-17.38068) rotate(-67.5 -18.766 .58)" id="i"><stop offset="0" stop-color="#ffaa05"/><stop offset="1" stop-color="#ffca05"/></linearGradient><linearGradient x2="1" gradientUnits="userSpaceOnUse" gradientTransform="scale(-17.38068) rotate(-67.5 -17.082 -.546)" id="j"><stop offset="0" stop-color="#006432"/><stop offset="1" stop-color="#1d984a"/></linearGradient><linearGradient x2="1" gradientUnits="userSpaceOnUse" gradientTransform="scale(-17.38068) rotate(-67.5 -18.712 -.349)" id="k"><stop offset="0"/><stop offset="1" stop-color="#383435"/></linearGradient><linearGradient x2="1" gradientUnits="userSpaceOnUse" gradientTransform="scale(-17.38068) rotate(-67.5 -17.96 -.85)" id="l"><stop offset="0" stop-color="#b31f24"/><stop offset="1" stop-color="#ed1c24"/></linearGradient><clipPath id="m"><path d="M0 595.28h841.89V0H0v595.28z"/></clipPath></defs><path d="M791.428 258.661H0V0h791.428v258.661z" fill="#fff"/><path d="M397.7 113.09l-9.616 23.825h19.125l-9.51-23.825zm16.667 41.558h-33.44l-4.915 12.287h-22.436l33.548-74.786h21.367l33.44 74.786h-22.65l-4.914-12.287z" fill="#0077c0"/><path d="M427.722 277.386h-18.508l5.627 14.186h12.881v-14.186z" fill="url(#a)" transform="matrix(1.25 0 0 -1.25 -130.468 501.38)"/><g clip-path="url(#b)" transform="matrix(1.25 0 0 -1.25 -130.468 501.38)"><path d="M383.017 310.803c-4.103 3.077-8.804 4.103-14.018 4.103-4.102 0-8.119-1.282-8.119-4.445 0-4.103 4.017-4.7 9.915-5.299 11.88-1.282 24.273-6.067 24.273-19.828 0-13.59-12.82-19.402-26.24-19.488-10.768-.085-18.46 1.796-26.75 10.514l9.316 10.684c5.898-5.727 12.479-6.752 17.52-6.752 5.556 0 9.402 1.964 9.402 5.299 0 2.991-3.417 4.87-9.998 5.47-13.078 1.196-24.361 4.53-24.361 19.4 0 12.65 12.393 18.12 25.043 18.12 8.976 0 15.983-2.05 22.394-7.095l-8.376-10.683z" fill="#0077c0"/></g><path d="M378.221 284.712c-.784-3.221-4.52-3.242-5.913-6.471-1.233-2.858 1.443-12.259 4.503-11.62 7.428 1.551 13.766 5.027 13.766 8.517-.001 6.926-7.903 15.158-22.259 15.923 0 0 11.291-.654 9.903-6.349" fill="url(#c)" transform="matrix(1.25 0 0 -1.25 -130.468 501.38)"/><g clip-path="url(#d)" transform="matrix(1.25 0 0 -1.25 -130.468 501.38)"><path d="M311.673 291.572l7.693 19.06 7.606-19.06h-15.3zm30.405-15.212l5.775 6.623-19.854 44.401h-17.094l-26.838-59.828h17.949l3.93 9.83H332.7l3.932-9.83h14.283c-3.476 2.06-6.187 4.756-8.836 8.804" fill="#00598e"/></g><path d="M311.673 291.572l-5.726-14.187h19.74v14.187h-14.014z" fill="url(#e)" transform="matrix(1.25 0 0 -1.25 -130.468 501.38)"/><g clip-path="url(#f)" transform="matrix(1.25 0 0 -1.25 -130.468 501.38)"><path d="M255.51 281.83h8.89c10.768 0 14.528 8.034 14.528 16.24 0 8.202-4.187 15.211-14.529 15.211h-8.889v-31.45zm8.89 45.554c21.11 0 31.281-12.99 31.281-29.486 0-16.496-9.83-30.342-31.282-30.342h-25.642v59.829H264.4z" fill="#00598e"/></g><path d="M255.51 267.556h10.171v14.275H255.51v-14.275z" fill="url(#g)" transform="matrix(1.25 0 0 -1.25 -130.468 501.38)"/><path d="M186.023 298.445l-3.337-8.054c-2.3-5.553.347-11.942 5.9-14.242a10.832 10.832 0 0 1 8.343 0 10.827 10.827 0 0 1 5.899 5.899c2.3 5.553-.346 11.942-5.899 14.243l-8.054 3.336-2.017.835-.835-2.017z" fill="url(#h)" transform="matrix(1.25 0 0 -1.25 -130.468 501.38)"/><path d="M203.105 309.701l-2.203-5.319c-1.52-3.668.228-7.888 3.896-9.407a7.153 7.153 0 0 1 5.509 0 7.158 7.158 0 0 1 3.897 3.896c1.519 3.668-.229 7.888-3.897 9.407l-5.319 2.203-1.332.552-.551-1.332z" fill="url(#i)" transform="matrix(1.25 0 0 -1.25 -130.468 501.38)"/><path d="M166.954 294.727l-2.205-5.319c-1.518-3.668.23-7.888 3.897-9.407a7.163 7.163 0 0 1 5.511 0 7.15 7.15 0 0 1 3.896 3.896c1.519 3.667-.228 7.887-3.896 9.407l-5.32 2.203-1.332.552-.551-1.332z" fill="url(#j)" transform="matrix(1.25 0 0 -1.25 -130.468 501.38)"/><path d="M187.605 318.793l-2.204-5.319c-1.519-3.668.229-7.888 3.897-9.407a7.151 7.151 0 0 1 5.51 0 7.155 7.155 0 0 1 3.896 3.897c1.519 3.667-.229 7.886-3.896 9.406l-5.32 2.203-1.331.552-.552-1.332z" fill="url(#k)" transform="matrix(1.25 0 0 -1.25 -130.468 501.38)"/><path d="M171.485 312.116l-2.204-5.32c-1.518-3.667.229-7.887 3.897-9.406a7.151 7.151 0 0 1 5.51 0 7.155 7.155 0 0 1 3.896 3.897c1.519 3.667-.229 7.886-3.896 9.406l-5.32 2.203-1.331.551-.552-1.331z" fill="url(#l)" transform="matrix(1.25 0 0 -1.25 -130.468 501.38)"/><g clip-path="url(#m)" transform="matrix(1.25 0 0 -1.25 -130.468 501.38)"><path d="M500.139 254.06l-38.815 86.818h-1.242l38.814-86.818h1.243z" fill="#bebec8"/><path d="M524.24 311.18c0 2.397-1.562 4.246-3.983 4.246-2.443 0-4.004-1.849-4.004-4.247 0-2.376 1.56-4.247 4.004-4.247 2.42 0 3.983 1.871 3.983 4.247m-11.838 0c0 4.467 3.366 7.591 7.855 7.591 4.489 0 7.834-3.124 7.834-7.59 0-4.468-3.345-7.592-7.834-7.592-4.49 0-7.855 3.124-7.855 7.591M538.826 313.666c0 .99-.837 1.562-1.826 1.562h-2.993v-3.146H537c.989 0 1.826.55 1.826 1.584m-.418-9.813l-2.465 4.928h-1.936v-4.928h-3.785v14.676h7.349c3.257 0 5.106-2.156 5.106-4.885 0-2.552-1.563-3.916-2.927-4.401l2.992-5.39h-4.334zM544.236 311.18c0 4.664 3.564 7.59 7.943 7.59 3.279 0 5.259-1.738 6.27-3.565l-3.168-1.65c-.55.968-1.672 1.871-3.102 1.871-2.398 0-4.092-1.849-4.092-4.247 0-2.398 1.694-4.247 4.092-4.247 1.078 0 2.178.44 2.706.88v1.144h-3.3v3.323h7.085v-5.83c-1.584-1.739-3.718-2.86-6.491-2.86-4.38 0-7.943 2.925-7.943 7.59M567.27 314.788l-1.87-5.523h3.74l-1.87 5.523zm3.631-10.936l-.727 2.113h-5.787l-.725-2.113h-4.29l5.522 14.677h4.752l5.545-14.677h-4.29zM586.477 303.852l-6.205 8.493v-8.493h-3.784v14.676h3.894l5.941-8.075v8.075h3.806v-14.676h-3.652zM592.987 318.528h3.784v-14.676h-3.784v14.676zM598.575 305.92l2.003 2.839a6.63 6.63 0 0 1 4.686-1.936c1.298 0 2.09.506 2.09 1.21 0 .77-1.1 1.013-2.508 1.299-2.42.484-5.808 1.144-5.808 4.752 0 2.464 2.09 4.665 5.852 4.665 2.355 0 4.4-.704 5.963-2.047l-2.068-2.706c-1.232 1.012-2.84 1.518-4.291 1.518-1.1 0-1.584-.44-1.584-1.056 0-.704 1.122-.946 2.53-1.276 2.42-.506 5.765-1.232 5.765-4.687 0-2.948-2.178-4.907-6.116-4.907-2.971 0-5.04.925-6.514 2.333M619.3 314.788l-1.87-5.523h3.74l-1.87 5.523zm3.63-10.936l-.727 2.113h-5.787l-.725-2.113h-4.29l5.522 14.677h4.752l5.545-14.677h-4.29zM630.431 303.852v11.375h-4.114v3.301h11.991v-3.3h-4.093v-11.376h-3.784zM640.331 318.528h3.784v-14.676h-3.784v14.676zM658.064 311.18c0 2.397-1.562 4.246-3.983 4.246-2.443 0-4.004-1.849-4.004-4.247 0-2.376 1.561-4.247 4.004-4.247 2.421 0 3.983 1.871 3.983 4.247m-11.838 0c0 4.467 3.366 7.591 7.855 7.591 4.489 0 7.834-3.124 7.834-7.59 0-4.468-3.345-7.592-7.834-7.592-4.489 0-7.855 3.124-7.855 7.591M674.036 303.852l-6.205 8.493v-8.493h-3.784v14.676h3.894l5.94-8.075v8.075h3.807v-14.676h-3.652zM565.203 278.852v12.08l-4.994-12.08h-.748l-4.973 12.08v-12.08h-1.827v14.676h2.619l4.555-11.046 4.576 11.046h2.618v-14.676h-1.826zM570.678 278.852v14.676h9.616V291.9h-7.789v-4.73h7.635v-1.629h-7.635v-5.06h7.79v-1.629h-9.617zM595.959 278.852v12.08l-4.994-12.08h-.748l-4.973 12.08v-12.08h-1.827v14.676h2.619l4.555-11.046 4.576 11.046h2.618v-14.676h-1.826zM610.478 283.01c0 1.343-.925 2.53-2.729 2.53h-4.488v-5.06h4.488c1.716 0 2.73.969 2.73 2.53m-.287 6.514c0 1.32-.88 2.376-2.53 2.376h-4.4v-4.73h4.4c1.65 0 2.53 1.01 2.53 2.354m-8.758-10.672v14.677h6.535c2.553 0 4.115-1.541 4.115-3.741 0-1.848-1.232-3.081-2.575-3.366 1.563-.243 2.861-1.85 2.861-3.61 0-2.353-1.562-3.96-4.246-3.96h-6.69zM615.492 278.852v14.676h9.616V291.9h-7.79v-4.73h7.636v-1.629h-7.635v-5.06h7.789v-1.629h-9.616zM636.834 289.106c0 1.65-1.188 2.794-2.926 2.794h-3.85v-5.61h3.85c1.738 0 2.926 1.166 2.926 2.816m-.11-10.253l-3.741 5.83h-2.925v-5.83h-1.828v14.676h5.898c2.685 0 4.599-1.716 4.599-4.423 0-2.64-1.805-4.092-3.807-4.27l3.96-5.983h-2.155z" fill="#00598e"/></g></svg>