<svg xmlns="http://www.w3.org/2000/svg" width="791.427" height="258.661" viewBox="0 0 791.42745 258.66126"><defs><linearGradient x2="1" gradientUnits="userSpaceOnUse" gradientTransform="matrix(-18.5 0 0 18.5 427.72 284.48)" id="a"><stop offset="0" stop-color="#0077c0"/><stop offset=".005" stop-color="#0077c0"/><stop offset="1" stop-color="#00558a"/></linearGradient><clipPath id="b"><path d="M0 595.28h841.89V0H0v595.28z"/></clipPath><linearGradient x2="1" gradientUnits="userSpaceOnUse" gradientTransform="scale(19.83) rotate(45 -7.27 29.38)" id="c"><stop offset="0" stop-color="#0077c0"/><stop offset=".483" stop-color="#0077c0"/><stop offset="1" stop-color="#00558a"/></linearGradient><clipPath id="d"><path d="M0 595.28h841.89V0H0v595.28z"/></clipPath><linearGradient x2="1" gradientUnits="userSpaceOnUse" gradientTransform="matrix(-19.74 0 0 19.74 325.69 284.48)" id="e"><stop offset="0" stop-color="#00598e"/><stop offset="1" stop-color="#003a5c"/></linearGradient><clipPath id="f"><path d="M0 595.28h841.89V0H0v595.28z"/></clipPath><linearGradient x2="1" gradientUnits="userSpaceOnUse" gradientTransform="matrix(-10.17 0 0 10.17 265.68 274.69)" id="g"><stop offset="0" stop-color="#00598e"/><stop offset="1" stop-color="#003a5c"/></linearGradient><linearGradient x2="1" gradientUnits="userSpaceOnUse" gradientTransform="scale(26.32) rotate(112.5 .24 7.76)" id="h"><stop offset="0" stop-color="#00598e"/><stop offset="1" stop-color="#0077c0"/></linearGradient><linearGradient x2="1" gradientUnits="userSpaceOnUse" gradientTransform="rotate(112.5 6.73 217.94) scale(17.38)" id="i"><stop offset="0" stop-color="#ffaa05"/><stop offset="1" stop-color="#ffca05"/></linearGradient><linearGradient x2="1" gradientUnits="userSpaceOnUse" gradientTransform="rotate(112.5 -6.34 198.37) scale(17.38)" id="j"><stop offset="0" stop-color="#006432"/><stop offset="1" stop-color="#1d984a"/></linearGradient><linearGradient x2="1" gradientUnits="userSpaceOnUse" gradientTransform="rotate(112.5 -4.06 217.31) scale(17.38)" id="k"><stop offset="0"/><stop offset="1" stop-color="#383435"/></linearGradient><linearGradient x2="1" gradientUnits="userSpaceOnUse" gradientTransform="rotate(112.5 -9.88 208.58) scale(17.38)" id="l"><stop offset="0" stop-color="#b31f24"/><stop offset="1" stop-color="#ed1c24"/></linearGradient><clipPath id="m"><path d="M0 595.28h841.89V0H0v595.28z"/></clipPath></defs><path d="M791.428 258.66H0V0h791.428v258.66z" fill="#fff"/><path d="M397.7 113.09l-9.616 23.825h19.125l-9.51-23.825zm16.667 41.558h-33.44l-4.915 12.287h-22.436l33.548-74.786h21.367l33.44 74.785h-22.65l-4.913-12.287z" fill="#0077c0"/><path d="M427.722 277.386h-18.508l5.627 14.186h12.882v-14.186z" fill="url(#a)" transform="matrix(1.25 0 0 -1.25 -130.47 501.38)"/><g clip-path="url(#b)" transform="matrix(1.25 0 0 -1.25 -130.47 501.38)"><path d="M383.017 310.803c-4.103 3.077-8.804 4.103-14.018 4.103-4.102 0-8.12-1.282-8.12-4.445 0-4.102 4.017-4.7 9.915-5.298 11.88-1.282 24.273-6.067 24.273-19.828 0-13.59-12.82-19.402-26.24-19.488-10.768-.085-18.46 1.796-26.75 10.514l9.316 10.684c5.898-5.727 12.48-6.752 17.52-6.752 5.556 0 9.402 1.964 9.402 5.3 0 2.99-3.417 4.87-9.998 5.47-13.078 1.195-24.36 4.53-24.36 19.4 0 12.65 12.392 18.12 25.042 18.12 8.976 0 15.983-2.05 22.394-7.096l-8.376-10.683z" fill="#0077c0"/></g><path d="M378.22 284.712c-.783-3.22-4.52-3.242-5.912-6.47-1.233-2.86 1.443-12.26 4.503-11.62 7.43 1.55 13.767 5.026 13.767 8.516 0 6.926-7.903 15.158-22.26 15.923 0 0 11.292-.653 9.904-6.348" fill="url(#c)" transform="matrix(1.25 0 0 -1.25 -130.47 501.38)"/><g clip-path="url(#d)" transform="matrix(1.25 0 0 -1.25 -130.47 501.38)"><path d="M311.673 291.572l7.693 19.06 7.606-19.06h-15.3zm30.405-15.212l5.775 6.623-19.854 44.4h-17.095l-26.838-59.827h17.95l3.93 9.83H332.7l3.93-9.83h14.284c-3.476 2.06-6.187 4.756-8.836 8.804" fill="#00598e"/></g><path d="M311.673 291.572l-5.726-14.187h19.74v14.187h-14.014z" fill="url(#e)" transform="matrix(1.25 0 0 -1.25 -130.47 501.38)"/><g clip-path="url(#f)" transform="matrix(1.25 0 0 -1.25 -130.47 501.38)"><path d="M255.51 281.83h8.89c10.768 0 14.528 8.034 14.528 16.24 0 8.202-4.187 15.21-14.53 15.21h-8.888v-31.45zm8.89 45.554c21.11 0 31.28-12.99 31.28-29.486 0-16.496-9.83-30.342-31.28-30.342h-25.643v59.83l25.642-.002z" fill="#00598e"/></g><path d="M255.51 267.556h10.17v14.275h-10.17v-14.274z" fill="url(#g)" transform="matrix(1.25 0 0 -1.25 -130.47 501.38)"/><path d="M186.023 298.445l-3.337-8.054c-2.3-5.552.347-11.94 5.9-14.24 2.69-1.115 5.653-1.115 8.343 0 2.69 1.113 4.784 3.208 5.898 5.898 2.3 5.553-.346 11.942-5.9 14.243l-8.053 3.337-2.017.835-.835-2.017z" fill="url(#h)" transform="matrix(1.25 0 0 -1.25 -130.47 501.38)"/><path d="M203.105 309.7l-2.203-5.318c-1.52-3.668.228-7.888 3.896-9.407 1.776-.735 3.733-.736 5.51 0 1.776.736 3.158 2.12 3.896 3.896 1.52 3.67-.23 7.89-3.897 9.408l-5.32 2.203-1.33.553-.552-1.332z" fill="url(#i)" transform="matrix(1.25 0 0 -1.25 -130.47 501.38)"/><path d="M166.954 294.727l-2.205-5.32c-1.52-3.667.23-7.887 3.896-9.406 1.777-.734 3.735-.734 5.51 0 1.778.737 3.16 2.12 3.897 3.897 1.52 3.667-.228 7.887-3.896 9.407l-5.32 2.203-1.332.552-.55-1.333z" fill="url(#j)" transform="matrix(1.25 0 0 -1.25 -130.47 501.38)"/><path d="M187.605 318.793l-2.204-5.32c-1.518-3.667.23-7.887 3.898-9.406 1.776-.736 3.733-.736 5.51 0 1.776.736 3.16 2.12 3.896 3.897 1.52 3.667-.23 7.886-3.896 9.406l-5.32 2.203-1.33.552-.553-1.332z" fill="url(#k)" transform="matrix(1.25 0 0 -1.25 -130.47 501.38)"/><path d="M171.485 312.116l-2.204-5.32c-1.517-3.667.23-7.887 3.898-9.406 1.777-.736 3.733-.736 5.51 0 1.776.736 3.16 2.12 3.896 3.897 1.52 3.667-.23 7.886-3.896 9.406l-5.32 2.203-1.33.55-.553-1.33z" fill="url(#l)" transform="matrix(1.25 0 0 -1.25 -130.47 501.38)"/><g clip-path="url(#m)" transform="matrix(1.25 0 0 -1.25 -130.47 501.38)"><path d="M500.14 254.06l-38.816 86.818h-1.242l38.814-86.818h1.243z" fill="#bebec8"/><path d="M524.24 311.18c0 2.397-1.562 4.246-3.983 4.246-2.443 0-4.004-1.85-4.004-4.247 0-2.377 1.56-4.248 4.004-4.248 2.42 0 3.983 1.87 3.983 4.247m-11.838 0c0 4.466 3.366 7.59 7.855 7.59 4.49 0 7.834-3.124 7.834-7.59 0-4.468-3.344-7.592-7.833-7.592-4.49 0-7.855 3.124-7.855 7.59M538.826 313.666c0 .99-.837 1.562-1.826 1.562h-2.993v-3.146H537c.99 0 1.826.55 1.826 1.584m-.418-9.813l-2.465 4.928h-1.936v-4.927h-3.785v14.676h7.35c3.256 0 5.105-2.157 5.105-4.886 0-2.552-1.563-3.916-2.927-4.4l2.992-5.39h-4.334zM544.236 311.18c0 4.664 3.564 7.59 7.943 7.59 3.278 0 5.258-1.738 6.27-3.565l-3.17-1.65c-.55.968-1.67 1.87-3.1 1.87-2.4 0-4.093-1.848-4.093-4.246 0-2.4 1.694-4.248 4.092-4.248 1.077 0 2.177.44 2.705.88v1.144h-3.3v3.323h7.085v-5.832c-1.584-1.738-3.718-2.86-6.49-2.86-4.38 0-7.944 2.926-7.944 7.59M567.27 314.788l-1.87-5.523h3.74l-1.87 5.523zm3.63-10.936l-.726 2.113h-5.787l-.725-2.113h-4.29l5.522 14.677h4.752l5.545-14.678h-4.29zM586.477 303.852l-6.205 8.493v-8.493h-3.784v14.676h3.894l5.94-8.075v8.075h3.807v-14.676h-3.653zM592.987 318.528h3.784v-14.676h-3.783v14.676zM598.575 305.92l2.003 2.84c1.056-1.057 2.684-1.937 4.686-1.937 1.298 0 2.09.506 2.09 1.21 0 .77-1.1 1.013-2.508 1.3-2.42.483-5.808 1.143-5.808 4.75 0 2.465 2.09 4.666 5.852 4.666 2.355 0 4.4-.705 5.963-2.048l-2.068-2.706c-1.232 1.012-2.84 1.518-4.29 1.518-1.1 0-1.585-.44-1.585-1.056 0-.704 1.122-.946 2.53-1.276 2.42-.506 5.765-1.232 5.765-4.687 0-2.948-2.178-4.907-6.116-4.907-2.972 0-5.04.925-6.515 2.333M619.3 314.788l-1.87-5.523h3.74l-1.87 5.523zm3.63-10.936l-.727 2.113h-5.787l-.725-2.113h-4.29l5.523 14.677h4.752l5.545-14.678h-4.29zM630.43 303.852v11.375h-4.113v3.3h11.99v-3.3h-4.092v-11.375h-3.784zM640.33 318.528h3.785v-14.676h-3.784v14.676zM658.064 311.18c0 2.397-1.562 4.246-3.983 4.246-2.442 0-4.003-1.85-4.003-4.247 0-2.377 1.56-4.248 4.004-4.248 2.422 0 3.984 1.87 3.984 4.247m-11.838 0c0 4.466 3.366 7.59 7.855 7.59 4.49 0 7.835-3.124 7.835-7.59 0-4.468-3.345-7.592-7.834-7.592-4.488 0-7.854 3.124-7.854 7.59M674.036 303.852l-6.205 8.493v-8.493h-3.783v14.676h3.894l5.942-8.075v8.075h3.806v-14.676h-3.652zM565.203 278.852v12.08l-4.994-12.08h-.75l-4.972 12.08v-12.08h-1.827v14.676h2.62l4.555-11.046 4.576 11.046h2.62v-14.676h-1.827zM570.678 278.852v14.676h9.616V291.9h-7.79v-4.73h7.636v-1.63h-7.635v-5.06h7.79v-1.628h-9.617zM595.96 278.852v12.08l-4.995-12.08h-.748l-4.973 12.08v-12.08h-1.827v14.676h2.62l4.554-11.046 4.577 11.046h2.618v-14.676h-1.826zM610.478 283.01c0 1.343-.925 2.53-2.73 2.53h-4.487v-5.06h4.49c1.715 0 2.728.97 2.728 2.53m-.286 6.514c0 1.32-.88 2.376-2.53 2.376h-4.4v-4.73h4.4c1.65 0 2.53 1.01 2.53 2.354m-8.758-10.672v14.677h6.535c2.552 0 4.114-1.542 4.114-3.742 0-1.848-1.232-3.08-2.575-3.366 1.562-.243 2.86-1.85 2.86-3.61 0-2.353-1.562-3.96-4.246-3.96h-6.69zM615.492 278.852v14.676h9.616V291.9h-7.79v-4.73h7.636v-1.63h-7.635v-5.06h7.788v-1.628h-9.616zM636.834 289.106c0 1.65-1.188 2.794-2.926 2.794h-3.85v-5.61h3.85c1.738 0 2.926 1.166 2.926 2.816m-.11-10.253l-3.74 5.83h-2.926v-5.83h-1.828v14.676h5.898c2.685 0 4.6-1.717 4.6-4.424 0-2.64-1.806-4.092-3.808-4.27l3.96-5.983h-2.155z" fill="#00598e"/></g></svg>