<svg xmlns="http://www.w3.org/2000/svg" width="778.351" height="214.02" viewBox="0 0 778.35122 214.02001"><defs><linearGradient x2="1" gradientUnits="userSpaceOnUse" gradientTransform="matrix(-18.5 0 0 18.5 432 284.48)" id="a"><stop offset="0" stop-color="#0077c0"/><stop offset=".005" stop-color="#0077c0"/><stop offset="1" stop-color="#00558a"/></linearGradient><clipPath id="b"><path d="M0 595.28h841.89V0H0v595.28z"/></clipPath><linearGradient x2="1" gradientUnits="userSpaceOnUse" gradientTransform="scale(19.83) rotate(45 -7.16 29.64)" id="c"><stop offset="0" stop-color="#0077c0"/><stop offset=".483" stop-color="#0077c0"/><stop offset="1" stop-color="#00558a"/></linearGradient><clipPath id="d"><path d="M0 595.28h841.89V0H0v595.28z"/></clipPath><linearGradient x2="1" gradientUnits="userSpaceOnUse" gradientTransform="matrix(-19.74 0 0 19.74 329.97 284.48)" id="e"><stop offset="0" stop-color="#00598e"/><stop offset="1" stop-color="#003a5c"/></linearGradient><clipPath id="f"><path d="M0 595.28h841.89V0H0v595.28z"/></clipPath><linearGradient x2="1" gradientUnits="userSpaceOnUse" gradientTransform="matrix(-10.17 0 0 10.17 269.96 274.69)" id="g"><stop offset="0" stop-color="#00598e"/><stop offset="1" stop-color="#003a5c"/></linearGradient><linearGradient x2="1" gradientUnits="userSpaceOnUse" gradientTransform="scale(26.32) rotate(112.5 .33 7.81)" id="h"><stop offset="0" stop-color="#00598e"/><stop offset="1" stop-color="#0077c0"/></linearGradient><linearGradient x2="1" gradientUnits="userSpaceOnUse" gradientTransform="rotate(112.5 8.87 219.37) scale(17.38)" id="i"><stop offset="0" stop-color="#ffaa05"/><stop offset="1" stop-color="#ffca05"/></linearGradient><linearGradient x2="1" gradientUnits="userSpaceOnUse" gradientTransform="rotate(112.5 -4.2 199.8) scale(17.38)" id="j"><stop offset="0" stop-color="#006432"/><stop offset="1" stop-color="#1d984a"/></linearGradient><linearGradient x2="1" gradientUnits="userSpaceOnUse" gradientTransform="rotate(112.5 -1.92 218.74) scale(17.38)" id="k"><stop offset="0"/><stop offset="1" stop-color="#383435"/></linearGradient><linearGradient x2="1" gradientUnits="userSpaceOnUse" gradientTransform="rotate(112.5 -7.74 210.01) scale(17.38)" id="l"><stop offset="0" stop-color="#b31f24"/><stop offset="1" stop-color="#ed1c24"/></linearGradient><clipPath id="m"><path d="M0 595.28h841.89V0H0v595.28z"/></clipPath></defs><path d="M778.35 214.02H512.688L417.727 0H778.35v214.02z" fill="#0077c0"/><path d="M778.35 0H0v214.02h778.35V0zm-2.5 211.52H2.5V2.5h773.35v209.02z" fill="#0077c0"/><path d="M392.827 90.77l-9.616 23.825h19.126l-9.51-23.825zm16.667 41.558h-33.44l-4.915 12.287h-22.437L382.25 69.83h21.368l33.44 74.785h-22.65l-4.914-12.287z" fill="#0077c0"/><path d="M432.004 277.386h-18.508l5.626 14.186h12.882v-14.186z" fill="url(#a)" transform="matrix(1.25 0 0 -1.25 -140.69 479.06)"/><g clip-path="url(#b)" transform="matrix(1.25 0 0 -1.25 -140.69 479.06)"><path d="M387.3 310.803c-4.104 3.077-8.805 4.103-14.02 4.103-4.1 0-8.118-1.282-8.118-4.445 0-4.102 4.017-4.7 9.915-5.298 11.88-1.282 24.273-6.067 24.273-19.828 0-13.59-12.82-19.402-26.24-19.488-10.77-.085-18.46 1.796-26.75 10.514l9.315 10.684c5.898-5.727 12.48-6.752 17.52-6.752 5.556 0 9.402 1.964 9.402 5.3 0 2.99-3.417 4.87-9.998 5.47-13.08 1.195-24.362 4.53-24.362 19.4 0 12.65 12.393 18.12 25.043 18.12 8.977 0 15.984-2.05 22.395-7.096l-8.376-10.683z" fill="#0077c0"/></g><path d="M382.503 284.712c-.785-3.22-4.52-3.242-5.913-6.47-1.232-2.86 1.442-12.26 4.503-11.62 7.428 1.55 13.767 5.026 13.766 8.516-.003 6.926-7.905 15.158-22.26 15.923 0 0 11.29-.653 9.903-6.348" fill="url(#c)" transform="matrix(1.25 0 0 -1.25 -140.69 479.06)"/><g clip-path="url(#d)" transform="matrix(1.25 0 0 -1.25 -140.69 479.06)"><path d="M315.954 291.572l7.693 19.06 7.606-19.06h-15.3zm30.405-15.212l5.774 6.623-19.854 44.4h-17.094l-26.838-59.827h17.95l3.93 9.83h26.752l3.932-9.83h14.283c-3.476 2.06-6.187 4.756-8.836 8.804" fill="#00598e"/></g><path d="M315.954 291.572l-5.726-14.187h19.74v14.187h-14.014z" fill="url(#e)" transform="matrix(1.25 0 0 -1.25 -140.69 479.06)"/><g clip-path="url(#f)" transform="matrix(1.25 0 0 -1.25 -140.69 479.06)"><path d="M259.792 281.83h8.89c10.768 0 14.528 8.034 14.528 16.24 0 8.202-4.187 15.21-14.53 15.21h-8.888v-31.45zm8.89 45.554c21.11 0 31.28-12.99 31.28-29.486 0-16.496-9.83-30.342-31.28-30.342h-25.643v59.83l25.64-.002z" fill="#00598e"/></g><path d="M259.792 267.556h10.17v14.275h-10.17v-14.274z" fill="url(#g)" transform="matrix(1.25 0 0 -1.25 -140.69 479.06)"/><path d="M190.304 298.445l-3.335-8.054c-2.303-5.552.344-11.94 5.897-14.24 2.69-1.115 5.653-1.115 8.343 0 2.69 1.113 4.786 3.208 5.9 5.898 2.3 5.553-.347 11.942-5.9 14.243l-8.054 3.337-2.017.835-.836-2.017z" fill="url(#h)" transform="matrix(1.25 0 0 -1.25 -140.69 479.06)"/><path d="M207.386 309.7l-2.202-5.318c-1.52-3.668.227-7.888 3.896-9.407 1.776-.735 3.732-.736 5.51 0 1.775.736 3.16 2.12 3.896 3.896 1.518 3.67-.23 7.89-3.896 9.408l-5.32 2.203-1.33.553-.554-1.332z" fill="url(#i)" transform="matrix(1.25 0 0 -1.25 -140.69 479.06)"/><path d="M171.236 294.727l-2.204-5.32c-1.52-3.667.228-7.887 3.897-9.406 1.774-.734 3.733-.734 5.508 0 1.777.737 3.16 2.12 3.897 3.897 1.52 3.667-.228 7.887-3.897 9.407l-5.32 2.203-1.33.552-.552-1.333z" fill="url(#j)" transform="matrix(1.25 0 0 -1.25 -140.69 479.06)"/><path d="M191.886 318.793l-2.204-5.32c-1.518-3.667.23-7.887 3.897-9.406 1.777-.736 3.732-.736 5.51 0 1.776.736 3.16 2.12 3.895 3.897 1.52 3.667-.228 7.886-3.895 9.406l-5.32 2.203-1.33.552-.554-1.332z" fill="url(#k)" transform="matrix(1.25 0 0 -1.25 -140.69 479.06)"/><path d="M175.766 312.116l-2.204-5.32c-1.517-3.667.23-7.887 3.897-9.406 1.777-.736 3.732-.736 5.51 0 1.776.736 3.16 2.12 3.895 3.897 1.52 3.667-.228 7.886-3.896 9.406l-5.32 2.203-1.332.55-.552-1.33z" fill="url(#l)" transform="matrix(1.25 0 0 -1.25 -140.69 479.06)"/><g clip-path="url(#m)" transform="matrix(1.25 0 0 -1.25 -140.69 479.06)"><path d="M522.335 212.033c-.217 0-.424.125-.518.336" fill="#bebec8"/><path d="M519.755 320.81h4.644v-18.003h-4.645v18.004zM540.163 302.806l-7.61 10.42v-10.42h-4.645v18.004h4.778l7.29-9.906v9.906h4.668v-18.004h-4.48zM560.71 311.822c0 2.78-1.673 4.94-4.967 4.94h-2.94v-9.907h2.914c3.158 0 4.993 2.295 4.993 4.967m-12.552-9.016v18.005h7.56c5.667 0 9.743-3.4 9.743-8.988 0-5.587-4.075-9.016-9.717-9.016h-7.585zM568.058 320.81h4.644v-18.003h-4.644v18.004zM581.07 302.806l-6.774 18.004h5.263l4.426-12.983 4.454 12.983h5.264l-6.803-18.004h-5.83zM595.3 320.81h4.644v-18.003H595.3v18.004zM616.005 311.822c0 2.78-1.673 4.94-4.967 4.94h-2.94v-9.907h2.914c3.158 0 4.993 2.295 4.993 4.967m-12.552-9.016v18.005h7.56c5.667 0 9.743-3.4 9.743-8.988 0-5.587-4.076-9.016-9.718-9.016h-7.585zM623.353 310.094v10.716h4.725v-10.554c0-2.133 1.268-3.67 3.805-3.67 2.484 0 3.78 1.537 3.78 3.67v10.554h4.696v-10.69c0-4.48-2.728-7.638-8.477-7.638-5.803 0-8.53 3.185-8.53 7.612M650.648 316.222l-2.295-6.775h4.59l-2.295 6.775zm4.454-13.416l-.89 2.592h-7.1l-.89-2.592h-5.264l6.775 18.005h5.83l6.803-18.004h-5.264zM661.962 302.806v18.004h4.644v-13.955h7.233v-4.05H661.96zM559.292 273.806v14.82l-6.127-14.82h-.918l-6.1 14.82v-14.82h-2.24v18.004h3.21l5.59-13.55 5.613 13.55h3.212v-18.004h-2.24zM566.02 273.806v18.004h11.795v-1.997h-9.556v-5.804h9.365v-1.998h-9.366v-6.208h9.555v-1.998H566.02zM597.037 273.806v14.82l-6.127-14.82h-.918l-6.1 14.82v-14.82h-2.24v18.004h3.21l5.59-13.55 5.613 13.55h3.212v-18.004h-2.24zM614.86 278.908c0 1.646-1.135 3.104-3.348 3.104h-5.507v-6.208h5.507c2.106 0 3.347 1.187 3.347 3.104m-.352 7.99c0 1.62-1.08 2.915-3.104 2.915h-5.4v-5.803h5.4c2.024 0 3.104 1.24 3.104 2.888m-10.743-13.092v18.005h8.017c3.132 0 5.048-1.89 5.048-4.588 0-2.268-1.512-3.78-3.158-4.13 1.916-.297 3.508-2.267 3.508-4.427 0-2.888-1.916-4.86-5.21-4.86h-8.205zM621.018 273.806v18.004h11.796v-1.997h-9.556v-5.804h9.366v-1.998h-9.366v-6.208h9.556v-1.998h-11.796zM647.203 286.385c0 2.024-1.457 3.428-3.59 3.428h-4.723v-6.883h4.723c2.133 0 3.59 1.43 3.59 3.455m-.135-12.58l-4.59 7.155h-3.588v-7.154h-2.24v18.005h7.234c3.293 0 5.64-2.105 5.64-5.425 0-3.24-2.213-5.02-4.67-5.237l4.86-7.342h-2.646z" fill="#fff"/></g></svg>