<svg xmlns="http://www.w3.org/2000/svg" width="737.141" height="258.661" viewBox="0 0 737.1412 258.66126"><defs><linearGradient x2="1" gradientUnits="userSpaceOnUse" gradientTransform="matrix(-18.50796 0 0 18.50796 449.436 284.479)" id="a"><stop offset="0" stop-color="#0077c0"/><stop offset=".005" stop-color="#0077c0"/><stop offset="1" stop-color="#00558a"/></linearGradient><clipPath id="b"><path d="M0 595.28h841.89V0H0v595.28z"/></clipPath><linearGradient x2="1" gradientUnits="userSpaceOnUse" gradientTransform="scale(19.83345 -19.83345) rotate(-45 -6.724 -30.697)" id="c"><stop offset="0" stop-color="#0077c0"/><stop offset=".483" stop-color="#0077c0"/><stop offset="1" stop-color="#00558a"/></linearGradient><clipPath id="d"><path d="M0 595.28h841.89V0H0v595.28z"/></clipPath><linearGradient x2="1" gradientUnits="userSpaceOnUse" gradientTransform="matrix(-19.74051 0 0 19.74051 347.402 284.479)" id="e"><stop offset="0" stop-color="#00598e"/><stop offset="1" stop-color="#003a5c"/></linearGradient><clipPath id="f"><path d="M0 595.28h841.89V0H0v595.28z"/></clipPath><linearGradient x2="1" gradientUnits="userSpaceOnUse" gradientTransform="matrix(-10.1705 0 0 10.1705 287.395 274.693)" id="g"><stop offset="0" stop-color="#00598e"/><stop offset="1" stop-color="#003a5c"/></linearGradient><linearGradient x2="1" gradientUnits="userSpaceOnUse" gradientTransform="rotate(112.5 17.259 211.413) scale(26.31625)" id="h"><stop offset="0" stop-color="#00598e"/><stop offset="1" stop-color="#0077c0"/></linearGradient><linearGradient x2="1" gradientUnits="userSpaceOnUse" gradientTransform="scale(-17.38068) rotate(-67.5 -19.391 1.515)" id="i"><stop offset="0" stop-color="#ffaa05"/><stop offset="1" stop-color="#ffca05"/></linearGradient><linearGradient x2="1" gradientUnits="userSpaceOnUse" gradientTransform="scale(-17.38068) rotate(-67.5 -17.706 .39)" id="j"><stop offset="0" stop-color="#006432"/><stop offset="1" stop-color="#1d984a"/></linearGradient><linearGradient x2="1" gradientUnits="userSpaceOnUse" gradientTransform="scale(-17.38068) rotate(-67.5 -19.337 .586)" id="k"><stop offset="0"/><stop offset="1" stop-color="#383435"/></linearGradient><linearGradient x2="1" gradientUnits="userSpaceOnUse" gradientTransform="scale(-17.38068) rotate(-67.5 -18.585 .084)" id="l"><stop offset="0" stop-color="#b31f24"/><stop offset="1" stop-color="#ed1c24"/></linearGradient><clipPath id="m"><path d="M0 595.28h841.89V0H0v595.28z"/></clipPath></defs><path d="M737.141 258.661H0V0h737.141v258.661z" fill="#fff"/><path d="M397.7 113.09l-9.617 23.825h19.125l-9.509-23.825zm16.667 41.558h-33.44l-4.915 12.287h-22.436l33.547-74.786h21.368l33.44 74.786h-22.65l-4.914-12.287z" fill="#0077c0"/><path d="M449.436 277.386h-18.508l5.627 14.186h12.881v-14.186z" fill="url(#a)" transform="matrix(1.25 0 0 -1.25 -157.611 501.38)"/><g clip-path="url(#b)" transform="matrix(1.25 0 0 -1.25 -157.611 501.38)"><path d="M404.732 310.803c-4.103 3.077-8.804 4.103-14.018 4.103-4.102 0-8.119-1.282-8.119-4.445 0-4.103 4.017-4.7 9.915-5.299 11.88-1.282 24.273-6.067 24.273-19.828 0-13.59-12.821-19.402-26.24-19.488-10.769-.085-18.46 1.796-26.751 10.514l9.316 10.684c5.898-5.727 12.479-6.752 17.521-6.752 5.555 0 9.401 1.964 9.401 5.299 0 2.991-3.417 4.87-9.998 5.47-13.078 1.196-24.361 4.53-24.361 19.4 0 12.65 12.393 18.12 25.043 18.12 8.976 0 15.983-2.05 22.394-7.095l-8.376-10.683z" fill="#0077c0"/></g><path d="M399.936 284.712c-.785-3.221-4.521-3.242-5.913-6.471-1.232-2.858 1.442-12.259 4.503-11.62 7.428 1.551 13.767 5.027 13.766 8.517-.002 6.926-7.904 15.158-22.26 15.923 0 0 11.291-.654 9.904-6.349" fill="url(#c)" transform="matrix(1.25 0 0 -1.25 -157.611 501.38)"/><g clip-path="url(#d)" transform="matrix(1.25 0 0 -1.25 -157.611 501.38)"><path d="M333.387 291.572l7.693 19.06 7.606-19.06h-15.299zm30.405-15.212l5.775 6.623-19.854 44.401H332.62l-26.838-59.828h17.95l3.93 9.83h26.752l3.932-9.83h14.283c-3.476 2.06-6.187 4.756-8.836 8.804" fill="#00598e"/></g><path d="M333.387 291.572l-5.726-14.187h19.741v14.187h-14.015z" fill="url(#e)" transform="matrix(1.25 0 0 -1.25 -157.611 501.38)"/><g clip-path="url(#f)" transform="matrix(1.25 0 0 -1.25 -157.611 501.38)"><path d="M277.225 281.83h8.889c10.769 0 14.529 8.034 14.529 16.24 0 8.202-4.187 15.211-14.53 15.211h-8.888v-31.45zm8.889 45.554c21.11 0 31.282-12.99 31.282-29.486 0-16.496-9.83-30.342-31.282-30.342h-25.642v59.829h25.642z" fill="#00598e"/></g><path d="M277.225 267.556h10.17v14.275h-10.17v-14.275z" fill="url(#g)" transform="matrix(1.25 0 0 -1.25 -157.611 501.38)"/><path d="M207.737 298.445l-3.335-8.054c-2.302-5.553.345-11.942 5.898-14.242a10.832 10.832 0 0 1 8.343 0 10.833 10.833 0 0 1 5.901 5.899c2.298 5.553-.348 11.942-5.901 14.243l-8.054 3.336-2.017.835-.835-2.017z" fill="url(#h)" transform="matrix(1.25 0 0 -1.25 -157.611 501.38)"/><path d="M224.819 309.701l-2.202-5.319c-1.52-3.668.227-7.888 3.895-9.407a7.158 7.158 0 0 1 5.511 0 7.16 7.16 0 0 1 3.896 3.896c1.518 3.668-.23 7.888-3.896 9.407l-5.32 2.203-1.331.552-.553-1.332z" fill="url(#i)" transform="matrix(1.25 0 0 -1.25 -157.611 501.38)"/><path d="M188.669 294.727l-2.204-5.319c-1.52-3.668.228-7.888 3.897-9.407a7.158 7.158 0 0 1 5.509 0 7.155 7.155 0 0 1 3.897 3.896c1.52 3.667-.229 7.887-3.897 9.407l-5.319 2.203-1.332.552-.551-1.332z" fill="url(#j)" transform="matrix(1.25 0 0 -1.25 -157.611 501.38)"/><path d="M209.319 318.793l-2.204-5.319c-1.519-3.668.23-7.888 3.897-9.407a7.151 7.151 0 0 1 5.51 0 7.148 7.148 0 0 1 3.896 3.897c1.519 3.667-.229 7.886-3.896 9.406l-5.32 2.203-1.331.552-.552-1.332z" fill="url(#k)" transform="matrix(1.25 0 0 -1.25 -157.611 501.38)"/><path d="M193.199 312.116l-2.204-5.32c-1.518-3.667.231-7.887 3.897-9.406a7.151 7.151 0 0 1 5.51 0 7.151 7.151 0 0 1 3.896 3.897c1.519 3.667-.228 7.886-3.896 9.406l-5.32 2.203-1.331.551-.552-1.331z" fill="url(#l)" transform="matrix(1.25 0 0 -1.25 -157.611 501.38)"/><g clip-path="url(#m)" transform="matrix(1.25 0 0 -1.25 -157.611 501.38)"><path d="M521.853 254.06l-38.815 86.818h-1.242l38.814-86.818h1.243z" fill="#bebec8"/><path d="M637.305 288.055c0 1.65-1.187 2.794-2.926 2.794h-3.849v-5.61h3.85c1.738 0 2.925 1.166 2.925 2.816m-.109-10.253l-3.74 5.831h-2.926v-5.83h-1.829v14.675h5.9c2.683 0 4.597-1.716 4.597-4.423 0-2.64-1.805-4.092-3.807-4.269l3.961-5.984h-2.156zm-21.233 0v14.676h9.617v-1.629h-7.789v-4.73h7.635v-1.628h-7.635v-5.06h7.79v-1.629h-9.618zm-5.013 4.158c0 1.343-.924 2.531-2.729 2.531h-4.488v-5.06h4.488c1.717 0 2.73.967 2.73 2.53m-.287 6.512c0 1.32-.88 2.376-2.53 2.376h-4.4v-4.73h4.4c1.65 0 2.53 1.012 2.53 2.354m-8.757-10.67v14.675h6.535c2.552 0 4.115-1.54 4.115-3.74 0-1.849-1.232-3.08-2.576-3.367 1.562-.242 2.861-1.849 2.861-3.609 0-2.354-1.562-3.96-4.246-3.96h-6.689zm-5.477 0v12.078l-4.994-12.079h-.748l-4.973 12.08v-12.08h-1.826v14.676h2.62l4.554-11.046 4.576 11.046h2.617v-14.676h-1.826zm-25.279 0v14.675h9.615v-1.629h-7.789v-4.73h7.635v-1.628h-7.635v-5.06h7.79v-1.629h-9.616zm-5.477 0v12.078l-4.994-12.079h-.748l-4.973 12.08v-12.08h-1.826v14.676h2.62l4.554-11.046 4.576 11.046h2.617v-14.676h-1.826zm83.654 25v14.675h3.784v-11.376h5.898v-3.3h-9.682zm-9.216 10.934l-1.87-5.523h3.74l-1.87 5.523zm3.63-10.935l-.726 2.112h-5.787l-.727-2.112h-4.29l5.523 14.676h4.752l5.545-14.676h-4.29zm-25.874 5.94v8.736h3.851v-8.604c0-1.738 1.033-2.992 3.102-2.992 2.025 0 3.08 1.254 3.08 2.992v8.604h3.83v-8.714c0-3.652-2.223-6.227-6.91-6.227-4.73 0-6.953 2.597-6.953 6.205m-5.983 1.41c0 2.265-1.363 4.025-4.049 4.025h-2.398v-8.075h2.377c2.574 0 4.07 1.87 4.07 4.05m-10.23-7.35v14.676h6.16c4.621 0 7.943-2.773 7.943-7.327 0-4.555-3.322-7.349-7.922-7.349h-6.18zm-6.645 14.676h3.783v-14.676h-3.783v14.676zm-11.594-14.676l-5.523 14.676h4.291l3.61-10.584 3.63 10.584h4.29l-5.546-14.676h-4.752zm-10.603 14.676h3.783v-14.676h-3.783v14.676zm-5.983-7.327c0 2.266-1.365 4.026-4.048 4.026h-2.399v-8.075h2.377c2.574 0 4.07 1.87 4.07 4.05m-10.232-7.35v14.676h6.162c4.62 0 7.941-2.773 7.941-7.327 0-4.555-3.322-7.349-7.919-7.349h-6.184zm-6.51 0l-6.205 8.493v-8.493h-3.785v14.676h3.894l5.942-8.075v8.075h3.807v-14.676h-3.653zm-16.633 14.676h3.783v-14.676h-3.783v14.676z" fill="#0077c0"/></g></svg>