<svg xmlns="http://www.w3.org/2000/svg" width="831.324" height="214.02" viewBox="0 0 831.32369 214.01962"><defs><linearGradient x2="1" gradientUnits="userSpaceOnUse" gradientTransform="matrix(-18.50796 0 0 18.50796 407.865 284.479)" id="a"><stop offset="0" stop-color="#0077c0"/><stop offset=".005" stop-color="#0077c0"/><stop offset="1" stop-color="#00558a"/></linearGradient><clipPath id="b"><path d="M0 595.28h841.89V0H0v595.28z"/></clipPath><linearGradient x2="1" gradientUnits="userSpaceOnUse" gradientTransform="scale(19.83345 -19.83345) rotate(-45 -7.772 -28.167)" id="c"><stop offset="0" stop-color="#0077c0"/><stop offset=".483" stop-color="#0077c0"/><stop offset="1" stop-color="#00558a"/></linearGradient><clipPath id="d"><path d="M0 595.28h841.89V0H0v595.28z"/></clipPath><linearGradient x2="1" gradientUnits="userSpaceOnUse" gradientTransform="matrix(-19.74051 0 0 19.74051 305.831 284.479)" id="e"><stop offset="0" stop-color="#00598e"/><stop offset="1" stop-color="#003a5c"/></linearGradient><clipPath id="f"><path d="M0 595.28h841.89V0H0v595.28z"/></clipPath><linearGradient x2="1" gradientUnits="userSpaceOnUse" gradientTransform="matrix(-10.1705 0 0 10.1705 245.824 274.693)" id="g"><stop offset="0" stop-color="#00598e"/><stop offset="1" stop-color="#003a5c"/></linearGradient><linearGradient x2="1" gradientUnits="userSpaceOnUse" gradientTransform="rotate(112.5 -3.527 197.525) scale(26.31625)" id="h"><stop offset="0" stop-color="#00598e"/><stop offset="1" stop-color="#0077c0"/></linearGradient><linearGradient x2="1" gradientUnits="userSpaceOnUse" gradientTransform="scale(-17.38068) rotate(-67.5 -18.195 -.275)" id="i"><stop offset="0" stop-color="#ffaa05"/><stop offset="1" stop-color="#ffca05"/></linearGradient><linearGradient x2="1" gradientUnits="userSpaceOnUse" gradientTransform="scale(-17.38068) rotate(-67.5 -16.51 -1.4)" id="j"><stop offset="0" stop-color="#006432"/><stop offset="1" stop-color="#1d984a"/></linearGradient><linearGradient x2="1" gradientUnits="userSpaceOnUse" gradientTransform="scale(-17.38068) rotate(-67.5 -18.14 -1.204)" id="k"><stop offset="0"/><stop offset="1" stop-color="#383435"/></linearGradient><linearGradient x2="1" gradientUnits="userSpaceOnUse" gradientTransform="scale(-17.38068) rotate(-67.5 -17.39 -1.706)" id="l"><stop offset="0" stop-color="#b31f24"/><stop offset="1" stop-color="#ed1c24"/></linearGradient><clipPath id="m"><path d="M0 595.28h841.89V0H0v595.28z"/></clipPath></defs><path d="M831.323 214.02H512.687L417.726 0h413.597v214.02z" fill="#00598e"/><path d="M831.324 0H0v214.019h831.324V0zm-2.5 211.52H2.5V2.501h826.324V211.52z" fill="#00598e"/><path d="M392.827 90.77l-9.616 23.825h19.125l-9.51-23.825zm16.667 41.558h-33.44l-4.915 12.287h-22.436l33.548-74.786h21.367l33.44 74.786h-22.65l-4.914-12.287z" fill="#0077c0"/><path d="M407.865 277.386h-18.508l5.627 14.186h12.881v-14.186z" fill="url(#a)" transform="matrix(1.25 0 0 -1.25 -110.52 479.06)"/><g clip-path="url(#b)" transform="matrix(1.25 0 0 -1.25 -110.52 479.06)"><path d="M363.161 310.803c-4.103 3.077-8.804 4.103-14.018 4.103-4.102 0-8.119-1.282-8.119-4.445 0-4.103 4.017-4.7 9.915-5.299 11.88-1.282 24.273-6.067 24.273-19.828 0-13.59-12.821-19.402-26.24-19.488-10.769-.085-18.46 1.796-26.751 10.514l9.316 10.684c5.898-5.727 12.479-6.752 17.521-6.752 5.555 0 9.401 1.964 9.401 5.299 0 2.991-3.417 4.87-9.998 5.47-13.078 1.196-24.361 4.53-24.361 19.4 0 12.65 12.393 18.12 25.043 18.12 8.976 0 15.983-2.05 22.394-7.095l-8.376-10.683z" fill="#0077c0"/></g><path d="M358.365 284.712c-.785-3.221-4.521-3.242-5.913-6.471-1.232-2.858 1.442-12.259 4.503-11.62 7.428 1.551 13.766 5.027 13.766 8.517-.002 6.926-7.904 15.158-22.26 15.923 0 0 11.292-.654 9.904-6.349" fill="url(#c)" transform="matrix(1.25 0 0 -1.25 -110.52 479.06)"/><g clip-path="url(#d)" transform="matrix(1.25 0 0 -1.25 -110.52 479.06)"><path d="M291.816 291.572l7.693 19.06 7.606-19.06h-15.299zm30.405-15.212l5.775 6.623-19.854 44.401h-17.094l-26.838-59.828h17.95l3.93 9.83h26.752l3.932-9.83h14.283c-3.476 2.06-6.187 4.756-8.836 8.804" fill="#00598e"/></g><path d="M291.816 291.572l-5.726-14.187h19.741v14.187h-14.015z" fill="url(#e)" transform="matrix(1.25 0 0 -1.25 -110.52 479.06)"/><g clip-path="url(#f)" transform="matrix(1.25 0 0 -1.25 -110.52 479.06)"><path d="M235.654 281.83h8.889c10.769 0 14.529 8.034 14.529 16.24 0 8.202-4.187 15.211-14.53 15.211h-8.888v-31.45zm8.889 45.554c21.11 0 31.282-12.99 31.282-29.486 0-16.496-9.83-30.342-31.282-30.342H218.9v59.829h25.642z" fill="#00598e"/></g><path d="M235.654 267.556h10.17v14.275h-10.17v-14.275z" fill="url(#g)" transform="matrix(1.25 0 0 -1.25 -110.52 479.06)"/><path d="M166.166 298.445l-3.335-8.054c-2.302-5.553.345-11.942 5.898-14.242a10.832 10.832 0 0 1 8.343 0 10.833 10.833 0 0 1 5.901 5.899c2.298 5.553-.348 11.942-5.901 14.243l-8.054 3.336-2.017.835-.835-2.017z" fill="url(#h)" transform="matrix(1.25 0 0 -1.25 -110.52 479.06)"/><path d="M183.248 309.701l-2.202-5.319c-1.52-3.668.227-7.888 3.895-9.407a7.158 7.158 0 0 1 5.511 0 7.16 7.16 0 0 1 3.896 3.896c1.518 3.668-.23 7.888-3.896 9.407l-5.32 2.203-1.331.552-.553-1.332z" fill="url(#i)" transform="matrix(1.25 0 0 -1.25 -110.52 479.06)"/><path d="M147.098 294.727l-2.204-5.319c-1.52-3.668.228-7.888 3.897-9.407a7.158 7.158 0 0 1 5.509 0 7.155 7.155 0 0 1 3.897 3.896c1.52 3.667-.229 7.887-3.897 9.407l-5.319 2.203-1.332.552-.551-1.332z" fill="url(#j)" transform="matrix(1.25 0 0 -1.25 -110.52 479.06)"/><path d="M167.748 318.793l-2.204-5.319c-1.519-3.668.23-7.888 3.897-9.407a7.151 7.151 0 0 1 5.51 0 7.148 7.148 0 0 1 3.896 3.897c1.519 3.667-.229 7.886-3.896 9.406l-5.32 2.203-1.331.552-.552-1.332z" fill="url(#k)" transform="matrix(1.25 0 0 -1.25 -110.52 479.06)"/><path d="M151.628 312.116l-2.204-5.32c-1.518-3.667.231-7.887 3.897-9.406a7.151 7.151 0 0 1 5.51 0 7.148 7.148 0 0 1 3.896 3.897c1.519 3.667-.228 7.886-3.896 9.406l-5.32 2.203-1.331.551-.552-1.331z" fill="url(#l)" transform="matrix(1.25 0 0 -1.25 -110.52 479.06)"/><g clip-path="url(#m)" transform="matrix(1.25 0 0 -1.25 -110.52 479.06)"><path d="M498.197 212.033a.567.567 0 0 0-.518.336" fill="#bebec8"/><path d="M509.222 311.795c0 2.942-1.916 5.21-4.886 5.21-2.996 0-4.912-2.268-4.912-5.21 0-2.916 1.916-5.21 4.912-5.21 2.97 0 4.886 2.294 4.886 5.21m-14.52 0c0 5.48 4.128 9.313 9.634 9.313 5.507 0 9.61-3.834 9.61-9.313 0-5.479-4.103-9.313-9.61-9.313-5.506 0-9.635 3.834-9.635 9.313M527.125 314.845c0 1.215-1.025 1.917-2.24 1.917h-3.671v-3.86h3.67c1.215 0 2.24.674 2.24 1.943m-.513-12.04l-3.023 6.048h-2.375v-6.047h-4.644v18.005h9.016c3.995 0 6.263-2.646 6.263-5.993 0-3.131-1.916-4.805-3.59-5.398l3.671-6.614h-5.318zM533.769 311.795c0 5.722 4.372 9.313 9.744 9.313 4.022 0 6.451-2.133 7.693-4.374l-3.887-2.024c-.675 1.188-2.051 2.294-3.806 2.294-2.942 0-5.02-2.267-5.02-5.209 0-2.942 2.078-5.21 5.02-5.21 1.322 0 2.672.54 3.32 1.08v1.403h-4.048v4.077h8.691v-7.154c-1.943-2.132-4.561-3.509-7.963-3.509-5.372 0-9.744 3.59-9.744 9.313M562.036 316.222l-2.295-6.775h4.589l-2.294 6.775zm4.454-13.416l-.891 2.592h-7.1l-.89-2.592h-5.263l6.775 18.005h5.83l6.803-18.005h-5.264zM585.605 302.806l-7.611 10.42v-10.42h-4.644v18.004h4.778l7.289-9.906v9.906h4.669v-18.004h-4.481zM593.6 320.811h4.644v-18.004H593.6v18.004zM600.458 305.343l2.456 3.482a8.137 8.137 0 0 1 5.75-2.375c1.593 0 2.565.621 2.565 1.484 0 .945-1.35 1.242-3.078 1.593-2.968.594-7.126 1.404-7.126 5.831 0 3.023 2.565 5.722 7.18 5.722 2.889 0 5.4-.864 7.316-2.51l-2.538-3.32c-1.511 1.241-3.482 1.862-5.263 1.862-1.35 0-1.944-.54-1.944-1.295 0-.864 1.377-1.16 3.105-1.566 2.969-.62 7.07-1.512 7.07-5.75 0-3.616-2.671-6.019-7.503-6.019-3.643 0-6.18 1.133-7.99 2.861M625.89 316.222l-2.295-6.775h4.59l-2.295 6.775zm4.454-13.416l-.89 2.592h-7.1l-.89-2.592H616.2l6.775 18.005h5.83l6.803-18.005h-5.264zM639.552 302.806v13.955h-5.048v4.05h14.711v-4.05h-5.02v-13.955h-4.643zM651.703 320.811h4.644v-18.004h-4.644v18.004zM673.461 311.795c0 2.942-1.916 5.21-4.886 5.21-2.996 0-4.912-2.268-4.912-5.21 0-2.916 1.916-5.21 4.912-5.21 2.97 0 4.886 2.294 4.886 5.21m-14.52 0c0 5.48 4.128 9.313 9.634 9.313 5.507 0 9.61-3.834 9.61-9.313 0-5.479-4.103-9.313-9.61-9.313-5.506 0-9.635 3.834-9.635 9.313M693.063 302.806l-7.611 10.42v-10.42h-4.644v18.004h4.778l7.289-9.906v9.906h4.669v-18.004h-4.481zM559.495 273.806v14.82l-6.127-14.82h-.918l-6.101 14.82v-14.82h-2.24v18.004h3.212l5.588-13.55 5.614 13.55h3.212v-18.004h-2.24zM566.221 273.806v18.004h11.796v-1.997h-9.556v-5.804h9.366v-1.997h-9.366v-6.208h9.556v-1.998h-11.796zM597.24 273.806v14.82l-6.127-14.82h-.918l-6.101 14.82v-14.82h-2.24v18.004h3.212l5.588-13.55 5.614 13.55h3.212v-18.004h-2.24zM615.061 278.908c0 1.646-1.134 3.104-3.347 3.104h-5.507v-6.208h5.507c2.106 0 3.347 1.187 3.347 3.104m-.351 7.99c0 1.619-1.08 2.915-3.104 2.915h-5.399v-5.803h5.399c2.024 0 3.104 1.24 3.104 2.888m-10.743-13.092v18.005h8.017c3.132 0 5.048-1.89 5.048-4.59 0-2.267-1.512-3.778-3.158-4.13 1.916-.296 3.508-2.266 3.508-4.426 0-2.888-1.916-4.86-5.209-4.86h-8.206zM621.22 273.806v18.004h11.796v-1.997h-9.556v-5.804h9.366v-1.997h-9.366v-6.208h9.556v-1.998H621.22zM647.406 286.385c0 2.024-1.457 3.428-3.59 3.428h-4.723v-6.883h4.723c2.133 0 3.59 1.43 3.59 3.455m-.135-12.58l-4.59 7.155h-3.588v-7.154h-2.241v18.005h7.235c3.293 0 5.64-2.106 5.64-5.426 0-3.24-2.213-5.021-4.67-5.237l4.86-7.342h-2.646z" fill="#fff"/></g></svg>