<svg xmlns="http://www.w3.org/2000/svg" viewBox="0 0 1175.7 619.03" preserveAspectRatio="xMinYMin meet"><g fill="#474746"><path d="M152.925 2.707c9.512-4.575 20.575-2.662 30.163.675 5.362 1.638 9.5 5.55 13.787 8.95 9.113 6.888 15.713 16.69 20.375 27.002 5.425 14.873 9.8 30.498 9.225 46.473-.564 8.338 1.337 16.65.15 24.975-.85 8.175-4.162 15.8-5.925 23.788-1.25 5.662-4.438 10.562-7.2 15.575l-1.85.2c-3.862-11.438-5.487-23.6-10.813-34.525-3.512-6.4-6.924-12.888-11.137-18.875-6.2-10.05-12.962-20.1-22.564-27.213-6.886-4.775-13.798-9.575-20.061-15.15-6.387-7.212-9.425-16.9-10.412-26.337.437-10.463 6.45-21.175 16.262-25.538M41.119 64.783c8.087-2.125 16.412-5.3 24.9-3.713 19.937 3.838 39.862 8.738 58.312 17.463 17.313 8.925 31.35 22.787 44.775 36.638 17.775 15.199 27.338 37.287 36.825 58.112 3.238 6.25 4.813 13.187 7.85 19.537-.95.775-1.9 1.575-2.837 2.363-11.6-17.725-27.538-32.538-45.302-43.988-13.436-6.912-28.486-10.225-43.348-12.412-11.838-.275-23.588 2.15-35.075 4.862-10.638 3.313-20.65 8.388-31.188 12.013a126.143 126.143 0 0 1-17.537 3.062c-7.45.725-14.152-3.2-20.613-6.275-9.212-5.925-13.45-16.675-16.9-26.587-1.662-8.187-1.024-16.688.525-24.838 3.513-12.25 12.6-22.311 23.625-28.425 5.225-2.787 10.138-6.375 15.988-7.812M1046.575 144.27c3.587-13.475 6.213-27.825 14.8-39.225 2.487-3.275 6.662-6.075 10.911-4.575 3.477 1.737 6.702 4.2 9.163 7.225 3.075 6.425 4.088 14.162 1.4 20.925-3.575 10.05-9.911 19.175-18.186 25.925-5.425 5.625-11.663 10.363-18.364 14.375-1.25-8.125-2.088-16.637.276-24.65zm-103.862 13.975c.41-8.788 2.698-17.475 6.462-25.413 2.586-4.375 4.774-9.325 9.075-12.312 3.075-2.325 6.663-3.786 10.15-5.375 11.486 7.562 13.261 24.062 7.111 35.587-4.623 8.65-9.073 17.763-16.45 24.463-5.298 4.275-10.773 8.7-17.436 10.65-1.337-9.213.525-18.413 1.088-27.6zm156.262 45.637c-7.025 6.913-14.987 14.525-25.375 15.225-6.85.413-14.975-.562-19.45-6.4-4.688-5.3-8.075-12.4-7.239-19.587 5.638-4.45 12.05-7.875 17.602-12.463 7.723-6.812 15.762-13.625 21.137-22.537 5.263-9.088 12.387-17.363 15.124-27.7 2.801-8.75 2.037-18.538-1.186-27.05-5.538-9.038-13.95-17.2-24.713-19.213-13.414-.95-26.675 2.963-38.763 8.426-10.187 6.1-19.2 15.212-22.912 26.7-3.738 7.612-5.988 15.8-7.275 24.162-4.513 15.8-5.938 32.3-6.6 48.65 1.186 6.638 1.661 13.5 3.849 19.925-8.275 11.563-20.924 22.35-35.924 21.975-5.489.225-11.476 1.225-16.426-1.775-9.225-5.125-13.449-17.35-9.525-27.075 4.262-4.3 9.963-6.763 14.713-10.463 16.7-13.487 31.513-30.087 39.913-50.05 2.086-8.4 2.95-17.45.588-25.9-2.426-6.55-8.113-11.437-14.338-14.275-8.389-3.237-17.625-1.962-26.363-1.3-16.9.85-30.7 12.975-40.025 26.2-7.2 9.475-10.575 21.05-14.412 32.138-2.476 6.987-1.938 14.45-2.264 21.712-1.362 11.35.289 22.788 2.789 33.85.811 10.076 4.711 19.576 9.325 28.438 4.124 7.938 12.088 12.488 19.611 16.663a14.736 14.736 0 0 0 8.814 1.887c8.424-.787 16.975-1.6 24.936-4.688 10.227-4.012 19.639-9.85 28.627-16.112 7.162-5.075 12.986-11.75 18.598-18.438 3.177 4.05 7.439 7.063 12.002 9.363 5.887 2.913 11.548 6.425 17.96 8.125 11.927 2.4 24.476 1.075 35.663-3.712 6.589-2.963 11.839-8.063 16.938-13.05 8.437-9.313 15.662-20.85 15.837-33.788-4.375 3.425-7.15 8.4-11.236 12.137"/><path d="M733.675 225.782c-.212 7.925-.514 15.925-2.4 23.663-2.264 9.237-3.813 18.825-8.214 27.35-6.111 10.95-24.575 11.012-30.861.362-5.925-16.062-5.45-33.75-2.188-50.35 1.675-7.862 2.6-15.887 5.024-23.575 2.051-6.6 2.663-14.2 7.839-19.312 3.05-3.038 6.012-6.35 9.812-8.475 3.924-2.063 8.675-.988 12.25 1.262 4.062 4.85 7.6 10.438 8.45 16.838 1.675 10.662.638 21.512.288 32.237zm-402.587-54.875c.112 19.45-1.013 38.888-2.863 58.263-.975 8.475-.125 17.025-.913 25.512a183.457 183.457 0 0 1-22.1-9.487c-8.112-4.163-16.8-7.05-25.05-10.938-8.15-3.612-16.875-5.587-25.625-7.087.888-7.838 3.963-15.15 5.538-22.838 6.037-18.35 12.112-36.75 19.962-54.437 6.813-13.663 12.975-27.863 22.463-39.95 9.837-11.55 18.136-25.1 31.687-32.775.55 31.275-2.025 62.487-3.1 93.737zm-26.676 94.588c-12.112 4.438-24.75 7.112-37.125 10.675-7.976 2.163-16.225 3.138-24.187 5.338 1.912-13.263 2.662-27.013 8.337-39.363 10.975-.075 21.225 4.175 31.75 6.7 12.338 2.975 24.763 5.887 36.638 10.487-5.287 1.688-10.412 3.788-15.412 6.163zm-102.5-18.887c-5.537 12.775-9.187 26.25-12.625 39.712-3.55 1.512-6.937 3.5-10.725 4.412-22.587 4.325-46.425 6.488-68.725-.5-4.813-1.425-8.362-5.737-9.112-10.662-.638-4.025-2.375-8.325-.738-12.313 3.587-9.45 11.85-16.287 20.912-20.237 15.84-7.95 33.827-9.45 51.202-10.913 11.225.175 22.487-.7 33.7.413-1.288 3.362-2.5 6.762-3.888 10.087zm971.275-60.888c-.612-4.987-4.562-8.475-7.887-11.85-3.75-3.587-7.575-8.212-13.262-8.112-8.276-1.525-16.126 2.487-22.414 7.462-3.737 4.375-6.813 9.963-5.475 15.925 4.339-4.175 8.25-9.325 14.276-11.125 5.436-1.5 10.7 2.063 14.174 5.938 4.9 8.287 1.413 18.087-2.25 26.125-4.838 13-17.075 20.612-27.138 29.225-7.125 6.187-15.799 10.012-23.711 15.012-5.925 3.613-12.5 5.95-18.776 8.838-10.413 4.525-21.124 8.625-32.35 10.562-7.7 1.887-15.625 2.712-23.187 5.112-8 1.776-16.162 2.763-24.337 3.138-15.3 2.075-30.762.738-46.138 1.163-13.225-.3-26.512.687-39.637-1.438-13.476-2.037-27.264-2.65-40.275-7.025-9.988-2.512-20.238-4.925-30.589-4.5 3.276-11.275 8.6-21.812 11.589-33.162 3.813-10.975 8.863-21.463 12.488-32.513 7.812-19 14.437-38.462 22.686-57.275 3.5-11.012 9.287-21.025 14.676-31.187-5.651.987-10.563 4.162-15.814 6.262-6.761 3.263-14.162 4.713-21.4 6.475-12.287 3.238-25.049 3.675-37.586 5.375-11.725.125-24.7-2.875-35.226 3.875-10.063 5.788-14.974 17.825-14.149 29.088 1.362 4.637 3.812 8.887 6.037 13.162 2.212 4.463 6.975 6.625 11.174 8.813 5.751.287 12.176.112 17.001-3.513 4.75-3.575 7.738-9 9.75-14.487 2.162-5.888-.4-12.188-3.563-17.188 10.887-1.062 21.263-4.437 31.676-7.587-5.362 12.787-14.713 23.437-19.712 36.4-5.525 10.487-10.664 21.2-14.65 32.375-7.225 17.287-11.675 36.012-22.675 51.462-1.45 1.763-3.063 3.975-5.563 4.075-7.525.875-14.325-4.8-17.488-11.212-3.162-10.863-3.187-22.325-3.024-33.55.525-12.463.9-24.963 2.225-37.375.923-15.025-1.2-30.488 2.95-45.15-6.025.912-12 2.05-17.964 3.325-8.511 1.7-17.461 1.787-25.486 5.412-1.227 3.263-1.525 6.763-1.838 10.2-14.651-7.05-33.012-6.412-46.951 2.088-6.25 5.437-12.5 11.162-16.836 18.325-5.113 7.637-8.288 16.337-11.513 24.887-2.326 7.5-3.35 15.313-5.139 22.95-2.711 12.95-1.648 26.225-3.048 39.313-.938 10.874 1.01 21.912-1.477 32.676-4.673 2.798-13.161 4.375-15.212-2.327-5-16.4-3.249-33.787-4.461-50.662-.05-13.688.162-27.413-1.164-41.05-1-7.55-4.361-14.863-9.974-20.088-6.114-5.687-13.55-11.162-22.3-10.975-12.7-.9-24.3 5.613-33.9 13.275-5.95 4.138-11.712 8.613-16.3 14.275-2.901-3.762-5.612-8.275-10.375-9.85-5.737-2.687-12.175-1.187-18.25-1.437-3.7-.225-7.1 1.363-10.562 2.375-10.513 3.188-20.313 8.375-29.438 14.45.438-4.463 1.075-8.875 1.625-13.313-3.875.838-7.625 2.188-11.462 3.125-12.213 2.6-23.75 7.588-36.038 9.9-1.237 6.838-1.075 13.788-1.175 20.7-6.562 2.4-13.112 4.838-19.787 6.863-1.925-13.938-.625-28.013-.963-42.013-.112-13.325 1.163-26.587 1.663-39.887-.3-9.162-.6-18.337.037-27.488.413-18.337.538-36.7 1.913-55.012 1.887-14.638.112-29.413 1.5-44.1-3.6-.575-7.25-.575-10.838-1.088-12.737-2.162-25.675.5-37.987 3.763-9.063 2.937-18.7 5.05-26.55 10.75-7.913 5.45-16.688 9.764-23.625 16.525-3.725 3.8-6.688 8.275-10.363 12.125-15.6 15.65-27.562 34.362-39.737 52.675-6.575 9.588-11.088 20.387-17.425 30.125-13.275 20.3-21.088 43.437-29.688 65.925-12.425-.375-24.912-.275-37.25 1.337-11.237 1.838-22.725 1.075-33.901 3.338-7.686.975-15.524.925-23.061 2.925-14.025 3.35-28.975 5.388-40.988 13.963-8.812 5.375-17.337 11.987-22.35 21.212-3.725 12.1-4.325 25.975 1.925 37.35 6.312 8.013 15.037 14.088 24.912 16.8 11.437 4.425 23.85 3.1 35.8 4.3 7.813.225 15.588-.974 23.4-.912 13.6.1 26.313-5.4 39.738-6.8-10.2 40.062-18.825 80.562-24.5 121.537-1.863 16.788-1.414 33.938 2.225 50.475 3.987 12.813 10.687 24.726 19.25 35.05 4.687 5.976 12.362 7.713 18.85 11 6.85 3.875 14.962 2.712 22.437 4.175 5.75.313 11.55-.449 17.3.463.725-1.113 1.513-2.175 2.263-3.263-1.35-5.35-4.663-9.95-6.438-15.137-2.6-6.563-3.275-13.638-5.375-20.324-3.725-11.164-4.712-22.989-5.987-34.627-.6-19.1.975-38.175 1.837-57.248 1.538-23.963 6.238-47.577 9.4-71.352 2.313-11.375 3.35-23.062 7.725-33.925 20.525-3.825 40.175-11.062 59.9-17.725 8.663-2.9 16.4-7.987 25.113-10.775.175 13.013-2.688 25.85-2.425 38.863-.375 21.287.1 42.562.061 63.85.526 9.601-1.711 19.087-1.336 28.687-.288 17.377-.388 34.763-1.375 52.125 4.775.238 9.212-1.65 13.675-3.025 9.962-3.45 20.45-4.887 30.725-7.012 11.587-1.262 22.55-5.825 34.174-6.875-1.362-9.588-.987-19.275-.724-28.913.087-6.225-.625-12.437-.463-18.65.888-13.75-.175-27.562 1.088-41.287.037-15.861 2.237-31.613 2.925-47.45 2.3-14.513 1.386-29.438 4.737-43.775 6.4-1.913 12.388-4.925 18.538-7.513-.1 12.463-.55 24.938.025 37.4.15 14.988-.563 29.963-.138 44.952-1.35 11.2-1.425 22.486-2.037 33.75.175 1.999-.488 4.637 1.475 5.974 10.55-2.15 20.787-5.613 31.275-8.063 2.824-.838 5.512-2.087 8.299-3.05 3.838-6.45.863-14.074 1.7-21.087.988-10.425.55-20.875.45-31.324.476-7.876-.112-15.739-.387-23.614.188-12.925 1.987-25.75 3.887-38.513 1.188-9.55 7.538-19.487 17.463-21.574 2.925-.613 6.212-1.7 9.1-.425 4.7 4.725 5.312 11.687 6.338 17.925 1.25 13.712 1.512 27.487 1.862 41.237-.287 22.676.8 45.438-2.025 68 8.388-3.587 17.125-6.462 26.137-7.986 6.412-1.126 12.526-3.75 19.126-3.651.362-13.725 1.7-27.375 3.374-40.977 1.376-11.298.588-22.711 1.35-34.048.137-9.163.7-18.325-.374-27.463.262-7.162-1.638-14.087-4.4-20.625 3.387-3.587 7.112-7.337 12.262-8.025 7.55-2.187 14.963 3.538 17.4 10.45 3.675 13.238 1.688 27.063 2.049 40.588-.286 10.5 1.926 20.837 1.914 31.325.162 10.175.45 20.937 5.925 29.9 2.287 3.637 6.75 4.6 10.475 6.126 6.15 2.524 12.975 2.399 19.487 1.761 7.688-1.036 15.725-3.337 21.338-9 4.887-5.125 10.262-9.762 15.012-15.037 3.149 7.1 9.712 11.825 16.45 15.188 7.675 2.599 16.213 1.699 23.75-.987 14.95-5.389 27.363-16.139 36.738-28.776 3.549 6.537 9.375 12.675 16.936 14.062 12.251.1 24.089-3.624 35.251-8.425-2.737 5.739-6.1 11.175-8.426 17.1-.987 1.614-.136 3.125 1.576 3.7 7.487-5.362 14.325-11.762 22.849-15.537 17.064-10.075 37.926-13.85 57.326-9.4 9.749 1.85 19.087 5.45 28.938 6.912 20.012 4.775 40.461 7.601 60.962 9.288 12.075 1.388 24.124 3 36.25 3.9 11.687-.363 23.388.887 35.05-.3 12.875.55 25.513-2.438 37.975-5.263 7.312-2.075 14.487-4.687 21.937-6.35 5.9-1.075 11.026-4.313 16.538-6.475 12.088-4.487 22.474-12.313 33.662-18.538 17.85-10.35 30.513-27.587 38.95-46.1 3.45-6.45 4.85-13.687 7.126-20.587 2.55-7.75.087-15.838-1.363-23.55"/><path d="M756.712 366.232c10.19-5.05 21.663-6.173 32.827-7.225 8.437-.837 16.95.214 25.212 1.95 19.561 4.727 39.588 9.563 56.825 20.402 9.299 5.323 17.174 12.723 25.1 19.861 6.713 6.087 12.25 13.487 15.724 21.9 6.388 13.451-.911 30.2-13.125 37.637-14.136 6.988-31.711 6.213-45.349-1.612-12.287-7.725-18.225-21.438-25.35-33.461-4.5-9.264-9.425-18.527-16.489-26.127-11.575-11.337-24.773-21.137-39.498-27.986-4.925-2.789-10.575-3.6-15.877-5.339M712.575 367.495c7.925 1.939 15.85 4.489 22.849 8.8 8.464 4.801 16.889 9.662 25.112 14.887 4.938 3.288 9.089 7.563 13.738 11.225 6.1 4.7 10.513 11.126 15.976 16.488 17.724 18.926 25.887 44.175 32.962 68.538 4.588 13.95 6.675 28.663 6.238 43.337.511 20.462-2.251 41.663-12.664 59.612-3.762 5.352-6.499 11.688-12.211 15.338-6.613 5.925-14.051 11.325-22.913 13.175-12.087.788-24.612-2-34.45-9.313-10.975-9.824-18.3-23.862-18.876-38.7-.211-10.874-.536-22.175 3.55-32.462 2.114-5.787 3.651-11.825 6.651-17.25 5.65-12.25 10.488-24.888 13.988-37.936 1.987-9.425 1.649-19.127 2.324-28.689-1.3-19.188-5.113-38.65-14.449-55.675-4.75-7.199-9.338-14.688-15.788-20.525-3.9-3.75-8.437-6.8-12.037-10.85M471.25 383.595c3.788-2.238 7.175-5.114 11.1-7.151-1.975 5.162-5.313 9.963-4.876 15.762-2.874 19.051-.174 38.375-2.149 57.489.138 19.311 2.05 38.624 1.238 57.924 15.65 5.225 31.437 10.087 47.012 15.563 8.086 1.399 17.149.086 24-4.676 3.075-1.863 3.038-6.473 6.65-7.738-.438 7.3-2.737 14.5-6.475 20.788-4.289 6.325-12.313 8.189-19.375 9.439-13.075 1.811-25.2-4.701-36.864-9.602-10.449-3.862-20.299-10.086-31.711-10.61-4.35-.802-8.475.937-12.463 2.386.938-5.5 3.488-10.55 4.476-16.038 2.15-11.112 4.223-22.412 3.537-33.787-.537-11.9-.812-23.838-2.15-35.686-1.237-11.59-.337-23.275-1.425-34.877-10.05 6.263-16.962 17.338-17.312 29.251.937 5.912 2.487 12.224 7.575 15.987-7.402 4-16.777-.55-21.788-6.55-3.175-7.225-3.6-15.613-.787-23.038 1.962-6.587 7.35-11.225 12.537-15.362 6.213-4.837 14.013-6.738 20.9-10.325 6.05-3.175 12.511-5.563 18.35-9.149"/><path d="M625.625 443.282c-.738 7.937-1.336 16.662-6.586 23.087-2.575 3.137-6.751 5.05-10.8 4.825-2.6-1.175-4.6-3.763-4.475-6.675-.038-10 .825-19.975.775-29.975.549-5.825-.05-11.788 1.425-17.488.587-2.975 3.75-4.25 6.25-5.287 3.773-1.25 7.325 1.062 10.587 2.675 3.336 9.212 2.988 19.187 2.824 28.838zm-88.324 28.1c-1.351 6.187-5.475 11.687-11.075 14.663-3.537 1.811-8.612 1.074-10.1-3.026-3.376-8.05-4.975-17.063-3.45-25.724 1.161-7.288 1.25-15.176 5.563-21.489 2.55-3.225 5.523-6.424 9.425-7.936 2.612-.539 7.412-1.964 8.387 1.499 3.438 13.7 3.988 28.125 1.25 42.012zm165.8-54.9c-1.751-4.963-5.3-8.925-9.039-12.476-2.4-2.575-5.56-4.836-6.348-8.45-.938-5.15.275-10.362.375-15.537-6.913 6.825-16.014 11.95-25.864 12.462-.975 6.675-3.799 12.95-7.488 18.564-2.825 4.461-7.773 6.825-12.373 9.024.937-8.113.1-16.75-4.638-23.638-2.712-4.037-8.201-5.412-12.737-4.15-7.239 2.063-14.75 3.7-21.063 8.025-.062-7.737.788-15.461.825-23.187-.825-5.812-.225-11.663-.601-17.488-4.799 2.838-8.611 7.1-13.736 9.413-2.327 1.512-6.088 2.314-6.425 5.575-2.227 8.663 0 17.6-.5 26.387-2.5 21.488.637 43.188-1.625 64.688-.738 4.85-2.425 10.301-7.188 12.612-3.675 2.5-8.675.563-10.762-3.062-4.775-5.788-2.963-13.7-2.813-20.563-.212-10.511.825-20.987 1.588-31.449.337-5.7 2.225-11.138 2.823-16.788-9.273 3.775-19.012 7.075-29.175 6.637-.073.875-.236 2.638-.323 3.513-4.202-1.575-8.838-3.412-13.213-1.188-13.125 5.838-21.1 18.863-27.062 31.338-5.075 14.375-5.3 30.687.312 44.95 1.75 6.087 4.725 12.788 11.213 15.012 7.212 3.238 14.962-.012 21.712-2.812 5.336-2.2 8.724-7.113 12.313-11.375 2.85 1.975 5.673 4.262 9.212 4.85 11.863 2.462 24.288-2.524 32.35-11.3 4.463 6.25 12.525 7.25 19.55 5.662 8.875-2.112 18.061-4.562 25.313-10.373 9.248-7.977 16.412-19.227 16.625-31.752-.313-3.85-.925-7.687-.45-11.55 3.487-1.187 7.225-1.875 10.437-3.775 8.075-5.612 13.1-14.412 16.825-23.3 4.85 6.264 7.536 13.875 9.738 21.4 2.273 5.575 4.6 11.225 5.573 17.2-.9 7.15-7.512 15.125-15.386 13.027-2.589-.477-3.762-3.175-5.312-4.977 6.161-1.937 12.575-6.125 13.648-13 1.402-4.95-1.123-12.512-7.337-11.912-12.338 2.8-21.513 17.389-16.286 29.45 4.65 8.837 14.712 16.862 25.237 13.564 8.925-3.164 19.636-6.513 23.825-15.888 4.249-14.139 3.138-29.525-1.75-43.364"/></g></svg>