<svg xmlns="http://www.w3.org/2000/svg" width="599.984" height="105.94" viewBox="0.001 0.001 599.984 105.94"><linearGradient id="a" gradientUnits="userSpaceOnUse" x1="299.993" y1=".001" x2="299.993" y2="105.941"><stop offset="0" stop-color="gray"/><stop offset="1" stop-color="#666"/></linearGradient><path fill="url(#a)" d="M514.683 90.953c2.251-1.125 4.449-2.727 6.618-4.771L542.4 66.64l-17.919-19.667c-2.453-2.804-4.723-4.771-6.796-5.873-2.073-1.101-4.343-1.65-6.82-1.65h-3.03V28.855h43.826V39.45h-3.333c-1.289 0-2.323.183-3.083.577-.755.394-1.135.919-1.135 1.573 0 .707.529 1.703 1.616 2.915.303.366.529.625.683.784l8.566 9.836 9.273-8.759c1.236-1.236 2.092-2.179 2.573-2.862.505-.654.76-1.26.76-1.756 0-.76-.433-1.337-1.27-1.732-.832-.394-2.068-.577-3.708-.577h-3.184V28.854h38.354V39.45h-3.184c-2.174 0-4.319.548-6.469 1.679-2.145 1.125-4.848 3.251-8.109 6.32l-16.646 15.896 19.369 20.927c2.679 2.91 5.108 5.036 7.325 6.373 2.227 1.337 4.473 1.996 6.743 1.996h3.184v10.516h-45.028V92.641h3.184c1.789 0 3.179-.207 4.218-.606 1.034-.418 1.563-.972 1.563-1.626 0-.524-.173-1.101-.558-1.732-.375-.63-.909-1.313-1.587-2.044l-10.89-11.668-12.58 11.828c-1.087 1.02-1.818 1.808-2.174 2.309-.375.524-.553.943-.553 1.308 0 .601.38 1.125 1.188 1.573.784.447 1.794.654 3.03.654h5.911v10.519H424.805V93.02h3.03c3.468 0 5.757-.534 6.926-1.616 1.164-1.087 1.741-3.588 1.741-7.479V52.98c0-5.281-.885-9.042-2.626-11.323-1.746-2.27-4.622-3.41-8.614-3.41-5.714 0-10.231 2.174-13.539 6.522-3.314 4.343-4.949 10.303-4.949 17.911v21.245c0 3.891.577 6.392 1.741 7.479 1.159 1.087 3.463 1.616 6.921 1.616h3.03v10.125h-43.678V93.02h5.026c3.463 0 5.757-.534 6.897-1.616 1.135-1.087 1.693-3.588 1.693-7.479V48.102c0-3.915-.553-6.392-1.693-7.455-1.135-1.063-3.439-1.587-6.897-1.587h-5.026V28.854h31.98v12.583c3.939-4.925 7.999-8.648 12.174-11.116 4.165-2.463 8.388-3.689 12.684-3.689 8.234 0 14.164 2.03 17.757 6.065 3.607 4.05 5.411 10.813 5.411 20.287V83.93c0 3.891.577 6.392 1.736 7.479 2.689 2.506 19.359 2.314 21.831 0 1.164-1.087 1.746-3.588 1.746-7.479V48.108c0-3.915-.582-6.392-1.746-7.455-1.159-1.063-3.458-1.587-6.921-1.587h-5.608V28.855h32.769v55.072c0 3.838.582 6.315 1.746 7.426 2.915 2.785 11.236 1.154 14.323-.399l.013-.001zm-234.521-6.835V64.567c0-7.907 1.664-17.108 5.026-22.182 3.352-5.055 6.921-7.58 12.607-7.58 5.685 0 7.797 2.16 8.869 3.853-8.768 7.773-12.015 17.358-12.015 28.936 0 11.544 3.665 20.841 11.02 27.839 7.345 6.998 17.122 10.51 29.33 10.51 12.232 0 22.029-3.511 29.402-10.51 7.378-6.998 11.068-16.295 11.068-27.839 0-11.597-3.689-20.917-11.068-27.964-7.373-7.051-17.171-10.587-29.402-10.587-6.498 0-12.482.996-17.603 2.987 3.324 3.064 5.017 8.783 4.925 12.309 3.208-3.324 7.104-4.478 12.678-4.478 6.594 0 11.573 2.299 14.881 6.921 3.309 4.598 4.949 11.544 4.949 20.816 0 9.196-1.645 16.064-4.949 20.663-3.309 4.574-8.287 6.873-14.881 6.873-6.618 0-11.568-2.275-14.828-6.844-3.261-4.574-4.877-11.443-4.877-20.691 0-6.19.837-11.409 2.891-17.204 1.174-3.299 3.4-11.717-5.805-19.022-3.574-2.833-7.835-4.545-13.266-4.545-3.939 0-7.508 1.058-10.664 3.184-3.155 2.121-5.911 5.305-8.287 9.523V29.047h-31.98v10.207h5.026c3.463 0 5.762.529 6.902 1.592 1.135 1.058 1.693 3.535 1.693 7.45v35.823c0 3.891-.553 6.392-1.693 7.479-1.135 1.087-3.439 1.635-6.902 1.616-11.063-.058-15.944-.144-27.219-.188-4.132-.149-7.205-.726-8.831-2.838-1.746-2.27-1.89-5.368-1.89-14.655V38.705h20.028v-10.51h-19.739V.001h-9.701c-.6 9.273-2.23 16.329-5.73 20.542-5.315 6.392-12.015 6.392-20.773 6.392-3.939 0-7.503 1.063-10.664 3.184-3.16 2.121-5.911 5.31-8.287 9.528V28.855h-34.617v10.207h6.945c3.559 0 5.911.529 7.075 1.616 1.164 1.087 1.741 3.564 1.741 7.426v21.221c0 7.604-1.669 13.568-5.031 17.911-3.352 4.343-7.883 6.517-13.611 6.517-3.939 0-6.796-1.14-8.537-3.41-1.741-2.275-2.631-6.036-2.631-11.318V28.854H54.852c-5.661 0-10.486 1.111-14.453 3.357-3.963 2.251-7.373 5.786-10.178 10.611V1.467H.001v10.135h3.184c3.511 0 5.834.529 6.969 1.616 1.14 1.087 1.698 3.588 1.698 7.503v83.166h10.005l6.065-9.98c3.559 4.04 7.503 7.046 11.847 8.97 4.348 1.919 9.225 2.881 14.655 2.881 9.47 0 16.973-3.487 22.553-10.438 5.589-6.945 8.364-16.367 8.364-28.19 0-11.852-2.727-21.196-8.21-28.017l-.043-.048h7.643c3.487 0 5.839.529 7.022 1.616 1.188 1.087 1.765 3.564 1.765 7.426V79.03c0 9.528 1.789 16.329 5.358 20.36 3.578 4.05 9.475 6.065 17.656 6.065 4.348 0 8.614-1.265 12.833-3.766 4.223-2.525 8.292-6.214 12.179-11.116v12.583h35.073V93.02h-7.551c-3.463 0-5.757-.534-6.921-1.616-1.164-1.087-1.741-3.588-1.741-7.479v-21.98c0-7.907 1.659-14.376 5.026-19.45 3.352-5.055 7.556-7.58 12.607-7.58.885 0 1.847.125 2.905.404 1.063.279 2.169.659 3.309 1.135-3.006.861-5.305 2.15-6.873 3.891-1.592 1.77-2.371 3.891-2.371 6.421 0 2.751.957 5.026 2.881 6.767 1.919 1.746 4.449 2.626 7.551 2.626 3.641 0 6.594-1.188 8.864-3.588a11.864 11.864 0 0 0 2.669-4.411v29.98c0 8.691 1.491 15.03 4.473 19.022 2.977 3.992 7.749 5.993 14.318 5.988 26.872-.019 53.74 0 80.612 0v-9.937h-7.551c-3.463 0-5.762-.529-6.926-1.616-1.164-1.087-1.746-3.588-1.746-7.479h.01zM64.71 67.553c0 8.59-1.414 15.006-4.247 19.248-2.852 4.242-7.171 6.368-12.987 6.368-5.329 0-9.543-2.275-12.626-6.82-3.088-4.526-4.627-10.789-4.627-18.796 0-7.984 1.539-14.246 4.598-18.719 3.059-4.497 7.277-6.748 12.655-6.748 5.815 0 10.135 2.097 12.987 6.291 2.833 4.194 4.247 10.587 4.247 19.176z"/></svg>