<svg xmlns="http://www.w3.org/2000/svg" width="599.984" height="105.94" viewBox="0.001 0.001 599.984 105.94" enable-background="new 0.001 0.001 599.984 105.94"><linearGradient id="a" gradientUnits="userSpaceOnUse" x1="299.993" y1=".001" x2="299.993" y2="105.941"><stop offset="0" stop-color="#808080"/><stop offset="1" stop-color="#666"/></linearGradient><path fill="url(#a)" d="M514.683 90.953c2.25-1.125 4.45-2.727 6.618-4.77l21.1-19.543-17.92-19.667c-2.452-2.804-4.722-4.77-6.795-5.873-2.073-1.1-4.343-1.65-6.82-1.65h-3.03V28.855h43.826V39.45h-3.332c-1.29 0-2.323.183-3.083.577-.755.394-1.135.92-1.135 1.573 0 .707.53 1.703 1.616 2.915.303.366.53.625.683.784l8.565 9.835 9.273-8.76c1.236-1.235 2.092-2.178 2.573-2.86.506-.655.76-1.26.76-1.757 0-.76-.432-1.337-1.27-1.732-.83-.394-2.067-.577-3.707-.577h-3.184V28.853h38.353V39.45h-3.184c-2.175 0-4.32.548-6.47 1.68-2.145 1.124-4.848 3.25-8.11 6.32l-16.645 15.895 19.37 20.927c2.678 2.91 5.107 5.036 7.324 6.373 2.226 1.337 4.472 1.996 6.742 1.996h3.184v10.517h-45.028V92.64h3.184c1.79 0 3.18-.206 4.218-.605 1.034-.418 1.563-.972 1.563-1.626 0-.525-.173-1.102-.558-1.733-.375-.63-.91-1.313-1.587-2.044l-10.89-11.668-12.58 11.828c-1.087 1.02-1.818 1.808-2.174 2.31-.375.523-.553.942-.553 1.307 0 .6.38 1.125 1.19 1.573.783.447 1.793.654 3.03.654h5.91v10.52H424.805V93.02h3.03c3.468 0 5.757-.534 6.926-1.616 1.165-1.087 1.742-3.588 1.742-7.48V52.98c0-5.28-.885-9.042-2.626-11.323-1.746-2.27-4.622-3.41-8.614-3.41-5.714 0-10.23 2.174-13.54 6.522-3.313 4.342-4.948 10.302-4.948 17.91v21.245c0 3.89.577 6.392 1.74 7.48 1.16 1.086 3.464 1.615 6.922 1.615h3.03v10.125h-43.678V93.02h5.026c3.463 0 5.757-.534 6.897-1.616 1.136-1.087 1.694-3.588 1.694-7.48V48.103c0-3.915-.553-6.392-1.693-7.455-1.134-1.063-3.438-1.587-6.896-1.587h-5.026V28.854h31.98v12.583c3.94-4.925 8-8.648 12.174-11.116 4.165-2.462 8.388-3.688 12.684-3.688 8.234 0 14.164 2.03 17.757 6.065 3.607 4.05 5.41 10.813 5.41 20.287V83.93c0 3.89.578 6.392 1.737 7.48 2.69 2.505 19.36 2.313 21.83 0 1.165-1.088 1.747-3.59 1.747-7.48V48.108c0-3.915-.582-6.392-1.746-7.455-1.158-1.063-3.457-1.587-6.92-1.587h-5.608v-10.21h32.77v55.07c0 3.84.58 6.316 1.745 7.427 2.915 2.785 11.236 1.154 14.323-.4h.013zm-234.52-6.835v-19.55c0-7.908 1.663-17.11 5.025-22.183 3.352-5.055 6.92-7.58 12.607-7.58 5.685 0 7.797 2.16 8.87 3.853-8.77 7.773-12.016 17.358-12.016 28.936 0 11.544 3.664 20.84 11.02 27.84 7.344 6.997 17.12 10.51 29.33 10.51 12.23 0 22.028-3.512 29.4-10.51 7.38-7 11.07-16.296 11.07-27.84 0-11.597-3.69-20.917-11.07-27.964-7.372-7.05-17.17-10.587-29.4-10.587-6.5 0-12.483.996-17.604 2.987 3.324 3.064 5.017 8.783 4.925 12.31 3.21-3.325 7.105-4.48 12.68-4.48 6.593 0 11.572 2.3 14.88 6.922 3.31 4.598 4.95 11.544 4.95 20.816 0 9.196-1.646 16.064-4.95 20.663-3.31 4.575-8.287 6.874-14.88 6.874-6.62 0-11.57-2.275-14.83-6.844-3.26-4.574-4.876-11.443-4.876-20.69 0-6.19.837-11.41 2.89-17.205 1.175-3.3 3.4-11.717-5.804-19.022-3.574-2.833-7.835-4.545-13.266-4.545-3.94 0-7.508 1.058-10.664 3.184-3.155 2.12-5.91 5.305-8.287 9.523V29.047h-31.98v10.207h5.026c3.462 0 5.76.53 6.9 1.592 1.136 1.058 1.694 3.535 1.694 7.45V84.12c0 3.89-.553 6.39-1.693 7.478-1.134 1.087-3.438 1.635-6.9 1.616-11.064-.058-15.945-.144-27.22-.188-4.132-.15-7.205-.726-8.83-2.838-1.747-2.27-1.89-5.368-1.89-14.655V38.705h20.027v-10.51h-19.74V0h-9.7c-.6 9.274-2.23 16.33-5.73 20.543-5.315 6.392-12.015 6.392-20.773 6.392-3.94 0-7.503 1.063-10.664 3.184-3.16 2.12-5.91 5.31-8.287 9.527V28.855h-34.617v10.207h6.945c3.56 0 5.912.53 7.076 1.616 1.164 1.087 1.74 3.564 1.74 7.426v21.22c0 7.605-1.668 13.57-5.03 17.912-3.352 4.343-7.883 6.517-13.61 6.517-3.94 0-6.797-1.14-8.538-3.41-1.74-2.275-2.63-6.036-2.63-11.318v-50.17H54.85c-5.66 0-10.486 1.11-14.453 3.356-3.964 2.252-7.374 5.787-10.18 10.612V1.467H0v10.135h3.185c3.51 0 5.834.53 6.97 1.616 1.14 1.087 1.697 3.588 1.697 7.503v83.167h10.005l6.065-9.98c3.56 4.04 7.503 7.046 11.847 8.97 4.347 1.92 9.224 2.88 14.654 2.88 9.47 0 16.973-3.486 22.553-10.437 5.59-6.945 8.364-16.367 8.364-28.19 0-11.852-2.726-21.196-8.21-28.017l-.042-.048h7.643c3.488 0 5.84.53 7.023 1.616 1.188 1.088 1.765 3.565 1.765 7.427V79.03c0 9.528 1.79 16.33 5.358 20.36 3.578 4.05 9.475 6.065 17.656 6.065 4.348 0 8.614-1.265 12.833-3.766 4.223-2.526 8.292-6.215 12.18-11.117v12.583h35.072V93.02h-7.55c-3.464 0-5.758-.534-6.922-1.616-1.164-1.087-1.74-3.588-1.74-7.48v-21.98c0-7.906 1.658-14.375 5.025-19.45 3.352-5.054 7.556-7.58 12.607-7.58.885 0 1.847.126 2.905.405 1.063.278 2.17.658 3.31 1.134-3.007.86-5.306 2.15-6.874 3.89-1.592 1.77-2.37 3.892-2.37 6.422 0 2.75.956 5.026 2.88 6.767 1.92 1.746 4.45 2.626 7.55 2.626 3.642 0 6.595-1.19 8.865-3.59 1.212-1.274 2.102-2.74 2.67-4.41v29.98c0 8.69 1.49 15.03 4.472 19.022 2.977 3.992 7.75 5.993 14.318 5.988 26.872-.02 53.74 0 80.612 0v-9.937h-7.55c-3.464 0-5.763-.53-6.927-1.616-1.164-1.087-1.746-3.588-1.746-7.48h.01zM64.71 67.553c0 8.59-1.414 15.006-4.247 19.248-2.852 4.243-7.17 6.37-12.987 6.37-5.33 0-9.543-2.276-12.626-6.82-3.088-4.527-4.627-10.79-4.627-18.797 0-7.984 1.54-14.246 4.598-18.72 3.06-4.496 7.278-6.747 12.656-6.747 5.815 0 10.135 2.097 12.987 6.29 2.833 4.195 4.247 10.588 4.247 19.177z"/></svg>