<svg xmlns="http://www.w3.org/2000/svg" height="117.16" viewBox="20.207 341.454 559.482 117.164" width="559.48"><path d="M119.66 363.9c-20.382 0-36.133 15.465-36.133 35.634 0 2.21.214 4.42.5 6.485-3.493 10.832-8.41 16.462-17.248 19.67-14.54 5.273-30.218-1.996-35.42-16.32-5.275-14.54 1.78-30.005 16.248-35.278 9.55-3.492 19.17-1.782 27.224 4.917l9.835-3.564c-9.906-11.118-25.3-14.752-39.91-9.48-19.385 7.056-29.22 27.51-22.378 46.325 6.983 19.314 27.793 28.508 47.677 21.24 8.053-2.923 14.325-7.627 18.53-14.682 6.272 10.548 17.746 17.175 31.785 17.175 20.17 0 34.992-15.25 34.992-35.847 0-21.02-15.11-36.27-35.7-36.27zm.5 63.57c-13.826 0-24.16-8.766-26.654-21.665-.214-1.283-.428-2.566-.5-3.848-.07-.713-.07-1.425-.07-2.138 0-15.61 11.474-27.296 26.725-27.296 15.11 0 26.3 11.83 26.3 27.794 0 15.76-10.84 27.16-25.8 27.16z" fill="#FFD108"/><path d="M223.35 434.46v-12.472c-6.913 9.977-14.752 14.11-26.155 14.11-21.31 0-37.487-15.607-37.487-35.99 0-20.524 15.893-36.132 36.63-36.132 10.834 0 20.24 4.42 27.083 12.614v-35.135h9.337v93.004h-9.41zm-27.29-62c-14.966 0-26.94 12.115-26.94 27.224 0 15.75 12.116 27.794 27.795 27.794 14.752 0 26.797-12.614 26.797-27.723s-12.4-27.29-27.65-27.29zm104.47 62v-12.115c-7.27 9.835-14.824 13.755-26.583 13.755-21.166 0-36.916-15.394-36.916-35.847 0-20.668 15.61-36.275 36.276-36.275 11.973 0 20.382 4.276 27.224 13.826v-12.187h9.336v68.844h-9.33zm-26.93-62c-14.966 0-27.082 12.115-27.082 27.082 0 15.75 11.973 27.937 27.58 27.937 14.824 0 26.44-12.188 26.44-27.795 0-15.4-11.84-27.23-26.94-27.23zm78.18 63.64c-11.474 0-20.74-4.632-26.797-13.47v35.99h-9.336v-93.075h9.336v11.83c5.773-8.695 15.394-13.47 27.082-13.47 20.525 0 36.275 15.75 36.275 36.275-.08 20.17-16.04 35.92-36.56 35.92zm-.15-63.64c-15.25 0-27.295 11.973-27.295 27.224 0 15.893 11.688 27.794 27.438 27.794 15.394 0 27.082-11.83 27.082-27.295 0-15.89-11.69-27.72-27.23-27.72zm58.23 1.56v60.435h-9.336V374.02H385.7v-8.41h14.824v-24.16h9.336v24.16h15.465v8.41h-15.46zm19.88-16.03v-15.893h9.265v15.893h-9.26zm0 76.47v-68.844h9.265v68.844h-9.26zm52.6 0h-9.835l-28.935-68.844h9.407l24.16 57.94 24.658-57.94h9.407l-28.86 68.84zm35.13-31.36c.784 13.612 12.686 24.445 26.797 24.445 10.476 0 20.17-6.272 24.017-15.75h9.692c-4.42 13.113-17.888 24.302-33.496 24.302-20.382 0-36.418-15.964-36.418-36.418 0-20.027 15.75-35.777 35.776-35.777 20.382 0 35.847 14.752 35.847 39.126H517.47v.08zm26.3-30.64c-13.113 0-23.518 8.908-26.084 22.164h52.738c-3.07-13.68-13.33-22.16-26.66-22.16z" fill="#333"/><path d="M339.38 457.9c-3.492 0-6.13-2.637-6.13-6.058 0-3.492 2.567-6.13 6.06-6.13 2.422 0 4.49 1.213 5.415 3.28h-1.354c-.997-1.57-2.35-2.21-4.06-2.21-2.78 0-4.918 2.138-4.918 4.99a4.959 4.959 0 0 0 4.99 4.988c1.71 0 2.85-.64 4.06-2.21h1.284c-1.15 2.21-3 3.35-5.35 3.35zm6.62-.21v-11.76h1.14v10.69h4.846v1.07h-5.99zm11.62.21c-3.42 0-6.2-2.708-6.2-6.13 0-3.277 2.85-5.985 6.2-5.985 3.42 0 6.2 2.708 6.2 6.058 0 3.28-2.85 6.06-6.2 6.06zm0-11.11c-2.708 0-4.99 2.28-4.99 4.99 0 2.778 2.282 5.06 4.99 5.06s4.99-2.282 4.99-4.99c0-2.78-2.28-5.06-4.99-5.06zm11.4 11.11c-2.352 0-3.99-1.425-3.99-4.632v-7.34h1.14v7.34c0 2.423.997 3.563 2.85 3.563 1.782 0 2.78-1.14 2.78-3.562v-7.34h1.14v7.34c.14 3.14-1.49 4.63-3.92 4.63zm8.98-.21h-3.136v-11.76h2.78c2.137 0 3.35.286 4.49.927 1.78.998 2.636 2.78 2.636 4.99 0 3.35-2.21 5.84-6.77 5.84zm3.42-9.91c-.855-.57-1.995-.784-3.777-.784h-1.64v9.62h1.64c2.067 0 3.278-.284 4.205-1.068 1.07-.855 1.71-2.21 1.71-3.777.01-1.71-.77-3.2-2.13-3.99zm19.39 9.91v-10.476l-4.42 10.476h-.997l-4.42-10.476v10.476h-1.14v-11.76h1.854l4.276 9.978 4.276-9.977h1.852v11.76h-1.28zm12.04 0l-1.71-3.99h-5.488l-1.71 3.99h-1.212l5.06-11.76h1.354l5.06 11.76h-1.35zm-4.42-10.4l-2.28 5.416h4.56l-2.28-5.42zm14.61 10.4l-6.984-10.334v10.334h-1.212v-11.76h1.568l6.557 9.765v-9.764h1.21v11.76h-1.15zm12.05 0l-1.71-3.99h-5.488l-1.71 3.99h-1.212l5.06-11.76h1.354l5.06 11.76h-1.35zm-4.42-10.4l-2.28 5.416h4.56l-2.28-5.42zm11.69 10.61c-3.563 0-6.414-2.637-6.414-6.13 0-3.42 2.708-6.057 6.2-6.057 2.566 0 4.775 1.354 5.56 3.35h-1.355c-.783-1.425-2.35-2.28-4.132-2.28-2.922 0-5.13 2.208-5.13 4.988 0 2.78 2.28 4.99 5.13 4.99 2.352 0 4.347-1.64 4.775-3.492h-6.557v-.998h7.982c-.15 2.93-2.64 5.63-6.06 5.63zm7.34-.21v-11.76h6.414V447h-5.274v4.205h5.06v1.07h-5.06v4.346h5.274v1.07h-6.41zm18.88 0v-10.476l-4.42 10.476h-.997l-4.42-10.476v10.476h-1.21v-11.76h1.852l4.276 9.978 4.277-9.977h1.853v11.76h-1.21zm2.92 0v-11.76h6.414V447h-5.274v4.205h5.06v1.07h-5.06v4.346h5.274v1.07h-6.41zm16.04 0l-6.984-10.334v10.334h-1.14v-11.76h1.568l6.557 9.765v-9.764h1.14v11.76h-1.15zm5.77-10.69v10.69h-1.14V447h-2.708v-1.07h6.557V447h-2.71zm16.75 10.9l-2.708-2.637c-.926 1.853-1.995 2.637-3.563 2.637-2.14 0-3.707-1.64-3.707-3.563 0-1.568.855-2.566 2.708-3.492-.997-.998-1.282-1.64-1.282-2.494 0-1.496 1.212-2.636 2.78-2.636 1.638 0 2.85 1.14 2.85 2.708 0 1.283-.5 1.853-2.28 2.708l2.208 2.21 1.71-3.28h1.283l-2.14 4.135 2.994 2.922-.85.78zm-6.41-6.27c-1.71.855-2.352 1.64-2.352 2.78 0 1.353 1.07 2.422 2.494 2.422 1.14 0 1.924-.64 2.78-2.423l-2.92-2.78zm.64-4.84c-.926 0-1.64.64-1.64 1.497 0 .57.357 1.14 1.284 1.995 1.425-.57 2.067-1.14 2.067-1.995 0-.85-.71-1.49-1.71-1.49zm14.11 11.11c-2.138 0-3.563-1.354-3.635-3.492h1.283c.143 1.568 1.14 2.423 2.423 2.423 1.355 0 2.353-.997 2.353-2.35 0-1.284-.57-1.854-2.637-2.495-1.354-.428-1.71-.57-2.21-.998a3.037 3.037 0 0 1-.854-2.067c0-1.853 1.354-3.136 3.278-3.136s3.278 1.283 3.278 3.207h-1.212c0-1.282-.926-2.066-2.067-2.066-1.14 0-2.068.855-2.068 2.067 0 .57.214 1.07.57 1.355.285.285.64.428 1.71.713 1.212.356 1.71.57 2.21.926.712.57 1.14 1.497 1.14 2.494-.05 1.94-1.55 3.43-3.54 3.43zm4.42-.21v-11.76h6.414V447h-5.274v4.205h5.06v1.07h-5.06v4.346h5.274v1.07h-6.41zm13.54.21c-3.492 0-6.13-2.637-6.13-6.058 0-3.492 2.567-6.13 6.06-6.13 2.422 0 4.49 1.213 5.415 3.28h-1.354c-.997-1.57-2.35-2.21-4.06-2.21-2.78 0-4.918 2.138-4.918 4.99a4.959 4.959 0 0 0 4.99 4.988c1.71 0 2.85-.64 4.06-2.21h1.284c-1.15 2.21-2.93 3.35-5.35 3.35zm10.62 0c-2.352 0-3.99-1.425-3.99-4.632v-7.34h1.14v7.34c0 2.423.997 3.563 2.85 3.563 1.782 0 2.78-1.14 2.78-3.562v-7.34h1.14v7.34c.07 3.14-1.5 4.63-3.92 4.63zm10.26-4.63l3.278 4.42h-1.497l-3.99-5.346c3.278 0 4.42-.57 4.42-2.708 0-1.924-1.213-2.637-3.92-2.637h-1.64v10.69h-1.14v-11.76h2.922c3.706 0 5.06 1.354 5.06 3.777 0 2.08-1.21 3.36-3.49 3.57zm4.56 4.42v-11.76h1.14v11.76h-1.14zm5.7-10.69v10.69h-1.14V447h-2.708v-1.07h6.557V447h-2.71zm8.06 6.77v3.92h-1.14v-3.92l-4.062-7.84h1.283l3.35 6.558 3.422-6.557h1.283l-4.13 7.84z" fill="#414042"/></svg>