<svg xmlns="http://www.w3.org/2000/svg" height="227.48" viewBox="0 0 756.85 227.48" width="756.85"><path fill="#00ACE4" d="M552.64 137.71h202.18v16.823H552.64zM129.67 117.99V66.957c0-13.032-7.414-18.616-16.858-18.616-9.374 0-17.286 5.748-17.286 18.616v51.037h-16.86V34.312h16.523v8.447c5.785-6.285 13.831-9.444 22.312-9.444 8.544 0 15.623 2.793 20.613 7.581 6.417 6.284 8.377 14.194 8.377 23.606v53.496h-16.82zM196.93 117.99h-13.74l-30.61-83.682h17.78l19.78 58.881 19.66-58.881h17.82zM238.85 0h17.789v17.82H238.85V0zm.47 34.308h16.823v83.686H239.32V34.312zM300.33 118.96c-13.698 0-25.235-2.329-35.142-12.073l11.038-11.069c6.782 6.947 15.825 8.743 24.104 8.743 10.242 0 18.319-3.589 18.319-11.536 0-5.584-3.156-9.21-11.236-9.908l-13.332-1.165c-15.694-1.297-24.771-8.376-24.771-23.04 0-16.36 14.029-25.601 31.554-25.601 12.498 0 23.239 2.63 30.984 9.444l-10.573 10.671c-5.252-4.457-12.698-6.082-20.61-6.082-10.044 0-15.163 4.422-15.163 10.706 0 4.952 2.594 8.739 11.536 9.604l13.168 1.13c15.693 1.332 24.934 8.746 24.934 23.575 0 17.522-14.87 26.602-34.81 26.602M348.27 0h17.789v17.82h-17.79V0zm.46 34.308h16.826v83.686H348.73V34.312zM439.53 109.05c-5.451 5.621-13.664 9.911-25.102 9.911-11.369 0-19.449-4.29-24.904-9.911-7.912-8.244-9.841-18.783-9.841-33.015 0-13.995 1.929-24.568 9.841-32.812 5.455-5.587 13.535-9.911 24.904-9.911 11.438 0 19.651 4.324 25.102 9.911 7.912 8.244 9.876 18.817 9.876 32.812 0 14.231-1.96 24.765-9.88 33.015m-12.73-55.924c-3.093-3.16-7.414-4.785-12.369-4.785-4.952 0-9.074 1.625-12.168 4.785-5.119 5.119-5.785 13.831-5.785 22.908 0 9.113.666 17.852 5.785 22.943 3.094 3.125 7.216 4.952 12.168 4.952 4.955 0 9.276-1.827 12.369-4.952 5.154-5.091 5.786-13.83 5.786-22.943 0-9.078-.63-17.79-5.79-22.909M516.77 117.99V66.957c0-13.032-7.414-18.616-16.823-18.616s-17.321 5.748-17.321 18.616v51.037h-16.83V34.312h16.492v8.447c5.751-6.285 13.862-9.444 22.277-9.444 8.576 0 15.693 2.793 20.614 7.581 6.417 6.284 8.411 14.194 8.411 23.606v53.496h-16.82z"/><path d="M654.62 117.99V66.957c0-13.032-7.414-18.616-16.858-18.616-9.077 0-17.321 5.748-17.321 17.82v51.833h-16.824V66.961c0-13.032-7.413-18.616-16.822-18.616s-17.322 5.748-17.322 18.616v51.037h-16.826V34.316h16.46v8.447c5.649-6.117 13.897-9.444 22.34-9.444 10.375 0 18.42 4.122 23.742 12.202 6.747-8.248 15.159-12.202 26.196-12.202 8.614 0 16.192 2.793 21.113 7.581 6.483 6.284 8.945 14.194 8.945 23.606v53.496h-16.82zM702.59 80.99c0 14.395 7.613 23.438 21.279 23.438 9.409 0 14.33-2.626 20.279-8.61l10.741 10.106c-8.578 8.579-16.69 13.036-31.354 13.036-20.945 0-37.601-11.076-37.601-42.926 0-27.065 14.03-42.723 35.474-42.723 22.444 0 35.441 16.523 35.441 40.264v7.415h-54.26zm35.31-23.076c-2.626-6.281-8.544-10.57-16.491-10.57-7.945 0-14.03 4.289-16.691 10.57-1.66 3.756-1.96 6.284-2.127 11.337h37.635c-.19-5.053-.69-7.581-2.32-11.337" fill="#97CB59"/><path d="M38.765 33.311c10.375 0 17.325 2.493 22.445 7.581 4.289 4.457 6.581 10.874 6.581 18.019 0 13.998-9.772 24.073-28.858 24.073h-22.11v5.915c0 10.608 5.252 15.662 18.319 15.662 9.21 0 13.667-2.096 18.288-8.081l11.037 10.406c-7.878 9.277-16.157 12.074-29.988 12.074C11.536 118.97 0 109.23 0 90.276V60.383C0 41.3 13.499 33.321 38.765 33.321M16.823 71.256h19.616c9.908 0 15.027-4.457 15.027-12.035s-4.788-11.867-15.358-11.867c-6.451 0-11.205.495-15.693 4.784-2.462 2.462-3.592 6.417-3.592 12.37v6.748z" fill="#00ACE4"/><path d="M637.71 176.14c-3.248 3.195-5.315 7.5-5.315 12.407 0 4.967 2.031 9.57 5.337 12.936-3.328 3.17-7.177 3.999-11.695 3.999-4.895 0-6.02-1.183-6.02-6.19v-23.346c0-.901-.055-2.644.618-3.32.845-.844 3.657-.956 4.838-.956 4.94 0 9.17 1.62 12.23 4.47m5.15 12.8c0 3.305-.927 6.672-2.682 9.504-1.871-3.007-2.774-6.39-2.774-9.954 0-3.531.829-6.994 2.473-9.839 1.9 2.77 2.98 6.25 2.98 10.29m-38.92 2.93h-11.282l11.282-14.309v14.31zm58.83-13.45l-.394-3.659c-.168-1.574.057-2.305-1.574-2.869-2.42-.843-6.359-1.518-8.89-1.518a20.504 20.504 0 0 0-11.888 3.808c-4.04-2.708-8.764-3.808-13.597-3.808-2.252 0-16.147.675-16.147 2.701 0 .336.224.619.618.619.564 0 1.632-.619 2.814-.619 2.194 0 1.856 2.306 1.856 3.994v23.234c0 3.601.282 4.838-3.657 4.838-.223 0-.498-.016-.75.009a7.794 7.794 0 0 0-.387-.009c-2.635 0-2.396-3.263-2.41-5.457l.035-28.241c.022-.338.093-1.069-.357-1.069-.62 0-1.107.788-1.457 1.237l-22.233 28.187c-.827 1.068-2.883 3.656-3.933 4.443-1.048.788-2.163.9-3.175.9-.507 0-1.576 0-1.894.788-.386.956 1.212.62 1.775.62 1.576 0 3.242-.226 4.817-.226 1.574 0 3.059.226 4.635.226.562 0 1.351 0 1.623-.677.317-.786-.662-.731-1.167-.731-1.295 0-3.76-.192-2.953-2.024.373-.847 1.287-2.049 1.988-2.948l5.223-6.591h12.649l-.012 8.899c.012 2.43-2.038 2.664-3.499 2.664-.564 0-1.632 0-1.972.845-.205.506.334.563.672.563 2.082 0 2.504-.226 4.529-.226 2.476 0 4.859.226 7.335.226.071 0 .163-.005.263-.019.05.006.097.019.149.019 1.182 0 2.307-.226 3.545-.226 4.05 0 8.213.226 12.377.226 4.628 0 8.889-.696 12.651-3.135 3.027 2.233 6.748 3.584 10.809 3.584 3.713 0 6.865-.788 10.183-2.364 1.744-.842 1.687-.955 1.8-2.699l.282-4.556c.057-.394-.17-.732-.619-.732-1.52 0-2.195 8.833-10.916 8.833-3.682 0-6.666-1.582-9.041-4.059 3.492-3.355 5.498-8.062 5.498-12.988 0-4.882-2.304-9.482-5.903-12.691 2.297-2.324 5.436-3.792 9.446-3.792 8.721 0 9.172 7.2 10.634 7.2.45.02.61-.26.61-.71m34.09 10.24c0 4.219-.845 7.989-3.488 11.364-2.7 3.319-6.526 5.401-10.857 5.401-4.276 0-8.214-1.744-10.914-5.006-2.757-3.265-3.771-7.54-3.771-11.759 0-4.051.957-8.27 3.545-11.477 2.7-3.431 6.751-5.289 11.14-5.289 4.219 0 7.931 1.914 10.632 5.12 2.81 3.45 3.71 7.33 3.71 11.66m5.12 0c0-10.859-8.889-18.284-19.578-18.284-10.125 0-19.634 8.046-19.634 18.284 0 10.24 9.509 18.34 19.634 18.34 10.69 0 19.58-7.48 19.58-18.34m48.14-7.54c0 4.501-3.321 8.439-7.99 8.439-1.293 0-3.374-.45-4.498-1.125-1.182-.675-.901-1.744-.901-2.981v-8.326c0-3.489.168-4.84 4.051-4.84 2.307 0 4.668.395 6.412 1.969 1.97 1.69 2.93 4.33 2.93 6.86m-38.53 6.92c-.956 0-2.87.394-2.87-1.013v-10.07c0-3.938.114-4.5 4.389-4.5 5.007 0 8.102 2.812 8.102 7.988 0 2.251-.731 4.333-2.59 5.739-2.14 1.63-4.44 1.85-7.03 1.85m43.2-7.14c0-2.981-1.63-6.018-4.106-7.707-2.251-1.576-4.837-1.913-7.537-1.913-2.984 0-5.909.225-8.947.225-2.024 0-3.939-.225-5.962-.225-.563 0-.958.169-.958.789 0 .73.901.73 1.407.73 3.937 0 3.601 1.068 3.601 4.614v23.065c0 3.327.247 4.522-2.979 4.656-2.38-.072-3.219-2.159-4.215-4.094l-4.556-8.775c-.788-1.463-1.631-3.433-3.433-3.714 4.669-.618 8.89-3.6 8.89-8.72 0-5.907-5.288-8.551-10.632-8.551-3.207 0-6.359.225-9.622.225-1.801 0-3.713-.225-5.513-.225-.62 0-1.012.225-1.012.844 0 .675.899.675 1.405.675 3.939 0 3.658 1.068 3.658 4.669v23.01c0 3.545.281 4.669-3.658 4.669-.506 0-1.405-.055-1.405.676 0 .619.449.732.957.732 2.138 0 4.274-.226 6.412-.226s4.162.226 6.302.226c.506 0 .955-.113.955-.732 0-.731-.955-.676-1.461-.676-3.883-.055-3.658-1.068-3.658-4.669v-8.663c0-.506-.055-1.857.281-2.251.282-.338.789-.281 1.238-.281 4.277 0 4.219.449 6.245 4.388l5.514 10.969c.45.846.787 1.915 1.911 1.915h5.964c.18 0 .371-.02.544-.067 1.391-.066 2.783-.159 4.175-.159 2.138 0 4.163.226 6.299.226.508 0 .959-.113.959-.732 0-.731-.959-.676-1.462-.676-3.884-.055-3.658-1.068-3.658-4.669v-9.282c0-.732-.113-1.575.901-1.575.449 0 .843.169 1.237.281l2.7.9c.899.281 1.293.394 2.305.394 5.81-.02 10.93-4.29 10.93-10.31"/><path fill="#D5D7D8" d="M558.31 170.42l29.51.06-23.3 35.81-11.91-7.01z"/><path d="M562.6 173.43a1.663 1.663 0 1 1 1.664 1.663c-.91 0-1.66-.74-1.66-1.66M554.24 176.36c.794.018 1.295.104 2.025.211 6.328.926 10.365 6.223 10.365 12.543 0 2.992-.829 5.814-2.569 8.258-1.908 2.653-4.602 4.038-7.841 4.227-.73.043-1.203.105-1.971.068v.838c1.026.037 1.75-.081 2.631-.128 7.501-.391 13.441-5.763 13.441-13.222 0-4.611-2.234-8.429-5.732-10.833-2.414-1.661-5.449-2.707-8.611-2.876-.681-.036-1.06-.07-1.738-.065v.98z" fill="#6A9EA4"/><path d="M574.86 176.74a8.986 8.986 0 0 0-1.97-.196c-6.892 0-10.297 5.983-10.297 12.214 0 2.951.82 5.735 2.543 8.144 1.887 2.619 4.431 4.405 7.754 4.405.826 0 1.202.098 1.97.051l-.001.831c-.962.186-1.694.242-2.502.242-7.468 0-13.415-6.276-13.415-13.631 0-7.687 6.728-13.42 14.236-13.42.499 0 1.03.024 1.682.102v1.27z"/><path d="M753.25 227.34v-.997h-2.586v-6.451h-1.087v7.448h3.68zm-12.59-3.19l.956-2.848h.021l.945 2.848h-1.92zm4.28 3.19l-2.828-7.448h-.977l-2.828 7.448h1.147l.826-2.194h2.677l.825 2.194h1.16zm-11.24-7.45h-1.087v7.448h1.087v-7.45zm-7.07 7.45v-6.452h1.428v-.996h-3.945v.996h1.43v6.452h1.08zm-7.07 0v-7.448h-1.087v5.666h-.02l-3.624-5.666h-1.187v7.448h1.087v-5.757h.02l3.684 5.757h1.13zm-10.96 0v-.997h-2.929v-2.265h2.929v-.996h-2.929v-2.194h2.929v-.996h-4.016v7.448h4.02zm-9.9 0v-6.452h1.429v-.996h-3.944v.996h1.428v6.452h1.08zm-7.63-3.7c0 1.168-.866 2.838-2.788 2.838-1.912 0-2.788-1.65-2.788-2.868 0-1.188.865-2.869 2.788-2.869 1.85.01 2.79 1.59 2.79 2.9m1.09 0c0-2.123-1.66-3.885-3.874-3.885-2.275 0-3.875 1.842-3.875 3.865 0 2.043 1.651 3.865 3.875 3.865 2.2 0 3.86-1.81 3.86-3.84m-15.74-2.75h1.067c1.237 0 1.539.705 1.539 1.259 0 .553-.302 1.258-1.539 1.258h-1.067v-2.52zm0 3.51h1.067c1.781 0 2.626-.926 2.626-2.254 0-1.329-.845-2.255-2.626-2.255h-2.154v7.448h1.087v-2.95zm-15.09 2.94v-3.221h2.677v-.996h-2.677v-2.235h2.677v-.996h-3.764v7.448h1.08zm-6.94-3.7c0 1.168-.865 2.838-2.788 2.838-1.912 0-2.788-1.65-2.788-2.868 0-1.188.867-2.869 2.788-2.869 1.86.01 2.79 1.59 2.79 2.9m1.09 0c0-2.123-1.661-3.885-3.876-3.885-2.274 0-3.874 1.842-3.874 3.865 0 2.043 1.65 3.865 3.874 3.865 2.22 0 3.88-1.81 3.88-3.84m-22.6-2.75h1.147c1.228 0 1.651.765 1.651 1.389 0 1.439-1.611 1.46-2.054 1.46h-.744v-2.85zm3.83 6.45l-2.083-2.778c.483 0 2.134-.312 2.134-2.285 0-.624-.212-1.308-.685-1.761-.392-.372-.936-.624-1.983-.624h-2.304v7.448h1.087V223.9h.02l2.456 3.452h1.34zm-9.86 0v-.997h-2.929v-2.265h2.929v-.996h-2.929V220.9h2.929v-.996h-4.016v7.448h4.02zm-10.64 0l2.083-7.448h-1.107l-1.449 5.566h-.02l-1.419-5.566h-.796l-1.439 5.606h-.02l-1.419-5.606h-1.127l2.083 7.448h.956l1.349-5.204h.02l1.349 5.204h.97zm-11.87-3.7c0 1.168-.866 2.838-2.788 2.838-1.913 0-2.788-1.65-2.788-2.868 0-1.188.865-2.869 2.788-2.869 1.85.01 2.79 1.59 2.79 2.9m1.09 0c0-2.123-1.66-3.885-3.874-3.885-2.275 0-3.875 1.842-3.875 3.865 0 2.043 1.651 3.865 3.875 3.865 2.21 0 3.87-1.81 3.87-3.84m-15.74-2.75h1.067c1.238 0 1.539.705 1.539 1.259 0 .553-.301 1.258-1.539 1.258h-1.067v-2.52zm0 3.51h1.067c1.781 0 2.626-.926 2.626-2.254 0-1.329-.845-2.255-2.626-2.255h-2.154v7.448h1.087v-2.95zm-12.54 2.94v-.997h-2.929v-2.265h2.929v-.996h-2.929v-2.194h2.929v-.996h-4.016v7.448h4.02zm-9.14 0v-7.448h-1.087v3.211h-3.07v-3.211h-1.087v7.448h1.087v-3.241h3.07v3.241h1.09zm-11.23 0v-6.452h1.429v-.996h-3.945v.996h1.429v6.452h1.09zM566.62 189.11c0 2.992-.829 5.814-2.569 8.258-1.909 2.653-4.603 4.037-7.841 4.226-.73.044-1.203.106-1.972.069v.838c1.027.037 1.75-.082 2.631-.128 7.502-.392 13.441-5.764 13.441-13.222" fill="#6A9EA4"/></svg>