<svg xmlns="http://www.w3.org/2000/svg" height="227.48" viewBox="0 0 756.85 227.48" width="756.85"><path fill="#00ACE4" d="M552.64 137.71h202.18v16.823H552.64zM129.67 117.99V66.957c0-13.032-7.414-18.616-16.858-18.616-9.374 0-17.286 5.75-17.286 18.617v51.037h-16.86V34.312H95.19v8.447c5.784-6.286 13.83-9.445 22.31-9.445 8.545 0 15.624 2.793 20.614 7.58 6.417 6.285 8.377 14.195 8.377 23.607v53.496h-16.82zM196.93 117.99h-13.74l-30.61-83.682h17.78l19.78 58.88 19.66-58.88h17.82zM238.85 0h17.79v17.82h-17.79V0zm.47 34.308h16.823v83.686H239.32V34.312zM300.33 118.96c-13.698 0-25.235-2.33-35.142-12.073l11.038-11.07c6.782 6.948 15.825 8.744 24.104 8.744 10.242 0 18.32-3.588 18.32-11.535 0-5.584-3.157-9.21-11.237-9.908l-13.332-1.165c-15.693-1.297-24.77-8.376-24.77-23.04 0-16.36 14.03-25.6 31.554-25.6 12.498 0 23.24 2.63 30.984 9.443l-10.573 10.67c-5.252-4.456-12.698-6.08-20.61-6.08-10.044 0-15.163 4.42-15.163 10.705 0 4.952 2.594 8.74 11.536 9.604l13.168 1.13C325.9 70.116 335.14 77.53 335.14 92.36c0 17.52-14.87 26.6-34.81 26.6"/><path d="M348.27 0h17.79v17.82h-17.79V0zm.46 34.308h16.826v83.686H348.73V34.312zM439.53 109.05c-5.45 5.62-13.664 9.91-25.102 9.91-11.37 0-19.45-4.29-24.904-9.91-7.912-8.244-9.84-18.783-9.84-33.015 0-13.995 1.928-24.568 9.84-32.812 5.455-5.587 13.535-9.91 24.904-9.91 11.438 0 19.65 4.323 25.102 9.91 7.912 8.244 9.876 18.817 9.876 32.812 0 14.23-1.96 24.765-9.88 33.015m-12.73-55.924c-3.093-3.16-7.414-4.785-12.37-4.785-4.95 0-9.073 1.626-12.167 4.786-5.12 5.12-5.786 13.83-5.786 22.908 0 9.113.666 17.852 5.785 22.943 3.093 3.125 7.215 4.952 12.167 4.952 4.955 0 9.276-1.828 12.37-4.953 5.153-5.09 5.785-13.83 5.785-22.943 0-9.078-.63-17.79-5.79-22.91" fill="#00ACE4"/><path d="M516.77 117.99V66.957c0-13.032-7.414-18.616-16.823-18.616s-17.32 5.75-17.32 18.617v51.037h-16.83V34.312h16.49v8.447c5.752-6.286 13.863-9.445 22.278-9.445 8.576 0 15.693 2.793 20.614 7.58 6.416 6.285 8.41 14.195 8.41 23.607v53.496h-16.82z" fill="#00ACE4"/><path d="M654.62 117.99V66.957c0-13.032-7.414-18.616-16.858-18.616-9.077 0-17.32 5.75-17.32 17.82v51.834h-16.825V66.96c0-13.03-7.413-18.615-16.822-18.615s-17.322 5.748-17.322 18.616V118h-16.826V34.316h16.46v8.447c5.65-6.117 13.897-9.444 22.34-9.444 10.375 0 18.42 4.12 23.742 12.2 6.746-8.247 15.158-12.2 26.195-12.2 8.614 0 16.192 2.792 21.113 7.58 6.483 6.284 8.945 14.194 8.945 23.606v53.496h-16.82zM702.59 80.99c0 14.395 7.613 23.438 21.28 23.438 9.408 0 14.33-2.626 20.278-8.61l10.74 10.106c-8.577 8.58-16.69 13.036-31.353 13.036-20.945 0-37.6-11.076-37.6-42.926 0-27.065 14.03-42.723 35.473-42.723 22.444 0 35.44 16.524 35.44 40.265v7.415h-54.26zm35.31-23.076c-2.626-6.28-8.544-10.57-16.49-10.57-7.946 0-14.03 4.29-16.692 10.57-1.66 3.756-1.96 6.284-2.127 11.337h37.636c-.19-5.052-.69-7.58-2.32-11.336" fill="#97CB59"/><path d="M38.765 33.31c10.375 0 17.325 2.494 22.445 7.582 4.29 4.457 6.58 10.874 6.58 18.02 0 13.997-9.77 24.072-28.857 24.072h-22.11V88.9c0 10.607 5.252 15.66 18.32 15.66 9.21 0 13.666-2.095 18.287-8.08l11.037 10.406C56.59 116.163 48.31 118.96 34.48 118.96 11.535 118.97 0 109.23 0 90.276V60.383C0 41.3 13.5 33.32 38.765 33.32M16.823 71.257H36.44c9.907 0 15.026-4.457 15.026-12.035s-4.788-11.866-15.358-11.866c-6.45 0-11.205.495-15.693 4.784-2.462 2.462-3.592 6.417-3.592 12.37v6.748z" fill="#00ACE4"/><path d="M637.71 176.14c-3.248 3.195-5.315 7.5-5.315 12.407 0 4.967 2.03 9.57 5.337 12.936-3.328 3.17-7.177 4-11.695 4-4.895 0-6.02-1.184-6.02-6.19v-23.347c0-.9-.055-2.644.618-3.32.845-.844 3.657-.956 4.838-.956 4.94 0 9.17 1.62 12.23 4.47m5.15 12.8c0 3.305-.927 6.672-2.682 9.504-1.87-3.007-2.773-6.39-2.773-9.954 0-3.53.83-6.994 2.473-9.84 1.9 2.77 2.98 6.25 2.98 10.29m-38.92 2.93h-11.282l11.282-14.308v14.31zm58.83-13.45l-.394-3.658c-.168-1.574.057-2.305-1.574-2.87-2.42-.842-6.36-1.517-8.89-1.517-4.365 0-8.53 1.406-11.888 3.808-4.04-2.708-8.764-3.808-13.597-3.808-2.252 0-16.147.675-16.147 2.7 0 .337.224.62.618.62.564 0 1.632-.62 2.814-.62 2.194 0 1.856 2.307 1.856 3.995v23.234c0 3.6.282 4.838-3.657 4.838-.222 0-.497-.016-.75.01-.138-.008-.273-.01-.386-.01-2.635 0-2.396-3.263-2.41-5.457l.035-28.24c.02-.34.092-1.07-.358-1.07-.62 0-1.107.788-1.457 1.237L584.342 199.8c-.827 1.067-2.883 3.655-3.933 4.442-1.05.788-2.164.9-3.176.9-.507 0-1.576 0-1.894.788-.386.956 1.212.62 1.775.62 1.576 0 3.242-.226 4.817-.226 1.574 0 3.06.226 4.635.226.562 0 1.35 0 1.623-.677.317-.786-.662-.73-1.167-.73-1.295 0-3.76-.193-2.953-2.025.373-.847 1.287-2.05 1.988-2.948l5.223-6.59h12.65l-.012 8.898c.012 2.43-2.038 2.664-3.5 2.664-.563 0-1.63 0-1.97.845-.206.506.333.563.67.563 2.083 0 2.505-.226 4.53-.226 2.476 0 4.86.226 7.335.226.07 0 .163-.005.263-.02.05.007.097.02.15.02 1.18 0 2.306-.226 3.544-.226 4.05 0 8.213.226 12.377.226 4.628 0 8.89-.696 12.65-3.135 3.028 2.233 6.75 3.584 10.81 3.584 3.713 0 6.865-.79 10.183-2.365 1.744-.842 1.687-.955 1.8-2.7l.282-4.555c.057-.394-.17-.732-.62-.732-1.52 0-2.194 8.833-10.915 8.833-3.682 0-6.666-1.58-9.04-4.058 3.49-3.355 5.497-8.062 5.497-12.988 0-4.882-2.304-9.482-5.903-12.69 2.298-2.325 5.437-3.793 9.447-3.793 8.72 0 9.172 7.2 10.634 7.2.45.02.61-.26.61-.71m34.09 10.24c0 4.22-.844 7.99-3.487 11.365-2.7 3.32-6.526 5.4-10.857 5.4-4.276 0-8.214-1.743-10.914-5.005-2.757-3.265-3.77-7.54-3.77-11.76 0-4.05.956-8.27 3.544-11.476 2.7-3.43 6.75-5.29 11.14-5.29 4.22 0 7.93 1.915 10.632 5.12 2.81 3.45 3.71 7.33 3.71 11.66m5.12 0c0-10.858-8.89-18.283-19.578-18.283-10.125 0-19.634 8.047-19.634 18.285 0 10.24 9.51 18.34 19.634 18.34 10.69 0 19.58-7.48 19.58-18.34m48.14-7.54c0 4.5-3.32 8.44-7.99 8.44-1.293 0-3.374-.45-4.498-1.126-1.182-.676-.9-1.745-.9-2.982v-8.326c0-3.49.167-4.84 4.05-4.84 2.307 0 4.668.395 6.412 1.97 1.97 1.69 2.93 4.33 2.93 6.86m-38.53 6.92c-.956 0-2.87.393-2.87-1.014v-10.07c0-3.938.114-4.5 4.39-4.5 5.006 0 8.1 2.812 8.1 7.988 0 2.25-.73 4.333-2.59 5.74-2.14 1.63-4.44 1.85-7.03 1.85m43.2-7.14c0-2.982-1.63-6.02-4.105-7.708-2.252-1.576-4.838-1.913-7.538-1.913-2.984 0-5.91.225-8.947.225-2.024 0-3.94-.225-5.962-.225-.563 0-.958.17-.958.79 0 .73.9.73 1.407.73 3.937 0 3.6 1.067 3.6 4.613v23.065c0 3.327.248 4.522-2.978 4.656-2.38-.073-3.22-2.16-4.215-4.095l-4.557-8.775c-.788-1.463-1.63-3.433-3.433-3.714 4.67-.618 8.89-3.6 8.89-8.72 0-5.907-5.288-8.55-10.632-8.55-3.207 0-6.36.224-9.622.224-1.8 0-3.713-.225-5.513-.225-.62 0-1.012.225-1.012.844 0 .674.9.674 1.406.674 3.94 0 3.658 1.068 3.658 4.67v23.01c0 3.544.28 4.668-3.658 4.668-.506 0-1.405-.055-1.405.676 0 .62.45.732.958.732 2.138 0 4.274-.226 6.412-.226s4.162.226 6.302.226c.506 0 .955-.113.955-.732 0-.73-.955-.676-1.46-.676-3.884-.055-3.66-1.068-3.66-4.67v-8.662c0-.506-.054-1.857.282-2.25.28-.34.788-.282 1.237-.282 4.277 0 4.22.45 6.245 4.388l5.514 10.97c.45.845.787 1.914 1.91 1.914h5.965c.18 0 .372-.02.545-.067 1.39-.066 2.783-.16 4.175-.16 2.138 0 4.163.227 6.3.227.507 0 .958-.113.958-.732 0-.73-.96-.676-1.462-.676-3.884-.055-3.658-1.068-3.658-4.67v-9.28c0-.733-.113-1.576.9-1.576.45 0 .844.17 1.238.28l2.7.9c.9.282 1.293.395 2.305.395 5.81-.02 10.93-4.29 10.93-10.31"/><path fill="#D5D7D8" d="M558.31 170.42l29.51.06-23.3 35.81-11.91-7.01z"/><path d="M562.6 173.43c0-.92.745-1.664 1.664-1.664.917 0 1.662.744 1.662 1.664 0 .918-.745 1.663-1.662 1.663-.91 0-1.66-.74-1.66-1.66" fill="#6A9EA4"/><path d="M554.24 176.36c.794.018 1.295.104 2.025.21 6.328.927 10.365 6.224 10.365 12.544 0 2.992-.83 5.814-2.57 8.258-1.907 2.653-4.6 4.038-7.84 4.227-.73.042-1.203.104-1.97.067v.838c1.025.037 1.75-.08 2.63-.128 7.5-.39 13.44-5.763 13.44-13.222 0-4.61-2.233-8.43-5.73-10.833-2.415-1.66-5.45-2.707-8.612-2.876-.68-.036-1.06-.07-1.738-.065v.98z" fill="#6A9EA4"/><path d="M574.86 176.74c-.758-.15-1.237-.196-1.97-.196-6.892 0-10.297 5.983-10.297 12.214 0 2.95.82 5.735 2.543 8.144 1.887 2.62 4.43 4.405 7.754 4.405.826 0 1.202.098 1.97.05v.832c-.963.185-1.695.24-2.503.24-7.468 0-13.415-6.275-13.415-13.63 0-7.687 6.728-13.42 14.236-13.42.5 0 1.03.024 1.682.102v1.27z"/><path d="M753.25 227.34v-.997h-2.586v-6.45h-1.087v7.447h3.68zm-12.59-3.19l.956-2.848h.02l.946 2.848h-1.92zm4.28 3.19l-2.828-7.448h-.977l-2.828 7.448h1.147l.826-2.194h2.677l.825 2.194h1.16zm-11.24-7.45h-1.087v7.448h1.087v-7.45zm-7.07 7.45v-6.452h1.428v-.996h-3.945v.996h1.43v6.452h1.08zm-7.07 0v-7.448h-1.087v5.666h-.02l-3.624-5.666h-1.188v7.448h1.087v-5.757h.02l3.683 5.757h1.13zm-10.96 0v-.997h-2.93v-2.265h2.93v-.996h-2.93v-2.194h2.93v-.996h-4.016v7.448h4.02zm-9.9 0v-6.452h1.43v-.996h-3.945v.996h1.428v6.452h1.08zm-7.63-3.7c0 1.168-.866 2.838-2.788 2.838-1.912 0-2.788-1.65-2.788-2.868 0-1.188.865-2.87 2.788-2.87 1.85.01 2.79 1.59 2.79 2.9m1.09 0c0-2.122-1.66-3.884-3.874-3.884-2.275 0-3.875 1.842-3.875 3.865 0 2.044 1.65 3.866 3.875 3.866 2.2 0 3.86-1.81 3.86-3.84m-15.74-2.75h1.067c1.237 0 1.54.705 1.54 1.26 0 .552-.303 1.257-1.54 1.257h-1.067v-2.52zm0 3.51h1.067c1.78 0 2.626-.926 2.626-2.254 0-1.33-.844-2.255-2.625-2.255h-2.154v7.448h1.088v-2.95zm-15.09 2.94v-3.22h2.677v-.997h-2.677v-2.236h2.677v-.996h-3.764v7.448h1.08zm-6.94-3.7c0 1.168-.865 2.838-2.788 2.838-1.912 0-2.788-1.65-2.788-2.868 0-1.188.867-2.87 2.788-2.87 1.86.01 2.79 1.59 2.79 2.9m1.09 0c0-2.122-1.66-3.884-3.876-3.884-2.274 0-3.874 1.842-3.874 3.865 0 2.043 1.65 3.865 3.874 3.865 2.22 0 3.88-1.81 3.88-3.84m-22.6-2.75h1.147c1.23 0 1.652.765 1.652 1.39 0 1.438-1.61 1.46-2.054 1.46h-.744v-2.85zm3.83 6.45l-2.083-2.778c.484 0 2.135-.312 2.135-2.285 0-.625-.212-1.31-.685-1.762-.392-.372-.936-.624-1.983-.624h-2.304v7.448h1.087V223.9h.02l2.456 3.452h1.34zm-9.86 0v-.997h-2.93v-2.265h2.93v-.996h-2.93V220.9h2.93v-.996h-4.016v7.448h4.02zm-10.64 0l2.083-7.448h-1.107l-1.45 5.566h-.02l-1.418-5.566h-.796l-1.44 5.606h-.02l-1.418-5.606h-1.127l2.084 7.448h.956l1.35-5.204h.02l1.348 5.204h.97zm-11.87-3.7c0 1.168-.866 2.838-2.788 2.838-1.913 0-2.788-1.65-2.788-2.868 0-1.188.865-2.87 2.788-2.87 1.85.01 2.79 1.59 2.79 2.9m1.09 0c0-2.122-1.66-3.884-3.874-3.884-2.275 0-3.875 1.842-3.875 3.865 0 2.043 1.65 3.865 3.875 3.865 2.21 0 3.87-1.81 3.87-3.84m-15.74-2.75h1.067c1.237 0 1.538.705 1.538 1.26 0 .552-.3 1.257-1.54 1.257h-1.066v-2.52zm0 3.51h1.067c1.78 0 2.625-.926 2.625-2.254 0-1.33-.845-2.255-2.626-2.255h-2.155v7.447h1.087v-2.95zm-12.54 2.94v-.997h-2.93v-2.264h2.93v-.996h-2.93v-2.194h2.93v-.996h-4.016v7.448h4.02zm-9.14 0v-7.448h-1.087v3.21h-3.07v-3.21h-1.087v7.448h1.087v-3.24h3.07v3.24h1.09zm-11.23 0v-6.452h1.43v-.996h-3.946v.996h1.43v6.452h1.09zM566.62 189.11c0 2.992-.83 5.814-2.57 8.258-1.908 2.653-4.602 4.037-7.84 4.226-.73.044-1.203.106-1.972.07v.837c1.027.038 1.75-.08 2.63-.127 7.503-.392 13.442-5.764 13.442-13.222" fill="#6A9EA4"/></svg>