<svg xmlns="http://www.w3.org/2000/svg" height="321.27" viewBox="0 0 481.889 321.266" width="481.89" enable-background="new 0 0 481.889 321.266"><path fill="#97D5C9" clip-rule="evenodd" d="M160.62 0c88.734 0 160.62 71.92 160.62 160.63 0 88.732-71.89 160.63-160.62 160.63C71.92 321.27 0 249.36 0 160.63 0 71.92 71.92 0 160.62 0" fill-rule="evenodd"/><path fill="#4E5044" clip-rule="evenodd" d="M157.29 63.163c.306-24.41 1.686-42.748 3.334-42.748s3.027 18.337 3.344 42.748c-1.112-.068-2.213-.096-3.344-.096-1.11 0-2.23.028-3.33.096" fill-rule="evenodd"/><path fill="#394036" clip-rule="evenodd" d="M162.28 63.087c-.393-18.53-1.42-32.468-2.683-35.553.326.03.69.058 1.025.058.585 0 1.14-.058 1.696-.183.833 7.51 1.446 20.433 1.648 35.753-.56-.03-1.12-.068-1.69-.077" fill-rule="evenodd"/><path fill="#4E5044" clip-rule="evenodd" d="M146.02 70.386c0-8.067 6.542-14.6 14.6-14.6 8.067 0 14.61 6.533 14.61 14.6s-6.543 14.61-14.61 14.61c-8.06 0-14.6-6.543-14.6-14.61" fill-rule="evenodd"/><path fill="#394036" clip-rule="evenodd" d="M146.02 70.386c0-.776.057-1.562.172-2.3.44 5.99 5.45 10.73 11.563 10.73 6.4 0 11.603-5.2 11.603-11.592 0-5.71-4.16-10.47-9.6-11.42.287-.01.574-.02.862-.02 8.067 0 14.61 6.535 14.61 14.602s-6.543 14.61-14.61 14.61c-8.05 0-14.59-6.543-14.59-14.61" fill-rule="evenodd"/><path fill="#4E5044" clip-rule="evenodd" d="M151.87 37.516c0-.95 3.927-1.725 8.794-1.725 4.848 0 8.785.778 8.785 1.727s-3.94 1.715-8.787 1.715c-4.87 0-8.79-.765-8.79-1.714m.967-17.716c0-4.3 3.488-7.788 7.788-7.788 4.302 0 7.79 3.487 7.79 7.788 0 4.312-3.488 7.79-7.79 7.79-4.31 0-7.79-3.478-7.79-7.79" fill-rule="evenodd"/><path fill="#fff" clip-rule="evenodd" d="M154.39 17.944c-.392-.47.297-1.638 1.485-2.577 1.217-.95 2.5-1.313 2.874-.834.38.49-.3 1.638-1.506 2.577-1.21.93-2.49 1.313-2.86.834" fill-rule="evenodd"/><path fill="#4E5044" clip-rule="evenodd" d="M148.94 48.294c0-1.178 5.22-2.136 11.678-2.136 6.448 0 11.688.958 11.688 2.136 0 1.188-5.24 2.146-11.688 2.146-6.45 0-11.68-.958-11.68-2.146" fill-rule="evenodd"/><path d="M86.07 155.13c0-7.07 3.333-13.356 8.516-17.39v-8.63c0-36.482 29.565-66.047 66.037-66.047 36.482 0 66.056 29.565 66.056 66.046v134.16c-19 12.376-41.686 19.58-66.058 19.58-24.267 0-46.867-7.156-65.807-19.438-.89-.47-1.466-1.38-1.466-2.434 0-.978.49-1.82 1.235-2.3v-75.15c-5.183-4.015-8.517-10.327-8.517-17.39v-11.01z" fill="#4E5044"/><path fill="#fff" clip-rule="evenodd" d="M94.653 149.25c-4.55 2.682-4.167 16.88-4.167 16.88l-.01-10.998c0-4.34 1.57-8.326 4.177-11.39v5.51z" fill-rule="evenodd"/><path fill="#394036" clip-rule="evenodd" d="M115.77 166.08c-1.783-10.164 5.01-19.88 15.194-21.66 10.174-1.802 19.88 5 21.67 15.174 1.792 10.175-5.01 19.88-15.184 21.68-10.16 1.8-19.87-5.01-21.67-15.2" fill-rule="evenodd"/><path fill="#fff" clip-rule="evenodd" d="M113.58 163.88c-1.79-10.184 4.982-19.88 15.156-21.67 10.194-1.792 19.89 5 21.69 15.183 1.792 10.166-5 19.88-15.175 21.67-10.19 1.82-19.88-5.02-21.68-15.18" fill-rule="evenodd"/><path fill="#394036" clip-rule="evenodd" fill-rule="evenodd" d="M125.83 216.71l10.54 20.59.72-1.36zm.68-54.44c0-1.39.46-2.664 1.264-3.707.585.93 1.63 1.532 2.817 1.532 1.85 0 3.345-1.484 3.345-3.334 0-.132-.018-.257-.028-.4 2.692.62 4.723 3.036 4.723 5.91 0 3.354-2.722 6.074-6.075 6.074s-6.04-2.72-6.04-6.07m2.79-16.97c7.674-1.34 15.02 3.172 17.446 10.31-3.15-5.596-9.58-8.873-16.276-7.685-8.46 1.485-14.12 9.55-12.617 18.01.144.805.336 1.57.594 2.32-.842-1.476-1.455-3.153-1.762-4.936-1.5-8.46 4.16-16.52 12.62-18.02"/><path fill="#fff" clip-rule="evenodd" d="M152.42 60.864c-.268-.537.613-1.533 1.992-2.213 1.38-.68 2.722-.764 2.98-.22.278.557-.632 1.534-2.002 2.214-1.38.67-2.7.776-2.97.22" fill-rule="evenodd"/><path d="M151.87 37.516c0-.19.163-.384.46-.546 1.177.68 4.445 1.16 8.334 1.16 3.86 0 7.156-.48 8.335-1.16.285.162.45.355.45.546 0 .95-3.94 1.715-8.787 1.715-4.87 0-8.79-.764-8.79-1.713" fill="#394036"/><path d="M84.326 267.05c0-1.505 1.236-2.74 2.76-2.74.583 0 1.14.19 1.59.498 20.435 14.15 45.218 22.446 71.947 22.446 26.72 0 51.524-8.296 71.94-22.446 9.56 4.75 17.58 10.452 23.567 16.803-26.26 20.764-59.427 33.15-95.507 33.15-34.967 0-67.196-11.63-93.053-31.26-.814-.632-1.638-1.236-2.452-1.89-.595-.457-1.18-.937-1.773-1.415 1.475-2.634 3.928-2.95 5.384-2.107 4.405-4.015 9.665-7.694 15.595-10.99v-.04z" fill="#4E5044"/><path d="M207.77 285.93c-14.006 5.125-29.153 7.903-44.942 7.903-29.67 0-49.894-11.14-49.894-11.14 14.783 5.756 30.868 8.966 47.69 8.966 15.723 0 30.764-2.8 44.713-7.848-.068-1.322-1.11-3.373-2.472-3.785 10.634-3.755 20.617-8.91 29.698-15.222.47-.317 1.026-.5 1.61-.5 1.524 0 2.76 1.236 2.76 2.74 5.94 3.345 11.17 7.023 15.586 11.038 1.464-.844 3.91-.527 5.373 2.107-.574.48-1.178.96-1.762 1.42-.814.65-1.63 1.254-2.452 1.886-9.677 7.34-20.235 13.566-31.51 18.49-2.85-5.66-7.72-11.69-14.41-16.06M226.48 263.4c-8.996 5.834-18.806 10.5-29.23 13.815-11.573 3.65-23.864 5.643-36.625 5.643-24.363 0-47.04-7.205-66.037-19.573v-.795c18.538 11.496 40.42 18.154 63.833 18.154 13.387 0 26.263-2.174 38.286-6.18-.25-.554-.595-1.09-1.083-1.503l-.01-85.77c-4.368-1.37-8.162-4.05-10.912-7.598-7.835-3.84-10.824-11.572-10.824-11.572s3.87 5.068 7.233 4.637c-.633-2.06-.97-4.234-.97-6.515v-11.007c0-9.32 5.76-17.264 13.92-20.492 2.148-4.11 3.89-10.336 3.89-23.174 0-41.54-24.946-47.44-33.137-48.267 34.527 2.146 61.87 30.85 61.87 65.913v8.64c5.163 4.034 8.478 10.31 8.478 17.38v11.007c0 7.052-3.314 13.375-8.48 17.39v75.176c.73.47 1.22 1.31 1.22 2.28 0 1.01-.59 1.92-1.42 2.39" fill="#394036"/><path fill="#394036" clip-rule="evenodd" d="M184.9 246.51l10.558-20.588 4.302 7.943 10.194-3.91 9.072-.708-18.098 6.946-4.33-7.933-11.69 18.25zm-5.06-9.65c-3.008.124-8.747.584-18.04.584-9.292 0-15.03-.46-18.02-.584l-7.405 9.647 6.236-11.994c3 .133 8.73.613 18.023.613 9.31 0 15.022-.48 18.03-.613l1.17 2.34zm-52.83-8.6l-4.33 7.933-19.286-9.275 18.116 6.947 4.312-7.943 1.19 2.33z" fill-rule="evenodd"/><path fill="#fff" clip-rule="evenodd" d="M172.6 163.88c-1.782-10.184 5.01-19.88 15.204-21.67 10.155-1.792 19.86 5 21.66 15.183 1.802 10.166-5 19.88-15.174 21.67-10.18 1.82-19.88-5.02-21.68-15.18" fill-rule="evenodd"/><path fill="#394036" clip-rule="evenodd" d="M185.53 162.27c0-1.39.47-2.664 1.255-3.707.603.93 1.648 1.532 2.836 1.532 1.83 0 3.345-1.484 3.345-3.334 0-.132-.01-.257-.028-.4 2.692.62 4.713 3.036 4.713 5.91 0 3.354-2.712 6.074-6.055 6.074-3.36 0-6.06-2.72-6.06-6.07m2.8-16.97c7.664-1.34 15.02 3.172 17.436 10.31-3.14-5.596-9.58-8.873-16.256-7.685-8.48 1.485-14.122 9.55-12.627 18.01.134.805.335 1.57.594 2.32-.852-1.476-1.446-3.153-1.772-4.936-1.48-8.46 4.16-16.52 12.63-18.02" fill-rule="evenodd"/><path d="M115.4 97.058c-1.045-1.16-1.13-2.988-.46-5.153-7.243 10.46-11.555 23.145-11.555 36.107v135.46c-1.474-.833-2.96-1.705-4.406-2.605v-132.85c0-33.99 27.494-61.553 61.446-61.65-11.61.04-22.418 4.15-31.443 10.884 3.794-1.76 7.12-1.98 8.68-.247 2.5 2.778-.46 9.513-6.61 15.06-6.14 5.55-13.15 7.78-15.65 5.003" fill="#fff"/><path fill="#fff" clip-rule="evenodd" d="M184.9 246.51l-6.236-11.994c-3.008.133-8.72.613-18.03.613-9.294 0-15.022-.48-18.02-.615l-6.247 11.994-10.538-20.59-4.324 7.944-18.116-6.947 16.19 1.256 6.25-11.468 10.537 20.597 4.32-7.95c2.463.286 10.31 1.08 19.937 1.08 9.638 0 17.493-.794 19.946-1.08l4.32 7.95 10.568-20.597 6.227 11.468 16.19-1.256-18.115 6.947-4.302-7.943-10.567 20.59h.01z" fill-rule="evenodd"/><path d="M162.26 12.196c3.516.747 6.15 3.86 6.15 7.606 0 4.31-3.487 7.79-7.788 7.79-3.563 0-6.572-2.405-7.5-5.663 1.225 2.01 3.42 3.35 5.948 3.35 3.833 0 6.937-3.103 6.937-6.935 0-2.682-1.52-5.01-3.75-6.15M158.76 29.21l.173-1.8c.565.123 1.12.18 1.695.18.585 0 1.14-.057 1.696-.18.067.708.153 1.456.23 2.25-.336.048-.662.048-.996.048-.98 0-1.93-.172-2.79-.498" fill="#394036"/><path fill="#394036" clip-rule="evenodd" d="M148.94 48.294c0-.2.163-.392.45-.584 1.4.88 5.91 1.533 11.228 1.533 5.327 0 9.83-.652 11.238-1.533.278.192.45.383.45.584 0 1.188-5.24 2.146-11.688 2.146-6.45 0-11.68-.958-11.68-2.146" fill-rule="evenodd"/><path d="M161.5 42.853c.66.01 1.284.038 1.906.077l.154 3.602c2.93.085 4.502.527 4.502.977 0 .42-1.695.68-4.435.774-.565.01-1.17.02-1.81.02.01-.088-.2-3.785-.31-5.452m-.447-5.824c-.106-1.246-.23-2.395-.345-3.44.747 0 1.456.02 2.145.058l.144 2.222h.202c.44.01.824.03 1.13.078.518.085.834.23.834.42 0 .24-.652.52-2.05.604h-.068c-.62.038-1.29.048-1.98.058" fill="#394036"/><path fill="#fff" clip-rule="evenodd" d="M68.69 284.36c5.06-5.317 11.698-10.212 19.67-14.418 1.407.93 2.835 1.82 4.29 2.72-8.363 4.206-15.203 9.102-20.3 14.342-1.226-.86-2.443-1.75-3.66-2.64" fill-rule="evenodd"/><path fill="#EE3331" clip-rule="evenodd" d="M267.71 160.63c0-59.14 47.95-107.08 107.08-107.08 59.158 0 107.1 47.94 107.1 107.08 0 59.17-47.94 107.11-107.1 107.11-59.13 0-107.08-47.94-107.08-107.11" fill-rule="evenodd"/><path fill="#fff" clip-rule="evenodd" d="M452.92 156.05c0-4.014 8.717-4.12 8.747 0v9.63c0 3.936-8.777 3.936-8.747 0v-9.63zm-6.84 0v9.63c0 6.187 5.615 9.29 11.248 9.29 5.604 0 11.17-3.103 11.17-9.29v-9.63c0-6.18-5.614-9.283-11.228-9.283-5.61 0-11.19 3.07-11.19 9.28m-25.45-8.73v6.486h7.3v20.59h6.918v-20.59h7.3v-6.486h-21.52zm-20.16 8.73c0-4.014 8.71-4.12 8.737 0v9.63c0 3.936-8.775 3.936-8.737 0v-9.63zm-6.83 0v9.63c0 6.187 5.623 9.29 11.227 9.29 5.625 0 11.19-3.103 11.19-9.29v-9.63c0-6.18-5.604-9.283-11.238-9.283-5.6 0-11.18 3.07-11.18 9.28m-7.3-.45c.16-5.164-3.623-8.287-8.787-8.287h-10.836v27.075h11.028c5.997 0 8.928-2.635 9.628-6.994.345-2.05-.105-5.528-3.813-7.416 1.93-.98 2.73-3.16 2.77-4.37m-8.79 7.25c4.043 0 4.11 5.556 0 5.556h-3.966v-5.556h3.97zm-3.97-4.92v-4.857h3.968c3.45 0 3.334 4.857 0 4.857h-3.97zm-15.2-2.33c.145-5.164-3.65-8.287-8.793-8.287h-10.855v27.075h11.026c6.007 0 8.958-2.635 9.64-6.994.333-2.05-.097-5.528-3.814-7.406 1.93-.98 2.72-3.17 2.78-4.38m-8.79 7.25c4.042 0 4.13 5.556 0 5.556h-3.976v-5.556h3.98zm-3.98-4.92v-4.857h3.976c3.43 0 3.333 4.857 0 4.857h-3.98zm-29.62-1.88c0-4.014 8.7-4.12 8.728 0v9.63c0 3.936-8.767 3.936-8.728 0v-9.63zm-6.85 0v9.63c0 6.187 5.623 9.29 11.247 9.29 5.597 0 11.18-3.103 11.18-9.29v-9.63c0-6.18-5.62-9.283-11.226-9.283-5.62 0-11.2 3.07-11.2 9.28m-20.86 3.32v-6.42h4.16c4.472 0 4.472 6.42 0 6.42h-4.16zm8.97 5.38c3.39-1.063 5.49-4.005 5.49-9.177-.154-6.592-4.637-9.255-10.424-9.255h-11.21v28.07h7.175v-8.93h1.265l6.927 8.93h8.843l-8.06-9.64z" fill-rule="evenodd"/></svg>