<svg xmlns="http://www.w3.org/2000/svg" height="247.68" viewBox="0 0 448.73 247.679" width="448.73" enable-background="new 0 0 448.73 247.679"><path d="M246.27 76.953c0-3.172-.26-7.15-.592-8.86-.306-1.704-.546-3.13-.518-3.158.027-.028.545.144 1.165.39.638.246 2.367 2.362 3.865 4.692 1.49 2.328 3.31 7.154 4.05 10.71.732 3.56.963 8.374.51 10.686-.453 2.326-2.59 5.29-4.763 6.553-2.164 1.29-5.124 2.34-6.575 2.34-1.452 0-2.904-.217-3.246-.504-.333-.277.102-1.72.97-3.214.88-1.494 2.387-5.22 3.358-8.287.99-3.08 1.79-8.18 1.79-11.35M233.24 58.36c-1.285-2.552-3.838-5.516-5.688-6.572-1.83-1.054-6.76-2.726-10.94-3.716-4.18-.98-12.032-.66-17.48.724-5.44 1.383-12.81 4.735-16.39 7.443-3.588 2.713-6.603 5.222-6.704 5.597-.093.375.268.818.813 1.008.574.185 2.545-.027 4.395-.462 1.858-.437 5.502-1.093 8.11-1.468s7.714-.407 11.376-.086c3.663.33 9.193 2.015 12.31 3.74 3.117 1.718 7.63 5.91 10.035 9.28s4.957 7.84 5.697 9.915c.73 2.09 1.646 4.305 2.063 4.925.407.647 1.193 1.036 1.757.888.573-.153 1.84-1.52 2.812-3.057.972-1.514 1.767-5.206 1.767-8.2 0-2.992-.36-7.655-.794-10.374-.46-2.714-1.88-7.032-3.14-9.585" fill="#5DA545"/><path d="M198.32 94.66c4.883-.598 11.82-.63 15.407-.09 3.598.533 6.91.764 7.37.486.463-.26.676-1.938.463-3.695-.222-1.78-1.655-5.314-3.228-7.876-1.554-2.567-4.827-6.402-7.278-8.548-2.44-2.146-8.157-4.234-12.707-4.64-4.54-.408-11.875.188-16.296 1.326-4.4 1.126-10.607 3.498-13.788 5.246-3.19 1.748-6.844 4.84-8.167 6.837-1.313 2.02-2.367 14.134-2.367 26.93s.564 23.258 1.22 23.258c.686 0 2.517-3.468 4.08-7.722 1.562-4.235 4.134-9.876 5.733-12.53 1.6-2.66 6.91-7.77 11.802-11.38 4.92-3.598 12.9-7.03 17.78-7.602" fill="#387137"/><path d="M214.34 113.91c1.628-1.387 3.8-3.09 4.818-3.764 1.008-.708 2.017-1.697 2.23-2.224.21-.522-.158-1.545-.806-2.26-.648-.732-3.2-1.768-5.67-2.286-2.47-.527-7.5-.665-11.2-.287-3.68.37-10.145 2.723-14.353 5.234-4.21 2.497-9.14 6.474-10.924 8.81-1.804 2.343-3.894 6.126-4.66 8.42-.75 2.28-1.37 5.086-1.37 6.242 0 1.155 5.984 2.1 13.28 2.1 7.29 0 13.856-1.106 14.567-2.475.702-1.345 1.96-3.874 2.793-5.603.813-1.725 3.024-4.545 4.91-6.266 1.89-1.71 4.75-4.26 6.38-5.64M229.07 115.95c-.943-.57-2.69-.703-3.884-.31-1.175.407-3.662 1.845-5.493 3.2-1.84 1.374-4.42 4.29-5.726 6.474-1.313 2.21-2.85 5.035-3.422 6.293-.573 1.25 3.19 2.284 8.352 2.284 5.15 0 9.415-.11 9.48-.23.064-.13.472-1.798.916-3.703.453-1.91 1.063-5.063 1.368-7.006.316-1.95.464-4.087.344-4.757-.13-.66-.98-1.66-1.94-2.23" fill="#5DA545"/><path d="M248.79 126.13c-.795-2.04-1.94-4.81-2.552-6.164-.602-1.355-1.425-2.585-1.813-2.737-.406-.14-1.36.09-2.117.517-.768.42-1.822 1.79-2.368 3.024-.555 1.24-.99 3.922-.99 5.947 0 2.03.24 4.472.528 5.433.286.958 3.43 1.743 7 1.743 3.58 0 5.883-.91 5.134-2.03-.74-1.11-2.01-3.69-2.82-5.73" fill="#387137"/><path d="M278.68 119.64c-2.507-.842-6.475-2.354-8.832-3.37-2.368-1.01-5.476-2.836-6.928-4.052-1.434-1.226-3.07-2.224-3.643-2.224-.565 0-1.684.347-2.46.772-.777.43-1.998 1.582-2.738 2.553-.73.988-.953 3.102-.51 4.73.454 1.613 2.192 4.79 3.876 7.032 1.683 2.243 4.105 5.146 5.4 6.446 1.276 1.295 8.074 2.367 15.085 2.367 7.02 0 12.754-2.862 12.754-6.367 0-3.51-1.674-6.38-3.736-6.38-2.02 0-5.73-.68-8.25-1.51M290.17 88.93c-.333.24-2.433.9-4.643 1.45-2.23.565-6.05 1.018-8.49 1.018-2.45 0-6.196.125-8.323.29-2.137.172-4.365 1.042-4.967 1.934-.583.907-1.378 2.645-1.767 3.852-.37 1.216.203 3.094 1.276 4.162 1.064 1.073 4.754 3.274 8.176 4.873 3.45 1.618 8.232 3.606 10.654 4.452 2.413.846 5.346 1.383 6.5 1.198 1.176-.19 2.175-3.348 2.24-7.02.064-3.69.073-8.93.027-11.667-.07-2.74-.37-4.785-.69-4.544" fill="#5DA545"/><path d="M291.57 18.257c-.027-.714-.397.317-.814 2.292-.416 1.97-1.757 6.838-2.978 10.8-1.23 3.964-3.995 10.366-6.14 14.234-2.146 3.864-4.958 8.277-6.234 9.822-1.286 1.538-3.792 3.873-5.586 5.175-1.776 1.32-4.504 3.747-6.03 5.41-1.517 1.657-2.774 4.038-2.774 5.29 0 1.243.5 3.66 1.09 5.36.593 1.707 1.444 3.668 1.888 4.373.444.69 4.088 1.26 8.083 1.26 4.014 0 8.602-.412 10.2-.927 1.6-.5 4.163-1.417 5.698-2.028 1.525-.615 2.977-5.2 3.21-10.194.258-4.992.443-18.19.443-29.327-.01-11.126-.04-20.82-.06-21.54" fill="#387137"/><path d="M244.91 48.997c-.176.79.027 1.908.443 2.486.398.578 1.84 2.212 3.19 3.623 1.342 1.406 3.024 3.03 3.728 3.593.704.56 1.88 1.123 2.628 1.236.75.118 1.95-.2 2.69-.696.722-.51 2.387-1.894 3.682-3.077 1.285-1.193 4.19-4.315 6.437-6.943 2.266-2.613 5.623-7.378 7.49-10.564s4.052-7.628 4.856-9.873c.814-2.254 1.84-7.163 2.257-10.92.435-3.76.48-9.123.11-11.907-.37-2.795-2.94-5.182-5.706-5.3-2.765-.112-8.102-.112-11.865 0-3.747.12-6.77.457-6.716.75.047.277.24 1.642.417 3 .177 1.374.065 4.935-.24 7.913-.332 2.993-1.23 7.647-2.016 10.355-.796 2.696-2.433 7.374-3.635 10.38-1.213 3.007-3.396 7.506-4.838 9.992-1.44 2.49-2.75 5.163-2.91 5.95M240.92 38.05c.823-1.36 2.137-4.234 2.895-6.39.777-2.154 2.118-6.614 2.98-9.923.858-3.31 1.85-8.287 2.163-11.068.323-2.78.38-6.142.14-7.476-.25-1.34-.99-2.497-1.666-2.58-.656-.077-6.002-.167-11.68-.167s-12.042.08-14.123.194c-2.11.1-3.48 1.28-3.07 2.623.415 1.346 1.034 4.414 1.386 6.814.36 2.398.943 7.983 1.332 12.398.36 4.428.36 9.294 0 10.84-.39 1.548-.675 3.352-.675 4.03s.5 1.495 1.12 1.826c.628.334 2.126 1.14 3.328 1.802 1.213.66 3.44 1.722 4.958 2.367 1.508.647 3.302 1.266 3.968 1.387.666.118 1.674-.153 2.247-.606.564-.44 1.517-1.435 2.118-2.207.56-.76 1.73-2.504 2.55-3.864" fill="#5DA545"/><path d="M175 8.708c1.055 1.775 2.812 5.49 3.922 8.25 1.11 2.756 2.793 6.904 3.736 9.227.925 2.317 2.1 6.136 2.59 8.476.5 2.35 1.285 4.77 1.757 5.36.462.608 1.295 1.166 1.85 1.256.555.08 1.822-.023 2.81-.226.99-.208 3.117-.73 4.718-1.152 1.59-.42 4.198-.96 5.77-1.21 1.59-.262 3.848-.457 5.04-.457 1.193 0 2.59-.447 3.1-1.007.517-.56 1.08-1.672 1.267-2.49.193-.81.342-4.125.342-7.37 0-3.252-.333-8.385-.722-11.42-.397-3.035-1.175-7.222-1.72-9.296-.527-2.074-1.406-4.314-1.914-4.99-.52-.677-1.156-1.37-1.406-1.53-.26-.168-8.536-.168-18.414-.024-9.858.155-17.184 1.424-16.277 2.828.9 1.408 2.48 4.003 3.54 5.778" fill="#387137"/><path d="M160.99 60.668c.526.48 2.173.687 3.644.446 1.48-.243 3.968-1.318 5.53-2.377 1.572-1.066 3.366-2.407 3.986-2.964.63-.555 1.738-1.658 2.46-2.448.73-.772 1.804-2.733 1.813-3.552 0-.82-.795-5.53-1.507-7.923-.722-2.39-2.21-6.54-3.34-9.214-1.11-2.69-3.644-7.762-5.613-11.26-1.988-3.515-4.245-7.364-5.03-8.562-.77-1.197-2.285-3.225-3.367-4.5l-1.368.017h-.047c-.868 4.2-1.275 16.824-.895 28.056.36 11.213 1.128 21.072 1.7 21.89.6.83 1.51 1.905 2.05 2.392" fill="#5DA545"/><path d="M30.992 203.74c-3.69 0-6.715 3.023-6.715 6.714v30.506c0 3.69-2.33 6.715-5.197 6.715-2.85 0-5.18-3.024-5.18-6.715v-30.506c0-3.69-3.023-6.714-6.714-6.714h-.47c-3.69 0-6.716-2.08-6.716-4.63s3.024-4.628 6.715-4.628h24.758c3.69 0 6.705 2.08 6.705 4.63s-3.015 4.628-6.705 4.628h-.48zM57.072 247.68c-3.69 0-6.705-3.024-6.705-6.715v-39.768c0-3.694 3.016-6.71 6.705-6.71h21.613c3.7 0 6.715 2.082 6.715 4.63s-3.015 4.63-6.715 4.63H67.46c-3.69 0-6.716 2.81-6.716 6.24 0 3.433 3.025 6.234 6.715 6.234h7.573c3.69 0 6.714 2.09 6.714 4.635 0 2.548-3.024 4.638-6.714 4.638H67.46c-3.69 0-6.716 2.904-6.716 6.46 0 3.557 3.025 6.46 6.715 6.46h11.226c3.7 0 6.715 2.086 6.715 4.634s-3.014 4.634-6.714 4.634H57.072zM106.02 247.68c-3.69 0-6.705-3.024-6.705-6.715v-39.768c0-3.694 2.33-6.71 5.188-6.71s5.188 3.016 5.188 6.71v30.507c0 3.694 3.025 6.71 6.716 6.71h10.71c3.69 0 6.714 2.085 6.714 4.633s-3.024 4.634-6.714 4.634h-21.09zM181.69 247.68c-2.978 0-6.122-2.118-6.982-4.708-.87-2.59-4.587-4.707-8.277-4.707h-5.483c-3.7 0-7.445 2.118-8.314 4.707-.896 2.59-4.05 4.708-7.028 4.708-2.98 0-4.384-2.835-3.117-6.308l14.75-40.577c1.27-3.47 4.136-6.308 6.374-6.308s5.105 2.834 6.372 6.303l14.825 40.582c1.26 3.48-.14 6.32-3.11 6.32m-15.69-31.15c-1.175-3.496-3.126-3.505-4.338-.02l-2.313 6.67c-1.212 3.48.767 6.34 4.4 6.34 3.645 0 5.652-2.868 4.478-6.363l-2.23-6.63zM240.41 247.68c-2.857 0-5.19-3.024-5.19-6.715v-17.58c0-3.695-1.358-4.015-3.014-.718l-4.125 8.18c-1.664 3.298-4.604 5.993-6.528 5.993-1.942 0-4.893-2.69-6.557-5.983l-4.153-8.198c-1.683-3.29-3.042-2.97-3.042.725v17.58c0 3.692-2.33 6.716-5.188 6.716-2.858 0-5.198-3.023-5.198-6.714v-39.768c0-3.694 2.304-6.71 5.124-6.71 2.81 0 6.418 2.72 8.027 6.04l8.056 16.675c1.61 3.33 4.236 3.325 5.837 0l8.01-16.666c1.59-3.33 5.206-6.048 8.026-6.048 2.812 0 5.115 3.014 5.115 6.708v39.768c-.01 3.69-2.34 6.72-5.21 6.72" fill="#5DA545"/><path d="M268.46 247.68c-3.69 0-6.705-3.024-6.705-6.715v-39.768c0-3.694 3.015-6.71 6.705-6.71h21.623c3.69 0 6.705 2.082 6.705 4.63s-3.016 4.63-6.705 4.63h-11.23c-3.69 0-6.705 2.81-6.705 6.24 0 3.433 3.016 6.234 6.705 6.234h7.574c3.69 0 6.715 2.09 6.715 4.635 0 2.548-3.024 4.638-6.715 4.638h-7.574c-3.69 0-6.705 2.904-6.705 6.46 0 3.557 3.016 6.46 6.705 6.46h11.237c3.69 0 6.705 2.086 6.705 4.634s-3.016 4.634-6.705 4.634h-21.6zM346.78 247.68c-2.543 0-6.26-2.54-8.268-5.642l-13.79-21.37c-1.997-3.102-3.635-2.616-3.635 1.074v19.223c0 3.69-2.34 6.715-5.19 6.715-2.856 0-5.196-3.024-5.196-6.715v-39.768c0-3.694 2.09-6.71 4.635-6.71 2.543 0 6.28 2.535 8.268 5.633l13.79 21.304c1.997 3.1 3.635 2.617 3.635-1.072v-19.154c0-3.694 2.34-6.71 5.197-6.71s5.197 3.016 5.197 6.71v39.768c0 3.69-2.09 6.72-4.64 6.72" fill="#5DA545"/><path d="M394.59 203.74c-3.68 0-6.715 3.023-6.715 6.714v30.506c0 3.69-2.33 6.715-5.188 6.715s-5.18-3.024-5.18-6.715v-30.506c0-3.69-3.033-6.714-6.714-6.714h-.482c-3.68 0-6.713-2.08-6.713-4.63s3.033-4.628 6.714-4.628h24.77c3.68 0 6.704 2.08 6.704 4.63s-3.024 4.628-6.705 4.628h-.51zM445.16 247.68c-2.98 0-6.123-2.118-6.992-4.708-.86-2.59-4.587-4.707-8.277-4.707h-5.474c-3.7 0-7.445 2.118-8.324 4.707-.888 2.59-4.04 4.708-7.02 4.708-2.97 0-4.374-2.835-3.126-6.308l14.76-40.577c1.268-3.47 4.135-6.308 6.364-6.308 2.247 0 5.114 2.834 6.38 6.303l14.817 40.582c1.26 3.48-.14 6.32-3.11 6.32m-15.69-31.15c-1.175-3.496-3.136-3.505-4.347-.02l-2.313 6.67c-1.21 3.48.767 6.34 4.412 6.34 3.633 0 5.65-2.868 4.484-6.363l-2.23-6.63z" fill="#5DA545"/></svg>