<svg xmlns="http://www.w3.org/2000/svg" height="247.68" viewBox="0 0 448.73 247.679" width="448.73"><path d="M246.27 76.953c0-3.172-.259-7.149-.592-8.86-.306-1.704-.546-3.13-.518-3.158.027-.028.545.144 1.165.389.638.247 2.367 2.363 3.865 4.693 1.489 2.328 3.311 7.154 4.051 10.709.731 3.561.962 8.375.509 10.687-.453 2.326-2.589 5.291-4.763 6.553-2.164 1.29-5.124 2.34-6.575 2.34-1.452 0-2.904-.217-3.246-.504-.333-.277.102-1.72.971-3.214.879-1.494 2.386-5.221 3.357-8.287.99-3.08 1.79-8.181 1.79-11.352M233.24 58.361c-1.285-2.553-3.838-5.517-5.688-6.573-1.831-1.054-6.761-2.726-10.941-3.716-4.18-.98-12.031-.659-17.48.724-5.438 1.383-12.809 4.735-16.388 7.443-3.589 2.714-6.604 5.223-6.705 5.598-.093.375.268.818.813 1.008.573.185 2.544-.027 4.394-.462 1.858-.437 5.502-1.093 8.11-1.468s7.714-.407 11.376-.086c3.662.331 9.192 2.016 12.31 3.741 3.116 1.718 7.63 5.91 10.034 9.281s4.957 7.84 5.697 9.914c.73 2.09 1.646 4.305 2.063 4.925.407.647 1.193 1.036 1.757.888.573-.153 1.841-1.521 2.812-3.057.972-1.515 1.767-5.207 1.767-8.201 0-2.992-.36-7.655-.795-10.374-.46-2.714-1.88-7.032-3.14-9.585" fill="#5DA545"/><path d="M198.32 94.659c4.883-.597 11.819-.629 15.407-.088 3.598.532 6.909.763 7.371.485.462-.259.675-1.938.462-3.695-.222-1.78-1.655-5.315-3.228-7.877-1.554-2.567-4.827-6.402-7.278-8.548-2.441-2.146-8.157-4.234-12.707-4.641-4.541-.407-11.875.189-16.296 1.327-4.402 1.126-10.608 3.498-13.789 5.246-3.191 1.748-6.844 4.839-8.167 6.837-1.313 2.019-2.367 14.134-2.367 26.929s.564 23.259 1.221 23.259c.685 0 2.516-3.468 4.078-7.722 1.563-4.236 4.135-9.877 5.734-12.532 1.6-2.659 6.908-7.769 11.801-11.38 4.92-3.597 12.9-7.028 17.78-7.601" fill="#387137"/><path d="M214.34 113.91c1.628-1.387 3.801-3.089 4.818-3.764 1.008-.708 2.017-1.697 2.229-2.224.212-.522-.157-1.545-.805-2.261-.648-.731-3.2-1.767-5.67-2.285-2.469-.527-7.5-.665-11.199-.287-3.681.37-10.146 2.724-14.354 5.235-4.208 2.497-9.138 6.474-10.923 8.809-1.804 2.344-3.894 6.127-4.661 8.42-.749 2.28-1.369 5.087-1.369 6.243 0 1.155 5.984 2.099 13.281 2.099 7.288 0 13.855-1.105 14.566-2.474.702-1.346 1.96-3.875 2.793-5.604.813-1.725 3.024-4.545 4.911-6.266 1.89-1.71 4.75-4.26 6.38-5.64M229.07 115.95c-.943-.569-2.69-.703-3.884-.31-1.175.407-3.662 1.845-5.493 3.2-1.841 1.374-4.421 4.291-5.726 6.474-1.313 2.21-2.849 5.035-3.422 6.293-.573 1.249 3.191 2.284 8.352 2.284 5.151 0 9.415-.11 9.48-.23.064-.13.472-1.799.916-3.704.453-1.91 1.063-5.063 1.368-7.006.315-1.951.463-4.088.343-4.758-.13-.66-.98-1.66-1.94-2.23" fill="#5DA545"/><path d="M248.79 126.13c-.795-2.039-1.941-4.809-2.552-6.164-.602-1.355-1.425-2.585-1.813-2.737-.406-.139-1.359.092-2.117.518-.768.421-1.822 1.79-2.368 3.024-.555 1.239-.989 3.921-.989 5.946 0 2.03.24 4.472.527 5.433.286.958 3.431 1.743 7.001 1.743 3.579 0 5.882-.91 5.133-2.029-.74-1.11-2.01-3.69-2.82-5.73" fill="#387137"/><path d="M278.68 119.64c-2.507-.842-6.475-2.354-8.832-3.371-2.368-1.008-5.476-2.835-6.928-4.051-1.434-1.226-3.07-2.224-3.643-2.224-.565 0-1.684.347-2.46.772-.777.43-1.998 1.582-2.738 2.553-.73.989-.952 3.103-.508 4.73.453 1.614 2.191 4.791 3.875 7.033 1.683 2.243 4.105 5.146 5.4 6.446 1.276 1.295 8.074 2.367 15.085 2.367 7.02 0 12.753-2.862 12.753-6.367 0-3.51-1.674-6.381-3.736-6.381-2.02 0-5.73-.68-8.25-1.51M290.17 88.929c-.333.24-2.433.902-4.643 1.452-2.229.564-6.049 1.017-8.49 1.017-2.451 0-6.196.125-8.323.291-2.137.171-4.365 1.041-4.967 1.933-.583.907-1.378 2.645-1.767 3.852-.37 1.216.203 3.094 1.276 4.162 1.064 1.073 4.754 3.274 8.176 4.873 3.449 1.619 8.232 3.607 10.654 4.453 2.413.846 5.346 1.383 6.501 1.198 1.175-.189 2.174-3.348 2.238-7.02.065-3.69.074-8.929.028-11.667-.07-2.741-.37-4.785-.69-4.544" fill="#5DA545"/><path d="M291.57 18.257c-.027-.714-.397.317-.814 2.292-.416 1.97-1.757 6.839-2.978 10.802-1.23 3.963-3.995 10.365-6.141 14.233-2.145 3.864-4.957 8.277-6.233 9.822-1.286 1.538-3.792 3.873-5.586 5.175-1.776 1.32-4.504 3.746-6.03 5.408-1.517 1.658-2.774 4.039-2.774 5.29 0 1.244.499 3.66 1.091 5.36.592 1.708 1.443 3.669 1.887 4.374.444.691 4.088 1.26 8.083 1.26 4.014 0 8.602-.412 10.201-.927a95.768 95.768 0 0 0 5.697-2.028c1.525-.615 2.977-5.2 3.209-10.194.259-4.992.444-18.189.444-29.327-.01-11.126-.04-20.821-.06-21.54" fill="#387137"/><path d="M244.91 48.997c-.176.791.027 1.908.443 2.486.398.578 1.841 2.212 3.191 3.623 1.341 1.406 3.023 3.031 3.727 3.593.703.56 1.878 1.124 2.627 1.237.749.118 1.951-.199 2.691-.696.721-.511 2.386-1.894 3.681-3.077 1.285-1.193 4.189-4.315 6.437-6.943 2.266-2.613 5.623-7.378 7.491-10.564s4.051-7.628 4.855-9.873c.814-2.254 1.841-7.163 2.257-10.92.435-3.759.48-9.123.111-11.907-.37-2.795-2.941-5.182-5.707-5.299-2.765-.113-8.102-.113-11.865 0-3.746.118-6.77.456-6.715.749.047.277.241 1.642.417 3.001.176 1.373.064 4.934-.241 7.912-.332 2.994-1.229 7.648-2.016 10.356-.796 2.696-2.433 7.374-3.635 10.379-1.212 3.008-3.395 7.507-4.837 9.993-1.44 2.489-2.75 5.163-2.91 5.95M240.92 38.049c.823-1.359 2.137-4.233 2.895-6.388.777-2.155 2.118-6.615 2.979-9.924.859-3.31 1.85-8.287 2.164-11.068.323-2.779.379-6.141.139-7.475-.25-1.341-.99-2.497-1.665-2.58-.656-.077-6.002-.167-11.681-.167s-12.041.081-14.122.194c-2.108.099-3.478 1.278-3.07 2.622.416 1.346 1.035 4.414 1.387 6.814.361 2.398.943 7.983 1.332 12.398.36 4.428.36 9.294 0 10.839-.389 1.549-.675 3.353-.675 4.03s.499 1.496 1.119 1.827c.629.333 2.127 1.138 3.329 1.801 1.212.661 3.44 1.722 4.957 2.367 1.508.648 3.302 1.267 3.968 1.388.666.118 1.674-.153 2.247-.606.564-.442 1.517-1.436 2.118-2.208.56-.761 1.73-2.504 2.55-3.864" fill="#5DA545"/><path d="M175 8.708c1.055 1.775 2.812 5.489 3.922 8.25 1.109 2.756 2.793 6.904 3.736 9.227.925 2.317 2.099 6.136 2.589 8.476.5 2.349 1.286 4.768 1.758 5.359.462.608 1.295 1.166 1.85 1.256.555.081 1.822-.023 2.811-.226.989-.208 3.116-.731 4.717-1.152 1.591-.42 4.198-.961 5.77-1.211 1.591-.261 3.848-.456 5.041-.456 1.192 0 2.589-.448 3.098-1.008.518-.56 1.082-1.672 1.268-2.49.193-.809.342-4.125.342-7.369 0-3.253-.333-8.386-.722-11.422-.397-3.034-1.175-7.221-1.72-9.295-.527-2.074-1.406-4.314-1.914-4.99C207.027.98 206.39.288 206.14.126c-.259-.167-8.536-.167-18.414-.023-9.858.155-17.184 1.424-16.277 2.828.9 1.407 2.48 4.002 3.54 5.777" fill="#387137"/><path d="M160.99 60.668c.526.479 2.173.687 3.644.446 1.479-.243 3.968-1.318 5.53-2.377 1.572-1.066 3.366-2.407 3.986-2.964.629-.555 1.738-1.658 2.46-2.448.73-.772 1.804-2.733 1.813-3.552 0-.821-.795-5.53-1.507-7.923-.722-2.391-2.211-6.539-3.339-9.214-1.11-2.689-3.645-7.762-5.614-11.26-1.988-3.515-4.245-7.364-5.031-8.562-.768-1.197-2.284-3.225-3.366-4.499l-1.368.016h-.047c-.869 4.199-1.276 16.823-.896 28.055.36 11.213 1.128 21.072 1.701 21.891.6.828 1.51 1.904 2.05 2.391M30.992 203.74c-3.69 0-6.715 3.023-6.715 6.714v30.506c0 3.691-2.33 6.715-5.197 6.715-2.849 0-5.18-3.024-5.18-6.715v-30.506c0-3.69-3.023-6.714-6.714-6.714h-.471c-3.69 0-6.715-2.081-6.715-4.629s3.024-4.629 6.715-4.629h24.758c3.69 0 6.705 2.081 6.705 4.629s-3.015 4.629-6.705 4.629h-.481zM57.072 247.68c-3.689 0-6.705-3.024-6.705-6.715v-39.768c0-3.694 3.016-6.709 6.705-6.709h21.613c3.7 0 6.715 2.081 6.715 4.629s-3.015 4.629-6.715 4.629H67.459c-3.69 0-6.715 2.812-6.715 6.242 0 3.432 3.025 6.233 6.715 6.233h7.574c3.689 0 6.714 2.09 6.714 4.634 0 2.548-3.024 4.638-6.714 4.638h-7.574c-3.69 0-6.715 2.904-6.715 6.46 0 3.557 3.025 6.46 6.715 6.46h11.227c3.7 0 6.715 2.086 6.715 4.634s-3.015 4.634-6.715 4.634H57.072zM106.02 247.68c-3.69 0-6.705-3.024-6.705-6.715v-39.768c0-3.694 2.33-6.709 5.188-6.709s5.188 3.015 5.188 6.709v30.507c0 3.694 3.024 6.709 6.715 6.709h10.71c3.689 0 6.714 2.086 6.714 4.634s-3.024 4.634-6.714 4.634h-21.09zM181.69 247.68c-2.978 0-6.122-2.118-6.982-4.708-.869-2.589-4.587-4.707-8.277-4.707h-5.484c-3.699 0-7.445 2.118-8.314 4.707-.896 2.59-4.051 4.708-7.028 4.708-2.979 0-4.384-2.835-3.117-6.308l14.751-40.577c1.268-3.469 4.135-6.308 6.373-6.308s5.105 2.834 6.372 6.303l14.825 40.582c1.26 3.48-.14 6.32-3.11 6.32m-15.69-31.15c-1.174-3.496-3.125-3.505-4.337-.019l-2.313 6.668c-1.211 3.482.768 6.34 4.402 6.34 3.644 0 5.651-2.867 4.477-6.362l-2.23-6.63zM240.41 247.68c-2.857 0-5.189-3.024-5.189-6.715v-17.581c0-3.694-1.359-4.014-3.015-.717l-4.125 8.181c-1.665 3.297-4.605 5.992-6.529 5.992-1.942 0-4.893-2.69-6.557-5.983l-4.153-8.198c-1.683-3.288-3.042-2.969-3.042.726v17.581c0 3.691-2.331 6.715-5.188 6.715-2.858 0-5.198-3.024-5.198-6.715v-39.768c0-3.694 2.304-6.709 5.124-6.709 2.811 0 6.418 2.719 8.027 6.039l8.056 16.675c1.609 3.329 4.235 3.325 5.836 0l8.009-16.666c1.591-3.329 5.207-6.048 8.027-6.048 2.812 0 5.115 3.015 5.115 6.709v39.768c-.01 3.69-2.34 6.72-5.21 6.72M268.46 247.68c-3.69 0-6.705-3.024-6.705-6.715v-39.768c0-3.694 3.015-6.709 6.705-6.709h21.623c3.689 0 6.705 2.081 6.705 4.629s-3.016 4.629-6.705 4.629h-11.23c-3.689 0-6.705 2.812-6.705 6.242 0 3.432 3.016 6.233 6.705 6.233h7.574c3.69 0 6.715 2.09 6.715 4.634 0 2.548-3.024 4.638-6.715 4.638h-7.574c-3.689 0-6.705 2.904-6.705 6.46 0 3.557 3.016 6.46 6.705 6.46h11.237c3.689 0 6.705 2.086 6.705 4.634s-3.016 4.634-6.705 4.634h-21.6zM346.78 247.68c-2.543 0-6.261-2.539-8.268-5.642l-13.79-21.369c-1.997-3.103-3.635-2.617-3.635 1.073v19.223c0 3.691-2.34 6.715-5.189 6.715-2.857 0-5.197-3.024-5.197-6.715v-39.768c0-3.694 2.09-6.709 4.634-6.709 2.543 0 6.279 2.534 8.268 5.632l13.79 21.304c1.997 3.099 3.635 2.617 3.635-1.072v-19.154c0-3.694 2.34-6.709 5.197-6.709s5.197 3.015 5.197 6.709v39.768c0 3.69-2.09 6.72-4.64 6.72M394.59 203.74c-3.681 0-6.715 3.023-6.715 6.714v30.506c0 3.691-2.33 6.715-5.188 6.715s-5.18-3.024-5.18-6.715v-30.506c0-3.69-3.033-6.714-6.714-6.714h-.482c-3.681 0-6.714-2.081-6.714-4.629s3.033-4.629 6.714-4.629h24.768c3.681 0 6.705 2.081 6.705 4.629s-3.024 4.629-6.705 4.629h-.51zM445.16 247.68c-2.979 0-6.123-2.118-6.992-4.708-.86-2.589-4.587-4.707-8.277-4.707h-5.475c-3.7 0-7.445 2.118-8.324 4.707-.888 2.59-4.041 4.708-7.02 4.708-2.969 0-4.374-2.835-3.126-6.308l14.761-40.577c1.267-3.469 4.134-6.308 6.363-6.308 2.247 0 5.114 2.834 6.381 6.303l14.816 40.582c1.26 3.48-.14 6.32-3.11 6.32m-15.69-31.15c-1.175-3.496-3.136-3.505-4.347-.019l-2.313 6.668c-1.211 3.482.767 6.34 4.412 6.34 3.634 0 5.65-2.867 4.485-6.362l-2.23-6.63z" fill="#5DA545"/></svg>