<?xml version="1.0" encoding="UTF-8" standalone="no"?>
<!-- Created with Inkscape (http://www.inkscape.org/) -->

<svg
   xmlns:dc="http://purl.org/dc/elements/1.1/"
   xmlns:cc="http://creativecommons.org/ns#"
   xmlns:rdf="http://www.w3.org/1999/02/22-rdf-syntax-ns#"
   xmlns:svg="http://www.w3.org/2000/svg"
   xmlns="http://www.w3.org/2000/svg"
   xmlns:sodipodi="http://sodipodi.sourceforge.net/DTD/sodipodi-0.dtd"
   xmlns:inkscape="http://www.inkscape.org/namespaces/inkscape"
   id="svg4399"
   version="1.1"
   inkscape:version="0.91 r"
   xml:space="preserve"
   width="791.42749"
   height="258.66125"
   viewBox="0 0 791.42745 258.66126"
   sodipodi:docname="membership-organisation-clear.svg"><metadata
     id="metadata4405"><rdf:RDF><cc:Work
         rdf:about=""><dc:format>image/svg+xml</dc:format><dc:type
           rdf:resource="http://purl.org/dc/dcmitype/StillImage" /><dc:title></dc:title></cc:Work></rdf:RDF></metadata><defs
     id="defs4403"><linearGradient
       x1="0"
       y1="0"
       x2="1"
       y2="0"
       gradientUnits="userSpaceOnUse"
       gradientTransform="matrix(-18.507965,0,0,18.507965,427.72189,284.47882)"
       spreadMethod="pad"
       id="linearGradient4427"><stop
         style="stop-opacity:1;stop-color:#0077c0"
         offset="0"
         id="stop4429" /><stop
         style="stop-opacity:1;stop-color:#0077c0"
         offset="0.00492611"
         id="stop4431" /><stop
         style="stop-opacity:1;stop-color:#00558a"
         offset="1"
         id="stop4433" /></linearGradient><clipPath
       clipPathUnits="userSpaceOnUse"
       id="clipPath4441"><path
         d="m 0,595.28 841.89,0 L 841.89,0 0,0 0,595.28 Z"
         id="path4443"
         inkscape:connector-curvature="0" /></clipPath><linearGradient
       x1="0"
       y1="0"
       x2="1"
       y2="0"
       gradientUnits="userSpaceOnUse"
       gradientTransform="matrix(14.024369,14.024369,14.024369,-14.024369,369.73254,272.62659)"
       spreadMethod="pad"
       id="linearGradient4461"><stop
         style="stop-opacity:1;stop-color:#0077c0"
         offset="0"
         id="stop4463" /><stop
         style="stop-opacity:1;stop-color:#0077c0"
         offset="0.482759"
         id="stop4465" /><stop
         style="stop-opacity:1;stop-color:#00558a"
         offset="1"
         id="stop4467" /></linearGradient><clipPath
       clipPathUnits="userSpaceOnUse"
       id="clipPath4475"><path
         d="m 0,595.28 841.89,0 L 841.89,0 0,0 0,595.28 Z"
         id="path4477"
         inkscape:connector-curvature="0" /></clipPath><linearGradient
       x1="0"
       y1="0"
       x2="1"
       y2="0"
       gradientUnits="userSpaceOnUse"
       gradientTransform="matrix(-19.740511,0,0,19.740511,325.68744,284.47882)"
       spreadMethod="pad"
       id="linearGradient4495"><stop
         style="stop-opacity:1;stop-color:#00598e"
         offset="0"
         id="stop4497" /><stop
         style="stop-opacity:1;stop-color:#003a5c"
         offset="1"
         id="stop4499" /></linearGradient><clipPath
       clipPathUnits="userSpaceOnUse"
       id="clipPath4507"><path
         d="m 0,595.28 841.89,0 L 841.89,0 0,0 0,595.28 Z"
         id="path4509"
         inkscape:connector-curvature="0" /></clipPath><linearGradient
       x1="0"
       y1="0"
       x2="1"
       y2="0"
       gradientUnits="userSpaceOnUse"
       gradientTransform="matrix(-10.170495,0,0,10.170495,265.68091,274.6933)"
       spreadMethod="pad"
       id="linearGradient4527"><stop
         style="stop-opacity:1;stop-color:#00598e"
         offset="0"
         id="stop4529" /><stop
         style="stop-opacity:1;stop-color:#003a5c"
         offset="1"
         id="stop4531" /></linearGradient><linearGradient
       x1="0"
       y1="0"
       x2="1"
       y2="0"
       gradientUnits="userSpaceOnUse"
       gradientTransform="matrix(-10.070793,24.313045,-24.313045,-10.070793,197.46889,276.37277)"
       spreadMethod="pad"
       id="linearGradient4547"><stop
         style="stop-opacity:1;stop-color:#00598e"
         offset="0"
         id="stop4549" /><stop
         style="stop-opacity:1;stop-color:#0077c0"
         offset="1"
         id="stop4551" /></linearGradient><linearGradient
       x1="0"
       y1="0"
       x2="1"
       y2="0"
       gradientUnits="userSpaceOnUse"
       gradientTransform="matrix(-6.6512966,16.057652,-16.057652,-6.6512966,210.6644,295.12299)"
       spreadMethod="pad"
       id="linearGradient4567"><stop
         style="stop-opacity:1;stop-color:#ffaa05"
         offset="0"
         id="stop4569" /><stop
         style="stop-opacity:1;stop-color:#ffca05"
         offset="1"
         id="stop4571" /></linearGradient><linearGradient
       x1="0"
       y1="0"
       x2="1"
       y2="0"
       gradientUnits="userSpaceOnUse"
       gradientTransform="matrix(-6.6512966,16.057652,-16.057652,-6.6512966,174.51408,280.14902)"
       spreadMethod="pad"
       id="linearGradient4587"><stop
         style="stop-opacity:1;stop-color:#006432"
         offset="0"
         id="stop4589" /><stop
         style="stop-opacity:1;stop-color:#1d984a"
         offset="1"
         id="stop4591" /></linearGradient><linearGradient
       x1="0"
       y1="0"
       x2="1"
       y2="0"
       gradientUnits="userSpaceOnUse"
       gradientTransform="matrix(-6.6512966,16.057652,-16.057652,-6.6512966,195.16441,304.21497)"
       spreadMethod="pad"
       id="linearGradient4607"><stop
         style="stop-opacity:1;stop-color:#000000"
         offset="0"
         id="stop4609" /><stop
         style="stop-opacity:1;stop-color:#383435"
         offset="1"
         id="stop4611" /></linearGradient><linearGradient
       x1="0"
       y1="0"
       x2="1"
       y2="0"
       gradientUnits="userSpaceOnUse"
       gradientTransform="matrix(-6.6512966,16.057652,-16.057652,-6.6512966,179.04469,297.53796)"
       spreadMethod="pad"
       id="linearGradient4627"><stop
         style="stop-opacity:1;stop-color:#b31f24"
         offset="0"
         id="stop4629" /><stop
         style="stop-opacity:1;stop-color:#ed1c24"
         offset="1"
         id="stop4631" /></linearGradient><clipPath
       clipPathUnits="userSpaceOnUse"
       id="clipPath4639"><path
         d="m 0,595.28 841.89,0 L 841.89,0 0,0 0,595.28 Z"
         id="path4641"
         inkscape:connector-curvature="0" /></clipPath></defs><sodipodi:namedview
     pagecolor="#ffffff"
     bordercolor="#666666"
     borderopacity="1"
     objecttolerance="10"
     gridtolerance="10"
     guidetolerance="10"
     inkscape:pageopacity="0"
     inkscape:pageshadow="2"
     inkscape:window-width="1299"
     inkscape:window-height="920"
     id="namedview4401"
     showgrid="false"
     fit-margin-top="0"
     fit-margin-left="0"
     fit-margin-right="0"
     fit-margin-bottom="0"
     inkscape:zoom="0.31716168"
     inkscape:cx="395.71377"
     inkscape:cy="129.33126"
     inkscape:window-x="1845"
     inkscape:window-y="346"
     inkscape:window-maximized="0"
     inkscape:current-layer="g4407" /><g
     id="g4407"
     inkscape:groupmode="layer"
     inkscape:label="DASA_Membership_Logo_RGB_FA"
     transform="matrix(1.25,0,0,-1.25,-130.4675,501.38)"><path
       d="m 737.516,194.175 -633.142,0 0,206.929 633.142,0 0,-206.929 z"
       style="fill:#ffffff;fill-opacity:1;fill-rule:nonzero;stroke:none"
       id="path4409"
       inkscape:connector-curvature="0" /><g
       id="g4411"
       transform="translate(422.5339,310.6318)"><path
         d="m 0,0 -7.693,-19.06 15.3,0 L 0,0 Z m 13.334,-33.246 -26.752,0 -3.932,-9.83 -17.949,0 26.838,59.829 17.094,0 26.752,-59.829 -18.12,0 -3.931,9.83 z"
         style="fill:#0077c0;fill-opacity:1;fill-rule:nonzero;stroke:none"
         id="path4413"
         inkscape:connector-curvature="0" /></g><g
       id="g4415"><g
         id="g4417"><g
           id="g4423"><g
             id="g4425"><path
               d="m 427.722,277.386 -18.508,0 5.627,14.186 12.881,0 0,-14.186 z"
               style="fill:url(#linearGradient4427);stroke:none"
               id="path4435"
               inkscape:connector-curvature="0" /></g></g></g></g><g
       id="g4437"><g
         id="g4439"
         clip-path="url(#clipPath4441)"><g
           id="g4445"
           transform="translate(383.0175,310.803)"><path
             d="m 0,0 c -4.103,3.077 -8.804,4.103 -14.018,4.103 -4.102,0 -8.119,-1.282 -8.119,-4.445 0,-4.103 4.017,-4.7 9.915,-5.299 11.88,-1.282 24.273,-6.067 24.273,-19.828 0,-13.59 -12.821,-19.402 -26.24,-19.488 -10.769,-0.085 -18.46,1.796 -26.751,10.514 l 9.316,10.684 c 5.898,-5.727 12.479,-6.752 17.521,-6.752 5.555,0 9.401,1.964 9.401,5.299 0,2.991 -3.417,4.87 -9.998,5.47 -13.078,1.196 -24.361,4.53 -24.361,19.4 0,12.65 12.393,18.12 25.043,18.12 8.976,0 15.983,-2.05 22.394,-7.095 L 0,0 Z"
             style="fill:#0077c0;fill-opacity:1;fill-rule:nonzero;stroke:none"
             id="path4447"
             inkscape:connector-curvature="0" /></g></g></g><g
       id="g4449"><g
         id="g4451"><g
           id="g4457"><g
             id="g4459"><path
               d="m 378.221,284.712 c -0.784,-3.221 -4.52,-3.242 -5.913,-6.471 l 0,0 c -1.233,-2.858 1.443,-12.259 4.503,-11.62 l 0,0 c 7.428,1.551 13.766,5.027 13.766,8.517 l 0,0 c -10e-4,6.926 -7.903,15.158 -22.259,15.923 l 0,0 c 0,0 11.291,-0.654 9.903,-6.349"
               style="fill:url(#linearGradient4461);stroke:none"
               id="path4469"
               inkscape:connector-curvature="0" /></g></g></g></g><g
       id="g4471"><g
         id="g4473"
         clip-path="url(#clipPath4475)"><g
           id="g4479"
           transform="translate(311.6726,291.5723)"><path
             d="M 0,0 7.693,19.06 15.299,0 0,0 Z m 30.405,-15.212 5.775,6.623 -19.854,44.401 -17.094,0 -26.838,-59.828 17.949,0 3.931,9.829 26.752,0 3.932,-9.829 14.283,0 c -3.476,2.059 -6.187,4.756 -8.836,8.804"
             style="fill:#00598e;fill-opacity:1;fill-rule:nonzero;stroke:none"
             id="path4481"
             inkscape:connector-curvature="0" /></g></g></g><g
       id="g4483"><g
         id="g4485"><g
           id="g4491"><g
             id="g4493"><path
               d="m 311.673,291.572 -5.726,-14.187 19.74,0 0,14.187 -14.014,0 z"
               style="fill:url(#linearGradient4495);stroke:none"
               id="path4501"
               inkscape:connector-curvature="0" /></g></g></g></g><g
       id="g4503"><g
         id="g4505"
         clip-path="url(#clipPath4507)"><g
           id="g4511"
           transform="translate(255.5104,281.8305)"><path
             d="m 0,0 8.889,0 c 10.769,0 14.529,8.034 14.529,16.239 0,8.203 -4.187,15.212 -14.529,15.212 L 0,31.451 0,0 Z m 8.889,45.554 c 21.111,0 31.282,-12.99 31.282,-29.486 0,-16.496 -9.83,-30.342 -31.282,-30.342 l -25.642,0 0,59.828 25.642,0 z"
             style="fill:#00598e;fill-opacity:1;fill-rule:nonzero;stroke:none"
             id="path4513"
             inkscape:connector-curvature="0" /></g></g></g><g
       id="g4515"><g
         id="g4517"><g
           id="g4523"><g
             id="g4525"><path
               d="m 255.51,267.556 10.171,0 0,14.275 -10.171,0 0,-14.275 z"
               style="fill:url(#linearGradient4527);stroke:none"
               id="path4533"
               inkscape:connector-curvature="0" /></g></g></g></g><g
       id="g4535"><g
         id="g4537"><g
           id="g4543"><g
             id="g4545"><path
               d="m 186.023,298.445 -3.337,-8.054 c -2.3,-5.553 0.347,-11.942 5.9,-14.242 l 0,0 c 2.69,-1.114 5.653,-1.114 8.343,0 l 0,0 c 2.69,1.114 4.785,3.209 5.899,5.899 l 0,0 c 2.3,5.553 -0.346,11.942 -5.899,14.243 l 0,0 -8.054,3.336 -2.017,0.835 -0.835,-2.017 z"
               style="fill:url(#linearGradient4547);stroke:none"
               id="path4553"
               inkscape:connector-curvature="0" /></g></g></g></g><g
       id="g4555"><g
         id="g4557"><g
           id="g4563"><g
             id="g4565"><path
               d="m 203.105,309.701 -2.203,-5.319 c -1.52,-3.668 0.228,-7.888 3.896,-9.407 l 0,0 c 1.776,-0.735 3.733,-0.736 5.509,0 l 0,0 c 1.777,0.736 3.159,2.119 3.897,3.896 l 0,0 c 1.519,3.668 -0.229,7.888 -3.897,9.407 l 0,0 -5.319,2.203 -1.332,0.552 -0.551,-1.332 z"
               style="fill:url(#linearGradient4567);stroke:none"
               id="path4573"
               inkscape:connector-curvature="0" /></g></g></g></g><g
       id="g4575"><g
         id="g4577"><g
           id="g4583"><g
             id="g4585"><path
               d="m 166.954,294.727 -2.205,-5.319 c -1.518,-3.668 0.23,-7.888 3.897,-9.407 l 0,0 c 1.777,-0.735 3.735,-0.735 5.511,0 l 0,0 c 1.777,0.736 3.16,2.119 3.896,3.896 l 0,0 c 1.519,3.667 -0.228,7.887 -3.896,9.407 l 0,0 -5.32,2.203 -1.332,0.552 -0.551,-1.332 z"
               style="fill:url(#linearGradient4587);stroke:none"
               id="path4593"
               inkscape:connector-curvature="0" /></g></g></g></g><g
       id="g4595"><g
         id="g4597"><g
           id="g4603"><g
             id="g4605"><path
               d="m 187.605,318.793 -2.204,-5.319 c -1.519,-3.668 0.229,-7.888 3.897,-9.407 l 0,0 c 1.776,-0.736 3.733,-0.736 5.51,0 l 0,0 c 1.776,0.736 3.16,2.12 3.896,3.897 l 0,0 c 1.519,3.667 -0.229,7.886 -3.896,9.406 l 0,0 -5.32,2.203 -1.331,0.552 -0.552,-1.332 z"
               style="fill:url(#linearGradient4607);stroke:none"
               id="path4613"
               inkscape:connector-curvature="0" /></g></g></g></g><g
       id="g4615"><g
         id="g4617"><g
           id="g4623"><g
             id="g4625"><path
               d="m 171.485,312.116 -2.204,-5.32 c -1.518,-3.667 0.229,-7.887 3.897,-9.406 l 0,0 c 1.777,-0.736 3.733,-0.736 5.51,0 l 0,0 c 1.776,0.736 3.16,2.12 3.896,3.897 l 0,0 c 1.519,3.667 -0.229,7.886 -3.896,9.406 l 0,0 -5.32,2.203 -1.331,0.551 -0.552,-1.331 z"
               style="fill:url(#linearGradient4627);stroke:none"
               id="path4633"
               inkscape:connector-curvature="0" /></g></g></g></g><g
       id="g4635"><g
         id="g4637"
         clip-path="url(#clipPath4639)"><g
           id="g4643"
           transform="translate(500.1386,254.0603)"><path
             d="m 0,0 -38.815,86.818 -1.242,0 L -1.243,0 0,0 Z"
             style="fill:#bebec8;fill-opacity:1;fill-rule:nonzero;stroke:none"
             id="path4645"
             inkscape:connector-curvature="0" /></g><g
           id="g4647"
           transform="translate(524.2398,311.1794)"><path
             d="m 0,0 c 0,2.398 -1.562,4.247 -3.983,4.247 -2.443,0 -4.004,-1.849 -4.004,-4.247 0,-2.376 1.561,-4.247 4.004,-4.247 C -1.562,-4.247 0,-2.376 0,0 m -11.838,0 c 0,4.467 3.366,7.591 7.855,7.591 4.489,0 7.834,-3.124 7.834,-7.591 0,-4.467 -3.345,-7.591 -7.834,-7.591 -4.489,0 -7.855,3.124 -7.855,7.591"
             style="fill:#00598e;fill-opacity:1;fill-rule:nonzero;stroke:none"
             id="path4649"
             inkscape:connector-curvature="0" /></g><g
           id="g4651"
           transform="translate(538.8257,313.6657)"><path
             d="m 0,0 c 0,0.99 -0.837,1.562 -1.826,1.562 l -2.993,0 0,-3.146 2.993,0 C -0.837,-1.584 0,-1.034 0,0 m -0.418,-9.813 -2.465,4.928 -1.936,0 0,-4.928 -3.785,0 0,14.676 7.349,0 c 3.257,0 5.106,-2.156 5.106,-4.885 0,-2.552 -1.563,-3.916 -2.927,-4.401 l 2.992,-5.39 -4.334,0 z"
             style="fill:#00598e;fill-opacity:1;fill-rule:nonzero;stroke:none"
             id="path4653"
             inkscape:connector-curvature="0" /></g><g
           id="g4655"
           transform="translate(544.2359,311.1794)"><path
             d="m 0,0 c 0,4.665 3.564,7.591 7.943,7.591 3.279,0 5.259,-1.738 6.271,-3.565 L 11.045,2.376 C 10.495,3.344 9.373,4.247 7.943,4.247 5.545,4.247 3.851,2.398 3.851,0 c 0,-2.398 1.694,-4.247 4.092,-4.247 1.078,0 2.178,0.44 2.706,0.88 l 0,1.144 -3.3,0 0,3.323 7.085,0 0,-5.831 C 12.85,-6.469 10.716,-7.591 7.943,-7.591 3.564,-7.591 0,-4.665 0,0"
             style="fill:#00598e;fill-opacity:1;fill-rule:nonzero;stroke:none"
             id="path4657"
             inkscape:connector-curvature="0" /></g><g
           id="g4659"
           transform="translate(567.2701,314.7878)"><path
             d="m 0,0 -1.87,-5.523 3.74,0 L 0,0 Z m 3.631,-10.936 -0.727,2.113 -5.787,0 -0.725,-2.113 -4.291,0 5.523,14.677 4.752,0 5.545,-14.677 -4.29,0 z"
             style="fill:#00598e;fill-opacity:1;fill-rule:nonzero;stroke:none"
             id="path4661"
             inkscape:connector-curvature="0" /></g><g
           id="g4663"
           transform="translate(586.4771,303.8522)"><path
             d="m 0,0 -6.205,8.493 0,-8.493 -3.784,0 0,14.676 3.894,0 5.941,-8.075 0,8.075 3.806,0 L 3.652,0 0,0 Z"
             style="fill:#00598e;fill-opacity:1;fill-rule:nonzero;stroke:none"
             id="path4665"
             inkscape:connector-curvature="0" /></g><path
           d="m 592.987,318.528 3.784,0 0,-14.676 -3.784,0 0,14.676 z"
           style="fill:#00598e;fill-opacity:1;fill-rule:nonzero;stroke:none"
           id="path4667"
           inkscape:connector-curvature="0" /><g
           id="g4669"
           transform="translate(598.5748,305.9206)"><path
             d="M 0,0 2.003,2.838 C 3.059,1.782 4.687,0.902 6.689,0.902 c 1.298,0 2.09,0.506 2.09,1.21 0,0.77 -1.099,1.013 -2.508,1.299 -2.42,0.484 -5.808,1.144 -5.808,4.752 0,2.464 2.09,4.665 5.852,4.665 2.355,0 4.401,-0.704 5.963,-2.047 L 10.21,8.075 C 8.978,9.087 7.371,9.593 5.919,9.593 4.819,9.593 4.335,9.153 4.335,8.537 4.335,7.833 5.457,7.591 6.865,7.261 9.286,6.755 12.63,6.029 12.63,2.574 12.63,-0.374 10.452,-2.333 6.514,-2.333 3.543,-2.333 1.475,-1.408 0,0"
             style="fill:#00598e;fill-opacity:1;fill-rule:nonzero;stroke:none"
             id="path4671"
             inkscape:connector-curvature="0" /></g><g
           id="g4673"
           transform="translate(619.2994,314.7878)"><path
             d="m 0,0 -1.87,-5.523 3.74,0 L 0,0 Z m 3.631,-10.936 -0.727,2.113 -5.787,0 -0.725,-2.113 -4.291,0 5.523,14.677 4.752,0 5.545,-14.677 -4.29,0 z"
             style="fill:#00598e;fill-opacity:1;fill-rule:nonzero;stroke:none"
             id="path4675"
             inkscape:connector-curvature="0" /></g><g
           id="g4677"
           transform="translate(630.4312,303.8522)"><path
             d="m 0,0 0,11.375 -4.114,0 0,3.301 11.991,0 0,-3.301 -4.093,0 L 3.784,0 0,0 Z"
             style="fill:#00598e;fill-opacity:1;fill-rule:nonzero;stroke:none"
             id="path4679"
             inkscape:connector-curvature="0" /></g><path
           d="m 640.331,318.528 3.784,0 0,-14.676 -3.784,0 0,14.676 z"
           style="fill:#00598e;fill-opacity:1;fill-rule:nonzero;stroke:none"
           id="path4681"
           inkscape:connector-curvature="0" /><g
           id="g4683"
           transform="translate(658.064,311.1794)"><path
             d="m 0,0 c 0,2.398 -1.562,4.247 -3.983,4.247 -2.443,0 -4.004,-1.849 -4.004,-4.247 0,-2.376 1.561,-4.247 4.004,-4.247 C -1.562,-4.247 0,-2.376 0,0 m -11.838,0 c 0,4.467 3.366,7.591 7.855,7.591 4.489,0 7.834,-3.124 7.834,-7.591 0,-4.467 -3.345,-7.591 -7.834,-7.591 -4.489,0 -7.855,3.124 -7.855,7.591"
             style="fill:#00598e;fill-opacity:1;fill-rule:nonzero;stroke:none"
             id="path4685"
             inkscape:connector-curvature="0" /></g><g
           id="g4687"
           transform="translate(674.0357,303.8522)"><path
             d="m 0,0 -6.205,8.493 0,-8.493 -3.784,0 0,14.676 3.894,0 5.941,-8.075 0,8.075 3.806,0 L 3.652,0 0,0 Z"
             style="fill:#00598e;fill-opacity:1;fill-rule:nonzero;stroke:none"
             id="path4689"
             inkscape:connector-curvature="0" /></g><g
           id="g4691"
           transform="translate(565.2027,278.8522)"><path
             d="M 0,0 0,12.08 -4.994,0 l -0.748,0 -4.973,12.08 0,-12.08 -1.827,0 0,14.676 2.619,0 4.555,-11.046 4.576,11.046 2.618,0 L 1.826,0 0,0 Z"
             style="fill:#00598e;fill-opacity:1;fill-rule:nonzero;stroke:none"
             id="path4693"
             inkscape:connector-curvature="0" /></g><g
           id="g4695"
           transform="translate(570.6783,278.8522)"><path
             d="m 0,0 0,14.676 9.616,0 0,-1.628 -7.789,0 0,-4.731 7.635,0 0,-1.628 -7.635,0 0,-5.061 7.789,0 L 9.616,0 0,0 Z"
             style="fill:#00598e;fill-opacity:1;fill-rule:nonzero;stroke:none"
             id="path4697"
             inkscape:connector-curvature="0" /></g><g
           id="g4699"
           transform="translate(595.9586,278.8522)"><path
             d="M 0,0 0,12.08 -4.994,0 l -0.748,0 -4.973,12.08 0,-12.08 -1.827,0 0,14.676 2.619,0 4.555,-11.046 4.576,11.046 2.618,0 L 1.826,0 0,0 Z"
             style="fill:#00598e;fill-opacity:1;fill-rule:nonzero;stroke:none"
             id="path4701"
             inkscape:connector-curvature="0" /></g><g
           id="g4703"
           transform="translate(610.4781,283.0109)"><path
             d="m 0,0 c 0,1.342 -0.925,2.53 -2.729,2.53 l -4.488,0 0,-5.06 4.488,0 C -1.013,-2.53 0,-1.562 0,0 m -0.286,6.513 c 0,1.32 -0.88,2.376 -2.53,2.376 l -4.401,0 0,-4.73 4.401,0 c 1.65,0 2.53,1.011 2.53,2.354 m -8.758,-10.672 0,14.677 6.535,0 c 2.553,0 4.115,-1.541 4.115,-3.741 0,-1.848 -1.232,-3.081 -2.575,-3.366 1.563,-0.243 2.861,-1.849 2.861,-3.609 0,-2.354 -1.562,-3.961 -4.246,-3.961 l -6.69,0 z"
             style="fill:#00598e;fill-opacity:1;fill-rule:nonzero;stroke:none"
             id="path4705"
             inkscape:connector-curvature="0" /></g><g
           id="g4707"
           transform="translate(615.4918,278.8522)"><path
             d="m 0,0 0,14.676 9.616,0 0,-1.628 -7.789,0 0,-4.731 7.635,0 0,-1.628 -7.635,0 0,-5.061 7.789,0 L 9.616,0 0,0 Z"
             style="fill:#00598e;fill-opacity:1;fill-rule:nonzero;stroke:none"
             id="path4709"
             inkscape:connector-curvature="0" /></g><g
           id="g4711"
           transform="translate(636.8336,289.1056)"><path
             d="m 0,0 c 0,1.65 -1.188,2.794 -2.926,2.794 l -3.85,0 0,-5.61 3.85,0 C -1.188,-2.816 0,-1.65 0,0 m -0.109,-10.253 -3.742,5.831 -2.925,0 0,-5.831 -1.828,0 0,14.676 5.898,0 c 2.685,0 4.599,-1.716 4.599,-4.423 0,-2.64 -1.805,-4.092 -3.807,-4.269 l 3.961,-5.984 -2.156,0 z"
             style="fill:#00598e;fill-opacity:1;fill-rule:nonzero;stroke:none"
             id="path4713"
             inkscape:connector-curvature="0" /></g></g></g></g></svg>