<?xml version="1.0" encoding="UTF-8" standalone="no"?>
<!-- Created with Inkscape (http://www.inkscape.org/) -->

<svg
   xmlns:dc="http://purl.org/dc/elements/1.1/"
   xmlns:cc="http://creativecommons.org/ns#"
   xmlns:rdf="http://www.w3.org/1999/02/22-rdf-syntax-ns#"
   xmlns:svg="http://www.w3.org/2000/svg"
   xmlns="http://www.w3.org/2000/svg"
   xmlns:sodipodi="http://sodipodi.sourceforge.net/DTD/sodipodi-0.dtd"
   xmlns:inkscape="http://www.inkscape.org/namespaces/inkscape"
   id="svg2"
   version="1.1"
   inkscape:version="0.91 r"
   xml:space="preserve"
   width="831.32373"
   height="214.01962"
   viewBox="0 0 831.32369 214.01962"
   sodipodi:docname="membership-organisation-rectangle.svg"><metadata
     id="metadata8"><rdf:RDF><cc:Work
         rdf:about=""><dc:format>image/svg+xml</dc:format><dc:type
           rdf:resource="http://purl.org/dc/dcmitype/StillImage" /><dc:title></dc:title></cc:Work></rdf:RDF></metadata><defs
     id="defs6"><linearGradient
       x1="0"
       y1="0"
       x2="1"
       y2="0"
       gradientUnits="userSpaceOnUse"
       gradientTransform="matrix(-18.507965,0,0,18.507965,407.86545,284.47882)"
       spreadMethod="pad"
       id="linearGradient34"><stop
         style="stop-opacity:1;stop-color:#0077c0"
         offset="0"
         id="stop36" /><stop
         style="stop-opacity:1;stop-color:#0077c0"
         offset="0.00492611"
         id="stop38" /><stop
         style="stop-opacity:1;stop-color:#00558a"
         offset="1"
         id="stop40" /></linearGradient><clipPath
       clipPathUnits="userSpaceOnUse"
       id="clipPath48"><path
         d="m 0,595.28 841.89,0 L 841.89,0 0,0 0,595.28 Z"
         id="path50"
         inkscape:connector-curvature="0" /></clipPath><linearGradient
       x1="0"
       y1="0"
       x2="1"
       y2="0"
       gradientUnits="userSpaceOnUse"
       gradientTransform="matrix(14.024369,14.024369,14.024369,-14.024369,349.87607,272.62659)"
       spreadMethod="pad"
       id="linearGradient68"><stop
         style="stop-opacity:1;stop-color:#0077c0"
         offset="0"
         id="stop70" /><stop
         style="stop-opacity:1;stop-color:#0077c0"
         offset="0.482759"
         id="stop72" /><stop
         style="stop-opacity:1;stop-color:#00558a"
         offset="1"
         id="stop74" /></linearGradient><clipPath
       clipPathUnits="userSpaceOnUse"
       id="clipPath82"><path
         d="m 0,595.28 841.89,0 L 841.89,0 0,0 0,595.28 Z"
         id="path84"
         inkscape:connector-curvature="0" /></clipPath><linearGradient
       x1="0"
       y1="0"
       x2="1"
       y2="0"
       gradientUnits="userSpaceOnUse"
       gradientTransform="matrix(-19.740511,0,0,19.740511,305.83096,284.47882)"
       spreadMethod="pad"
       id="linearGradient102"><stop
         style="stop-opacity:1;stop-color:#00598e"
         offset="0"
         id="stop104" /><stop
         style="stop-opacity:1;stop-color:#003a5c"
         offset="1"
         id="stop106" /></linearGradient><clipPath
       clipPathUnits="userSpaceOnUse"
       id="clipPath114"><path
         d="m 0,595.28 841.89,0 L 841.89,0 0,0 0,595.28 Z"
         id="path116"
         inkscape:connector-curvature="0" /></clipPath><linearGradient
       x1="0"
       y1="0"
       x2="1"
       y2="0"
       gradientUnits="userSpaceOnUse"
       gradientTransform="matrix(-10.170495,0,0,10.170495,245.82443,274.69327)"
       spreadMethod="pad"
       id="linearGradient134"><stop
         style="stop-opacity:1;stop-color:#00598e"
         offset="0"
         id="stop136" /><stop
         style="stop-opacity:1;stop-color:#003a5c"
         offset="1"
         id="stop138" /></linearGradient><linearGradient
       x1="0"
       y1="0"
       x2="1"
       y2="0"
       gradientUnits="userSpaceOnUse"
       gradientTransform="matrix(-10.070793,24.313045,-24.313045,-10.070793,177.61243,276.37277)"
       spreadMethod="pad"
       id="linearGradient154"><stop
         style="stop-opacity:1;stop-color:#00598e"
         offset="0"
         id="stop156" /><stop
         style="stop-opacity:1;stop-color:#0077c0"
         offset="1"
         id="stop158" /></linearGradient><linearGradient
       x1="0"
       y1="0"
       x2="1"
       y2="0"
       gradientUnits="userSpaceOnUse"
       gradientTransform="matrix(-6.6512966,16.057652,-16.057652,-6.6512966,190.80794,295.12299)"
       spreadMethod="pad"
       id="linearGradient174"><stop
         style="stop-opacity:1;stop-color:#ffaa05"
         offset="0"
         id="stop176" /><stop
         style="stop-opacity:1;stop-color:#ffca05"
         offset="1"
         id="stop178" /></linearGradient><linearGradient
       x1="0"
       y1="0"
       x2="1"
       y2="0"
       gradientUnits="userSpaceOnUse"
       gradientTransform="matrix(-6.6512966,16.057652,-16.057652,-6.6512966,154.65762,280.14902)"
       spreadMethod="pad"
       id="linearGradient194"><stop
         style="stop-opacity:1;stop-color:#006432"
         offset="0"
         id="stop196" /><stop
         style="stop-opacity:1;stop-color:#1d984a"
         offset="1"
         id="stop198" /></linearGradient><linearGradient
       x1="0"
       y1="0"
       x2="1"
       y2="0"
       gradientUnits="userSpaceOnUse"
       gradientTransform="matrix(-6.6512966,16.057652,-16.057652,-6.6512966,175.30795,304.21497)"
       spreadMethod="pad"
       id="linearGradient214"><stop
         style="stop-opacity:1;stop-color:#000000"
         offset="0"
         id="stop216" /><stop
         style="stop-opacity:1;stop-color:#383435"
         offset="1"
         id="stop218" /></linearGradient><linearGradient
       x1="0"
       y1="0"
       x2="1"
       y2="0"
       gradientUnits="userSpaceOnUse"
       gradientTransform="matrix(-6.6512966,16.057652,-16.057652,-6.6512966,159.18823,297.53793)"
       spreadMethod="pad"
       id="linearGradient234"><stop
         style="stop-opacity:1;stop-color:#b31f24"
         offset="0"
         id="stop236" /><stop
         style="stop-opacity:1;stop-color:#ed1c24"
         offset="1"
         id="stop238" /></linearGradient><clipPath
       clipPathUnits="userSpaceOnUse"
       id="clipPath246"><path
         d="m 0,595.28 841.89,0 L 841.89,0 0,0 0,595.28 Z"
         id="path248"
         inkscape:connector-curvature="0" /></clipPath></defs><sodipodi:namedview
     pagecolor="#ffffff"
     bordercolor="#666666"
     borderopacity="1"
     objecttolerance="10"
     gridtolerance="10"
     guidetolerance="10"
     inkscape:pageopacity="0"
     inkscape:pageshadow="2"
     inkscape:window-width="1318"
     inkscape:window-height="409"
     id="namedview4"
     showgrid="false"
     inkscape:zoom="0.31716168"
     inkscape:cx="-118.76646"
     inkscape:cy="107.00964"
     inkscape:window-x="1664"
     inkscape:window-y="585"
     inkscape:window-maximized="0"
     inkscape:current-layer="g10"
     fit-margin-top="0"
     fit-margin-left="0"
     fit-margin-right="0"
     fit-margin-bottom="0" /><g
     id="g10"
     inkscape:groupmode="layer"
     inkscape:label="DASA_Membership_Logo_RGB_FA"
     transform="matrix(1.25,0,0,-1.25,-110.52,479.06)"><g
       id="g12"
       transform="translate(753.4747,212.0323)"><path
         d="M 0,0 -254.909,0 -330.878,171.215 0,171.215 0,0 Z"
         style="fill:#00598e;fill-opacity:1;fill-rule:nonzero;stroke:none"
         id="path14"
         inkscape:connector-curvature="0" /></g><path
       d="m 753.475,383.248 -665.059,0 0,-171.215 665.059,0 0,171.215 z m -2,-169.216 -661.059,0 0,167.215 661.059,0 0,-167.215 z"
       style="fill:#00598e;fill-opacity:1;fill-rule:nonzero;stroke:none"
       id="path16"
       inkscape:connector-curvature="0" /><g
       id="g18"
       transform="translate(402.6775,310.6318)"><path
         d="m 0,0 -7.693,-19.06 15.3,0 L 0,0 Z m 13.334,-33.246 -26.752,0 -3.932,-9.83 -17.949,0 26.838,59.829 17.094,0 26.752,-59.829 -18.12,0 -3.931,9.83 z"
         style="fill:#0077c0;fill-opacity:1;fill-rule:nonzero;stroke:none"
         id="path20"
         inkscape:connector-curvature="0" /></g><g
       id="g22"><g
         id="g24"><g
           id="g30"><g
             id="g32"><path
               d="m 407.865,277.386 -18.508,0 5.627,14.186 12.881,0 0,-14.186 z"
               style="fill:url(#linearGradient34);stroke:none"
               id="path42"
               inkscape:connector-curvature="0" /></g></g></g></g><g
       id="g44"><g
         id="g46"
         clip-path="url(#clipPath48)"><g
           id="g52"
           transform="translate(363.161,310.803)"><path
             d="m 0,0 c -4.103,3.077 -8.804,4.103 -14.018,4.103 -4.102,0 -8.119,-1.282 -8.119,-4.445 0,-4.103 4.017,-4.7 9.915,-5.299 11.88,-1.282 24.273,-6.067 24.273,-19.828 0,-13.59 -12.821,-19.402 -26.24,-19.488 -10.769,-0.085 -18.46,1.796 -26.751,10.514 l 9.316,10.684 c 5.898,-5.727 12.479,-6.752 17.521,-6.752 5.555,0 9.401,1.964 9.401,5.299 0,2.991 -3.417,4.87 -9.998,5.47 -13.078,1.196 -24.361,4.53 -24.361,19.4 0,12.65 12.393,18.12 25.043,18.12 8.976,0 15.983,-2.05 22.394,-7.095 L 0,0 Z"
             style="fill:#0077c0;fill-opacity:1;fill-rule:nonzero;stroke:none"
             id="path54"
             inkscape:connector-curvature="0" /></g></g></g><g
       id="g56"><g
         id="g58"><g
           id="g64"><g
             id="g66"><path
               d="m 358.365,284.712 c -0.785,-3.221 -4.521,-3.242 -5.913,-6.471 l 0,0 c -1.232,-2.858 1.442,-12.259 4.503,-11.62 l 0,0 c 7.428,1.551 13.766,5.027 13.766,8.517 l 0,0 c -0.002,6.926 -7.904,15.158 -22.26,15.923 l 0,0 c 0,0 11.292,-0.654 9.904,-6.349"
               style="fill:url(#linearGradient68);stroke:none"
               id="path76"
               inkscape:connector-curvature="0" /></g></g></g></g><g
       id="g78"><g
         id="g80"
         clip-path="url(#clipPath82)"><g
           id="g86"
           transform="translate(291.8162,291.5723)"><path
             d="M 0,0 7.693,19.06 15.299,0 0,0 Z m 30.405,-15.212 5.775,6.623 -19.854,44.401 -17.094,0 -26.838,-59.828 17.949,0 3.931,9.829 26.752,0 3.932,-9.829 14.283,0 c -3.476,2.059 -6.187,4.756 -8.836,8.804"
             style="fill:#00598e;fill-opacity:1;fill-rule:nonzero;stroke:none"
             id="path88"
             inkscape:connector-curvature="0" /></g></g></g><g
       id="g90"><g
         id="g92"><g
           id="g98"><g
             id="g100"><path
               d="m 291.816,291.572 -5.726,-14.187 19.741,0 0,14.187 -14.015,0 z"
               style="fill:url(#linearGradient102);stroke:none"
               id="path108"
               inkscape:connector-curvature="0" /></g></g></g></g><g
       id="g110"><g
         id="g112"
         clip-path="url(#clipPath114)"><g
           id="g118"
           transform="translate(235.6539,281.8305)"><path
             d="m 0,0 8.889,0 c 10.769,0 14.529,8.034 14.529,16.239 0,8.203 -4.187,15.212 -14.529,15.212 L 0,31.451 0,0 Z m 8.889,45.554 c 21.111,0 31.282,-12.99 31.282,-29.486 0,-16.496 -9.83,-30.342 -31.282,-30.342 l -25.642,0 0,59.828 25.642,0 z"
             style="fill:#00598e;fill-opacity:1;fill-rule:nonzero;stroke:none"
             id="path120"
             inkscape:connector-curvature="0" /></g></g></g><g
       id="g122"><g
         id="g124"><g
           id="g130"><g
             id="g132"><path
               d="m 235.654,267.556 10.17,0 0,14.275 -10.17,0 0,-14.275 z"
               style="fill:url(#linearGradient134);stroke:none"
               id="path140"
               inkscape:connector-curvature="0" /></g></g></g></g><g
       id="g142"><g
         id="g144"><g
           id="g150"><g
             id="g152"><path
               d="m 166.166,298.445 -3.335,-8.054 c -2.302,-5.553 0.345,-11.942 5.898,-14.242 l 0,0 c 2.69,-1.114 5.653,-1.114 8.343,0 l 0,0 c 2.69,1.114 4.786,3.209 5.901,5.899 l 0,0 c 2.298,5.553 -0.348,11.942 -5.901,14.243 l 0,0 -8.054,3.336 -2.017,0.835 -0.835,-2.017 z"
               style="fill:url(#linearGradient154);stroke:none"
               id="path160"
               inkscape:connector-curvature="0" /></g></g></g></g><g
       id="g162"><g
         id="g164"><g
           id="g170"><g
             id="g172"><path
               d="m 183.248,309.701 -2.202,-5.319 c -1.52,-3.668 0.227,-7.888 3.895,-9.407 l 0,0 c 1.777,-0.735 3.733,-0.736 5.511,0 l 0,0 c 1.775,0.736 3.159,2.119 3.896,3.896 l 0,0 c 1.518,3.668 -0.23,7.888 -3.896,9.407 l 0,0 -5.32,2.203 -1.331,0.552 -0.553,-1.332 z"
               style="fill:url(#linearGradient174);stroke:none"
               id="path180"
               inkscape:connector-curvature="0" /></g></g></g></g><g
       id="g182"><g
         id="g184"><g
           id="g190"><g
             id="g192"><path
               d="m 147.098,294.727 -2.204,-5.319 c -1.52,-3.668 0.228,-7.888 3.897,-9.407 l 0,0 c 1.775,-0.735 3.734,-0.735 5.509,0 l 0,0 c 1.777,0.736 3.16,2.119 3.897,3.896 l 0,0 c 1.52,3.667 -0.229,7.887 -3.897,9.407 l 0,0 -5.319,2.203 -1.332,0.552 -0.551,-1.332 z"
               style="fill:url(#linearGradient194);stroke:none"
               id="path200"
               inkscape:connector-curvature="0" /></g></g></g></g><g
       id="g202"><g
         id="g204"><g
           id="g210"><g
             id="g212"><path
               d="m 167.748,318.793 -2.204,-5.319 c -1.519,-3.668 0.23,-7.888 3.897,-9.407 l 0,0 c 1.778,-0.736 3.733,-0.736 5.51,0 l 0,0 c 1.777,0.736 3.161,2.12 3.896,3.897 l 0,0 c 1.519,3.667 -0.229,7.886 -3.896,9.406 l 0,0 -5.32,2.203 -1.331,0.552 -0.552,-1.332 z"
               style="fill:url(#linearGradient214);stroke:none"
               id="path220"
               inkscape:connector-curvature="0" /></g></g></g></g><g
       id="g222"><g
         id="g224"><g
           id="g230"><g
             id="g232"><path
               d="m 151.628,312.116 -2.204,-5.32 c -1.518,-3.667 0.231,-7.887 3.897,-9.406 l 0,0 c 1.778,-0.736 3.733,-0.736 5.51,0 l 0,0 c 1.777,0.736 3.161,2.12 3.896,3.897 l 0,0 c 1.519,3.667 -0.228,7.886 -3.896,9.406 l 0,0 -5.32,2.203 -1.331,0.551 -0.552,-1.331 z"
               style="fill:url(#linearGradient234);stroke:none"
               id="path240"
               inkscape:connector-curvature="0" /></g></g></g></g><g
       id="g242"><g
         id="g244"
         clip-path="url(#clipPath246)"><g
           id="g250"
           transform="translate(498.1965,212.0329)"><path
             d="M 0,0 C -0.217,0 -0.424,0.125 -0.518,0.336"
             style="fill:#bebec8;fill-opacity:1;fill-rule:nonzero;stroke:none"
             id="path252"
             inkscape:connector-curvature="0" /></g><g
           id="g254"
           transform="translate(509.2222,311.7951)"><path
             d="m 0,0 c 0,2.942 -1.916,5.209 -4.886,5.209 -2.996,0 -4.912,-2.267 -4.912,-5.209 0,-2.916 1.916,-5.21 4.912,-5.21 C -1.916,-5.21 0,-2.916 0,0 m -14.521,0 c 0,5.479 4.129,9.313 9.635,9.313 5.507,0 9.61,-3.834 9.61,-9.313 0,-5.479 -4.103,-9.313 -9.61,-9.313 -5.506,0 -9.635,3.834 -9.635,9.313"
             style="fill:#ffffff;fill-opacity:1;fill-rule:nonzero;stroke:none"
             id="path256"
             inkscape:connector-curvature="0" /></g><g
           id="g258"
           transform="translate(527.1245,314.8449)"><path
             d="m 0,0 c 0,1.215 -1.025,1.917 -2.24,1.917 l -3.671,0 0,-3.86 3.671,0 C -1.025,-1.943 0,-1.269 0,0 m -0.513,-12.039 -3.023,6.047 -2.375,0 0,-6.047 -4.644,0 0,18.005 9.016,0 c 3.995,0 6.263,-2.646 6.263,-5.993 0,-3.131 -1.916,-4.805 -3.59,-5.398 l 3.671,-6.614 -5.318,0 z"
             style="fill:#ffffff;fill-opacity:1;fill-rule:nonzero;stroke:none"
             id="path260"
             inkscape:connector-curvature="0" /></g><g
           id="g262"
           transform="translate(533.769,311.7951)"><path
             d="m 0,0 c 0,5.722 4.372,9.313 9.744,9.313 4.022,0 6.451,-2.133 7.693,-4.374 L 13.55,2.915 C 12.875,4.103 11.499,5.209 9.744,5.209 6.802,5.209 4.724,2.942 4.724,0 c 0,-2.942 2.078,-5.21 5.02,-5.21 1.322,0 2.672,0.54 3.32,1.08 l 0,1.403 -4.048,0 0,4.077 8.691,0 0,-7.154 C 15.764,-7.936 13.146,-9.313 9.744,-9.313 4.372,-9.313 0,-5.723 0,0"
             style="fill:#ffffff;fill-opacity:1;fill-rule:nonzero;stroke:none"
             id="path264"
             inkscape:connector-curvature="0" /></g><g
           id="g266"
           transform="translate(562.0356,316.2218)"><path
             d="m 0,0 -2.295,-6.775 4.589,0 L 0,0 Z m 4.454,-13.416 -0.891,2.592 -7.099,0 -0.891,-2.592 -5.263,0 6.775,18.005 5.83,0 6.803,-18.005 -5.264,0 z"
             style="fill:#ffffff;fill-opacity:1;fill-rule:nonzero;stroke:none"
             id="path268"
             inkscape:connector-curvature="0" /></g><g
           id="g270"
           transform="translate(585.605,302.8063)"><path
             d="m 0,0 -7.611,10.419 0,-10.419 -4.644,0 0,18.004 4.778,0 7.289,-9.906 0,9.906 4.669,0 L 4.481,0 0,0 Z"
             style="fill:#ffffff;fill-opacity:1;fill-rule:nonzero;stroke:none"
             id="path272"
             inkscape:connector-curvature="0" /></g><path
           d="m 593.6,320.811 4.644,0 0,-18.004 -4.644,0 0,18.004 z"
           style="fill:#ffffff;fill-opacity:1;fill-rule:nonzero;stroke:none"
           id="path274"
           inkscape:connector-curvature="0" /><g
           id="g276"
           transform="translate(600.4585,305.3434)"><path
             d="M 0,0 2.456,3.482 C 3.752,2.187 5.749,1.107 8.205,1.107 c 1.593,0 2.565,0.621 2.565,1.484 0,0.945 -1.35,1.242 -3.078,1.593 -2.968,0.594 -7.126,1.404 -7.126,5.831 0,3.023 2.565,5.722 7.181,5.722 2.888,0 5.399,-0.864 7.315,-2.51 l -2.538,-3.32 c -1.511,1.241 -3.482,1.862 -5.263,1.862 -1.35,0 -1.944,-0.54 -1.944,-1.295 0,-0.864 1.377,-1.161 3.105,-1.566 2.969,-0.621 7.071,-1.512 7.071,-5.75 0,-3.616 -2.672,-6.019 -7.504,-6.019 C 4.346,-2.861 1.809,-1.728 0,0"
             style="fill:#ffffff;fill-opacity:1;fill-rule:nonzero;stroke:none"
             id="path278"
             inkscape:connector-curvature="0" /></g><g
           id="g280"
           transform="translate(625.8901,316.2218)"><path
             d="m 0,0 -2.295,-6.775 4.589,0 L 0,0 Z m 4.454,-13.416 -0.891,2.592 -7.099,0 -0.891,-2.592 -5.263,0 6.775,18.005 5.83,0 6.803,-18.005 -5.264,0 z"
             style="fill:#ffffff;fill-opacity:1;fill-rule:nonzero;stroke:none"
             id="path282"
             inkscape:connector-curvature="0" /></g><g
           id="g284"
           transform="translate(639.5522,302.8063)"><path
             d="m 0,0 0,13.955 -5.048,0 0,4.049 14.711,0 0,-4.049 -5.02,0 L 4.643,0 0,0 Z"
             style="fill:#ffffff;fill-opacity:1;fill-rule:nonzero;stroke:none"
             id="path286"
             inkscape:connector-curvature="0" /></g><path
           d="m 651.703,320.811 4.644,0 0,-18.004 -4.644,0 0,18.004 z"
           style="fill:#ffffff;fill-opacity:1;fill-rule:nonzero;stroke:none"
           id="path288"
           inkscape:connector-curvature="0" /><g
           id="g290"
           transform="translate(673.4614,311.7951)"><path
             d="m 0,0 c 0,2.942 -1.916,5.209 -4.886,5.209 -2.996,0 -4.912,-2.267 -4.912,-5.209 0,-2.916 1.916,-5.21 4.912,-5.21 C -1.916,-5.21 0,-2.916 0,0 m -14.521,0 c 0,5.479 4.129,9.313 9.635,9.313 5.507,0 9.61,-3.834 9.61,-9.313 0,-5.479 -4.103,-9.313 -9.61,-9.313 -5.506,0 -9.635,3.834 -9.635,9.313"
             style="fill:#ffffff;fill-opacity:1;fill-rule:nonzero;stroke:none"
             id="path292"
             inkscape:connector-curvature="0" /></g><g
           id="g294"
           transform="translate(693.063,302.8063)"><path
             d="m 0,0 -7.611,10.419 0,-10.419 -4.644,0 0,18.004 4.778,0 7.289,-9.906 0,9.906 4.669,0 L 4.481,0 0,0 Z"
             style="fill:#ffffff;fill-opacity:1;fill-rule:nonzero;stroke:none"
             id="path296"
             inkscape:connector-curvature="0" /></g><g
           id="g298"
           transform="translate(559.4946,273.8063)"><path
             d="M 0,0 0,14.819 -6.127,0 l -0.918,0 -6.101,14.819 0,-14.819 -2.24,0 0,18.004 3.212,0 5.588,-13.55 5.614,13.55 3.212,0 L 2.24,0 0,0 Z"
             style="fill:#ffffff;fill-opacity:1;fill-rule:nonzero;stroke:none"
             id="path300"
             inkscape:connector-curvature="0" /></g><g
           id="g302"
           transform="translate(566.2212,273.8063)"><path
             d="m 0,0 0,18.004 11.796,0 0,-1.997 -9.556,0 0,-5.804 9.366,0 0,-1.997 -9.366,0 0,-6.208 9.556,0 L 11.796,0 0,0 Z"
             style="fill:#ffffff;fill-opacity:1;fill-rule:nonzero;stroke:none"
             id="path304"
             inkscape:connector-curvature="0" /></g><g
           id="g306"
           transform="translate(597.2397,273.8063)"><path
             d="M 0,0 0,14.819 -6.127,0 l -0.918,0 -6.101,14.819 0,-14.819 -2.24,0 0,18.004 3.212,0 5.588,-13.55 5.614,13.55 3.212,0 L 2.24,0 0,0 Z"
             style="fill:#ffffff;fill-opacity:1;fill-rule:nonzero;stroke:none"
             id="path308"
             inkscape:connector-curvature="0" /></g><g
           id="g310"
           transform="translate(615.061,278.9079)"><path
             d="m 0,0 c 0,1.646 -1.134,3.104 -3.347,3.104 l -5.507,0 0,-6.208 5.507,0 C -1.241,-3.104 0,-1.917 0,0 m -0.351,7.99 c 0,1.619 -1.08,2.915 -3.104,2.915 l -5.399,0 0,-5.803 5.399,0 c 2.024,0 3.104,1.241 3.104,2.888 m -10.743,-13.092 0,18.005 8.017,0 c 3.132,0 5.048,-1.89 5.048,-4.589 0,-2.268 -1.512,-3.779 -3.158,-4.13 1.916,-0.297 3.508,-2.267 3.508,-4.427 0,-2.888 -1.916,-4.859 -5.209,-4.859 l -8.206,0 z"
             style="fill:#ffffff;fill-opacity:1;fill-rule:nonzero;stroke:none"
             id="path312"
             inkscape:connector-curvature="0" /></g><g
           id="g314"
           transform="translate(621.2202,273.8063)"><path
             d="m 0,0 0,18.004 11.796,0 0,-1.997 -9.556,0 0,-5.804 9.366,0 0,-1.997 -9.366,0 0,-6.208 9.556,0 L 11.796,0 0,0 Z"
             style="fill:#ffffff;fill-opacity:1;fill-rule:nonzero;stroke:none"
             id="path316"
             inkscape:connector-curvature="0" /></g><g
           id="g318"
           transform="translate(647.4058,286.3849)"><path
             d="m 0,0 c 0,2.024 -1.457,3.428 -3.59,3.428 l -4.723,0 0,-6.883 4.723,0 C -1.457,-3.455 0,-2.024 0,0 m -0.135,-12.579 -4.589,7.154 -3.589,0 0,-7.154 -2.241,0 0,18.005 7.235,0 c 3.293,0 5.641,-2.106 5.641,-5.426 0,-3.239 -2.214,-5.021 -4.67,-5.237 l 4.859,-7.342 -2.646,0 z"
             style="fill:#ffffff;fill-opacity:1;fill-rule:nonzero;stroke:none"
             id="path320"
             inkscape:connector-curvature="0" /></g></g></g></g></svg>