<?xml version="1.0" encoding="UTF-8" standalone="no"?>
<!-- Created with Inkscape (http://www.inkscape.org/) -->

<svg
   xmlns:dc="http://purl.org/dc/elements/1.1/"
   xmlns:cc="http://creativecommons.org/ns#"
   xmlns:rdf="http://www.w3.org/1999/02/22-rdf-syntax-ns#"
   xmlns:svg="http://www.w3.org/2000/svg"
   xmlns="http://www.w3.org/2000/svg"
   xmlns:sodipodi="http://sodipodi.sourceforge.net/DTD/sodipodi-0.dtd"
   xmlns:inkscape="http://www.inkscape.org/namespaces/inkscape"
   id="svg2"
   version="1.1"
   inkscape:version="0.91 r"
   xml:space="preserve"
   width="737.14124"
   height="258.66125"
   viewBox="0 0 737.1412 258.66126"
   sodipodi:docname="membership-individual-clear.svg"><metadata
     id="metadata8"><rdf:RDF><cc:Work
         rdf:about=""><dc:format>image/svg+xml</dc:format><dc:type
           rdf:resource="http://purl.org/dc/dcmitype/StillImage" /><dc:title></dc:title></cc:Work></rdf:RDF></metadata><defs
     id="defs6"><linearGradient
       x1="0"
       y1="0"
       x2="1"
       y2="0"
       gradientUnits="userSpaceOnUse"
       gradientTransform="matrix(-18.507965,0,0,18.507965,449.43643,284.47882)"
       spreadMethod="pad"
       id="linearGradient30"><stop
         style="stop-opacity:1;stop-color:#0077c0"
         offset="0"
         id="stop32" /><stop
         style="stop-opacity:1;stop-color:#0077c0"
         offset="0.00492611"
         id="stop34" /><stop
         style="stop-opacity:1;stop-color:#00558a"
         offset="1"
         id="stop36" /></linearGradient><clipPath
       clipPathUnits="userSpaceOnUse"
       id="clipPath44"><path
         d="m 0,595.28 841.89,0 L 841.89,0 0,0 0,595.28 Z"
         id="path46"
         inkscape:connector-curvature="0" /></clipPath><linearGradient
       x1="0"
       y1="0"
       x2="1"
       y2="0"
       gradientUnits="userSpaceOnUse"
       gradientTransform="matrix(14.024369,14.024369,14.024369,-14.024369,391.44708,272.62659)"
       spreadMethod="pad"
       id="linearGradient64"><stop
         style="stop-opacity:1;stop-color:#0077c0"
         offset="0"
         id="stop66" /><stop
         style="stop-opacity:1;stop-color:#0077c0"
         offset="0.482759"
         id="stop68" /><stop
         style="stop-opacity:1;stop-color:#00558a"
         offset="1"
         id="stop70" /></linearGradient><clipPath
       clipPathUnits="userSpaceOnUse"
       id="clipPath78"><path
         d="m 0,595.28 841.89,0 L 841.89,0 0,0 0,595.28 Z"
         id="path80"
         inkscape:connector-curvature="0" /></clipPath><linearGradient
       x1="0"
       y1="0"
       x2="1"
       y2="0"
       gradientUnits="userSpaceOnUse"
       gradientTransform="matrix(-19.740511,0,0,19.740511,347.40198,284.47882)"
       spreadMethod="pad"
       id="linearGradient98"><stop
         style="stop-opacity:1;stop-color:#00598e"
         offset="0"
         id="stop100" /><stop
         style="stop-opacity:1;stop-color:#003a5c"
         offset="1"
         id="stop102" /></linearGradient><clipPath
       clipPathUnits="userSpaceOnUse"
       id="clipPath110"><path
         d="m 0,595.28 841.89,0 L 841.89,0 0,0 0,595.28 Z"
         id="path112"
         inkscape:connector-curvature="0" /></clipPath><linearGradient
       x1="0"
       y1="0"
       x2="1"
       y2="0"
       gradientUnits="userSpaceOnUse"
       gradientTransform="matrix(-10.170495,0,0,10.170495,287.39545,274.6933)"
       spreadMethod="pad"
       id="linearGradient130"><stop
         style="stop-opacity:1;stop-color:#00598e"
         offset="0"
         id="stop132" /><stop
         style="stop-opacity:1;stop-color:#003a5c"
         offset="1"
         id="stop134" /></linearGradient><linearGradient
       x1="0"
       y1="0"
       x2="1"
       y2="0"
       gradientUnits="userSpaceOnUse"
       gradientTransform="matrix(-10.070793,24.313045,-24.313045,-10.070793,219.18343,276.37277)"
       spreadMethod="pad"
       id="linearGradient150"><stop
         style="stop-opacity:1;stop-color:#00598e"
         offset="0"
         id="stop152" /><stop
         style="stop-opacity:1;stop-color:#0077c0"
         offset="1"
         id="stop154" /></linearGradient><linearGradient
       x1="0"
       y1="0"
       x2="1"
       y2="0"
       gradientUnits="userSpaceOnUse"
       gradientTransform="matrix(-6.6512966,16.057652,-16.057652,-6.6512966,232.37894,295.12299)"
       spreadMethod="pad"
       id="linearGradient170"><stop
         style="stop-opacity:1;stop-color:#ffaa05"
         offset="0"
         id="stop172" /><stop
         style="stop-opacity:1;stop-color:#ffca05"
         offset="1"
         id="stop174" /></linearGradient><linearGradient
       x1="0"
       y1="0"
       x2="1"
       y2="0"
       gradientUnits="userSpaceOnUse"
       gradientTransform="matrix(-6.6512966,16.057652,-16.057652,-6.6512966,196.22862,280.14902)"
       spreadMethod="pad"
       id="linearGradient190"><stop
         style="stop-opacity:1;stop-color:#006432"
         offset="0"
         id="stop192" /><stop
         style="stop-opacity:1;stop-color:#1d984a"
         offset="1"
         id="stop194" /></linearGradient><linearGradient
       x1="0"
       y1="0"
       x2="1"
       y2="0"
       gradientUnits="userSpaceOnUse"
       gradientTransform="matrix(-6.6512966,16.057652,-16.057652,-6.6512966,216.87895,304.21497)"
       spreadMethod="pad"
       id="linearGradient210"><stop
         style="stop-opacity:1;stop-color:#000000"
         offset="0"
         id="stop212" /><stop
         style="stop-opacity:1;stop-color:#383435"
         offset="1"
         id="stop214" /></linearGradient><linearGradient
       x1="0"
       y1="0"
       x2="1"
       y2="0"
       gradientUnits="userSpaceOnUse"
       gradientTransform="matrix(-6.6512966,16.057652,-16.057652,-6.6512966,200.75923,297.53796)"
       spreadMethod="pad"
       id="linearGradient230"><stop
         style="stop-opacity:1;stop-color:#b31f24"
         offset="0"
         id="stop232" /><stop
         style="stop-opacity:1;stop-color:#ed1c24"
         offset="1"
         id="stop234" /></linearGradient><clipPath
       clipPathUnits="userSpaceOnUse"
       id="clipPath242"><path
         d="m 0,595.28 841.89,0 L 841.89,0 0,0 0,595.28 Z"
         id="path244"
         inkscape:connector-curvature="0" /></clipPath></defs><sodipodi:namedview
     pagecolor="#ffffff"
     bordercolor="#666666"
     borderopacity="1"
     objecttolerance="10"
     gridtolerance="10"
     guidetolerance="10"
     inkscape:pageopacity="0"
     inkscape:pageshadow="2"
     inkscape:window-width="1345"
     inkscape:window-height="909"
     id="namedview4"
     showgrid="false"
     fit-margin-top="0"
     fit-margin-left="0"
     fit-margin-right="0"
     fit-margin-bottom="0"
     inkscape:zoom="0.7915523"
     inkscape:cx="368.57002"
     inkscape:cy="129.33126"
     inkscape:window-x="1656"
     inkscape:window-y="182"
     inkscape:window-maximized="0"
     inkscape:current-layer="g10" /><g
     id="g10"
     inkscape:groupmode="layer"
     inkscape:label="DASA_Membership_Logo_RGB_FA"
     transform="matrix(1.25,0,0,-1.25,-157.61125,501.38)"><path
       d="m 715.802,194.175 -589.713,0 0,206.929 589.713,0 0,-206.929 z"
       style="fill:#ffffff;fill-opacity:1;fill-rule:nonzero;stroke:none"
       id="path12"
       inkscape:connector-curvature="0" /><g
       id="g14"
       transform="translate(444.2484,310.6318)"><path
         d="m 0,0 -7.693,-19.06 15.3,0 L 0,0 Z m 13.334,-33.246 -26.752,0 -3.932,-9.83 -17.949,0 26.838,59.829 17.094,0 26.752,-59.829 -18.12,0 -3.931,9.83 z"
         style="fill:#0077c0;fill-opacity:1;fill-rule:nonzero;stroke:none"
         id="path16"
         inkscape:connector-curvature="0" /></g><g
       id="g18"><g
         id="g20"><g
           id="g26"><g
             id="g28"><path
               d="m 449.436,277.386 -18.508,0 5.627,14.186 12.881,0 0,-14.186 z"
               style="fill:url(#linearGradient30);stroke:none"
               id="path38"
               inkscape:connector-curvature="0" /></g></g></g></g><g
       id="g40"><g
         id="g42"
         clip-path="url(#clipPath44)"><g
           id="g48"
           transform="translate(404.732,310.803)"><path
             d="m 0,0 c -4.103,3.077 -8.804,4.103 -14.018,4.103 -4.102,0 -8.119,-1.282 -8.119,-4.445 0,-4.103 4.017,-4.7 9.915,-5.299 11.88,-1.282 24.273,-6.067 24.273,-19.828 0,-13.59 -12.821,-19.402 -26.24,-19.488 -10.769,-0.085 -18.46,1.796 -26.751,10.514 l 9.316,10.684 c 5.898,-5.727 12.479,-6.752 17.521,-6.752 5.555,0 9.401,1.964 9.401,5.299 0,2.991 -3.417,4.87 -9.998,5.47 -13.078,1.196 -24.361,4.53 -24.361,19.4 0,12.65 12.393,18.12 25.043,18.12 8.976,0 15.983,-2.05 22.394,-7.095 L 0,0 Z"
             style="fill:#0077c0;fill-opacity:1;fill-rule:nonzero;stroke:none"
             id="path50"
             inkscape:connector-curvature="0" /></g></g></g><g
       id="g52"><g
         id="g54"><g
           id="g60"><g
             id="g62"><path
               d="m 399.936,284.712 c -0.785,-3.221 -4.521,-3.242 -5.913,-6.471 l 0,0 c -1.232,-2.858 1.442,-12.259 4.503,-11.62 l 0,0 c 7.428,1.551 13.767,5.027 13.766,8.517 l 0,0 c -0.002,6.926 -7.904,15.158 -22.26,15.923 l 0,0 c 0,0 11.291,-0.654 9.904,-6.349"
               style="fill:url(#linearGradient64);stroke:none"
               id="path72"
               inkscape:connector-curvature="0" /></g></g></g></g><g
       id="g74"><g
         id="g76"
         clip-path="url(#clipPath78)"><g
           id="g82"
           transform="translate(333.3871,291.5723)"><path
             d="M 0,0 7.693,19.06 15.299,0 0,0 Z m 30.405,-15.212 5.775,6.623 -19.854,44.401 -17.094,0 -26.838,-59.828 17.949,0 3.931,9.829 26.752,0 3.932,-9.829 14.283,0 c -3.476,2.059 -6.187,4.756 -8.836,8.804"
             style="fill:#00598e;fill-opacity:1;fill-rule:nonzero;stroke:none"
             id="path84"
             inkscape:connector-curvature="0" /></g></g></g><g
       id="g86"><g
         id="g88"><g
           id="g94"><g
             id="g96"><path
               d="m 333.387,291.572 -5.726,-14.187 19.741,0 0,14.187 -14.015,0 z"
               style="fill:url(#linearGradient98);stroke:none"
               id="path104"
               inkscape:connector-curvature="0" /></g></g></g></g><g
       id="g106"><g
         id="g108"
         clip-path="url(#clipPath110)"><g
           id="g114"
           transform="translate(277.2249,281.8305)"><path
             d="m 0,0 8.889,0 c 10.769,0 14.529,8.034 14.529,16.239 0,8.203 -4.187,15.212 -14.529,15.212 L 0,31.451 0,0 Z m 8.889,45.554 c 21.111,0 31.282,-12.99 31.282,-29.486 0,-16.496 -9.83,-30.342 -31.282,-30.342 l -25.642,0 0,59.828 25.642,0 z"
             style="fill:#00598e;fill-opacity:1;fill-rule:nonzero;stroke:none"
             id="path116"
             inkscape:connector-curvature="0" /></g></g></g><g
       id="g118"><g
         id="g120"><g
           id="g126"><g
             id="g128"><path
               d="m 277.225,267.556 10.17,0 0,14.275 -10.17,0 0,-14.275 z"
               style="fill:url(#linearGradient130);stroke:none"
               id="path136"
               inkscape:connector-curvature="0" /></g></g></g></g><g
       id="g138"><g
         id="g140"><g
           id="g146"><g
             id="g148"><path
               d="m 207.737,298.445 -3.335,-8.054 c -2.302,-5.553 0.345,-11.942 5.898,-14.242 l 0,0 c 2.69,-1.114 5.653,-1.114 8.343,0 l 0,0 c 2.69,1.114 4.786,3.209 5.901,5.899 l 0,0 c 2.298,5.553 -0.348,11.942 -5.901,14.243 l 0,0 -8.054,3.336 -2.017,0.835 -0.835,-2.017 z"
               style="fill:url(#linearGradient150);stroke:none"
               id="path156"
               inkscape:connector-curvature="0" /></g></g></g></g><g
       id="g158"><g
         id="g160"><g
           id="g166"><g
             id="g168"><path
               d="m 224.819,309.701 -2.202,-5.319 c -1.52,-3.668 0.227,-7.888 3.895,-9.407 l 0,0 c 1.777,-0.735 3.733,-0.736 5.511,0 l 0,0 c 1.775,0.736 3.159,2.119 3.896,3.896 l 0,0 c 1.518,3.668 -0.23,7.888 -3.896,9.407 l 0,0 -5.32,2.203 -1.331,0.552 -0.553,-1.332 z"
               style="fill:url(#linearGradient170);stroke:none"
               id="path176"
               inkscape:connector-curvature="0" /></g></g></g></g><g
       id="g178"><g
         id="g180"><g
           id="g186"><g
             id="g188"><path
               d="m 188.669,294.727 -2.204,-5.319 c -1.52,-3.668 0.228,-7.888 3.897,-9.407 l 0,0 c 1.775,-0.735 3.734,-0.735 5.509,0 l 0,0 c 1.777,0.736 3.16,2.119 3.897,3.896 l 0,0 c 1.52,3.667 -0.229,7.887 -3.897,9.407 l 0,0 -5.319,2.203 -1.332,0.552 -0.551,-1.332 z"
               style="fill:url(#linearGradient190);stroke:none"
               id="path196"
               inkscape:connector-curvature="0" /></g></g></g></g><g
       id="g198"><g
         id="g200"><g
           id="g206"><g
             id="g208"><path
               d="m 209.319,318.793 -2.204,-5.319 c -1.519,-3.668 0.23,-7.888 3.897,-9.407 l 0,0 c 1.778,-0.736 3.733,-0.736 5.51,0 l 0,0 c 1.777,0.736 3.161,2.12 3.896,3.897 l 0,0 c 1.519,3.667 -0.229,7.886 -3.896,9.406 l 0,0 -5.32,2.203 -1.331,0.552 -0.552,-1.332 z"
               style="fill:url(#linearGradient210);stroke:none"
               id="path216"
               inkscape:connector-curvature="0" /></g></g></g></g><g
       id="g218"><g
         id="g220"><g
           id="g226"><g
             id="g228"><path
               d="m 193.199,312.116 -2.204,-5.32 c -1.518,-3.667 0.231,-7.887 3.897,-9.406 l 0,0 c 1.778,-0.736 3.734,-0.736 5.51,0 l 0,0 c 1.777,0.736 3.16,2.12 3.896,3.897 l 0,0 c 1.519,3.667 -0.228,7.886 -3.896,9.406 l 0,0 -5.32,2.203 -1.331,0.551 -0.552,-1.331 z"
               style="fill:url(#linearGradient230);stroke:none"
               id="path236"
               inkscape:connector-curvature="0" /></g></g></g></g><g
       id="g238"><g
         id="g240"
         clip-path="url(#clipPath242)"><g
           id="g246"
           transform="translate(521.8531,254.0603)"><path
             d="m 0,0 -38.815,86.818 -1.242,0 L -1.243,0 0,0 Z"
             style="fill:#bebec8;fill-opacity:1;fill-rule:nonzero;stroke:none"
             id="path248"
             inkscape:connector-curvature="0" /></g><g
           id="g250"
           transform="translate(637.3053,288.0553)"><path
             d="m 0,0 c 0,1.65 -1.187,2.794 -2.926,2.794 l -3.849,0 0,-5.61 3.849,0 C -1.187,-2.816 0,-1.65 0,0 m -0.109,-10.253 -3.741,5.831 -2.925,0 0,-5.831 -1.829,0 0,14.676 5.899,0 c 2.684,0 4.598,-1.716 4.598,-4.423 0,-2.64 -1.805,-4.092 -3.807,-4.269 l 3.961,-5.984 -2.156,0 z m -21.233,0 0,14.676 9.617,0 0,-1.629 -7.789,0 0,-4.73 7.635,0 0,-1.628 -7.635,0 0,-5.061 7.789,0 0,-1.628 -9.617,0 z m -5.013,4.158 c 0,1.343 -0.924,2.531 -2.729,2.531 l -4.488,0 0,-5.061 4.488,0 c 1.717,0 2.729,0.968 2.729,2.53 m -0.286,6.513 c 0,1.32 -0.88,2.376 -2.531,2.376 l -4.4,0 0,-4.73 4.4,0 c 1.651,0 2.531,1.012 2.531,2.354 m -8.757,-10.671 0,14.676 6.535,0 c 2.552,0 4.115,-1.541 4.115,-3.741 0,-1.848 -1.232,-3.08 -2.576,-3.366 1.562,-0.242 2.861,-1.849 2.861,-3.609 0,-2.354 -1.562,-3.96 -4.246,-3.96 l -6.689,0 z m -5.477,0 0,12.079 -4.994,-12.079 -0.748,0 -4.973,12.079 0,-12.079 -1.826,0 0,14.676 2.619,0 4.555,-11.046 4.576,11.046 2.617,0 0,-14.676 -1.826,0 z m -25.279,0 0,14.676 9.615,0 0,-1.629 -7.789,0 0,-4.73 7.635,0 0,-1.628 -7.635,0 0,-5.061 7.789,0 0,-1.628 -9.615,0 z m -5.477,0 0,12.079 -4.994,-12.079 -0.748,0 -4.973,12.079 0,-12.079 -1.826,0 0,14.676 2.619,0 4.555,-11.046 4.576,11.046 2.617,0 0,-14.676 -1.826,0 z m 83.654,25 0,14.676 3.784,0 0,-11.376 5.898,0 0,-3.3 -9.682,0 z m -9.216,10.935 -1.871,-5.523 3.74,0 -1.869,5.523 z m 3.63,-10.935 -0.726,2.112 -5.787,0 -0.727,-2.112 -4.291,0 5.524,14.676 4.752,0 5.545,-14.676 -4.29,0 z m -25.874,5.94 0,8.736 3.851,0 0,-8.604 c 0,-1.738 1.033,-2.992 3.102,-2.992 2.025,0 3.08,1.254 3.08,2.992 l 0,8.604 3.83,0 0,-8.714 c 0,-3.652 -2.223,-6.227 -6.91,-6.227 -4.731,0 -6.953,2.597 -6.953,6.205 m -5.983,1.409 c 0,2.266 -1.363,4.026 -4.049,4.026 l -2.398,0 0,-8.075 2.377,0 c 2.574,0 4.07,1.87 4.07,4.049 m -10.23,-7.349 0,14.676 6.16,0 c 4.621,0 7.943,-2.773 7.943,-7.327 0,-4.555 -3.322,-7.349 -7.922,-7.349 l -6.181,0 z m -6.645,14.676 3.783,0 0,-14.676 -3.783,0 0,14.676 z m -11.594,-14.676 -5.523,14.676 4.291,0 3.609,-10.584 3.631,10.584 4.289,0 -5.545,-14.676 -4.752,0 z m -10.603,14.676 3.783,0 0,-14.676 -3.783,0 0,14.676 z m -5.983,-7.327 c 0,2.266 -1.365,4.026 -4.048,4.026 l -2.399,0 0,-8.075 2.377,0 c 2.574,0 4.07,1.87 4.07,4.049 m -10.232,-7.349 0,14.676 6.162,0 c 4.619,0 7.941,-2.773 7.941,-7.327 0,-4.555 -3.322,-7.349 -7.919,-7.349 l -6.184,0 z m -6.51,0 -6.205,8.493 0,-8.493 -3.785,0 0,14.676 3.894,0 5.942,-8.075 0,8.075 3.807,0 0,-14.676 -3.653,0 z m -16.633,14.676 3.783,0 0,-14.676 -3.783,0 0,14.676 z"
             style="fill:#0077c0;fill-opacity:1;fill-rule:nonzero;stroke:none"
             id="path252"
             inkscape:connector-curvature="0" /></g></g></g></g></svg>