<?xml version="1.0" encoding="UTF-8" standalone="no"?>
<!-- Created with Inkscape (http://www.inkscape.org/) -->

<svg
   xmlns:dc="http://purl.org/dc/elements/1.1/"
   xmlns:cc="http://creativecommons.org/ns#"
   xmlns:rdf="http://www.w3.org/1999/02/22-rdf-syntax-ns#"
   xmlns:svg="http://www.w3.org/2000/svg"
   xmlns="http://www.w3.org/2000/svg"
   xmlns:sodipodi="http://sodipodi.sourceforge.net/DTD/sodipodi-0.dtd"
   xmlns:inkscape="http://www.inkscape.org/namespaces/inkscape"
   id="svg2"
   version="1.1"
   inkscape:version="0.91 r"
   xml:space="preserve"
   width="778.35126"
   height="214.02"
   viewBox="0 0 778.35122 214.02001"
   sodipodi:docname="membership-individual-rectangle.svg"><metadata
     id="metadata8"><rdf:RDF><cc:Work
         rdf:about=""><dc:format>image/svg+xml</dc:format><dc:type
           rdf:resource="http://purl.org/dc/dcmitype/StillImage" /><dc:title></dc:title></cc:Work></rdf:RDF></metadata><defs
     id="defs6"><linearGradient
       x1="0"
       y1="0"
       x2="1"
       y2="0"
       gradientUnits="userSpaceOnUse"
       gradientTransform="matrix(-18.507965,0,0,18.507965,432.00351,284.47882)"
       spreadMethod="pad"
       id="linearGradient34"><stop
         style="stop-opacity:1;stop-color:#0077c0"
         offset="0"
         id="stop36" /><stop
         style="stop-opacity:1;stop-color:#0077c0"
         offset="0.00492611"
         id="stop38" /><stop
         style="stop-opacity:1;stop-color:#00558a"
         offset="1"
         id="stop40" /></linearGradient><clipPath
       clipPathUnits="userSpaceOnUse"
       id="clipPath48"><path
         d="m 0,595.28 841.89,0 L 841.89,0 0,0 0,595.28 Z"
         id="path50"
         inkscape:connector-curvature="0" /></clipPath><linearGradient
       x1="0"
       y1="0"
       x2="1"
       y2="0"
       gradientUnits="userSpaceOnUse"
       gradientTransform="matrix(14.024369,14.024369,14.024369,-14.024369,374.01413,272.62659)"
       spreadMethod="pad"
       id="linearGradient68"><stop
         style="stop-opacity:1;stop-color:#0077c0"
         offset="0"
         id="stop70" /><stop
         style="stop-opacity:1;stop-color:#0077c0"
         offset="0.482759"
         id="stop72" /><stop
         style="stop-opacity:1;stop-color:#00558a"
         offset="1"
         id="stop74" /></linearGradient><clipPath
       clipPathUnits="userSpaceOnUse"
       id="clipPath82"><path
         d="m 0,595.28 841.89,0 L 841.89,0 0,0 0,595.28 Z"
         id="path84"
         inkscape:connector-curvature="0" /></clipPath><linearGradient
       x1="0"
       y1="0"
       x2="1"
       y2="0"
       gradientUnits="userSpaceOnUse"
       gradientTransform="matrix(-19.740511,0,0,19.740511,329.96902,284.47882)"
       spreadMethod="pad"
       id="linearGradient102"><stop
         style="stop-opacity:1;stop-color:#00598e"
         offset="0"
         id="stop104" /><stop
         style="stop-opacity:1;stop-color:#003a5c"
         offset="1"
         id="stop106" /></linearGradient><clipPath
       clipPathUnits="userSpaceOnUse"
       id="clipPath114"><path
         d="m 0,595.28 841.89,0 L 841.89,0 0,0 0,595.28 Z"
         id="path116"
         inkscape:connector-curvature="0" /></clipPath><linearGradient
       x1="0"
       y1="0"
       x2="1"
       y2="0"
       gradientUnits="userSpaceOnUse"
       gradientTransform="matrix(-10.170495,0,0,10.170495,269.96249,274.69327)"
       spreadMethod="pad"
       id="linearGradient134"><stop
         style="stop-opacity:1;stop-color:#00598e"
         offset="0"
         id="stop136" /><stop
         style="stop-opacity:1;stop-color:#003a5c"
         offset="1"
         id="stop138" /></linearGradient><linearGradient
       x1="0"
       y1="0"
       x2="1"
       y2="0"
       gradientUnits="userSpaceOnUse"
       gradientTransform="matrix(-10.070793,24.313045,-24.313045,-10.070793,201.75049,276.37277)"
       spreadMethod="pad"
       id="linearGradient154"><stop
         style="stop-opacity:1;stop-color:#00598e"
         offset="0"
         id="stop156" /><stop
         style="stop-opacity:1;stop-color:#0077c0"
         offset="1"
         id="stop158" /></linearGradient><linearGradient
       x1="0"
       y1="0"
       x2="1"
       y2="0"
       gradientUnits="userSpaceOnUse"
       gradientTransform="matrix(-6.6512966,16.057652,-16.057652,-6.6512966,214.946,295.12299)"
       spreadMethod="pad"
       id="linearGradient174"><stop
         style="stop-opacity:1;stop-color:#ffaa05"
         offset="0"
         id="stop176" /><stop
         style="stop-opacity:1;stop-color:#ffca05"
         offset="1"
         id="stop178" /></linearGradient><linearGradient
       x1="0"
       y1="0"
       x2="1"
       y2="0"
       gradientUnits="userSpaceOnUse"
       gradientTransform="matrix(-6.6512966,16.057652,-16.057652,-6.6512966,178.79568,280.14902)"
       spreadMethod="pad"
       id="linearGradient194"><stop
         style="stop-opacity:1;stop-color:#006432"
         offset="0"
         id="stop196" /><stop
         style="stop-opacity:1;stop-color:#1d984a"
         offset="1"
         id="stop198" /></linearGradient><linearGradient
       x1="0"
       y1="0"
       x2="1"
       y2="0"
       gradientUnits="userSpaceOnUse"
       gradientTransform="matrix(-6.6512966,16.057652,-16.057652,-6.6512966,199.44601,304.21497)"
       spreadMethod="pad"
       id="linearGradient214"><stop
         style="stop-opacity:1;stop-color:#000000"
         offset="0"
         id="stop216" /><stop
         style="stop-opacity:1;stop-color:#383435"
         offset="1"
         id="stop218" /></linearGradient><linearGradient
       x1="0"
       y1="0"
       x2="1"
       y2="0"
       gradientUnits="userSpaceOnUse"
       gradientTransform="matrix(-6.6512966,16.057652,-16.057652,-6.6512966,183.32629,297.53793)"
       spreadMethod="pad"
       id="linearGradient234"><stop
         style="stop-opacity:1;stop-color:#b31f24"
         offset="0"
         id="stop236" /><stop
         style="stop-opacity:1;stop-color:#ed1c24"
         offset="1"
         id="stop238" /></linearGradient><clipPath
       clipPathUnits="userSpaceOnUse"
       id="clipPath246"><path
         d="m 0,595.28 841.89,0 L 841.89,0 0,0 0,595.28 Z"
         id="path248"
         inkscape:connector-curvature="0" /></clipPath></defs><sodipodi:namedview
     pagecolor="#ffffff"
     bordercolor="#666666"
     borderopacity="1"
     objecttolerance="10"
     gridtolerance="10"
     guidetolerance="10"
     inkscape:pageopacity="0"
     inkscape:pageshadow="2"
     inkscape:window-width="1320"
     inkscape:window-height="480"
     id="namedview4"
     showgrid="false"
     inkscape:zoom="0.31716168"
     inkscape:cx="385.48877"
     inkscape:cy="107.01001"
     inkscape:window-x="1783"
     inkscape:window-y="564"
     inkscape:window-maximized="0"
     inkscape:current-layer="g10"
     fit-margin-top="0"
     fit-margin-left="0"
     fit-margin-right="0"
     fit-margin-bottom="0" /><g
     id="g10"
     inkscape:groupmode="layer"
     inkscape:label="DASA_Membership_Logo_RGB_FA"
     transform="matrix(1.25,0,0,-1.25,-140.6925,479.06)"><g
       id="g12"
       transform="translate(735.2347,212.0323)"><path
         d="M 0,0 -212.531,0 -288.5,171.215 0,171.215 0,0 Z"
         style="fill:#0077c0;fill-opacity:1;fill-rule:nonzero;stroke:none"
         id="path14"
         inkscape:connector-curvature="0" /></g><path
       d="m 735.235,383.248 -622.681,0 0,-171.216 622.681,0 0,171.216 z m -2,-169.216 -618.681,0 0,167.216 618.681,0 0,-167.216 z"
       style="fill:#0077c0;fill-opacity:1;fill-rule:nonzero;stroke:none"
       id="path16"
       inkscape:connector-curvature="0" /><g
       id="g18"
       transform="translate(426.8155,310.6318)"><path
         d="m 0,0 -7.693,-19.06 15.3,0 L 0,0 Z m 13.334,-33.246 -26.752,0 -3.932,-9.83 -17.949,0 26.838,59.829 17.094,0 26.752,-59.829 -18.12,0 -3.931,9.83 z"
         style="fill:#0077c0;fill-opacity:1;fill-rule:nonzero;stroke:none"
         id="path20"
         inkscape:connector-curvature="0" /></g><g
       id="g22"><g
         id="g24"><g
           id="g30"><g
             id="g32"><path
               d="m 432.004,277.386 -18.508,0 5.626,14.186 12.882,0 0,-14.186 z"
               style="fill:url(#linearGradient34);stroke:none"
               id="path42"
               inkscape:connector-curvature="0" /></g></g></g></g><g
       id="g44"><g
         id="g46"
         clip-path="url(#clipPath48)"><g
           id="g52"
           transform="translate(387.2991,310.803)"><path
             d="m 0,0 c -4.103,3.077 -8.804,4.103 -14.018,4.103 -4.102,0 -8.119,-1.282 -8.119,-4.445 0,-4.103 4.017,-4.7 9.915,-5.299 11.88,-1.282 24.273,-6.067 24.273,-19.828 0,-13.59 -12.821,-19.402 -26.24,-19.488 -10.769,-0.085 -18.46,1.796 -26.751,10.514 l 9.316,10.684 c 5.898,-5.727 12.479,-6.752 17.521,-6.752 5.555,0 9.401,1.964 9.401,5.299 0,2.991 -3.417,4.87 -9.998,5.47 -13.078,1.196 -24.361,4.53 -24.361,19.4 0,12.65 12.393,18.12 25.043,18.12 8.976,0 15.983,-2.05 22.394,-7.095 L 0,0 Z"
             style="fill:#0077c0;fill-opacity:1;fill-rule:nonzero;stroke:none"
             id="path54"
             inkscape:connector-curvature="0" /></g></g></g><g
       id="g56"><g
         id="g58"><g
           id="g64"><g
             id="g66"><path
               d="m 382.503,284.712 c -0.785,-3.221 -4.521,-3.242 -5.913,-6.471 l 0,0 c -1.232,-2.858 1.442,-12.259 4.503,-11.62 l 0,0 c 7.428,1.551 13.767,5.027 13.766,8.517 l 0,0 c -0.002,6.926 -7.904,15.158 -22.26,15.923 l 0,0 c 0,0 11.292,-0.654 9.904,-6.349"
               style="fill:url(#linearGradient68);stroke:none"
               id="path76"
               inkscape:connector-curvature="0" /></g></g></g></g><g
       id="g78"><g
         id="g80"
         clip-path="url(#clipPath82)"><g
           id="g86"
           transform="translate(315.9542,291.5723)"><path
             d="M 0,0 7.693,19.06 15.299,0 0,0 Z m 30.405,-15.212 5.775,6.623 -19.854,44.401 -17.094,0 -26.838,-59.828 17.949,0 3.931,9.829 26.752,0 3.932,-9.829 14.283,0 c -3.476,2.059 -6.187,4.756 -8.836,8.804"
             style="fill:#00598e;fill-opacity:1;fill-rule:nonzero;stroke:none"
             id="path88"
             inkscape:connector-curvature="0" /></g></g></g><g
       id="g90"><g
         id="g92"><g
           id="g98"><g
             id="g100"><path
               d="m 315.954,291.572 -5.726,-14.187 19.741,0 0,14.187 -14.015,0 z"
               style="fill:url(#linearGradient102);stroke:none"
               id="path108"
               inkscape:connector-curvature="0" /></g></g></g></g><g
       id="g110"><g
         id="g112"
         clip-path="url(#clipPath114)"><g
           id="g118"
           transform="translate(259.792,281.8305)"><path
             d="m 0,0 8.889,0 c 10.769,0 14.529,8.034 14.529,16.239 0,8.203 -4.187,15.212 -14.529,15.212 L 0,31.451 0,0 Z m 8.889,45.554 c 21.111,0 31.282,-12.99 31.282,-29.486 0,-16.496 -9.83,-30.342 -31.282,-30.342 l -25.642,0 0,59.828 25.642,0 z"
             style="fill:#00598e;fill-opacity:1;fill-rule:nonzero;stroke:none"
             id="path120"
             inkscape:connector-curvature="0" /></g></g></g><g
       id="g122"><g
         id="g124"><g
           id="g130"><g
             id="g132"><path
               d="m 259.792,267.556 10.17,0 0,14.275 -10.17,0 0,-14.275 z"
               style="fill:url(#linearGradient134);stroke:none"
               id="path140"
               inkscape:connector-curvature="0" /></g></g></g></g><g
       id="g142"><g
         id="g144"><g
           id="g150"><g
             id="g152"><path
               d="m 190.304,298.445 -3.335,-8.054 c -2.302,-5.553 0.345,-11.942 5.898,-14.242 l 0,0 c 2.69,-1.114 5.653,-1.114 8.343,0 l 0,0 c 2.69,1.114 4.786,3.209 5.901,5.899 l 0,0 c 2.298,5.553 -0.348,11.942 -5.901,14.243 l 0,0 -8.054,3.336 -2.017,0.835 -0.835,-2.017 z"
               style="fill:url(#linearGradient154);stroke:none"
               id="path160"
               inkscape:connector-curvature="0" /></g></g></g></g><g
       id="g162"><g
         id="g164"><g
           id="g170"><g
             id="g172"><path
               d="m 207.386,309.701 -2.202,-5.319 c -1.52,-3.668 0.227,-7.888 3.896,-9.407 l 0,0 c 1.776,-0.735 3.732,-0.736 5.51,0 l 0,0 c 1.775,0.736 3.159,2.119 3.896,3.896 l 0,0 c 1.518,3.668 -0.23,7.888 -3.896,9.407 l 0,0 -5.32,2.203 -1.331,0.552 -0.553,-1.332 z"
               style="fill:url(#linearGradient174);stroke:none"
               id="path180"
               inkscape:connector-curvature="0" /></g></g></g></g><g
       id="g182"><g
         id="g184"><g
           id="g190"><g
             id="g192"><path
               d="m 171.236,294.727 -2.204,-5.319 c -1.52,-3.668 0.228,-7.888 3.897,-9.407 l 0,0 c 1.775,-0.735 3.734,-0.735 5.509,0 l 0,0 c 1.777,0.736 3.16,2.119 3.897,3.896 l 0,0 c 1.52,3.667 -0.228,7.887 -3.897,9.407 l 0,0 -5.319,2.203 -1.332,0.552 -0.551,-1.332 z"
               style="fill:url(#linearGradient194);stroke:none"
               id="path200"
               inkscape:connector-curvature="0" /></g></g></g></g><g
       id="g202"><g
         id="g204"><g
           id="g210"><g
             id="g212"><path
               d="m 191.886,318.793 -2.204,-5.319 c -1.518,-3.668 0.23,-7.888 3.897,-9.407 l 0,0 c 1.778,-0.736 3.733,-0.736 5.511,0 l 0,0 c 1.776,0.736 3.16,2.12 3.895,3.897 l 0,0 c 1.519,3.667 -0.228,7.886 -3.895,9.406 l 0,0 -5.321,2.203 -1.33,0.552 -0.553,-1.332 z"
               style="fill:url(#linearGradient214);stroke:none"
               id="path220"
               inkscape:connector-curvature="0" /></g></g></g></g><g
       id="g222"><g
         id="g224"><g
           id="g230"><g
             id="g232"><path
               d="m 175.766,312.116 -2.204,-5.32 c -1.517,-3.667 0.231,-7.887 3.897,-9.406 l 0,0 c 1.778,-0.736 3.733,-0.736 5.51,0 l 0,0 c 1.777,0.736 3.161,2.12 3.896,3.897 l 0,0 c 1.519,3.667 -0.228,7.886 -3.896,9.406 l 0,0 -5.32,2.203 -1.331,0.551 -0.552,-1.331 z"
               style="fill:url(#linearGradient234);stroke:none"
               id="path240"
               inkscape:connector-curvature="0" /></g></g></g></g><g
       id="g242"><g
         id="g244"
         clip-path="url(#clipPath246)"><g
           id="g250"
           transform="translate(522.3346,212.0329)"><path
             d="M 0,0 C -0.217,0 -0.424,0.125 -0.518,0.336"
             style="fill:#bebec8;fill-opacity:1;fill-rule:nonzero;stroke:none"
             id="path252"
             inkscape:connector-curvature="0" /></g><path
           d="m 519.755,320.811 4.644,0 0,-18.004 -4.644,0 0,18.004 z"
           style="fill:#ffffff;fill-opacity:1;fill-rule:nonzero;stroke:none"
           id="path254"
           inkscape:connector-curvature="0" /><g
           id="g256"
           transform="translate(540.1633,302.8063)"><path
             d="m 0,0 -7.611,10.419 0,-10.419 -4.644,0 0,18.004 4.778,0 7.289,-9.906 0,9.906 4.669,0 L 4.481,0 0,0 Z"
             style="fill:#ffffff;fill-opacity:1;fill-rule:nonzero;stroke:none"
             id="path258"
             inkscape:connector-curvature="0" /></g><g
           id="g260"
           transform="translate(560.7102,311.8219)"><path
             d="m 0,0 c 0,2.78 -1.673,4.939 -4.967,4.939 l -2.941,0 0,-9.906 2.915,0 C -1.835,-4.967 0,-2.672 0,0 m -12.552,-9.016 0,18.005 7.559,0 c 5.668,0 9.744,-3.402 9.744,-8.989 0,-5.587 -4.076,-9.016 -9.718,-9.016 l -7.585,0 z"
             style="fill:#ffffff;fill-opacity:1;fill-rule:nonzero;stroke:none"
             id="path262"
             inkscape:connector-curvature="0" /></g><path
           d="m 568.058,320.811 4.644,0 0,-18.004 -4.644,0 0,18.004 z"
           style="fill:#ffffff;fill-opacity:1;fill-rule:nonzero;stroke:none"
           id="path264"
           inkscape:connector-curvature="0" /><g
           id="g266"
           transform="translate(581.0706,302.8063)"><path
             d="m 0,0 -6.775,18.004 5.263,0 4.427,-12.983 4.454,12.983 5.264,0 L 5.83,0 0,0 Z"
             style="fill:#ffffff;fill-opacity:1;fill-rule:nonzero;stroke:none"
             id="path268"
             inkscape:connector-curvature="0" /></g><path
           d="m 595.3,320.811 4.644,0 0,-18.004 -4.644,0 0,18.004 z"
           style="fill:#ffffff;fill-opacity:1;fill-rule:nonzero;stroke:none"
           id="path270"
           inkscape:connector-curvature="0" /><g
           id="g272"
           transform="translate(616.0051,311.8219)"><path
             d="m 0,0 c 0,2.78 -1.673,4.939 -4.967,4.939 l -2.941,0 0,-9.906 2.915,0 C -1.835,-4.967 0,-2.672 0,0 m -12.552,-9.016 0,18.005 7.559,0 c 5.668,0 9.744,-3.402 9.744,-8.989 0,-5.587 -4.076,-9.016 -9.718,-9.016 l -7.585,0 z"
             style="fill:#ffffff;fill-opacity:1;fill-rule:nonzero;stroke:none"
             id="path274"
             inkscape:connector-curvature="0" /></g><g
           id="g276"
           transform="translate(623.3528,310.0944)"><path
             d="m 0,0 0,10.716 4.725,0 0,-10.554 c 0,-2.133 1.268,-3.671 3.805,-3.671 2.484,0 3.78,1.538 3.78,3.671 l 0,10.554 4.696,0 0,-10.689 c 0,-4.481 -2.727,-7.639 -8.476,-7.639 C 2.727,-7.612 0,-4.427 0,0"
             style="fill:#ffffff;fill-opacity:1;fill-rule:nonzero;stroke:none"
             id="path278"
             inkscape:connector-curvature="0" /></g><g
           id="g280"
           transform="translate(650.6477,316.2218)"><path
             d="m 0,0 -2.295,-6.775 4.589,0 L 0,0 Z m 4.454,-13.416 -0.891,2.592 -7.099,0 -0.891,-2.592 -5.263,0 6.775,18.005 5.83,0 6.803,-18.005 -5.264,0 z"
             style="fill:#ffffff;fill-opacity:1;fill-rule:nonzero;stroke:none"
             id="path282"
             inkscape:connector-curvature="0" /></g><g
           id="g284"
           transform="translate(661.9622,302.8063)"><path
             d="m 0,0 0,18.004 4.644,0 0,-13.955 7.233,0 L 11.877,0 0,0 Z"
             style="fill:#ffffff;fill-opacity:1;fill-rule:nonzero;stroke:none"
             id="path286"
             inkscape:connector-curvature="0" /></g><g
           id="g288"
           transform="translate(559.2922,273.8063)"><path
             d="M 0,0 0,14.819 -6.127,0 l -0.918,0 -6.101,14.819 0,-14.819 -2.24,0 0,18.004 3.212,0 5.588,-13.55 5.614,13.55 3.212,0 L 2.24,0 0,0 Z"
             style="fill:#ffffff;fill-opacity:1;fill-rule:nonzero;stroke:none"
             id="path290"
             inkscape:connector-curvature="0" /></g><g
           id="g292"
           transform="translate(566.0188,273.8063)"><path
             d="m 0,0 0,18.004 11.796,0 0,-1.997 -9.556,0 0,-5.804 9.366,0 0,-1.997 -9.366,0 0,-6.208 9.556,0 L 11.796,0 0,0 Z"
             style="fill:#ffffff;fill-opacity:1;fill-rule:nonzero;stroke:none"
             id="path294"
             inkscape:connector-curvature="0" /></g><g
           id="g296"
           transform="translate(597.0374,273.8063)"><path
             d="M 0,0 0,14.819 -6.127,0 l -0.918,0 -6.101,14.819 0,-14.819 -2.24,0 0,18.004 3.212,0 5.588,-13.55 5.614,13.55 3.212,0 L 2.24,0 0,0 Z"
             style="fill:#ffffff;fill-opacity:1;fill-rule:nonzero;stroke:none"
             id="path298"
             inkscape:connector-curvature="0" /></g><g
           id="g300"
           transform="translate(614.8586,278.9079)"><path
             d="m 0,0 c 0,1.646 -1.134,3.104 -3.347,3.104 l -5.507,0 0,-6.208 5.507,0 C -1.241,-3.104 0,-1.917 0,0 m -0.351,7.99 c 0,1.619 -1.08,2.915 -3.104,2.915 l -5.399,0 0,-5.803 5.399,0 c 2.024,0 3.104,1.241 3.104,2.888 m -10.743,-13.092 0,18.005 8.017,0 c 3.132,0 5.048,-1.89 5.048,-4.589 0,-2.268 -1.512,-3.779 -3.158,-4.13 1.916,-0.297 3.508,-2.267 3.508,-4.427 0,-2.888 -1.916,-4.859 -5.209,-4.859 l -8.206,0 z"
             style="fill:#ffffff;fill-opacity:1;fill-rule:nonzero;stroke:none"
             id="path302"
             inkscape:connector-curvature="0" /></g><g
           id="g304"
           transform="translate(621.0178,273.8063)"><path
             d="m 0,0 0,18.004 11.796,0 0,-1.997 -9.556,0 0,-5.804 9.366,0 0,-1.997 -9.366,0 0,-6.208 9.556,0 L 11.796,0 0,0 Z"
             style="fill:#ffffff;fill-opacity:1;fill-rule:nonzero;stroke:none"
             id="path306"
             inkscape:connector-curvature="0" /></g><g
           id="g308"
           transform="translate(647.2034,286.3849)"><path
             d="m 0,0 c 0,2.024 -1.457,3.428 -3.59,3.428 l -4.723,0 0,-6.883 4.723,0 C -1.457,-3.455 0,-2.024 0,0 m -0.135,-12.579 -4.589,7.154 -3.589,0 0,-7.154 -2.241,0 0,18.005 7.235,0 c 3.293,0 5.641,-2.106 5.641,-5.426 0,-3.239 -2.214,-5.021 -4.67,-5.237 l 4.859,-7.342 -2.646,0 z"
             style="fill:#ffffff;fill-opacity:1;fill-rule:nonzero;stroke:none"
             id="path310"
             inkscape:connector-curvature="0" /></g></g></g></g></svg>