<svg xmlns="http://www.w3.org/2000/svg" height="212.6" width="212.6" version="1" viewBox="0 0 212.598 212.599" enable-background="new 0 0 212.598 212.599"><path d="M106.3 0l-7.828 7.828-31.27 31.27c-21.56 21.558-21.56 56.636 0 78.194 10.443 10.444 24.328 16.195 39.097 16.195s28.653-5.75 39.096-16.195c21.56-21.558 21.56-56.636 0-78.195L114.126 7.84l-7.83-7.828z" fill="#00598E"/><path d="M106.3 15.657l-31.27 31.27c-17.27 17.268-17.27 45.268 0 62.537 8.635 8.635 19.952 12.952 31.27 12.952s22.633-4.317 31.268-12.952c17.27-17.27 17.27-45.27 0-62.538l-31.27-31.265z" fill="#0077C0"/><path d="M106.3 31.314l23.44 23.44c12.926 12.926 12.926 33.957 0 46.882-6.26 6.26-14.585 9.71-23.44 9.71s-17.18-3.45-23.44-9.71c-12.926-12.925-12.926-33.956 0-46.88L106.3 31.31" fill="#50297A"/><path d="M106.3 46.97l15.612 15.613c8.61 8.61 8.61 22.616 0 31.224-4.17 4.17-9.715 6.467-15.612 6.467s-11.442-2.297-15.612-6.467c-8.61-8.608-8.61-22.615 0-31.224L106.3 46.975" fill="#8762BC"/><path d="M106.3 62.628l7.784 7.784c4.292 4.292 4.292 11.275 0 15.567-2.806 2.804-6.08 3.223-7.784 3.223s-4.978-.42-7.784-3.224c-4.292-4.293-4.292-11.276 0-15.568l7.784-7.784" fill="#fff"/><path d="M15.187 148.28c12.503 0 18.527 7.695 18.527 17.465s-5.82 17.97-18.527 17.97H0V148.28h15.187zM9.92 175.27h5.267c6.377 0 8.605-4.76 8.605-9.62 0-4.858-2.48-9.01-8.605-9.01H9.92v18.63zM70.817 183.72H59.78l-8.25-11.49h-3.493v11.49H38.014v-35.435h17.312c9.062 0 13.77 5.822 13.77 12.2 0 4.354-1.52 8.05-7.492 10.68l9.213 11.948v.61zm-22.78-27.44v8.504h7.39c2.633 0 3.797-1.974 3.797-4.1 0-2.228-1.266-4.404-3.898-4.404h-7.29zM107.21 148.34v19.793c.052 10.48-6.327 16.352-16.705 16.352-10.377 0-16.706-5.62-16.706-16.453V148.34h9.972v19.692c0 5.57 2.683 7.897 6.733 7.897s6.733-2.43 6.733-7.797V148.34h9.972zM122.9 174.15v9.567h-10.023v-35.435h17.21c9.52 0 14.226 5.973 14.226 12.908 0 7.24-4.758 12.858-14.225 12.96h-7.2zm0-8.45h7.188c2.785 0 4.202-2.026 4.202-4.354 0-2.33-1.468-4.455-4.202-4.455H122.9v8.8zM169.72 177.9h-15.845l-2.33 5.822h-10.63l15.896-35.435h10.126l15.845 35.435H172.05l-2.33-5.82zm-7.89-19.69l-4.556 11.29h9.062l-4.5-11.29zM195.64 148.28v26.94h16.96v8.5h-26.98v-35.44z" fill="#00598E"/><path d="M57.338 208.3v3.96h-3.12V198.26h6.6c3.582 0 5.362 2.32 5.362 5.022 0 2.8-1.8 4.98-5.362 5.02h-3.48zm0-2.86h3.48c1.5 0 2.242-.98 2.242-2.1s-.76-2.12-2.242-2.12h-3.48v4.22zM80.22 212.26h-3.46l-3.582-4.6h-2.26v4.6h-3.12v-14.003h6.64c3.38 0 5.18 2.26 5.18 4.72-.018 1.822-.558 3.442-3.24 4.402l3.842 4.64v.24zm-9.302-11.32v4.08h3.56c1.44 0 2.06-1.08 2.06-1.96-.018-.96-.64-2.12-2.1-2.12h-3.52zM92.56 212.26H81.898v-14H92.28v2.86h-7.322v2.7h6.902v2.74h-6.902v2.82h7.602zM98.058 201.04h-4.26v-2.78h11.622v2.78h-4.26v11.22h-3.102zM113.86 212.6c-4.48 0-7.562-2.78-7.562-7.34 0-4.563 3.08-7.343 7.562-7.343s7.562 2.78 7.562 7.342c0 4.56-3.08 7.34-7.56 7.34m0-11.88c-2.66 0-4.5 2-4.5 4.54 0 2.62 1.84 4.52 4.5 4.52 2.72 0 4.5-1.92 4.5-4.52 0-2.56-1.78-4.54-4.5-4.54" fill="#0077C0"/><path d="M135.76 212.26h-3.46l-3.582-4.6h-2.26v4.6h-3.12v-14.003h6.64c3.38 0 5.18 2.26 5.18 4.72-.02 1.822-.558 3.442-3.24 4.402l3.842 4.64v.24zm-9.3-11.32v4.08h3.56c1.442 0 2.06-1.08 2.06-1.96-.018-.96-.64-2.12-2.1-2.12h-3.52zM137.84 198.26h3.1v14.003h-3.1zM153.98 209.86h-7.182l-1.02 2.4h-3.36l6.28-14.002h3.4l6.282 14.003H155l-1.02-2.4zm-3.58-8.44l-2.422 5.68h4.822l-2.4-5.68z" fill="#0077C0"/></svg>