<?xml version="1.0" encoding="UTF-8" standalone="no"?>
<!-- Created with Inkscape (http://www.inkscape.org/) -->

<svg
   xmlns:dc="http://purl.org/dc/elements/1.1/"
   xmlns:cc="http://creativecommons.org/ns#"
   xmlns:rdf="http://www.w3.org/1999/02/22-rdf-syntax-ns#"
   xmlns:svg="http://www.w3.org/2000/svg"
   xmlns="http://www.w3.org/2000/svg"
   xmlns:sodipodi="http://sodipodi.sourceforge.net/DTD/sodipodi-0.dtd"
   xmlns:inkscape="http://www.inkscape.org/namespaces/inkscape"
   id="svg2"
   version="1.1"
   inkscape:version="0.48.4 r9939"
   width="257.27875"
   height="271.0175"
   xml:space="preserve"
   sodipodi:docname="dasa-jhb-logo.ai"><metadata
     id="metadata8"><rdf:RDF><cc:Work
         rdf:about=""><dc:format>image/svg+xml</dc:format><dc:type
           rdf:resource="http://purl.org/dc/dcmitype/StillImage" /><dc:title></dc:title></cc:Work></rdf:RDF></metadata><defs
     id="defs6"><clipPath
       clipPathUnits="userSpaceOnUse"
       id="clipPath16"><path
         d="m 0,216.814 205.823,0 L 205.823,0 0,0 0,216.814 z"
         id="path18" /></clipPath></defs><sodipodi:namedview
     pagecolor="#ffffff"
     bordercolor="#666666"
     borderopacity="1"
     objecttolerance="10"
     gridtolerance="10"
     guidetolerance="10"
     inkscape:pageopacity="0"
     inkscape:pageshadow="2"
     inkscape:window-width="640"
     inkscape:window-height="480"
     id="namedview4"
     showgrid="false"
     inkscape:zoom="0.87079252"
     inkscape:cx="128.63937"
     inkscape:cy="135.50874"
     inkscape:window-x="0"
     inkscape:window-y="25"
     inkscape:window-maximized="0"
     inkscape:current-layer="g10" /><g
     id="g10"
     inkscape:groupmode="layer"
     inkscape:label="dasa-jhb-logo"
     transform="matrix(1.25,0,0,-1.25,0,271.0175)"><g
       id="g12"><g
         id="g14"
         clip-path="url(#clipPath16)"><g
           id="g20"
           transform="translate(102.5036,201.2579)"><path
             d="m 0,0 -31.068,-31.068 c -17.159,-17.159 -17.159,-44.978 0,-62.136 8.579,-8.58 19.824,-12.869 31.068,-12.869 11.244,0 22.489,4.289 31.068,12.869 17.159,17.158 17.159,44.977 0,62.136 L 0,0 z m 0,-46.669 7.734,-7.734 c 2.787,-2.787 3.203,-6.041 3.203,-7.733 0,-1.692 -0.416,-4.947 -3.203,-7.734 -2.788,-2.787 -6.042,-3.203 -7.734,-3.203 -1.692,0 -4.946,0.416 -7.734,3.203 -2.787,2.787 -3.203,6.042 -3.203,7.734 0,1.692 0.416,4.946 3.203,7.733 L 0,-46.669"
             style="fill:#fedc00;fill-opacity:1;fill-rule:nonzero;stroke:none"
             id="path22" /></g><g
           id="g24"
           transform="translate(102.5036,201.2579)"><path
             d="m 0,0 -31.068,-31.068 c -17.159,-17.159 -17.159,-44.978 0,-62.136 8.579,-8.58 19.823,-12.869 31.068,-12.869 11.244,0 22.489,4.289 31.068,12.869 17.159,17.158 17.159,44.977 0,62.136 L 0,0 z m 0,-31.113 15.512,-15.512 c 4.143,-4.143 6.425,-9.652 6.425,-15.511 0,-5.86 -2.282,-11.369 -6.425,-15.512 C 11.368,-81.792 5.86,-84.073 0,-84.073 c -5.86,0 -11.368,2.281 -15.512,6.425 -4.143,4.143 -6.425,9.652 -6.425,15.512 0,5.859 2.282,11.368 6.425,15.511 L 0,-31.113"
             style="fill:#ffaa00;fill-opacity:1;fill-rule:nonzero;stroke:none"
             id="path26" /></g><g
           id="g28"
           transform="translate(12.8169,41.9766)"><path
             d="m 0,0 4.993,0 c 6.048,0 8.16,4.513 8.16,9.121 0,4.608 -2.352,8.545 -8.16,8.545 L 0,17.666 0,0 z m 4.993,25.586 c 11.857,0 17.569,-7.296 17.569,-16.562 0,-9.264 -5.52,-17.041 -17.569,-17.041 l -14.402,0 0,33.603 14.402,0 z"
             style="fill:#06467c;fill-opacity:1;fill-rule:nonzero;stroke:none"
             id="path30" /></g><g
           id="g32"
           transform="translate(48.9609,59.9785)"><path
             d="m 0,0 0,-8.065 7.009,0 c 2.496,0 3.6,1.873 3.6,3.888 C 10.609,-2.064 9.409,0 6.913,0 L 0,0 z m 21.602,-26.019 -10.465,0 -7.824,10.897 -3.313,0 0,-10.897 -9.505,0 0,33.603 16.418,0 c 8.592,0 13.057,-5.521 13.057,-11.568 0,-4.129 -1.44,-7.633 -7.105,-10.129 l 8.737,-11.329 0,-0.577 z"
             style="fill:#06467c;fill-opacity:1;fill-rule:nonzero;stroke:none"
             id="path34" /></g><g
           id="g36"
           transform="translate(104.1152,67.5146)"><path
             d="m 0,0 0,-18.77 c 0.048,-9.936 -6.001,-15.504 -15.842,-15.504 -9.841,0 -15.841,5.328 -15.841,15.6 l 0,18.674 9.457,0 0,-18.674 c 0,-5.28 2.544,-7.488 6.384,-7.488 3.841,0 6.385,2.305 6.385,7.392 L -9.457,0 0,0 z"
             style="fill:#06467c;fill-opacity:1;fill-rule:nonzero;stroke:none"
             id="path38" /></g><g
           id="g40"
           transform="translate(118.9932,51.0498)"><path
             d="m 0,0 6.816,0 c 2.641,0 3.985,1.92 3.985,4.128 0,2.208 -1.392,4.225 -3.985,4.225 L 0,8.353 0,0 z m 0,-8.017 0,-9.073 -9.505,0 0,33.603 16.321,0 c 9.026,0 13.49,-5.664 13.49,-12.241 0,-6.865 -4.513,-12.193 -13.49,-12.289 l -6.816,0 z"
             style="fill:#06467c;fill-opacity:1;fill-rule:nonzero;stroke:none"
             id="path42" /></g><g
           id="g44"
           transform="translate(156.9141,58.1543)"><path
             d="m 0,0 -4.32,-10.705 8.592,0 L 0,0 z m 7.489,-18.674 -15.025,0 -2.209,-5.52 -10.08,0 15.073,33.602 9.601,0 15.025,-33.602 -10.177,0 -2.208,5.52 z"
             style="fill:#06467c;fill-opacity:1;fill-rule:nonzero;stroke:none"
             id="path46" /></g><g
           id="g48"
           transform="translate(188.9775,67.5625)"><path
             d="m 0,0 0,-25.538 16.081,0 0,-8.065 -25.586,0 L -9.505,0 0,0 z"
             style="fill:#06467c;fill-opacity:1;fill-rule:nonzero;stroke:none"
             id="path50" /></g><g
           id="g52"
           transform="translate(15.9702,11.7812)"><path
             d="m 0,0 c 0.1,-2.301 1.4,-3.161 3.181,-3.161 2.04,0 3.26,1.2 3.26,3.361 l 0,5.141 -3.88,0 0,2.841 7.001,0 0,-8.002 c 0,-3.66 -2.201,-6.301 -6.341,-6.301 -3.921,0 -6.202,1.86 -6.242,6.121 L 0,0 z"
             style="fill:#1162b0;fill-opacity:1;fill-rule:nonzero;stroke:none"
             id="path54" /></g><g
           id="g56"
           transform="translate(35.231,17.502)"><path
             d="m 0,0 c -2.661,0 -4.501,-2 -4.501,-4.54 0,-2.621 1.84,-4.522 4.501,-4.522 2.721,0 4.501,1.921 4.501,4.522 C 4.501,-1.979 2.721,0 0,0 m 0,-11.882 c -4.481,0 -7.562,2.78 -7.562,7.342 0,4.561 3.081,7.341 7.562,7.341 4.481,0 7.562,-2.78 7.562,-7.341 0,-4.562 -3.081,-7.342 -7.562,-7.342"
             style="fill:#1162b0;fill-opacity:1;fill-rule:nonzero;stroke:none"
             id="path58" /></g><g
           id="g60"
           transform="translate(54.4912,5.9404)"><path
             d="m 0,0 0,5.541 -6.261,0 0,-5.541 -3.121,0 0,14.003 3.121,0 0,-5.602 6.261,0 0,5.602 3.081,0 L 3.081,0 0,0 z"
             style="fill:#1162b0;fill-opacity:1;fill-rule:nonzero;stroke:none"
             id="path62" /></g><g
           id="g64"
           transform="translate(67.0308,16.8027)"><path
             d="m 0,0 -2.421,-5.682 4.821,0 L 0,0 z m 3.581,-8.442 -7.182,0 -1.02,-2.401 -3.361,0 6.281,14.003 3.401,0 6.281,-14.003 -3.38,0 -1.02,2.401 z"
             style="fill:#1162b0;fill-opacity:1;fill-rule:nonzero;stroke:none"
             id="path66" /></g><g
           id="g68"
           transform="translate(86.231,10.8613)"><path
             d="m 0,0 -0.2,4.4 0,4.702 3.141,0 0,-14.003 -2.681,0 -6.961,8.962 0.12,-4.601 0,-4.361 -3.161,0 0,14.003 2.68,0 L 0,0 z"
             style="fill:#1162b0;fill-opacity:1;fill-rule:nonzero;stroke:none"
             id="path70" /></g><g
           id="g72"
           transform="translate(102.0313,10.8613)"><path
             d="m 0,0 -0.2,4.4 0,4.702 3.14,0 0,-14.003 -2.68,0 -6.962,8.962 0.12,-4.601 0,-4.361 -3.16,0 0,14.003 2.68,0 L 0,0 z"
             style="fill:#1162b0;fill-opacity:1;fill-rule:nonzero;stroke:none"
             id="path74" /></g><g
           id="g76"
           transform="translate(118.751,5.96)"><path
             d="m 0,0 -10.662,0 0,14.003 10.382,0 0,-2.86 -7.322,0 0,-2.702 6.902,0 0,-2.74 -6.902,0 0,-2.82 L 0,2.881 0,0 z"
             style="fill:#1162b0;fill-opacity:1;fill-rule:nonzero;stroke:none"
             id="path78" /></g><g
           id="g80"
           transform="translate(129.4902,16.582)"><path
             d="m 0,0 c -0.78,0.82 -2.141,1.181 -3.24,1.181 -1.381,0 -2.501,-0.58 -2.501,-1.541 0,-1.281 1.22,-1.52 3.02,-1.68 2.761,-0.24 5.382,-1.301 5.382,-4.541 0,-3.121 -2.881,-4.482 -5.901,-4.501 -2.421,-0.021 -4.942,0.92 -6.121,2.881 l 1.86,1.94 c 1.08,-1.381 2.86,-1.98 4.28,-1.98 1.661,0 2.801,0.66 2.801,1.66 0.021,1.18 -0.92,1.72 -2.82,1.88 -2.961,0.28 -5.602,1.02 -5.562,4.321 0.021,2.78 2.661,4.261 5.541,4.261 2.161,0 3.782,-0.48 5.222,-2.16 L 0,0 z"
             style="fill:#1162b0;fill-opacity:1;fill-rule:nonzero;stroke:none"
             id="path82" /></g><g
           id="g84"
           transform="translate(137.3496,8.6807)"><path
             d="m 0,0 3.841,0 c 1.4,0 2.06,0.62 2.06,1.601 0,0.979 -0.72,1.639 -2.1,1.639 L 0,3.24 0,0 z m 0,5.841 3.801,0 c 1.22,0 1.82,0.5 1.82,1.32 0,0.82 -0.6,1.421 -1.78,1.421 L 0,8.582 0,5.841 z m 3.841,5.441 c 2.66,0 4.861,-1.2 4.861,-3.801 0,-1.16 -0.52,-2.24 -1.86,-2.86 1.78,-0.641 2.52,-2.44 2.22,-4.061 -0.42,-2.26 -2.3,-3.281 -5.101,-3.281 l -7.022,0 0,14.003 6.902,0 z"
             style="fill:#1162b0;fill-opacity:1;fill-rule:nonzero;stroke:none"
             id="path86" /></g><g
           id="g88"
           transform="translate(161.3916,19.9434)"><path
             d="m 0,0 0,-7.822 c 0,-4.161 -2.32,-6.381 -6.001,-6.501 -3.661,-0.12 -6.762,1.98 -6.762,6.501 l 0,7.822 3.101,0 0,-7.822 c 0,-2.5 1.4,-3.801 3.681,-3.7 2.12,0.139 2.88,1.599 2.88,3.7 L -3.101,0 0,0 z"
             style="fill:#1162b0;fill-opacity:1;fill-rule:nonzero;stroke:none"
             id="path90" /></g><g
           id="g92"
           transform="translate(167.4287,17.2822)"><path
             d="m 0,0 0,-4.081 3.562,0 c 1.439,0 2.059,1.08 2.059,1.961 C 5.602,-1.16 4.981,0 3.521,0 L 0,0 z m 9.303,-11.322 -3.461,0 -3.581,4.6 -2.261,0 0,-4.6 -3.12,0 0,14.003 6.641,0 c 3.38,0 5.181,-2.261 5.181,-4.721 -0.019,-1.82 -0.56,-3.441 -3.24,-4.401 l 3.841,-4.641 0,-0.24 z"
             style="fill:#1162b0;fill-opacity:1;fill-rule:nonzero;stroke:none"
             id="path94" /></g><g
           id="g96"
           transform="translate(188.6709,16.2822)"><path
             d="m 0,0 c -0.86,0.82 -2.161,1.24 -3.281,1.24 -2.66,0 -4.401,-1.52 -4.401,-4.581 0,-2 1.1,-4.501 4.401,-4.501 0.98,0 1.9,0.16 2.98,0.981 l 0,2.24 -3.341,0 0,2.6 6.042,0 0,-6.101 c -1.2,-1.72 -3.121,-2.601 -5.701,-2.601 -5.401,0 -7.442,3.742 -7.442,7.382 0,3.941 2.321,7.442 7.462,7.442 1.9,0 3.621,-0.52 5.221,-2.161 L 0,0 z"
             style="fill:#1162b0;fill-opacity:1;fill-rule:nonzero;stroke:none"
             id="path98" /></g><g
           id="g100"
           transform="translate(102.5036,216.8141)"><path
             d="m 0,0 -7.778,-7.778 -31.068,-31.068 c -10.377,-10.376 -16.091,-24.172 -16.091,-38.847 0,-14.674 5.714,-28.47 16.091,-38.846 10.376,-10.376 24.172,-16.091 38.846,-16.091 14.674,0 28.47,5.715 38.846,16.091 10.377,10.376 16.091,24.172 16.091,38.846 0,14.675 -5.714,28.471 -16.091,38.847 L 7.778,-7.778 0,0 z m 0,-15.556 31.068,-31.068 c 17.159,-17.159 17.159,-44.978 0,-62.137 C 22.489,-117.34 11.244,-121.63 0,-121.63 c -11.245,0 -22.489,4.29 -31.068,12.869 -17.159,17.159 -17.159,44.978 0,62.137 L 0,-15.556"
             style="fill:#06467c;fill-opacity:1;fill-rule:nonzero;stroke:none"
             id="path102" /></g><g
           id="g104"
           transform="translate(102.5036,201.2579)"><path
             d="m 0,0 -31.068,-31.068 c -17.159,-17.159 -17.159,-44.978 0,-62.136 8.579,-8.58 19.823,-12.869 31.068,-12.869 11.244,0 22.489,4.289 31.068,12.869 17.159,17.158 17.159,44.977 0,62.136 L 0,0 z m 0,-15.556 23.29,-23.29 c 6.221,-6.221 9.647,-14.493 9.647,-23.29 0,-8.798 -3.426,-17.069 -9.647,-23.29 -6.221,-6.221 -14.492,-9.647 -23.29,-9.647 -8.798,0 -17.069,3.426 -23.29,9.647 -6.221,6.221 -9.647,14.492 -9.647,23.29 0,8.797 3.426,17.069 9.647,23.29 L 0,-15.556"
             style="fill:#1162b0;fill-opacity:1;fill-rule:nonzero;stroke:none"
             id="path106" /></g></g></g></g></svg>