<?xml version="1.0" encoding="UTF-8" standalone="no"?>
<!-- Created with Inkscape (http://www.inkscape.org/) -->

<svg
   xmlns:dc="http://purl.org/dc/elements/1.1/"
   xmlns:cc="http://creativecommons.org/ns#"
   xmlns:rdf="http://www.w3.org/1999/02/22-rdf-syntax-ns#"
   xmlns:svg="http://www.w3.org/2000/svg"
   xmlns="http://www.w3.org/2000/svg"
   xmlns:sodipodi="http://sodipodi.sourceforge.net/DTD/sodipodi-0.dtd"
   xmlns:inkscape="http://www.inkscape.org/namespaces/inkscape"
   id="svg2"
   version="1.1"
   inkscape:version="0.48.4 r9939"
   width="252.06125"
   height="263.99875"
   xml:space="preserve"
   sodipodi:docname="dasa-dbn-logo.ai"><metadata
     id="metadata8"><rdf:RDF><cc:Work
         rdf:about=""><dc:format>image/svg+xml</dc:format><dc:type
           rdf:resource="http://purl.org/dc/dcmitype/StillImage" /><dc:title></dc:title></cc:Work></rdf:RDF></metadata><defs
     id="defs6"><clipPath
       clipPathUnits="userSpaceOnUse"
       id="clipPath16"><path
         d="m 0,211.199 201.649,0 L 201.649,0 0,0 0,211.199 z"
         id="path18" /></clipPath></defs><sodipodi:namedview
     pagecolor="#ffffff"
     bordercolor="#666666"
     borderopacity="1"
     objecttolerance="10"
     gridtolerance="10"
     guidetolerance="10"
     inkscape:pageopacity="0"
     inkscape:pageshadow="2"
     inkscape:window-width="640"
     inkscape:window-height="480"
     id="namedview4"
     showgrid="false"
     inkscape:zoom="0.89394363"
     inkscape:cx="126.03062"
     inkscape:cy="131.99937"
     inkscape:window-x="0"
     inkscape:window-y="25"
     inkscape:window-maximized="0"
     inkscape:current-layer="g10" /><g
     id="g10"
     inkscape:groupmode="layer"
     inkscape:label="dasa-dbn-logo"
     transform="matrix(1.25,0,0,-1.25,0,263.99875)"><g
       id="g12"><g
         id="g14"
         clip-path="url(#clipPath16)"><g
           id="g20"
           transform="translate(99.0959,195.6427)"><path
             d="m 0,0 -31.068,-31.068 c -17.159,-17.159 -17.159,-44.978 0,-62.136 8.579,-8.58 19.824,-12.869 31.068,-12.869 11.245,0 22.489,4.289 31.068,12.869 17.159,17.158 17.159,44.977 0,62.136 L 0,0 z"
             style="fill:#ffffff;fill-opacity:1;fill-rule:nonzero;stroke:none"
             id="path22" /></g><g
           id="g24"
           transform="translate(99.0959,195.6427)"><path
             d="m 0,0 -31.068,-31.068 c -17.159,-17.159 -17.159,-44.978 0,-62.136 8.579,-8.58 19.824,-12.869 31.068,-12.869 11.244,0 22.489,4.289 31.068,12.869 17.159,17.158 17.159,44.977 0,62.136 L 0,0 z m 0,-46.669 7.733,-7.733 c 4.265,-4.265 4.265,-11.204 0.001,-15.468 -2.788,-2.787 -6.042,-3.203 -7.734,-3.203 -1.692,0 -4.946,0.416 -7.734,3.203 -4.264,4.264 -4.264,11.203 0,15.467 L 0,-46.669"
             style="fill:#f50000;fill-opacity:1;fill-rule:nonzero;stroke:none"
             id="path26" /></g><g
           id="g28"
           transform="translate(99.0959,195.6427)"><path
             d="m 0,0 -31.068,-31.068 c -17.159,-17.159 -17.159,-44.978 0,-62.136 8.579,-8.58 19.824,-12.869 31.068,-12.869 11.244,0 22.489,4.289 31.068,12.869 17.159,17.158 17.159,44.977 0,62.136 L 0,0 z m 0,-31.113 15.512,-15.512 c 4.143,-4.143 6.425,-9.652 6.425,-15.511 0,-5.86 -2.282,-11.369 -6.425,-15.512 C 11.368,-81.792 5.86,-84.073 0,-84.073 c -5.86,0 -11.368,2.281 -15.512,6.425 -4.143,4.143 -6.425,9.652 -6.425,15.512 0,5.859 2.282,11.368 6.425,15.511 L 0,-31.113"
             style="fill:#b40500;fill-opacity:1;fill-rule:nonzero;stroke:none"
             id="path30" /></g><g
           id="g32"
           transform="translate(9.4087,36.3613)"><path
             d="m 0,0 4.993,0 c 6.048,0 8.16,4.513 8.16,9.121 0,4.608 -2.352,8.545 -8.16,8.545 L 0,17.666 0,0 z m 4.993,25.586 c 11.857,0 17.569,-7.296 17.569,-16.562 0,-9.264 -5.52,-17.041 -17.569,-17.041 l -14.402,0 0,33.603 14.402,0 z"
             style="fill:#06467c;fill-opacity:1;fill-rule:nonzero;stroke:none"
             id="path34" /></g><g
           id="g36"
           transform="translate(45.5527,54.3633)"><path
             d="m 0,0 0,-8.065 7.009,0 c 2.496,0 3.6,1.873 3.6,3.888 C 10.609,-2.064 9.409,0 6.913,0 L 0,0 z m 21.602,-26.019 -10.465,0 -7.824,10.897 -3.313,0 0,-10.897 -9.505,0 0,33.603 16.418,0 c 8.592,0 13.057,-5.521 13.057,-11.568 0,-4.129 -1.44,-7.633 -7.105,-10.129 l 8.737,-11.329 0,-0.577 z"
             style="fill:#06467c;fill-opacity:1;fill-rule:nonzero;stroke:none"
             id="path38" /></g><g
           id="g40"
           transform="translate(100.7065,61.8994)"><path
             d="m 0,0 0,-18.77 c 0.048,-9.936 -6,-15.504 -15.841,-15.504 -9.841,0 -15.842,5.328 -15.842,15.6 l 0,18.674 9.457,0 0,-18.674 c 0,-5.28 2.544,-7.488 6.385,-7.488 3.84,0 6.384,2.305 6.384,7.392 L -9.457,0 0,0 z"
             style="fill:#06467c;fill-opacity:1;fill-rule:nonzero;stroke:none"
             id="path42" /></g><g
           id="g44"
           transform="translate(115.5845,45.4346)"><path
             d="m 0,0 6.816,0 c 2.641,0 3.985,1.92 3.985,4.128 0,2.208 -1.392,4.225 -3.985,4.225 L 0,8.353 0,0 z m 0,-8.017 0,-9.073 -9.505,0 0,33.603 16.321,0 c 9.026,0 13.49,-5.664 13.49,-12.241 0,-6.865 -4.513,-12.193 -13.49,-12.289 l -6.816,0 z"
             style="fill:#06467c;fill-opacity:1;fill-rule:nonzero;stroke:none"
             id="path46" /></g><g
           id="g48"
           transform="translate(153.5044,52.539)"><path
             d="m 0,0 -4.32,-10.705 8.592,0 L 0,0 z m 7.489,-18.674 -15.025,0 -2.209,-5.52 -10.08,0 15.073,33.602 9.601,0 15.025,-33.602 -10.177,0 -2.208,5.52 z"
             style="fill:#06467c;fill-opacity:1;fill-rule:nonzero;stroke:none"
             id="path50" /></g><g
           id="g52"
           transform="translate(185.5679,61.9473)"><path
             d="m 0,0 0,-25.538 16.081,0 0,-8.065 -25.586,0 L -9.505,0 0,0 z"
             style="fill:#06467c;fill-opacity:1;fill-rule:nonzero;stroke:none"
             id="path54" /></g><g
           id="g56"
           transform="translate(58.0615,3.2256)"><path
             d="m 0,0 2.661,0 c 3.04,0 3.881,2.24 3.881,4.261 0,2.02 -0.961,4.041 -3.881,4.041 L 0,8.302 0,0 z m 2.661,11.122 c 4.82,0 6.961,-3.24 6.961,-6.901 0,-3.661 -2.06,-7.102 -6.961,-7.102 l -5.742,0 0,14.003 5.742,0 z"
             style="fill:#1162b0;fill-opacity:1;fill-rule:nonzero;stroke:none"
             id="path58" /></g><g
           id="g60"
           transform="translate(82.603,14.3281)"><path
             d="m 0,0 0,-7.822 c 0,-4.161 -2.32,-6.381 -6.001,-6.501 -3.661,-0.12 -6.762,1.98 -6.762,6.501 l 0,7.822 3.101,0 0,-7.822 c 0,-2.5 1.4,-3.801 3.681,-3.7 2.12,0.139 2.88,1.599 2.88,3.7 L -3.101,0 0,0 z"
             style="fill:#1162b0;fill-opacity:1;fill-rule:nonzero;stroke:none"
             id="path62" /></g><g
           id="g64"
           transform="translate(88.6411,11.667)"><path
             d="m 0,0 0,-4.081 3.561,0 c 1.44,0 2.06,1.08 2.06,1.961 C 5.601,-1.16 4.981,0 3.521,0 L 0,0 z m 9.302,-11.322 -3.461,0 -3.581,4.6 -2.26,0 0,-4.6 -3.121,0 0,14.003 6.642,0 c 3.38,0 5.181,-2.261 5.181,-4.721 -0.02,-1.82 -0.56,-3.441 -3.241,-4.401 l 3.841,-4.641 0,-0.24 z"
             style="fill:#1162b0;fill-opacity:1;fill-rule:nonzero;stroke:none"
             id="path66" /></g><g
           id="g68"
           transform="translate(103.0806,3.0654)"><path
             d="m 0,0 3.841,0 c 1.4,0 2.06,0.62 2.06,1.601 0,0.979 -0.72,1.639 -2.1,1.639 L 0,3.24 0,0 z m 0,5.841 3.801,0 c 1.22,0 1.82,0.5 1.82,1.32 0,0.82 -0.6,1.421 -1.78,1.421 L 0,8.582 0,5.841 z m 3.841,5.441 c 2.66,0 4.861,-1.2 4.861,-3.801 0,-1.16 -0.52,-2.24 -1.86,-2.86 1.78,-0.641 2.52,-2.44 2.22,-4.061 -0.42,-2.26 -2.3,-3.281 -5.101,-3.281 l -7.022,0 0,14.003 6.902,0 z"
             style="fill:#1162b0;fill-opacity:1;fill-rule:nonzero;stroke:none"
             id="path70" /></g><g
           id="g72"
           transform="translate(120.6606,11.1875)"><path
             d="m 0,0 -2.42,-5.682 4.82,0 L 0,0 z m 3.581,-8.442 -7.182,0 -1.02,-2.401 -3.36,0 6.281,14.003 3.401,0 6.281,-14.003 -3.38,0 -1.021,2.401 z"
             style="fill:#1162b0;fill-opacity:1;fill-rule:nonzero;stroke:none"
             id="path74" /></g><g
           id="g76"
           transform="translate(139.8618,5.2461)"><path
             d="m 0,0 -0.2,4.4 0,4.702 3.14,0 0,-14.003 -2.68,0 -6.962,8.962 0.12,-4.601 0,-4.361 -3.16,0 0,14.003 2.68,0 L 0,0 z"
             style="fill:#1162b0;fill-opacity:1;fill-rule:nonzero;stroke:none"
             id="path78" /></g><g
           id="g80"
           transform="translate(99.0959,211.1989)"><path
             d="m 0,0 -7.778,-7.778 -31.068,-31.068 c -21.42,-21.42 -21.42,-56.273 0,-77.693 10.376,-10.376 24.172,-16.091 38.846,-16.091 14.674,0 28.47,5.715 38.846,16.091 21.42,21.42 21.42,56.273 0,77.693 L 7.778,-7.778 0,0 z m 0,-15.556 31.068,-31.068 c 17.159,-17.159 17.159,-44.978 0,-62.137 C 22.489,-117.34 11.244,-121.63 0,-121.63 c -11.244,0 -22.489,4.29 -31.068,12.869 -17.159,17.159 -17.159,44.978 0,62.137 L 0,-15.556"
             style="fill:#06467c;fill-opacity:1;fill-rule:nonzero;stroke:none"
             id="path82" /></g><g
           id="g84"
           transform="translate(99.0959,195.6427)"><path
             d="m 0,0 -31.068,-31.068 c -17.159,-17.159 -17.159,-44.978 0,-62.136 8.579,-8.58 19.824,-12.869 31.068,-12.869 11.244,0 22.489,4.289 31.068,12.869 17.159,17.158 17.159,44.977 0,62.136 L 0,0 z m 0,-15.556 23.29,-23.29 c 12.842,-12.842 12.842,-33.738 0,-46.58 -6.221,-6.221 -14.492,-9.647 -23.29,-9.647 -8.798,0 -17.069,3.426 -23.29,9.647 -12.842,12.842 -12.842,33.738 0,46.58 L 0,-15.556"
             style="fill:#1162b0;fill-opacity:1;fill-rule:nonzero;stroke:none"
             id="path86" /></g></g></g></g></svg>