<svg xmlns="http://www.w3.org/2000/svg" height="264" width="252.06"><defs><clipPath id="a"><path d="M0 211.2h201.65V0H0v211.2z"/></clipPath></defs><g clip-path="url(#a)" transform="matrix(1.25 0 0 -1.25 0 264)"><path d="M99.096 195.64l-31.068-31.068c-17.16-17.16-17.16-44.978 0-62.136 8.58-8.58 19.824-12.87 31.068-12.87 11.245 0 22.49 4.29 31.068 12.87 17.16 17.158 17.16 44.977 0 62.136L99.096 195.64z" fill="#fff"/><path d="M99.096 195.64l-31.068-31.068c-17.16-17.16-17.16-44.978 0-62.136 8.58-8.58 19.824-12.87 31.068-12.87s22.49 4.29 31.068 12.87c17.16 17.158 17.16 44.977 0 62.136L99.096 195.64zm0-46.67l7.733-7.732c4.264-4.265 4.264-11.204 0-15.468-2.788-2.787-6.042-3.203-7.734-3.203s-4.946.416-7.734 3.203c-4.264 4.264-4.264 11.203 0 15.467l7.734 7.734" fill="#f50000"/><path d="M99.096 195.64l-31.068-31.068c-17.16-17.16-17.16-44.978 0-62.136 8.58-8.58 19.824-12.87 31.068-12.87s22.49 4.29 31.068 12.87c17.16 17.158 17.16 44.977 0 62.136L99.096 195.64zm0-31.113l15.512-15.512a21.793 21.793 0 0 0 6.425-15.51c0-5.86-2.282-11.37-6.425-15.513-4.144-4.144-9.652-6.425-15.512-6.425s-11.368 2.28-15.512 6.425a21.794 21.794 0 0 0-6.425 15.512c0 5.86 2.28 11.368 6.424 15.51l15.512 15.513" fill="#b40500"/><path d="M9.41 36.36h4.99c6.048 0 8.16 4.514 8.16 9.122s-2.352 8.545-8.16 8.545H9.41V36.36zm4.99 25.588c11.857 0 17.57-7.296 17.57-16.562 0-9.264-5.52-17.04-17.57-17.04H0v33.602h14.402zM45.553 54.363v-8.065h7.01c2.495 0 3.6 1.873 3.6 3.888 0 2.113-1.2 4.177-3.697 4.177h-6.913zm21.602-26.02H56.69l-7.824 10.898h-3.313V28.345h-9.505v33.603h16.418c8.592 0 13.057-5.52 13.057-11.568 0-4.13-1.44-7.634-7.105-10.13l8.737-11.33v-.576zM100.71 61.9V43.13c.048-9.937-6-15.505-15.84-15.505s-15.843 5.328-15.843 15.6V61.9h9.457V43.224c0-5.28 2.544-7.488 6.385-7.488 3.84 0 6.383 2.305 6.383 7.392V61.9h9.457zM115.58 45.435h6.816c2.64 0 3.985 1.92 3.985 4.128s-1.39 4.225-3.984 4.225h-6.816v-8.353zm0-8.017v-9.073h-9.505v33.603h16.32c9.027 0 13.49-5.664 13.49-12.24 0-6.866-4.512-12.194-13.49-12.29h-6.815zM153.5 52.54l-4.32-10.706h8.592L153.5 52.54zm7.49-18.675h-15.026l-2.21-5.52h-10.08l15.074 33.602h9.6l15.026-33.602h-10.177l-2.208 5.52zM185.57 61.947V36.41h16.08v-8.066h-25.585v33.603h9.505z" fill="#06467c"/><path d="M58.062 3.226h2.66c3.04 0 3.882 2.24 3.882 4.26 0 2.02-.96 4.042-3.88 4.042H58.06V3.226zm2.66 11.122c4.82 0 6.962-3.24 6.962-6.9S65.624.344 60.724.344H54.98v14.003h5.743zM82.603 14.328V6.506c0-4.16-2.32-6.38-6-6.5-3.662-.12-6.763 1.98-6.763 6.5v7.822h3.1V6.506c0-2.5 1.4-3.8 3.682-3.7 2.12.14 2.88 1.6 2.88 3.7v7.822h3.1zM88.64 11.667v-4.08h3.562c1.44 0 2.06 1.08 2.06 1.96-.02.96-.64 2.12-2.1 2.12h-3.52zM97.944.345h-3.46l-3.582 4.6h-2.26v-4.6h-3.12v14.003h6.642c3.38 0 5.18-2.26 5.18-4.72-.02-1.82-.56-3.442-3.24-4.402l3.84-4.64v-.24zM103.08 3.065h3.84c1.4 0 2.06.62 2.06 1.6 0 .98-.72 1.64-2.1 1.64h-3.8v-3.24zm0 5.84h3.8c1.22 0 1.82.5 1.82 1.32s-.6 1.422-1.78 1.422h-3.84v-2.74zm3.84 5.442c2.66 0 4.862-1.2 4.862-3.8 0-1.16-.52-2.24-1.86-2.86 1.78-.642 2.52-2.44 2.22-4.062-.42-2.26-2.3-3.28-5.1-3.28h-7.023v14.002h6.9zM120.66 11.188l-2.42-5.682h4.82l-2.4 5.682zm3.58-8.442h-7.18l-1.02-2.4h-3.36l6.28 14.002h3.4L128.643.345h-3.38l-1.02 2.4zM139.86 5.246l-.2 4.4v4.702h3.14V.345h-2.68l-6.962 8.962.12-4.6V.344h-3.16v14.003h2.68l7.062-9.102z" fill="#1162b0"/><path d="M99.096 211.2l-7.778-7.778-31.068-31.068c-21.42-21.42-21.42-56.273 0-77.693 10.376-10.375 24.172-16.09 38.846-16.09s28.47 5.715 38.846 16.09c21.42 21.42 21.42 56.274 0 77.694l-31.068 31.068-7.778 7.778zm0-15.556l31.068-31.068c17.16-17.16 17.16-44.978 0-62.137-8.58-8.58-19.824-12.87-31.068-12.87s-22.49 4.29-31.068 12.868c-17.16 17.16-17.16 44.978 0 62.137l31.068 31.068" fill="#06467c"/><path d="M99.096 195.64l-31.068-31.068c-17.16-17.16-17.16-44.978 0-62.136 8.58-8.58 19.824-12.87 31.068-12.87s22.49 4.29 31.068 12.87c17.16 17.158 17.16 44.977 0 62.136L99.096 195.64zm0-15.556l23.29-23.29c12.842-12.842 12.842-33.738 0-46.58-6.22-6.22-14.492-9.647-23.29-9.647s-17.07 3.426-23.29 9.647c-12.842 12.842-12.842 33.738 0 46.58l23.29 23.29" fill="#1162b0"/></g></svg>