<svg xmlns="http://www.w3.org/2000/svg" height="271.02" width="257.28"><defs><clipPath id="a"><path d="M0 216.81h205.82V0H0v216.81z"/></clipPath></defs><g clip-path="url(#a)" transform="matrix(1.25 0 0 -1.25 0 271.02)"><path d="M102.5 201.26l-31.068-31.068c-17.16-17.16-17.16-44.978 0-62.136 8.58-8.58 19.824-12.87 31.068-12.87s22.49 4.29 31.068 12.87c17.16 17.158 17.16 44.977 0 62.136L102.5 201.26zm0-46.67l7.734-7.733c2.787-2.787 3.203-6.04 3.203-7.733s-.416-4.947-3.203-7.734c-2.788-2.787-6.042-3.203-7.734-3.203s-4.946.416-7.734 3.203c-2.787 2.787-3.203 6.042-3.203 7.734s.416 4.946 3.203 7.733l7.734 7.734" fill="#fedc00"/><path d="M102.5 201.26l-31.068-31.068c-17.16-17.16-17.16-44.978 0-62.136 8.58-8.58 19.823-12.87 31.068-12.87 11.244 0 22.49 4.29 31.068 12.87 17.16 17.158 17.16 44.977 0 62.136L102.5 201.26zm0-31.113l15.512-15.512c4.143-4.143 6.425-9.652 6.425-15.51 0-5.86-2.282-11.37-6.425-15.513-4.144-4.144-9.652-6.425-15.512-6.425s-11.368 2.28-15.512 6.425c-4.143 4.143-6.425 9.652-6.425 15.512 0 5.86 2.282 11.368 6.425 15.51l15.512 15.513" fill="#fa0"/><path d="M12.817 41.977h4.993c6.048 0 8.16 4.513 8.16 9.12s-2.352 8.546-8.16 8.546h-4.993V41.977zm4.993 25.586c11.857 0 17.57-7.296 17.57-16.562 0-9.262-5.52-17.04-17.57-17.04H3.408v33.604H17.81zM48.96 59.978v-8.065h7.01c2.496 0 3.6 1.873 3.6 3.888 0 2.115-1.2 4.18-3.696 4.18H48.96zm21.603-26.02H60.098l-7.824 10.898H48.96V33.96h-9.504v33.6h16.418c8.592 0 13.057-5.52 13.057-11.568 0-4.13-1.44-7.633-7.103-10.13l8.737-11.328v-.577zM104.12 67.515v-18.77c.048-9.936-6-15.504-15.842-15.504s-15.84 5.33-15.84 15.6v18.676h9.456V48.84c0-5.28 2.544-7.487 6.384-7.487 3.84 0 6.385 2.305 6.385 7.392v18.77h9.457zM118.99 51.05h6.816c2.64 0 3.985 1.92 3.985 4.128s-1.39 4.225-3.983 4.225h-6.816V51.05zm0-8.017V33.96h-9.505v33.603h16.32c9.027 0 13.49-5.664 13.49-12.24 0-6.866-4.512-12.194-13.49-12.29h-6.815zM156.91 58.154l-4.32-10.705h8.592l-4.272 10.703zm7.49-18.674h-15.026l-2.21-5.52h-10.08l15.074 33.602h9.6l15.026-33.602h-10.177l-2.208 5.52zM188.98 67.562V42.024h16.08V33.96h-25.585v33.6h9.505z" fill="#06467c"/><path d="M15.97 11.78c.1-2.3 1.4-3.16 3.18-3.16 2.04 0 3.26 1.2 3.26 3.36v5.142h-3.88v2.84h7.002v-8c0-3.66-2.2-6.302-6.34-6.302-3.922 0-6.203 1.86-6.243 6.12h3.02zM35.23 17.502c-2.66 0-4.5-2-4.5-4.54 0-2.62 1.84-4.522 4.5-4.522 2.722 0 4.502 1.92 4.502 4.522 0 2.56-1.78 4.54-4.5 4.54m0-11.882c-4.482 0-7.563 2.78-7.563 7.342 0 4.56 3.08 7.34 7.56 7.34s7.562-2.78 7.562-7.34c0-4.562-3.08-7.342-7.562-7.342M54.49 5.94v5.54h-6.26V5.94h-3.12v14.003h3.12V14.34h6.26v5.603h3.082V5.94h-3.08zM67.03 16.803l-2.42-5.682h4.82l-2.4 5.684zm3.582-8.442H63.43l-1.02-2.4h-3.36l6.28 14.004h3.4L75.013 5.96h-3.38l-1.02 2.4zM86.23 10.86l-.2 4.4v4.703h3.142V5.96h-2.68l-6.962 8.962.12-4.6V5.96h-3.16v14.003h2.68l7.06-9.102zM102.03 10.86l-.2 4.4v4.703h3.14V5.96h-2.68l-6.962 8.962.12-4.6V5.96h-3.16v14.003h2.68l7.062-9.102zM118.75 5.96h-10.662v14.003h10.382v-2.86h-7.322V14.4h6.902v-2.74h-6.902V8.84h7.602V5.96zM129.49 16.582c-.78.82-2.14 1.18-3.24 1.18-1.38 0-2.5-.58-2.5-1.54 0-1.28 1.22-1.52 3.02-1.68 2.76-.24 5.38-1.3 5.38-4.54 0-3.122-2.88-4.483-5.9-4.502-2.42-.02-4.942.92-6.12 2.88l1.86 1.94c1.08-1.38 2.86-1.98 4.28-1.98 1.66 0 2.8.66 2.8 1.66.02 1.18-.92 1.72-2.82 1.88-2.96.28-5.602 1.02-5.562 4.322.02 2.78 2.66 4.26 5.54 4.26 2.162 0 3.783-.48 5.223-2.16l-1.96-1.72zM137.35 8.68h3.84c1.4 0 2.06.62 2.06 1.602 0 .98-.72 1.64-2.1 1.64h-3.8V8.68zm0 5.842h3.8c1.22 0 1.82.5 1.82 1.32s-.6 1.42-1.78 1.42h-3.84v-2.74zm3.84 5.44c2.66 0 4.862-1.2 4.862-3.8 0-1.16-.52-2.24-1.86-2.86 1.78-.64 2.52-2.44 2.22-4.06-.42-2.26-2.3-3.282-5.1-3.282h-7.023v14.003h6.9zM161.39 19.943V12.12c0-4.16-2.32-6.38-6-6.5-3.662-.12-6.763 1.98-6.763 6.5v7.823h3.1V12.12c0-2.5 1.4-3.8 3.682-3.7 2.12.14 2.88 1.6 2.88 3.7v7.823h3.1zM167.43 17.282v-4.08h3.562c1.44 0 2.06 1.08 2.06 1.96-.02.96-.64 2.12-2.1 2.12h-3.522zm9.303-11.322h-3.46l-3.582 4.6h-2.26v-4.6h-3.12v14.003h6.64c3.38 0 5.183-2.26 5.183-4.72-.02-1.82-.56-3.442-3.24-4.402l3.84-4.64v-.24zM188.67 16.282c-.86.82-2.16 1.24-3.28 1.24-2.66 0-4.402-1.52-4.402-4.58 0-2 1.1-4.502 4.4-4.502.98 0 1.9.16 2.98.98v2.24h-3.34v2.6h6.042v-6.1c-1.2-1.72-3.12-2.6-5.7-2.6-5.402 0-7.443 3.74-7.443 7.38 0 3.942 2.32 7.443 7.462 7.443 1.9 0 3.62-.52 5.22-2.16l-1.94-1.94z" fill="#1162b0"/><path d="M102.5 216.81l-7.778-7.778-31.068-31.068c-10.377-10.376-16.09-24.172-16.09-38.847 0-14.674 5.713-28.47 16.09-38.846C74.03 89.897 87.826 84.18 102.5 84.18s28.47 5.715 38.846 16.09c10.377 10.377 16.09 24.173 16.09 38.847 0 14.675-5.713 28.47-16.09 38.847l-31.068 31.068-7.778 7.778zm0-15.556l31.068-31.068c17.16-17.16 17.16-44.978 0-62.137-8.58-8.58-19.824-12.87-31.068-12.87-11.245 0-22.49 4.29-31.068 12.867-17.16 17.16-17.16 44.978 0 62.137l31.068 31.068" fill="#06467c"/><path d="M102.5 201.26l-31.068-31.068c-17.16-17.16-17.16-44.978 0-62.136 8.58-8.58 19.823-12.87 31.068-12.87 11.244 0 22.49 4.29 31.068 12.87 17.16 17.158 17.16 44.977 0 62.136L102.5 201.26zm0-15.556l23.29-23.29c6.22-6.22 9.647-14.493 9.647-23.29 0-8.798-3.426-17.07-9.647-23.29s-14.492-9.647-23.29-9.647-17.07 3.426-23.29 9.647-9.647 14.492-9.647 23.29c0 8.797 3.426 17.07 9.647 23.29l23.29 23.29" fill="#1162b0"/></g></svg>