<svg xmlns="http://www.w3.org/2000/svg" height="264.02" width="252.06"><defs><clipPath id="a"><path d="M0 211.22h201.65V0H0v211.22z"/></clipPath></defs><g clip-path="url(#a)" transform="matrix(1.25 0 0 -1.25 0 264.02)"><path d="M99.095 195.66l-31.068-31.068c-17.16-17.16-17.16-44.978 0-62.136 8.58-8.58 19.824-12.87 31.068-12.87s22.49 4.29 31.068 12.87c17.16 17.158 17.16 44.977 0 62.136L99.095 195.66z" fill="#fff"/><path d="M99.095 195.66l-31.068-31.068c-17.16-17.16-17.16-44.978 0-62.136 8.58-8.58 19.824-12.87 31.068-12.87s22.49 4.29 31.068 12.87c17.16 17.158 17.16 44.977 0 62.136L99.095 195.66zm0-46.67l7.734-7.733c2.785-2.787 3.2-6.04 3.2-7.733s-.415-4.947-3.202-7.734-6.043-3.203-7.735-3.203-4.946.416-7.734 3.203c-4.264 4.265-4.264 11.203 0 15.467l7.734 7.734" fill="#92eaff"/><path d="M99.095 195.66l-31.068-31.068c-17.16-17.16-17.16-44.978 0-62.136 8.58-8.58 19.824-12.87 31.068-12.87s22.49 4.29 31.068 12.87c17.16 17.158 17.16 44.977 0 62.136L99.095 195.66zm0-31.113l15.512-15.512c8.553-8.553 8.553-22.47 0-31.023-4.143-4.144-9.652-6.425-15.512-6.425-5.86 0-11.368 2.28-15.512 6.425-4.143 4.143-6.425 9.652-6.425 15.512 0 5.86 2.282 11.368 6.425 15.51l15.512 15.513" fill="#27b7e8"/><path d="M9.41 36.377h4.99c6.048 0 8.16 4.513 8.16 9.12s-2.352 8.546-8.16 8.546H9.41V36.377zm4.99 25.586c11.857 0 17.57-7.296 17.57-16.562 0-9.262-5.52-17.04-17.57-17.04H0v33.604h14.402zM45.553 54.38v-8.066h7.01c2.495 0 3.6 1.873 3.6 3.888 0 2.113-1.2 4.177-3.697 4.177h-6.913zm21.602-26.02H56.69l-7.824 10.897h-3.313V28.36h-9.505v33.603h16.418c8.592 0 13.057-5.52 13.057-11.568 0-4.13-1.44-7.633-7.105-10.13l8.737-11.328v-.577zM100.71 61.915v-18.77c.048-9.936-6-15.504-15.842-15.504s-15.84 5.33-15.84 15.6v18.676h9.456V43.24c0-5.28 2.544-7.487 6.384-7.487 3.84 0 6.385 2.305 6.385 7.392v18.77h9.457zM115.58 45.45h6.816c2.64 0 3.985 1.92 3.985 4.128s-1.39 4.225-3.983 4.225h-6.816V45.45zm0-8.017V28.36h-9.505v33.603h16.32c9.027 0 13.49-5.664 13.49-12.24 0-6.866-4.512-12.194-13.49-12.29h-6.815zM153.5 52.555l-4.32-10.705h8.592L153.5 52.555zm7.49-18.674h-15.026l-2.21-5.52h-10.08l15.074 33.604h9.6l15.026-33.602h-10.177l-2.208 5.52zM185.57 61.963V36.425h16.08V28.36h-25.585v33.603h9.505z" fill="#06467c"/><path d="M48.783 2.06C47.343.64 45.483 0 43.403 0 38.06 0 35.94 3.442 35.92 7.26c-.02 3.623 2.34 7.423 7.482 7.423 1.92 0 3.7-.74 5.14-2.16l-1.96-1.94c-.84.82-2.06 1.16-3.18 1.16-3.18 0-4.42-2.46-4.4-4.5.02-2.042 1.12-4.363 4.4-4.363 1.12 0 2.6.5 3.44 1.34l1.94-2.16zM56.982 11.203l-2.42-5.682h4.82l-2.4 5.684zm3.58-8.442h-7.18L52.36.36H49l6.28 14.003h3.402L64.962.36h-3.38l-1.02 2.4zM69.56 7.182h3.48c1.502 0 2.242.98 2.242 2.1s-.76 2.12-2.24 2.12h-3.48v-4.22zm0-2.86V.362h-3.12v14.002h6.6c3.583 0 5.363-2.32 5.363-5.022 0-2.8-1.8-4.98-5.362-5.02h-3.48zM91.083.36H80.42v14.003h10.383v-2.86H83.48V8.8h6.903V6.06H83.48V3.24h7.603V.36zM101.58 11.583h-4.26v2.78h11.622v-2.78h-4.26V.36h-3.102v11.223zM117.4 11.902c-2.66 0-4.5-2-4.5-4.54 0-2.62 1.84-4.522 4.5-4.522 2.72 0 4.5 1.92 4.5 4.522 0 2.56-1.78 4.54-4.5 4.54m0-11.882c-4.48 0-7.562 2.78-7.562 7.342 0 4.56 3.08 7.34 7.562 7.34 4.48 0 7.562-2.78 7.562-7.34C124.962 2.8 121.88.02 117.4.02M141.66.38h-2.56l-3 7.822L133.197.38h-2.56l-5.22 13.983h3.5l1.74-4.78 1.26-4.52 3.14 9.3h2.04l3.282-9.3 1.2 4.5 1.66 4.8h3.5L141.66.38zM158.14 5.262l-.2 4.4v4.702h3.14V.36h-2.68l-6.962 8.963.12-4.6V.36h-3.16v14.004h2.68l7.062-9.102z" fill="#1162b0"/><path d="M99.095 211.21l-7.778-7.778-31.068-31.068c-21.42-21.42-21.42-56.273 0-77.693 10.374-10.374 24.17-16.09 38.844-16.09s28.47 5.716 38.846 16.09c21.422 21.42 21.422 56.275 0 77.695l-31.067 31.068-7.778 7.778zm0-15.556l31.068-31.068c17.16-17.16 17.16-44.978 0-62.137-8.58-8.58-19.824-12.87-31.068-12.87s-22.49 4.29-31.068 12.867c-17.16 17.16-17.16 44.978 0 62.137l31.068 31.068" fill="#06467c"/><path d="M99.095 195.66l-31.068-31.068c-17.16-17.16-17.16-44.978 0-62.136 8.58-8.58 19.824-12.87 31.068-12.87s22.49 4.29 31.068 12.87c17.16 17.158 17.16 44.977 0 62.136L99.095 195.66zm0-15.556l23.29-23.29c12.842-12.842 12.842-33.738 0-46.58-6.22-6.22-14.492-9.647-23.29-9.647s-17.07 3.426-23.29 9.647c-12.842 12.842-12.842 33.738 0 46.58l23.29 23.29" fill="#1162b0"/></g></svg>