<svg version="1" xmlns="http://www.w3.org/2000/svg" xmlns:xlink="http://www.w3.org/1999/xlink" width="164.31" height="198.425" viewBox="0 0 164.31 198.425"><path fill="#fff" d="M82.152 0l-8.71 8.71-9.893 9.893-39.517 39.514c-32.046 32.046-32.046 84.19 0 116.235 15.524 15.524 36.164 24.073 58.118 24.073s42.594-8.55 58.118-24.073c15.502-15.502 24.04-36.142 24.04-58.117s-8.538-42.615-24.04-58.118l-39.515-39.514L90.86 8.71 82.154 0z"/><path fill="#00598E" d="M82.152 17.42l-9.893 9.894-39.516 39.514C5.5 94.07 5.5 138.398 32.744 165.64c13.197 13.2 30.744 20.467 49.407 20.467s36.21-7.268 49.408-20.465c27.242-27.242 27.242-71.57 0-98.812L92.044 27.314 82.15 17.42z"/><path fill="#0077C0" d="M82.152 37.207L42.638 76.72c-21.823 21.824-21.823 57.206 0 79.03 10.91 10.91 25.213 16.366 39.514 16.366 14.3 0 28.603-5.455 39.514-16.367 21.823-21.825 21.823-57.207 0-79.03L82.152 37.207z"/><g opacity=".5"><defs><path id="a" d="M42.638 155.75h84.532v28.29H42.638z"/></defs><clipPath id="b"><use xlink:href="#a" overflow="visible"/></clipPath><path fill="#fff" d="M58.65 169.227l-3.114 6.253-1.154-.575.2-.604c-.674.325-1.232.19-1.787-.085-1.297-.646-1.73-2-1.042-3.378.713-1.43 2.05-1.848 3.346-1.2.517.257.93.663 1.073 1.314l1.18-2.37 1.297.648zm-5.6 2.255c-.316.636-.172 1.333.517 1.676.582.29 1.337.297 1.756-.543.37-.742-.033-1.436-.624-1.73-.665-.33-1.32-.064-1.65.597zm10.092 1.63l1.27.454-1.657 4.65-1.224-.438.134-.61c-.485.38-1.22.33-1.676.18-1.396-.49-2.082-1.753-1.535-3.286.55-1.545 1.937-2.068 3.304-1.56.584.208 1.05.628 1.146 1.13l.24-.52zm-3.333 1.433c-.277.77.107 1.418.785 1.66.763.27 1.444-.152 1.653-.736.237-.67.032-1.434-.777-1.723-.677-.242-1.39.025-1.663.797zm9.032 1.592c-.298-.34-.614-.52-1.052-.625-.456-.11-.73-.002-.786.23-.063.263.144.467.607.59.938.258 2.026.728 1.716 2.05-.178.78-.963 1.474-2.488 1.105-.71-.172-1.405-.484-2.056-1.36l.843-.846c.475.63 1.022.876 1.525 1.008.405.11.766.022.817-.232.054-.225-.066-.448-.712-.626-.885-.257-1.912-.897-1.64-2.023.265-1.087 1.404-1.294 2.443-1.042.738.18 1.286.507 1.686 1.066l-.9.708zm6.33-.352l1.338.186-.672 4.893-1.288-.178.006-.625c-.397.47-1.128.57-1.604.517-1.467-.19-2.396-1.29-2.175-2.902.224-1.623 1.474-2.42 2.916-2.2.614.083 1.156.4 1.354.87l.126-.56zm-2.97 2.084c-.11.81.398 1.365 1.11 1.463.803.11 1.384-.445 1.468-1.06.097-.702-.26-1.407-1.11-1.524-.714-.1-1.356.31-1.467 1.12zm7.214 2.465c-.06 1.077-1.696.986-1.637-.09.06-1.08 1.695-.988 1.635.09zm1.53-1.63c-.036-1.49.998-2.614 2.637-2.653 1.648-.04 2.733 1.034 2.77 2.523.035 1.488-.97 2.593-2.647 2.633-1.67.04-2.725-1.016-2.76-2.504zm3.947-.095c-.015-.62-.41-1.29-1.28-1.27-.86.02-1.222.71-1.207 1.33s.4 1.28 1.27 1.258c.878-.02 1.232-.668 1.217-1.318zm4.205-2.82l.176.52c.27-.496.684-.747 1.23-.813.465-.057.87.035 1.254.3l-.458 1.205c-.26-.14-.517-.19-.814-.154-.615.075-1.093.536-1.003 1.27l.31 2.55-1.43.175-.594-4.892 1.327-.16zm6.046 4.644c.172.454.754.488 1.28.37.587-.13 1.2-.552 1.014-1.392l-.15-.674c-.245.65-.85.926-1.316 1.04-1.443.33-2.705-.414-3.056-1.996-.355-1.602.538-2.794 1.968-3.09.605-.134 1.225.025 1.546.364l-.073-.558 1.367-.303 1.096 4.94c.366 1.65-.726 2.642-2.132 2.954-1.338.295-2.59-.083-2.942-1.347l1.398-.31zm-.822-2.964c.184.83.846 1.134 1.54.98 1.64-.364 1.074-2.913-.567-2.55-.692.156-1.157.74-.973 1.57zm7.705-.222c.32 1.03-1.245 1.518-1.565.486-.32-1.03 1.245-1.515 1.565-.486zm3.56-5.788l.25.653-.882 3.458 2.023-.78.48 1.24-3.89 1.5-.22-.566.915-3.652-1.846.713-.45-1.167 3.62-1.397zm4.887-2.36l1.202-.613 2.242 4.398-1.157.59-.35-.516c-.06.61-.6 1.11-1.02 1.34-1.315.68-2.705.31-3.444-1.14-.744-1.46-.174-2.83 1.136-3.474.553-.28 1.178-.332 1.61-.058l-.216-.53zm-1.247 3.406c.372.73 1.107.895 1.748.568.72-.368.88-1.156.6-1.71-.323-.63-1.02-1.006-1.785-.615-.642.325-.936 1.025-.563 1.755z" clip-path="url(#b)"/></g><path fill="#fa0" d="M82.152 56.992l29.62 29.62c16.335 16.335 16.335 42.91 0 59.244-7.91 7.912-18.43 12.27-29.62 12.27-11.19 0-21.71-4.358-29.62-12.27-16.335-16.333-16.335-42.91 0-59.243l29.62-29.62"/><path fill="#FFCA05" d="M82.152 76.777l19.73 19.73c10.877 10.877 10.877 28.578 0 39.456-5.27 5.27-12.278 8.172-19.73 8.172s-14.46-2.902-19.73-8.172c-10.877-10.878-10.877-28.58 0-39.457l19.73-19.73"/><path fill="#fff" d="M82.152 96.563l9.836 9.836c5.424 5.422 5.424 14.246 0 19.67-3.545 3.545-7.684 4.074-9.836 4.074s-6.29-.53-9.836-4.074c-5.424-5.422-5.424-14.247 0-19.67l9.836-9.837"/><path fill="#00598E" d="M14.056 131.803H150.25l2.404-1.657s-.808-8.058-.705-12.123c-.08-4.473-.568-8.94-1.498-13.337h-136.6c-.93 4.395-1.418 8.862-1.497 13.335.103 4.067-.69 12.124-.69 12.124l2.39 1.66z"/><path fill="#0077C0" d="M153.99 116.235c0-6.752-.94-13.353-2.723-19.672H13.054C9.96 107.5 9.49 119.03 11.666 130.145h140.987c.88-4.533 1.338-9.186 1.338-13.91"/><path d="M29.534 110.298c-.975-1.025-2.674-1.475-4.05-1.475-1.724 0-3.123.725-3.123 1.924 0 1.6 1.526 1.9 3.776 2.1 3.45.3 6.723 1.625 6.723 5.674 0 3.9-3.6 5.6-7.374 5.626-3.024.024-6.173-1.15-7.648-3.6l2.325-2.424c1.35 1.726 3.574 2.475 5.35 2.475 2.073 0 3.498-.824 3.498-2.074.025-1.474-1.15-2.148-3.523-2.35-3.7-.35-6.998-1.273-6.948-5.397.024-3.475 3.323-5.323 6.923-5.323 2.7 0 4.724.6 6.523 2.7l-2.45 2.148zm11.152 8.322v4.95h-3.898v-17.497h8.247c4.475 0 6.7 2.9 6.7 6.273 0 3.5-2.25 6.224-6.7 6.273h-4.35zm0-3.573h4.35c1.874 0 2.8-1.226 2.8-2.625s-.95-2.65-2.8-2.65h-4.35v5.275zM68.834 123.57h-13.32v-17.497h12.97v3.574h-9.147v3.374h8.623v3.427h-8.623v3.524h9.498v3.6zM86.56 120.57h-8.974l-1.274 3h-4.2l7.85-17.497h4.25l7.847 17.496h-4.226l-1.275-3zm-4.475-10.548l-3.024 7.1h6.026l-3-7.1zm27.523-3.848l-7.098 8.397 7.723 8.775v.225h-4.7l-6.472-7.475v7.474h-3.897V106.07h3.9v7.224l5.822-7.224h4.724v.1zm16.952 17.396h-13.322v-17.497h12.972v3.574h-9.148v3.374h8.623v3.427h-8.623v3.524h9.498v3.6zm19.847 0h-4.323l-4.475-5.75h-2.826v5.75h-3.898v-17.497h8.298c4.224 0 6.473 2.824 6.473 5.9-.024 2.273-.7 4.298-4.05 5.497l4.8 5.8v.3zm-11.622-14.147v5.1h4.45c1.8 0 2.573-1.35 2.573-2.45-.025-1.2-.8-2.65-2.624-2.65h-4.4z" fill="#00598E"/><path d="M29.534 109.048c-.975-1.025-2.674-1.475-4.05-1.475-1.724 0-3.123.725-3.123 1.924 0 1.6 1.526 1.9 3.776 2.1 3.45.3 6.723 1.625 6.723 5.674 0 3.9-3.6 5.6-7.374 5.626-3.024.024-6.173-1.15-7.648-3.6l2.325-2.424c1.35 1.726 3.574 2.475 5.35 2.475 2.073 0 3.498-.824 3.498-2.074.025-1.474-1.15-2.148-3.523-2.35-3.7-.35-6.998-1.273-6.948-5.397.024-3.475 3.323-5.323 6.923-5.323 2.7 0 4.724.6 6.523 2.7l-2.45 2.148zm11.152 8.322v4.95h-3.898v-17.497h8.247c4.475 0 6.7 2.9 6.7 6.273 0 3.5-2.25 6.224-6.7 6.273h-4.35zm0-3.573h4.35c1.874 0 2.8-1.226 2.8-2.625s-.95-2.65-2.8-2.65h-4.35v5.275zM68.834 122.32h-13.32v-17.497h12.97v3.574h-9.147v3.374h8.623v3.427h-8.623v3.524h9.498v3.6zM86.56 119.32h-8.974l-1.274 3h-4.2l7.85-17.497h4.25l7.847 17.496h-4.226l-1.275-3zm-4.475-10.548l-3.024 7.1h6.026l-3-7.1zm27.523-3.848l-7.098 8.397 7.723 8.775v.225h-4.7l-6.472-7.475v7.474h-3.897V104.82h3.9v7.224l5.822-7.224h4.724v.1zm16.952 17.396h-13.322v-17.497h12.972v3.574h-9.148v3.374h8.623v3.427h-8.623v3.524h9.498v3.6zm19.847 0h-4.323l-4.475-5.75h-2.826v5.75h-3.898v-17.497h8.298c4.224 0 6.473 2.824 6.473 5.9-.024 2.273-.7 4.298-4.05 5.497l4.8 5.8v.3zm-11.622-14.147v5.1h4.45c1.8 0 2.573-1.35 2.573-2.45-.025-1.2-.8-2.65-2.624-2.65h-4.4z" fill="#fff"/></svg>