<svg xmlns="http://www.w3.org/2000/svg" height="198.42" viewBox="0 0 164.31 198.425" width="164.31" version="1" xmlns:xlink="http://www.w3.org/1999/xlink" enable-background="new 0 0 164.31 198.425"><path d="M82.153 0l-8.71 8.71-9.893 9.893-39.516 39.514c-32.046 32.046-32.046 84.19 0 116.24 15.524 15.524 36.164 24.073 58.118 24.073s42.593-8.55 58.117-24.073c15.5-15.502 24.04-36.142 24.04-58.117s-8.54-42.615-24.04-58.118l-39.516-39.514-9.892-9.892L82.148 0z" fill="#fff"/><path d="M82.152 17.42l-9.893 9.894-39.516 39.514C5.5 94.07 5.5 138.398 32.744 165.64c13.197 13.2 30.744 20.467 49.407 20.467s36.21-7.268 49.408-20.465c27.242-27.242 27.242-71.57 0-98.812L92.043 27.315l-9.893-9.893z" fill="#00598E"/><path d="M82.152 37.207L42.638 76.72c-21.823 21.824-21.823 57.206 0 79.03 10.91 10.91 25.213 16.366 39.514 16.366s28.603-5.455 39.514-16.367c21.823-21.825 21.823-57.207 0-79.03L82.148 37.206z" fill="#0077C0"/><g opacity=".5"><defs><path id="a" d="M42.638 155.75h84.532v28.29H42.638z"/></defs><clipPath id="b"><use overflow="visible" xlink:href="#a"/></clipPath><path d="M58.65 169.23l-3.114 6.252-1.154-.574.2-.604c-.674.322-1.232.19-1.787-.086-1.297-.646-1.73-2-1.042-3.38.713-1.43 2.05-1.847 3.346-1.2.517.258.93.664 1.073 1.316l1.18-2.37 1.297.64zm-5.6 2.25c-.316.635-.172 1.332.517 1.676.582.29 1.337.297 1.756-.543.37-.742-.033-1.436-.624-1.73-.665-.33-1.32-.07-1.65.59zm10.092 1.63l1.27.453c-.55 1.545-1.106 3.107-1.657 4.65l-1.224-.437.135-.61c-.485.38-1.22.33-1.676.178-1.397-.487-2.083-1.75-1.536-3.285.55-1.546 1.937-2.07 3.305-1.56.582.206 1.05.626 1.145 1.13l.238-.52zm-3.333 1.43c-.277.77.11 1.42.786 1.66.763.272 1.444-.153 1.652-.737.237-.668.032-1.432-.777-1.72-.677-.23-1.39.03-1.663.8zm9.03 1.6c-.296-.34-.612-.52-1.05-.625-.456-.11-.73-.002-.786.23-.063.264.144.467.607.59.938.258 2.026.728 1.716 2.052-.18.778-.963 1.472-2.488 1.103-.71-.172-1.404-.484-2.057-1.36l.844-.846c.475.63 1.022.874 1.525 1.007.404.11.765.023.816-.23.054-.225-.066-.45-.713-.627-.884-.255-1.91-.896-1.64-2.022.266-1.086 1.405-1.293 2.444-1.04.74.18 1.286.506 1.686 1.065l-.9.7zm6.333-.35l1.336.184-.674 4.892-1.287-.177.004-.627c-.397.47-1.127.57-1.604.517-1.465-.19-2.395-1.287-2.173-2.9.223-1.625 1.473-2.422 2.916-2.203.614.085 1.156.4 1.353.872l.127-.56zm-2.97 2.08c-.11.812.397 1.366 1.11 1.464.802.11 1.383-.445 1.467-1.06.096-.702-.26-1.408-1.112-1.525-.712-.09-1.353.32-1.465 1.13zm7.213 2.47c-.06 1.077-1.696.987-1.637-.09.06-1.08 1.695-.99 1.635.09zm1.53-1.64c-.036-1.49.997-2.613 2.636-2.652 1.648-.04 2.733 1.034 2.77 2.523.034 1.49-.968 2.595-2.647 2.635-1.668.05-2.723-1.01-2.76-2.5zm3.947-.09c-.015-.62-.41-1.29-1.28-1.27-.858.02-1.223.71-1.208 1.328.016.62.4 1.28 1.27 1.26.878-.02 1.233-.67 1.218-1.32zm4.207-2.82l.173.522c.273-.497.686-.748 1.23-.814.467-.057.87.035 1.256.3l-.46 1.205c-.26-.14-.517-.19-.815-.154-.615.073-1.092.534-1.002 1.27l.31 2.55-1.43.173-.595-4.892 1.33-.16zm6.044 4.64c.172.454.754.488 1.28.37.587-.13 1.2-.552 1.014-1.392l-.15-.674c-.245.65-.85.926-1.316 1.04-1.443.33-2.705-.414-3.056-1.996-.355-1.602.538-2.794 1.968-3.09.605-.134 1.225.025 1.546.364l-.073-.558 1.367-.303 1.096 4.943c.366 1.65-.726 2.64-2.132 2.953-1.338.297-2.59-.08-2.942-1.345l1.398-.31zm-.82-2.96c.183.83.845 1.134 1.538.98 1.64-.364 1.075-2.913-.566-2.55-.693.16-1.158.74-.973 1.57zm7.706-.22c.32 1.03-1.244 1.518-1.564.486-.33-1.04 1.24-1.52 1.56-.49zm3.56-5.79l.253.654-.884 3.458 2.02-.78.48 1.24-3.89 1.5-.22-.568.917-3.653-1.846.715-.45-1.167 3.63-1.39zm4.88-2.36l1.2-.612c.747 1.46 1.5 2.94 2.243 4.398l-1.156.59-.354-.516c-.057.613-.598 1.113-1.02 1.34-1.314.682-2.702.313-3.442-1.14-.742-1.46-.172-2.827 1.137-3.472.553-.28 1.178-.332 1.61-.058l-.22-.53zm-1.24 3.41c.373.73 1.107.895 1.748.568.723-.368.88-1.156.6-1.71-.322-.63-1.018-1.006-1.783-.615-.65.33-.94 1.03-.57 1.76z" fill="#fff" clip-path="url(#b)"/></g><path d="M82.152 56.992l29.62 29.62c16.335 16.335 16.335 42.91 0 59.244-7.91 7.912-18.43 12.27-29.62 12.27s-21.71-4.358-29.62-12.27c-16.335-16.333-16.335-42.91 0-59.243l29.623-29.625" fill="#2CC3EB"/><path d="M82.152 76.777l19.73 19.73c10.877 10.877 10.877 28.578 0 39.456-5.27 5.27-12.278 8.172-19.73 8.172s-14.46-2.902-19.73-8.172c-10.877-10.878-10.877-28.58 0-39.457l19.73-19.726" fill="#9EDCF1"/><path d="M82.152 96.563l9.836 9.836c5.424 5.422 5.424 14.246 0 19.67-3.545 3.545-7.684 4.074-9.836 4.074s-6.29-.53-9.836-4.074c-5.424-5.422-5.424-14.247 0-19.67l9.836-9.838" fill="#fff"/><path d="M14.056 131.8h136.19l2.405-1.657s-.806-8.058-.703-12.123c-.08-4.473-.566-8.94-1.496-13.337H13.84c-.93 4.395-1.417 8.862-1.496 13.335.103 4.065-.69 12.122-.69 12.122l2.392 1.66z" fill="#00598E"/><path d="M153.99 116.24c0-6.752-.94-13.353-2.724-19.672H13.046c-3.094 10.938-3.564 22.468-1.388 33.582h140.99c.88-4.54 1.34-9.19 1.34-13.91" fill="#0077C0"/><path d="M29.535 110.3c-.975-1.025-2.674-1.475-4.05-1.475-1.724 0-3.124.725-3.124 1.924 0 1.6 1.527 1.9 3.776 2.1 3.45.3 6.723 1.623 6.723 5.672 0 3.9-3.6 5.6-7.374 5.624-3.024.024-6.173-1.15-7.648-3.6l2.325-2.424c1.35 1.725 3.574 2.474 5.35 2.474 2.074 0 3.498-.824 3.498-2.074.026-1.475-1.15-2.15-3.523-2.35-3.7-.35-7-1.274-6.948-5.398.024-3.475 3.323-5.323 6.922-5.323 2.7 0 4.725.6 6.524 2.7l-2.45 2.16zm11.15 8.32v4.95h-3.9v-17.497h8.25c4.474 0 6.7 2.9 6.7 6.273 0 3.5-2.25 6.224-6.7 6.273h-4.35zm0-3.57h4.35c1.875 0 2.8-1.226 2.8-2.625s-.95-2.65-2.8-2.65h-4.35v5.28zM68.835 123.57H55.513v-17.496h12.972v3.574h-9.148v3.374h8.623v3.425h-8.623v3.524h9.498v3.61zM86.56 120.57h-8.973l-1.274 3h-4.2l7.85-17.497h4.248l7.85 17.496h-4.224l-1.276-3zm-4.475-10.55l-3.024 7.1h6.025l-3-7.1zm27.495-3.85l-7.098 8.397 7.723 8.773v.225h-4.698l-6.474-7.474v7.476h-3.9V106.07h3.9v7.223l5.823-7.224h4.724v.11zm16.95 17.4h-13.322v-17.496h12.972v3.574h-9.147v3.374h8.623v3.425h-8.623v3.524h9.498v3.61zm19.85 0h-4.324l-4.474-5.75h-2.824v5.75h-3.9v-17.496h8.3c4.224 0 6.473 2.824 6.473 5.9-.022 2.273-.697 4.298-4.047 5.497l4.8 5.8v.3zm-11.62-14.15v5.1h4.45c1.798 0 2.573-1.35 2.573-2.45-.025-1.2-.8-2.65-2.625-2.65h-4.4z" fill="#00598E"/><path d="M29.535 109.05c-.975-1.025-2.674-1.475-4.05-1.475-1.724 0-3.124.725-3.124 1.924 0 1.6 1.527 1.9 3.776 2.1 3.45.3 6.723 1.623 6.723 5.672 0 3.9-3.6 5.6-7.374 5.624-3.024.024-6.173-1.15-7.648-3.6l2.325-2.424c1.35 1.725 3.574 2.474 5.35 2.474 2.074 0 3.498-.824 3.498-2.074.026-1.475-1.15-2.15-3.523-2.35-3.7-.35-7-1.274-6.948-5.398.024-3.475 3.323-5.323 6.922-5.323 2.7 0 4.725.6 6.524 2.7l-2.45 2.15zm11.15 8.32v4.95h-3.9v-17.497h8.25c4.474 0 6.7 2.9 6.7 6.273 0 3.5-2.25 6.224-6.7 6.273h-4.35zm0-3.57h4.35c1.875 0 2.8-1.226 2.8-2.625s-.95-2.65-2.8-2.65h-4.35v5.27zM68.835 122.32H55.513v-17.496h12.972v3.574h-9.148v3.374h8.623v3.425h-8.623v3.524h9.498v3.62zM86.56 119.32h-8.973l-1.274 3h-4.2l7.85-17.497h4.248l7.85 17.496h-4.224l-1.276-3zm-4.475-10.55l-3.024 7.1h6.025l-3-7.1zm27.495-3.85l-7.098 8.397 7.723 8.773v.225h-4.698l-6.474-7.474v7.476h-3.9V104.82h3.9v7.223l5.823-7.224h4.724v.1zm16.95 17.4h-13.322v-17.496h12.972v3.574h-9.147v3.374h8.623v3.425h-8.623v3.524h9.498v3.62zm19.85 0h-4.324l-4.474-5.75h-2.824v5.75h-3.9v-17.496h8.3c4.224 0 6.473 2.824 6.473 5.9-.022 2.273-.697 4.298-4.047 5.497l4.8 5.8v.3zm-11.62-14.15v5.1h4.45c1.798 0 2.573-1.35 2.573-2.45-.025-1.2-.8-2.65-2.625-2.65h-4.4z" fill="#fff"/></svg>